<?xml version="1.0" encoding="utf-8" standalone="no"?>
<!DOCTYPE svg PUBLIC "-//W3C//DTD SVG 1.1//EN"
  "http://www.w3.org/Graphics/SVG/1.1/DTD/svg11.dtd">
<!-- Created with matplotlib (http://matplotlib.org/) -->
<svg height="432pt" version="1.1" viewBox="0 0 576 432" width="576pt" xmlns="http://www.w3.org/2000/svg" xmlns:xlink="http://www.w3.org/1999/xlink">
 <defs>
  <style type="text/css">
*{stroke-linecap:butt;stroke-linejoin:round;stroke-miterlimit:100000;}
  </style>
 </defs>
 <g id="figure_1">
  <g id="patch_1">
   <path d="M 0 432 
L 576 432 
L 576 0 
L 0 0 
z
" style="fill:#ffffff;"/>
  </g>
  <g id="axes_1">
   <g id="patch_2">
    <path d="M 72 388.8 
L 518.4 388.8 
L 518.4 43.2 
L 72 43.2 
z
" style="fill:#ffffff;"/>
   </g>
   <g id="line2d_1">
    <path clip-path="url(#p96750710a2)" d="M 113.451428 211.943866 
L 113.451428 211.890728 
L 113.451428 211.890728 
L 113.451428 211.890728 
L 113.451428 212.256487 
L 113.451428 211.894584 
L 113.451428 211.894584 
L 113.451428 211.770453 
L 113.451428 211.770453 
L 113.451428 211.770453 
L 113.451428 212.369563 
L 113.451428 211.941128 
L 113.451428 211.941128 
L 113.451428 210.830693 
L 113.451428 210.830693 
L 113.451428 210.830693 
L 113.451428 212.327239 
L 113.451428 211.949967 
L 116.64 211.864561 
L 116.64 212.302833 
L 116.64 212.039631 
L 116.64 212.039631 
L 116.64 211.768736 
L 116.64 211.768736 
L 116.64 211.768736 
L 116.64 212.29723 
L 116.64 212.088776 
L 116.64 212.088776 
L 116.64 211.716135 
L 116.64 212.086324 
L 116.64 212.086324 
L 116.64 212.194965 
L 116.64 212.194965 
L 116.64 212.194965 
L 116.64 211.815129 
L 116.64 212.101758 
L 116.64 212.101758 
L 116.64 212.311102 
L 116.64 212.311102 
L 116.64 212.311102 
L 116.64 211.846023 
L 116.64 212.02256 
L 116.64 212.02256 
L 116.64 212.337142 
L 116.64 212.165834 
L 116.64 212.165834 
L 116.64 211.912622 
L 116.64 212.077845 
L 116.64 212.077845 
L 116.64 212.182916 
L 116.64 212.182916 
L 116.64 212.182916 
L 116.64 211.788149 
L 116.64 211.998049 
L 116.64 211.998049 
L 116.64 212.2002 
L 116.64 212.09118 
L 116.64 212.09118 
L 116.64 211.91285 
L 116.64 212.061211 
L 116.64 212.061211 
L 116.64 212.178967 
L 116.64 212.133143 
L 116.64 212.133143 
L 116.64 211.834505 
L 116.64 211.871884 
L 116.64 211.871884 
L 116.64 212.137646 
L 116.64 212.11026 
L 116.64 212.11026 
L 116.64 211.792688 
L 116.64 211.792688 
L 116.64 211.792688 
L 116.64 212.268278 
L 116.64 212.268278 
L 116.64 212.268278 
L 116.64 211.702599 
L 116.64 212.04815 
L 116.64 212.04815 
L 116.64 212.301428 
L 116.64 212.111873 
L 116.64 212.111873 
L 116.64 211.871743 
L 116.64 211.871743 
L 116.64 211.871743 
L 116.64 212.243363 
L 116.64 211.952215 
L 116.64 211.952215 
L 116.64 211.852762 
L 116.64 211.852762 
L 116.64 211.852762 
L 116.64 212.101581 
L 116.64 212.101581 
L 116.64 212.101581 
L 116.64 211.819164 
L 116.64 211.819164 
L 116.64 211.819164 
L 116.64 212.381141 
L 116.64 212.076641 
L 119.828571 212.187937 
L 119.828571 211.874014 
L 119.828571 212.042408 
L 119.828571 212.042408 
L 119.828571 212.246304 
L 119.828571 212.112903 
L 119.828571 212.112903 
L 119.828571 211.902842 
L 119.828571 211.997204 
L 119.828571 211.997204 
L 119.828571 212.306298 
L 119.828571 212.001553 
L 119.828571 212.001553 
L 119.828571 211.747685 
L 119.828571 211.747685 
L 119.828571 211.747685 
L 119.828571 212.211942 
L 119.828571 212.023201 
L 119.828571 212.023201 
L 119.828571 211.718096 
L 119.828571 211.718096 
L 119.828571 211.718096 
L 119.828571 212.308679 
L 119.828571 211.861264 
L 119.828571 211.861264 
L 119.828571 211.672524 
L 119.828571 211.672524 
L 119.828571 211.672524 
L 119.828571 212.359906 
L 119.828571 212.081584 
L 119.828571 212.081584 
L 119.828571 211.571287 
L 119.828571 211.794342 
L 119.828571 211.794342 
L 119.828571 212.22845 
L 119.828571 212.195834 
L 119.828571 212.195834 
L 119.828571 211.695661 
L 119.828571 211.695661 
L 119.828571 211.695661 
L 119.828571 212.208253 
L 119.828571 212.065789 
L 119.828571 212.065789 
L 119.828571 211.675949 
L 119.828571 211.849045 
L 119.828571 211.849045 
L 119.828571 212.185438 
L 119.828571 211.97769 
L 119.828571 211.97769 
L 119.828571 211.833644 
L 119.828571 211.955464 
L 119.828571 211.955464 
L 119.828571 212.147692 
L 119.828571 211.987103 
L 119.828571 211.987103 
L 119.828571 211.789802 
L 119.828571 211.789802 
L 119.828571 211.789802 
L 119.828571 212.387972 
L 119.828571 212.22938 
L 123.017143 212.169559 
L 123.017143 211.982917 
L 123.017143 211.982917 
L 123.017143 211.982917 
L 123.017143 212.330502 
L 123.017143 212.032128 
L 123.017143 212.032128 
L 123.017143 211.813914 
L 123.017143 211.97894 
L 123.017143 211.97894 
L 123.017143 212.062938 
L 123.017143 212.062938 
L 123.017143 212.062938 
L 123.017143 211.823169 
L 123.017143 211.987488 
L 123.017143 211.987488 
L 123.017143 212.164913 
L 123.017143 212.164913 
L 123.017143 212.164913 
L 123.017143 211.802401 
L 123.017143 211.983033 
L 123.017143 211.983033 
L 123.017143 212.218876 
L 123.017143 212.218876 
L 123.017143 212.218876 
L 123.017143 211.944374 
L 123.017143 212.182701 
L 123.017143 212.182701 
L 123.017143 212.4126 
L 123.017143 212.4126 
L 123.017143 212.4126 
L 123.017143 211.93587 
L 123.017143 211.950897 
L 123.017143 211.950897 
L 123.017143 212.487826 
L 123.017143 212.017789 
L 123.017143 212.017789 
L 123.017143 211.827658 
L 123.017143 211.851323 
L 123.017143 211.851323 
L 123.017143 212.257305 
L 123.017143 212.241265 
L 123.017143 212.241265 
L 123.017143 211.801058 
L 123.017143 211.968046 
L 123.017143 211.968046 
L 123.017143 212.342463 
L 123.017143 212.153832 
L 123.017143 212.153832 
L 123.017143 211.788935 
L 123.017143 211.959483 
L 123.017143 211.959483 
L 123.017143 212.2212 
L 123.017143 212.2212 
L 123.017143 212.2212 
L 123.017143 211.794607 
L 123.017143 211.821071 
L 123.017143 211.821071 
L 123.017143 212.29234 
L 123.017143 212.100079 
L 123.017143 212.100079 
L 123.017143 211.806404 
L 123.017143 211.954159 
L 123.017143 211.954159 
L 123.017143 212.118754 
L 123.017143 212.069025 
L 123.017143 212.069025 
L 123.017143 211.888119 
L 123.017143 211.888119 
L 123.017143 211.888119 
L 123.017143 212.28707 
L 123.017143 211.999476 
L 123.017143 211.999476 
L 123.017143 211.870174 
L 123.017143 211.881881 
L 123.017143 211.881881 
L 123.017143 212.373891 
L 123.017143 212.220848 
L 123.017143 212.220848 
L 123.017143 211.881053 
L 123.017143 212.009788 
L 123.017143 212.009788 
L 123.017143 212.28583 
L 123.017143 212.28583 
L 123.017143 212.28583 
L 123.017143 211.821956 
L 123.017143 211.821956 
L 123.017143 211.821956 
L 123.017143 212.355962 
L 123.017143 212.176666 
L 123.017143 212.176666 
L 123.017143 211.787749 
L 123.017143 211.797345 
L 123.017143 211.797345 
L 123.017143 212.25243 
L 123.017143 211.945592 
L 123.017143 211.945592 
L 123.017143 211.791739 
L 123.017143 211.902658 
L 123.017143 211.902658 
L 123.017143 212.294314 
L 123.017143 212.294314 
L 123.017143 212.294314 
L 123.017143 211.804961 
L 123.017143 212.082214 
L 126.205714 211.875985 
L 126.205714 212.277411 
L 126.205714 212.144134 
L 126.205714 212.144134 
L 126.205714 211.874663 
L 126.205714 211.878944 
L 126.205714 211.878944 
L 126.205714 212.330936 
L 126.205714 212.040451 
L 126.205714 212.040451 
L 126.205714 211.866003 
L 126.205714 212.00602 
L 126.205714 212.00602 
L 126.205714 212.214161 
L 126.205714 212.214161 
L 126.205714 212.214161 
L 126.205714 211.882778 
L 126.205714 212.129083 
L 126.205714 212.129083 
L 126.205714 212.316981 
L 126.205714 212.316981 
L 126.205714 212.316981 
L 126.205714 211.769327 
L 126.205714 212.103265 
L 126.205714 212.103265 
L 126.205714 212.337563 
L 126.205714 212.337563 
L 126.205714 212.337563 
L 126.205714 211.931935 
L 126.205714 212.082448 
L 126.205714 212.082448 
L 126.205714 212.368422 
L 126.205714 212.368422 
L 126.205714 212.368422 
L 126.205714 211.582152 
L 126.205714 212.194173 
L 129.394286 212.061985 
L 129.394286 211.862844 
L 129.394286 211.862844 
L 129.394286 211.862844 
L 129.394286 212.337403 
L 129.394286 212.261752 
L 129.394286 212.261752 
L 129.394286 211.811341 
L 129.394286 212.149456 
L 129.394286 212.149456 
L 129.394286 212.262316 
L 129.394286 212.262316 
L 129.394286 212.262316 
L 129.394286 211.786699 
L 129.394286 211.94417 
L 129.394286 211.94417 
L 129.394286 212.268314 
L 129.394286 212.268314 
L 129.394286 212.268314 
L 129.394286 211.815568 
L 129.394286 212.120017 
L 129.394286 212.120017 
L 129.394286 212.278581 
L 129.394286 212.278581 
L 129.394286 212.278581 
L 129.394286 211.743247 
L 129.394286 212.149814 
L 129.394286 212.149814 
L 129.394286 212.320045 
L 129.394286 212.320045 
L 129.394286 212.320045 
L 129.394286 211.838401 
L 129.394286 211.955139 
L 129.394286 211.955139 
L 129.394286 212.35655 
L 129.394286 212.038905 
L 129.394286 212.038905 
L 129.394286 211.876802 
L 129.394286 211.965168 
L 129.394286 211.965168 
L 129.394286 212.071262 
L 129.394286 212.071262 
L 129.394286 212.071262 
L 129.394286 211.798625 
L 129.394286 212.021597 
L 129.394286 212.021597 
L 129.394286 212.149664 
L 129.394286 212.149664 
L 129.394286 212.149664 
L 129.394286 211.779738 
L 129.394286 211.779738 
L 129.394286 211.779738 
L 129.394286 212.220859 
L 129.394286 211.968669 
L 129.394286 211.968669 
L 129.394286 211.745734 
L 129.394286 211.902313 
L 129.394286 211.902313 
L 129.394286 212.121178 
L 129.394286 212.121178 
L 129.394286 212.121178 
L 129.394286 211.856349 
L 129.394286 211.856349 
L 129.394286 211.856349 
L 129.394286 212.33391 
L 129.394286 212.076499 
L 129.394286 212.076499 
L 129.394286 211.822292 
L 129.394286 211.822292 
L 129.394286 211.822292 
L 129.394286 212.23792 
L 129.394286 212.065501 
L 129.394286 212.065501 
L 129.394286 211.811051 
L 129.394286 212.045769 
L 129.394286 212.045769 
L 129.394286 212.199556 
L 129.394286 212.199556 
L 129.394286 212.199556 
L 129.394286 211.767631 
L 129.394286 212.114081 
L 129.394286 212.114081 
L 129.394286 212.254246 
L 129.394286 212.254246 
L 129.394286 212.254246 
L 129.394286 211.787482 
L 129.394286 211.88631 
L 132.582857 211.663286 
L 132.582857 212.414905 
L 132.582857 212.011485 
L 135.771429 212.026243 
L 135.771429 212.155804 
L 135.771429 212.155804 
L 135.771429 212.155804 
L 135.771429 211.690451 
L 135.771429 211.934232 
L 135.771429 211.934232 
L 135.771429 212.368237 
L 135.771429 212.005015 
L 135.771429 212.005015 
L 135.771429 211.931397 
L 135.771429 211.931397 
L 135.771429 211.931397 
L 135.771429 212.197898 
L 135.771429 212.197898 
L 135.771429 212.197898 
L 135.771429 211.771052 
L 135.771429 212.097596 
L 135.771429 212.097596 
L 135.771429 212.29301 
L 135.771429 212.114249 
L 135.771429 212.114249 
L 135.771429 211.900954 
L 135.771429 211.937362 
L 135.771429 211.937362 
L 135.771429 212.138708 
L 135.771429 212.014253 
L 135.771429 212.014253 
L 135.771429 211.909124 
L 135.771429 211.909124 
L 135.771429 211.909124 
L 135.771429 212.239801 
L 135.771429 212.150076 
L 135.771429 212.150076 
L 135.771429 211.801243 
L 135.771429 211.801243 
L 135.771429 211.801243 
L 135.771429 212.399954 
L 135.771429 212.123822 
L 135.771429 212.123822 
L 135.771429 211.778696 
L 135.771429 212.085419 
L 135.771429 212.085419 
L 135.771429 212.160125 
L 135.771429 212.160125 
L 135.771429 212.160125 
L 135.771429 211.863511 
L 135.771429 211.969938 
L 135.771429 211.969938 
L 135.771429 212.173012 
L 135.771429 212.015807 
L 135.771429 212.015807 
L 135.771429 211.822749 
L 135.771429 211.822749 
L 135.771429 211.822749 
L 135.771429 212.290198 
L 135.771429 212.290198 
L 135.771429 212.290198 
L 135.771429 211.7415 
L 135.771429 212.08075 
L 135.771429 212.08075 
L 135.771429 212.326527 
L 135.771429 212.326527 
L 135.771429 212.326527 
L 135.771429 211.803354 
L 135.771429 211.957251 
L 138.96 211.926328 
L 138.96 211.99386 
L 138.96 212.327925 
L 138.96 212.327925 
L 138.96 212.327925 
L 138.96 211.689703 
L 138.96 211.89287 
L 138.96 211.89287 
L 138.96 212.358439 
L 138.96 211.982573 
L 138.96 211.982573 
L 138.96 211.885059 
L 138.96 211.885059 
L 138.96 211.885059 
L 138.96 212.145466 
L 138.96 212.145466 
L 138.96 212.145466 
L 138.96 211.775464 
L 138.96 211.992595 
L 138.96 211.992595 
L 138.96 212.291726 
L 138.96 212.141199 
L 138.96 212.141199 
L 138.96 211.8846 
L 138.96 211.909827 
L 138.96 211.909827 
L 138.96 212.419567 
L 138.96 212.166292 
L 138.96 212.166292 
L 138.96 211.861615 
L 138.96 212.057158 
L 138.96 212.057158 
L 138.96 212.174221 
L 138.96 212.174221 
L 138.96 212.174221 
L 138.96 211.818377 
L 138.96 211.897338 
L 138.96 211.897338 
L 138.96 212.297512 
L 138.96 212.064985 
L 138.96 212.064985 
L 138.96 211.896063 
L 138.96 211.936773 
L 138.96 211.936773 
L 138.96 212.17946 
L 138.96 212.15824 
L 138.96 212.15824 
L 138.96 211.818732 
L 138.96 212.041046 
L 138.96 212.041046 
L 138.96 212.19302 
L 138.96 212.19302 
L 138.96 212.19302 
L 138.96 211.967166 
L 138.96 211.967166 
L 138.96 211.967166 
L 138.96 212.302337 
L 138.96 212.057058 
L 138.96 212.057058 
L 138.96 211.813323 
L 138.96 211.813323 
L 138.96 211.813323 
L 138.96 212.34963 
L 138.96 212.34963 
L 138.96 212.34963 
L 138.96 211.785782 
L 138.96 211.959605 
L 138.96 211.959605 
L 138.96 212.519056 
L 138.96 212.066167 
L 138.96 212.066167 
L 138.96 211.939771 
L 138.96 211.939771 
L 138.96 211.939771 
L 138.96 212.269976 
L 138.96 212.2377 
L 138.96 212.2377 
L 138.96 211.822387 
L 138.96 211.981656 
L 138.96 211.981656 
L 138.96 212.245803 
L 138.96 212.132344 
L 138.96 212.132344 
L 138.96 211.968883 
L 138.96 211.968883 
L 138.96 211.968883 
L 138.96 212.339407 
L 138.96 212.063586 
L 138.96 212.063586 
L 138.96 211.809755 
L 138.96 212.041625 
L 138.96 212.041625 
L 138.96 212.137009 
L 138.96 212.137009 
L 138.96 212.137009 
L 138.96 211.955518 
L 138.96 211.955518 
L 138.96 211.955518 
L 138.96 212.189083 
L 138.96 211.975714 
L 138.96 211.975714 
L 138.96 211.613282 
L 138.96 211.613282 
L 138.96 211.613282 
L 138.96 212.204565 
L 138.96 212.031908 
L 142.148571 211.90031 
L 142.148571 212.197504 
L 142.148571 212.197504 
L 142.148571 212.197504 
L 142.148571 211.798173 
L 142.148571 211.904467 
L 142.148571 211.904467 
L 142.148571 212.333346 
L 142.148571 212.099577 
L 142.148571 212.099577 
L 142.148571 211.878115 
L 142.148571 212.078387 
L 142.148571 212.078387 
L 142.148571 212.327231 
L 142.148571 212.170105 
L 142.148571 212.170105 
L 142.148571 211.935196 
L 142.148571 212.120081 
L 142.148571 212.120081 
L 142.148571 212.193449 
L 142.148571 212.193449 
L 142.148571 212.193449 
L 142.148571 211.788547 
L 142.148571 212.002678 
L 142.148571 212.002678 
L 142.148571 212.365976 
L 142.148571 212.012155 
L 142.148571 212.012155 
L 142.148571 211.799242 
L 142.148571 211.799242 
L 142.148571 211.799242 
L 142.148571 212.337344 
L 142.148571 212.005067 
L 142.148571 212.005067 
L 142.148571 211.799 
L 142.148571 211.799 
L 142.148571 211.799 
L 142.148571 212.326423 
L 142.148571 212.038708 
L 142.148571 212.038708 
L 142.148571 211.685918 
L 142.148571 211.927494 
L 142.148571 211.927494 
L 142.148571 212.117577 
L 142.148571 212.117577 
L 142.148571 212.117577 
L 142.148571 211.856218 
L 142.148571 211.985818 
L 142.148571 211.985818 
L 142.148571 212.166238 
L 142.148571 212.166238 
L 142.148571 212.166238 
L 142.148571 211.936345 
L 142.148571 211.980338 
L 142.148571 211.980338 
L 142.148571 212.195067 
L 142.148571 212.195067 
L 142.148571 212.195067 
L 142.148571 211.866937 
L 142.148571 211.924433 
L 142.148571 211.924433 
L 142.148571 212.259605 
L 142.148571 211.989832 
L 142.148571 211.989832 
L 142.148571 211.840777 
L 142.148571 211.840777 
L 142.148571 211.840777 
L 142.148571 212.382303 
L 142.148571 212.043149 
L 142.148571 212.043149 
L 142.148571 211.761108 
L 142.148571 211.761108 
L 142.148571 211.761108 
L 142.148571 212.147612 
L 142.148571 212.147612 
L 142.148571 212.147612 
L 142.148571 211.745472 
L 142.148571 211.957819 
L 142.148571 211.957819 
L 142.148571 212.267056 
L 142.148571 212.267056 
L 142.148571 212.267056 
L 142.148571 211.814352 
L 142.148571 212.160878 
L 142.148571 212.160878 
L 142.148571 212.27448 
L 142.148571 212.27448 
L 142.148571 212.27448 
L 142.148571 211.927293 
L 142.148571 211.927293 
L 142.148571 211.927293 
L 142.148571 212.396168 
L 142.148571 212.150492 
L 142.148571 212.150492 
L 142.148571 211.849629 
L 142.148571 212.076526 
L 142.148571 212.076526 
L 142.148571 212.170296 
L 142.148571 212.170296 
L 142.148571 212.170296 
L 142.148571 212.04715 
L 142.148571 212.04715 
L 142.148571 212.04715 
L 142.148571 212.189303 
L 142.148571 212.132024 
L 142.148571 212.132024 
L 142.148571 211.948248 
L 142.148571 211.948248 
L 142.148571 211.948248 
L 142.148571 212.158399 
L 142.148571 212.079182 
L 142.148571 212.079182 
L 142.148571 211.824383 
L 142.148571 211.824383 
L 142.148571 211.824383 
L 142.148571 212.281432 
L 142.148571 212.081414 
L 142.148571 212.081414 
L 142.148571 211.742589 
L 142.148571 211.742589 
L 142.148571 211.742589 
L 142.148571 212.218746 
L 142.148571 212.123546 
L 142.148571 212.123546 
L 142.148571 211.727605 
L 142.148571 211.727605 
L 142.148571 211.727605 
L 142.148571 212.192266 
L 142.148571 211.934933 
L 145.337143 212.036027 
L 145.337143 211.792014 
L 145.337143 211.792014 
L 145.337143 211.792014 
L 145.337143 212.301741 
L 145.337143 212.101125 
L 145.337143 212.101125 
L 145.337143 211.687297 
L 145.337143 211.687297 
L 145.337143 211.687297 
L 145.337143 212.443327 
L 145.337143 211.828065 
L 148.525714 211.911357 
L 148.525714 212.26592 
L 148.525714 212.26592 
L 148.525714 212.26592 
L 148.525714 211.73403 
L 148.525714 211.930149 
L 148.525714 211.930149 
L 148.525714 212.343518 
L 148.525714 212.057638 
L 148.525714 212.057638 
L 148.525714 211.798054 
L 148.525714 211.798054 
L 148.525714 211.798054 
L 148.525714 212.292362 
L 148.525714 211.954639 
L 148.525714 211.954639 
L 148.525714 211.755616 
L 148.525714 211.949059 
L 148.525714 211.949059 
L 148.525714 212.093916 
L 148.525714 211.963733 
L 148.525714 211.963733 
L 148.525714 211.855337 
L 148.525714 211.855337 
L 148.525714 211.855337 
L 148.525714 212.22187 
L 148.525714 212.22187 
L 148.525714 212.22187 
L 148.525714 211.793272 
L 148.525714 212.014707 
L 148.525714 212.014707 
L 148.525714 212.249043 
L 148.525714 212.249043 
L 148.525714 212.249043 
L 148.525714 211.761188 
L 148.525714 212.131031 
L 148.525714 212.131031 
L 148.525714 212.265572 
L 148.525714 212.265572 
L 148.525714 212.265572 
L 148.525714 211.762735 
L 148.525714 211.823328 
L 148.525714 211.823328 
L 148.525714 212.3146 
L 148.525714 212.3146 
L 148.525714 212.3146 
L 148.525714 211.726056 
L 148.525714 211.977404 
L 148.525714 211.977404 
L 148.525714 212.3656 
L 148.525714 212.279367 
L 148.525714 212.279367 
L 148.525714 211.910613 
L 148.525714 212.050664 
L 148.525714 212.050664 
L 148.525714 212.281135 
L 148.525714 212.281135 
L 148.525714 212.281135 
L 148.525714 211.886349 
L 148.525714 211.977538 
L 148.525714 211.977538 
L 148.525714 212.35692 
L 148.525714 212.35692 
L 148.525714 212.35692 
L 148.525714 211.691886 
L 148.525714 211.857915 
L 151.714286 212.272929 
L 151.714286 212.10394 
L 151.714286 212.10394 
L 151.714286 212.10394 
L 151.714286 212.304826 
L 151.714286 212.304826 
L 151.714286 212.304826 
L 151.714286 211.715077 
L 151.714286 211.715077 
L 151.714286 211.715077 
L 151.714286 212.32235 
L 151.714286 212.135022 
L 151.714286 212.135022 
L 151.714286 211.648032 
L 151.714286 211.959614 
L 151.714286 211.959614 
L 151.714286 212.313397 
L 151.714286 212.313397 
L 151.714286 212.313397 
L 151.714286 211.776726 
L 151.714286 211.989768 
L 154.902857 211.766117 
L 154.902857 212.370285 
L 154.902857 211.929464 
L 154.902857 211.929464 
L 154.902857 211.736604 
L 154.902857 211.865633 
L 154.902857 211.865633 
L 154.902857 212.000798 
L 154.902857 212.000798 
L 154.902857 212.000798 
L 154.902857 211.7802 
L 154.902857 211.938864 
L 154.902857 211.938864 
L 154.902857 212.166648 
L 154.902857 212.002656 
L 154.902857 212.002656 
L 154.902857 211.815551 
L 154.902857 211.815551 
L 154.902857 211.815551 
L 154.902857 212.291511 
L 154.902857 211.996407 
L 154.902857 211.996407 
L 154.902857 211.759259 
L 154.902857 211.759259 
L 154.902857 211.759259 
L 154.902857 212.282013 
L 154.902857 211.965078 
L 154.902857 211.965078 
L 154.902857 211.757243 
L 154.902857 211.954212 
L 154.902857 211.954212 
L 154.902857 212.30353 
L 154.902857 212.30353 
L 154.902857 212.30353 
L 154.902857 211.890561 
L 154.902857 212.021414 
L 154.902857 212.021414 
L 154.902857 212.343647 
L 154.902857 212.343647 
L 154.902857 212.343647 
L 154.902857 211.746645 
L 154.902857 212.107514 
L 158.091429 211.814562 
L 158.091429 212.306812 
L 158.091429 212.159689 
L 158.091429 212.159689 
L 158.091429 211.777275 
L 158.091429 212.040314 
L 158.091429 212.040314 
L 158.091429 212.206858 
L 158.091429 212.112822 
L 158.091429 212.112822 
L 158.091429 211.867363 
L 158.091429 212.078003 
L 158.091429 212.078003 
L 158.091429 212.234816 
L 158.091429 212.234816 
L 158.091429 212.234816 
L 158.091429 211.884505 
L 158.091429 212.052759 
L 158.091429 212.052759 
L 158.091429 212.243663 
L 158.091429 212.243663 
L 158.091429 212.243663 
L 158.091429 211.78433 
L 158.091429 212.157781 
L 158.091429 212.157781 
L 158.091429 212.253042 
L 158.091429 212.253042 
L 158.091429 212.253042 
L 158.091429 211.847916 
L 158.091429 212.143883 
L 158.091429 212.143883 
L 158.091429 212.256669 
L 158.091429 212.256669 
L 158.091429 212.256669 
L 158.091429 211.740578 
L 158.091429 212.161516 
L 158.091429 212.161516 
L 158.091429 212.270557 
L 158.091429 212.17477 
L 158.091429 212.17477 
L 158.091429 211.780377 
L 158.091429 211.780377 
L 158.091429 211.780377 
L 158.091429 212.406653 
L 158.091429 212.103364 
L 158.091429 212.103364 
L 158.091429 211.772335 
L 158.091429 211.772335 
L 158.091429 211.772335 
L 158.091429 212.175151 
L 158.091429 212.085909 
L 158.091429 212.085909 
L 158.091429 211.712281 
L 158.091429 211.8656 
L 158.091429 211.8656 
L 158.091429 212.182526 
L 158.091429 212.182526 
L 158.091429 212.182526 
L 158.091429 211.740393 
L 158.091429 212.025526 
L 158.091429 212.025526 
L 158.091429 212.200734 
L 158.091429 212.085158 
L 158.091429 212.085158 
L 158.091429 211.887709 
L 158.091429 212.057056 
L 158.091429 212.057056 
L 158.091429 212.233733 
L 158.091429 212.060609 
L 158.091429 212.060609 
L 158.091429 211.887731 
L 158.091429 211.887731 
L 158.091429 211.887731 
L 158.091429 212.170429 
L 158.091429 212.170429 
L 158.091429 212.170429 
L 158.091429 211.769345 
L 158.091429 212.012231 
L 158.091429 212.012231 
L 158.091429 212.294626 
L 158.091429 212.294626 
L 158.091429 212.294626 
L 158.091429 211.819513 
L 161.28 212.121992 
L 161.28 211.812418 
L 161.28 211.812418 
L 161.28 211.812418 
L 161.28 212.169329 
L 161.28 212.169329 
L 161.28 212.169329 
L 161.28 211.806004 
L 161.28 211.955406 
L 161.28 211.955406 
L 161.28 212.327215 
L 161.28 212.016616 
L 161.28 212.016616 
L 161.28 211.750841 
L 161.28 211.750841 
L 161.28 211.750841 
L 161.28 212.266746 
L 161.28 212.101625 
L 161.28 212.101625 
L 161.28 211.73324 
L 161.28 211.982652 
L 161.28 211.982652 
L 161.28 212.181044 
L 161.28 212.106741 
L 161.28 212.106741 
L 161.28 211.929109 
L 161.28 212.090611 
L 161.28 212.090611 
L 161.28 212.172932 
L 161.28 212.172932 
L 161.28 212.172932 
L 161.28 211.930758 
L 161.28 212.06187 
L 161.28 212.06187 
L 161.28 212.324752 
L 161.28 212.142383 
L 161.28 212.142383 
L 161.28 211.740935 
L 161.28 211.914527 
L 161.28 211.914527 
L 161.28 212.299332 
L 161.28 212.129578 
L 161.28 212.129578 
L 161.28 211.903773 
L 161.28 211.903773 
L 161.28 211.903773 
L 161.28 212.223252 
L 161.28 212.03508 
L 161.28 212.03508 
L 161.28 211.896779 
L 161.28 211.896779 
L 161.28 211.896779 
L 161.28 212.240194 
L 161.28 212.087557 
L 161.28 212.087557 
L 161.28 211.896075 
L 161.28 212.014134 
L 161.28 212.014134 
L 161.28 212.098046 
L 161.28 212.098046 
L 161.28 212.098046 
L 161.28 211.804195 
L 161.28 211.804195 
L 161.28 211.804195 
L 161.28 212.120305 
L 161.28 212.020726 
L 161.28 212.020726 
L 161.28 211.689785 
L 161.28 211.689785 
L 161.28 211.689785 
L 161.28 212.36606 
L 161.28 211.945613 
L 161.28 211.945613 
L 161.28 211.623413 
L 161.28 211.628148 
L 161.28 211.628148 
L 161.28 212.239126 
L 161.28 211.909236 
L 161.28 211.909236 
L 161.28 211.50765 
L 161.28 211.828289 
L 161.28 211.828289 
L 161.28 211.941363 
L 161.28 211.881274 
L 161.28 211.881274 
L 161.28 211.657995 
L 161.28 211.737962 
L 161.28 211.737962 
L 161.28 212.97696 
L 161.28 212.073654 
L 161.28 212.073654 
L 161.28 211.391827 
L 161.28 212.006055 
L 161.28 212.006055 
L 161.28 213.077854 
L 161.28 212.601888 
L 161.28 212.601888 
L 161.28 211.321838 
L 161.28 212.34418 
L 161.28 212.34418 
L 161.28 212.728399 
L 161.28 212.539238 
L 161.28 212.539238 
L 161.28 211.564363 
L 161.28 212.064635 
L 164.468572 211.879413 
L 164.468572 212.416405 
L 164.468572 212.065714 
L 164.468572 212.065714 
L 164.468572 211.755207 
L 164.468572 211.935057 
L 164.468572 211.935057 
L 164.468572 212.343197 
L 164.468572 212.075232 
L 164.468572 212.075232 
L 164.468572 211.50503 
L 164.468572 211.916601 
L 164.468572 211.916601 
L 164.468572 212.084205 
L 164.468572 212.084205 
L 164.468572 212.084205 
L 164.468572 211.899342 
L 164.468572 211.899342 
L 164.468572 211.899342 
L 164.468572 212.105512 
L 164.468572 211.924394 
L 164.468572 211.924394 
L 164.468572 211.571685 
L 164.468572 211.860336 
L 164.468572 211.860336 
L 164.468572 212.288453 
L 164.468572 212.286074 
L 164.468572 212.286074 
L 164.468572 211.789486 
L 164.468572 212.160636 
L 164.468572 212.160636 
L 164.468572 212.72112 
L 164.468572 212.467666 
L 164.468572 212.467666 
L 164.468572 211.018435 
L 164.468572 212.376835 
L 164.468572 212.376835 
L 164.468572 213.128503 
L 164.468572 212.882571 
L 164.468572 212.882571 
L 164.468572 211.552549 
L 164.468572 212.717947 
L 164.468572 212.717947 
L 164.468572 213.393343 
L 164.468572 212.895311 
L 164.468572 212.895311 
L 164.468572 211.467415 
L 164.468572 212.64392 
L 164.468572 212.64392 
L 164.468572 213.201981 
L 164.468572 213.080446 
L 164.468572 213.080446 
L 164.468572 210.266357 
L 164.468572 212.98067 
L 164.468572 212.98067 
L 164.468572 213.640405 
L 164.468572 213.068383 
L 164.468572 213.068383 
L 164.468572 211.444495 
L 164.468572 212.431381 
L 164.468572 212.431381 
L 164.468572 213.130256 
L 164.468572 213.130256 
L 164.468572 213.130256 
L 164.468572 210.820482 
L 164.468572 212.391957 
L 164.468572 212.391957 
L 164.468572 213.309488 
L 164.468572 212.82164 
L 164.468572 212.82164 
L 164.468572 210.373874 
L 164.468572 211.74074 
L 164.468572 211.74074 
L 164.468572 213.818698 
L 164.468572 211.761111 
L 164.468572 211.761111 
L 164.468572 210.449396 
L 164.468572 211.704521 
L 164.468572 211.704521 
L 164.468572 213.837692 
L 164.468572 213.445757 
L 164.468572 213.445757 
L 164.468572 211.009379 
L 167.657143 212.730507 
L 167.657143 210.39061 
L 167.657143 212.455136 
L 167.657143 212.455136 
L 167.657143 214.620985 
L 167.657143 213.424696 
L 167.657143 213.424696 
L 167.657143 210.508795 
L 167.657143 211.802998 
L 167.657143 211.802998 
L 167.657143 214.319513 
L 167.657143 211.946381 
L 167.657143 211.946381 
L 167.657143 211.256922 
L 167.657143 211.317459 
L 167.657143 211.317459 
L 167.657143 213.954761 
L 167.657143 211.965638 
L 167.657143 211.965638 
L 167.657143 210.470828 
L 167.657143 211.481563 
L 167.657143 211.481563 
L 167.657143 213.13194 
L 167.657143 212.502699 
L 167.657143 212.502699 
L 167.657143 210.441685 
L 167.657143 211.611282 
L 167.657143 211.611282 
L 167.657143 214.680847 
L 167.657143 212.191666 
L 167.657143 212.191666 
L 167.657143 210.704809 
L 167.657143 211.526362 
L 167.657143 211.526362 
L 167.657143 213.742123 
L 167.657143 211.734195 
L 167.657143 211.734195 
L 167.657143 209.958026 
L 167.657143 211.691341 
L 167.657143 211.691341 
L 167.657143 215.398491 
L 167.657143 212.212981 
L 167.657143 212.212981 
L 167.657143 209.48103 
L 167.657143 212.039844 
L 167.657143 212.039844 
L 167.657143 219.521306 
L 167.657143 212.324478 
L 167.657143 212.324478 
L 167.657143 210.822921 
L 167.657143 211.809743 
L 167.657143 211.809743 
L 167.657143 213.184024 
L 167.657143 211.878634 
L 167.657143 211.878634 
L 167.657143 210.400866 
L 167.657143 210.684235 
L 167.657143 210.684235 
L 167.657143 232.578375 
L 167.657143 232.518503 
L 170.845715 231.171775 
L 170.845715 233.552286 
L 170.845715 231.280986 
L 170.845715 231.280986 
L 170.845715 229.817287 
L 170.845715 229.817287 
L 170.845715 229.817287 
L 170.845715 253.70501 
L 170.845715 233.342484 
L 170.845715 233.342484 
L 170.845715 194.760921 
L 170.845715 233.063506 
L 170.845715 233.063506 
L 170.845715 370.615044 
L 170.845715 336.835648 
L 174.034286 335.034924 
L 174.034286 114.096908 
L 174.034286 220.648701 
L 177.222857 221.178075 
L 177.222857 220.697159 
L 177.222857 220.697159 
L 177.222857 220.697159 
L 177.222857 226.743986 
L 177.222857 221.311003 
L 177.222857 221.311003 
L 177.222857 220.287829 
L 177.222857 220.287829 
L 177.222857 220.287829 
L 177.222857 222.186925 
L 177.222857 222.186925 
L 177.222857 222.186925 
L 177.222857 210.046956 
L 177.222857 217.53291 
L 180.411428 216.333427 
L 180.411428 226.310961 
L 180.411428 216.36271 
L 180.411428 216.36271 
L 180.411428 215.830588 
L 180.411428 215.830588 
L 180.411428 215.830588 
L 180.411428 219.089637 
L 180.411428 217.949072 
L 180.411428 217.949072 
L 180.411428 212.56041 
L 180.411428 217.709741 
L 180.411428 217.709741 
L 180.411428 218.170808 
L 180.411428 218.170808 
L 180.411428 218.170808 
L 180.411428 213.962527 
L 180.411428 216.588794 
L 180.411428 216.588794 
L 180.411428 221.463497 
L 180.411428 219.467443 
L 180.411428 219.467443 
L 180.411428 216.272026 
L 180.411428 217.670843 
L 180.411428 217.670843 
L 180.411428 219.839694 
L 180.411428 219.018286 
L 180.411428 219.018286 
L 180.411428 195.477613 
L 180.411428 197.491591 
L 183.6 195.697071 
L 183.6 220.003049 
L 183.6 196.894586 
L 183.6 196.894586 
L 183.6 195.551909 
L 183.6 195.551909 
L 183.6 195.551909 
L 183.6 197.076214 
L 183.6 196.755812 
L 183.6 196.755812 
L 183.6 178.274746 
L 183.6 194.688767 
L 186.788571 194.269562 
L 186.788571 193.144815 
L 186.788571 193.775886 
L 186.788571 193.775886 
L 186.788571 227.370463 
L 186.788571 219.479516 
L 189.977143 219.375975 
L 189.977143 224.037706 
L 189.977143 219.944125 
L 189.977143 219.944125 
L 189.977143 218.53386 
L 189.977143 218.53386 
L 189.977143 218.53386 
L 189.977143 221.68249 
L 189.977143 220.741917 
L 189.977143 220.741917 
L 189.977143 208.679194 
L 189.977143 220.471693 
L 189.977143 220.471693 
L 189.977143 314.840716 
L 189.977143 259.751032 
L 193.165714 258.867953 
L 193.165714 252.422833 
L 193.165714 257.752229 
L 193.165714 257.752229 
L 193.165714 332.123036 
L 193.165714 283.327257 
L 196.354286 281.667293 
L 196.354286 181.083657 
L 196.354286 204.142079 
L 199.542857 202.194131 
L 199.542857 283.663142 
L 199.542857 203.627547 
L 199.542857 203.627547 
L 199.542857 171.175848 
L 199.542857 176.70024 
L 202.731428 175.236606 
L 202.731428 97.704568 
L 202.731428 174.787083 
L 202.731428 174.787083 
L 202.731428 178.224497 
L 202.731428 175.468412 
L 202.731428 175.468412 
L 202.731428 160.681052 
L 202.731428 174.886819 
L 202.731428 174.886819 
L 202.731428 193.093647 
L 202.731428 186.212352 
L 205.92 185.990269 
L 205.92 186.019743 
L 205.92 172.19589 
L 205.92 184.768066 
L 205.92 184.768066 
L 205.92 186.8549 
L 205.92 186.283039 
L 205.92 186.283039 
L 205.92 183.509835 
L 205.92 185.975195 
L 205.92 185.975195 
L 205.92 186.821733 
L 205.92 186.821733 
L 205.92 186.821733 
L 205.92 185.083312 
L 205.92 186.326059 
L 205.92 186.326059 
L 205.92 186.912599 
L 205.92 186.912599 
L 205.92 186.912599 
L 205.92 132.08959 
L 205.92 145.883247 
L 209.108571 145.172263 
L 209.108571 132.387471 
L 209.108571 144.863492 
L 209.108571 144.863492 
L 209.108571 233.746356 
L 209.108571 200.36337 
L 212.297143 200.083251 
L 212.297143 202.176524 
L 212.297143 200.266628 
L 212.297143 200.266628 
L 212.297143 128.778117 
L 212.297143 144.964028 
L 215.485714 146.01079 
L 215.485714 144.714754 
L 215.485714 144.714754 
L 215.485714 144.714754 
L 215.485714 146.084141 
L 215.485714 145.139644 
L 215.485714 145.139644 
L 215.485714 144.563508 
L 215.485714 144.563508 
L 215.485714 144.563508 
L 215.485714 230.756706 
L 215.485714 167.531067 
L 218.674286 168.543639 
L 218.674286 163.652853 
L 218.674286 168.324653 
L 218.674286 168.324653 
L 218.674286 249.79034 
L 218.674286 243.73189 
L 221.862857 244.04506 
L 221.862857 245.567916 
L 221.862857 245.567916 
L 221.862857 245.567916 
L 221.862857 188.534788 
L 221.862857 228.196231 
L 225.051429 228.104025 
L 225.051429 306.700698 
L 225.051429 229.639595 
L 225.051429 229.639595 
L 225.051429 192.802008 
L 225.051429 211.071899 
L 228.24 212.128932 
L 228.24 211.146539 
L 228.24 212.08934 
L 228.24 212.08934 
L 228.24 214.480978 
L 228.24 213.134436 
L 228.24 213.134436 
L 228.24 210.367886 
L 228.24 210.367886 
L 228.24 210.367886 
L 228.24 224.327199 
L 228.24 211.425108 
L 228.24 211.425108 
L 228.24 187.67635 
L 228.24 209.501962 
L 228.24 209.501962 
L 228.24 264.540507 
L 228.24 263.289196 
L 231.428572 263.193061 
L 231.428572 261.707396 
L 231.428572 261.707396 
L 231.428572 261.707396 
L 231.428572 263.259251 
L 231.428572 262.5904 
L 231.428572 262.5904 
L 231.428572 198.846835 
L 231.428572 243.09654 
L 234.617143 245.465444 
L 234.617143 327.846825 
L 234.617143 245.791581 
L 234.617143 245.791581 
L 234.617143 243.498939 
L 234.617143 243.498939 
L 234.617143 243.498939 
L 234.617143 247.08114 
L 234.617143 243.560342 
L 234.617143 243.560342 
L 234.617143 220.574358 
L 234.617143 229.675153 
L 237.805715 229.78037 
L 237.805715 229.612228 
L 237.805715 229.612228 
L 237.805715 229.612228 
L 237.805715 233.787603 
L 237.805715 233.787603 
L 237.805715 233.787603 
L 237.805715 228.901187 
L 237.805715 233.661797 
L 237.805715 233.661797 
L 237.805715 252.445645 
L 237.805715 234.496447 
L 237.805715 234.496447 
L 237.805715 216.631942 
L 237.805715 233.808691 
L 237.805715 233.808691 
L 237.805715 256.592597 
L 237.805715 233.92119 
L 237.805715 233.92119 
L 237.805715 220.168491 
L 237.805715 231.652619 
L 237.805715 231.652619 
L 237.805715 255.433724 
L 237.805715 232.538363 
L 237.805715 232.538363 
L 237.805715 219.119973 
L 237.805715 231.748593 
L 237.805715 231.748593 
L 237.805715 255.616733 
L 240.994286 256.20393 
L 240.994286 255.751714 
L 240.994286 255.751714 
L 240.994286 255.751714 
L 240.994286 259.872726 
L 240.994286 256.298689 
L 240.994286 256.298689 
L 240.994286 231.966472 
L 240.994286 254.324816 
L 240.994286 254.324816 
L 240.994286 273.63533 
L 240.994286 254.80558 
L 240.994286 254.80558 
L 240.994286 241.503232 
L 240.994286 254.207577 
L 240.994286 254.207577 
L 240.994286 272.319211 
L 240.994286 254.556061 
L 240.994286 254.556061 
L 240.994286 224.504727 
L 240.994286 252.530981 
L 240.994286 252.530981 
L 240.994286 264.111811 
L 240.994286 260.931496 
L 244.182858 261.310924 
L 244.182858 225.149365 
L 244.182858 261.125839 
L 244.182858 261.125839 
L 244.182858 263.610254 
L 244.182858 261.367683 
L 244.182858 261.367683 
L 244.182858 259.938877 
L 244.182858 259.938877 
L 244.182858 259.938877 
L 244.182858 261.906041 
L 244.182858 261.906041 
L 244.182858 261.906041 
L 244.182858 241.742344 
L 244.182858 260.646087 
L 244.182858 260.646087 
L 244.182858 292.817208 
L 244.182858 261.178933 
L 244.182858 261.178933 
L 244.182858 246.791296 
L 244.182858 260.789656 
L 244.182858 260.789656 
L 244.182858 290.213379 
L 244.182858 268.732126 
L 247.371428 267.751048 
L 247.371428 206.203113 
L 247.371428 267.466435 
L 247.371428 267.466435 
L 247.371428 272.001332 
L 247.371428 268.82108 
L 247.371428 268.82108 
L 247.371428 231.766306 
L 250.56 230.420047 
L 250.56 229.749971 
L 250.56 229.749971 
L 250.56 229.749971 
L 250.56 283.290819 
L 250.56 251.79993 
L 253.748571 251.734726 
L 253.748571 266.293225 
L 253.748571 254.615776 
L 253.748571 254.615776 
L 253.748571 221.947474 
L 253.748571 253.655028 
L 253.748571 253.655028 
L 253.748571 262.019403 
L 253.748571 256.245797 
L 253.748571 256.245797 
L 253.748571 220.996345 
L 253.748571 255.806778 
L 253.748571 255.806778 
L 253.748571 268.177526 
L 253.748571 256.621465 
L 253.748571 256.621465 
L 253.748571 231.37621 
L 253.748571 256.169463 
L 253.748571 256.169463 
L 253.748571 274.654303 
L 253.748571 273.653554 
L 256.937143 275.118484 
L 256.937143 274.830522 
L 256.937143 274.830522 
L 256.937143 274.830522 
L 256.937143 278.440728 
L 256.937143 275.145613 
L 256.937143 275.145613 
L 256.937143 238.438537 
L 256.937143 273.723826 
L 256.937143 273.723826 
L 256.937143 275.444946 
L 256.937143 274.493808 
L 256.937143 274.493808 
L 256.937143 203.584656 
L 256.937143 232.916233 
L 260.125714 234.672264 
L 260.125714 274.036017 
L 260.125714 235.178135 
L 260.125714 235.178135 
L 260.125714 222.537634 
L 260.125714 235.112598 
L 260.125714 235.112598 
L 260.125714 245.30188 
L 260.125714 235.991892 
L 260.125714 235.991892 
L 260.125714 194.617697 
L 260.125714 197.079469 
L 263.314286 197.954247 
L 263.314286 199.839128 
L 263.314286 199.839128 
L 263.314286 199.839128 
L 263.314286 196.299082 
L 263.314286 198.714439 
L 263.314286 198.714439 
L 263.314286 230.799771 
L 263.314286 198.96334 
L 263.314286 198.96334 
L 263.314286 192.561298 
L 263.314286 197.790673 
L 263.314286 197.790673 
L 263.314286 218.261796 
L 263.314286 198.874145 
L 263.314286 198.874145 
L 263.314286 189.809975 
L 263.314286 195.183403 
L 263.314286 195.183403 
L 263.314286 236.729295 
L 263.314286 196.985598 
L 263.314286 196.985598 
L 263.314286 190.433083 
L 263.314286 190.639675 
L 266.502857 189.719749 
L 266.502857 189.034706 
L 266.502857 189.321835 
L 266.502857 189.321835 
L 266.502857 189.970195 
L 266.502857 189.970195 
L 266.502857 189.970195 
L 266.502857 135.931677 
L 266.502857 148.324087 
L 269.691428 147.990013 
L 269.691428 145.260388 
L 269.691428 145.981631 
L 269.691428 145.981631 
L 269.691428 204.299745 
L 272.88 203.931837 
L 272.88 202.577951 
L 272.88 203.768234 
L 272.88 203.768234 
L 272.88 204.995603 
L 272.88 204.499495 
L 272.88 204.499495 
L 272.88 203.602385 
L 272.88 204.214439 
L 272.88 204.214439 
L 272.88 214.583513 
L 272.88 204.917398 
L 272.88 204.917398 
L 272.88 184.779333 
L 272.88 202.914012 
L 272.88 202.914012 
L 272.88 205.700582 
L 272.88 202.916423 
L 272.88 202.916423 
L 272.88 199.780227 
L 272.88 199.780227 
L 272.88 199.780227 
L 272.88 206.39502 
L 272.88 200.932282 
L 272.88 200.932282 
L 272.88 196.153892 
L 272.88 196.153892 
L 272.88 196.153892 
L 272.88 201.338198 
L 272.88 201.338198 
L 272.88 201.338198 
L 272.88 174.05461 
L 272.88 191.517919 
L 276.068571 189.665517 
L 276.068571 193.967761 
L 276.068571 191.115738 
L 276.068571 191.115738 
L 276.068571 160.726095 
L 276.068571 189.397911 
L 276.068571 189.397911 
L 276.068571 205.550709 
L 276.068571 193.547285 
L 279.257143 193.059512 
L 279.257143 179.203401 
L 279.257143 191.80666 
L 279.257143 191.80666 
L 279.257143 207.272358 
L 279.257143 192.558303 
L 279.257143 192.558303 
L 279.257143 187.827351 
L 279.257143 191.952487 
L 279.257143 191.952487 
L 279.257143 255.294839 
L 279.257143 251.455438 
L 282.445714 251.732819 
L 282.445714 238.883996 
L 282.445714 250.26019 
L 282.445714 250.26019 
L 282.445714 265.517223 
L 282.445714 250.635524 
L 282.445714 250.635524 
L 282.445714 204.884827 
L 282.445714 216.608328 
L 285.634286 215.502071 
L 285.634286 215.186856 
L 285.634286 215.186856 
L 285.634286 215.186856 
L 285.634286 217.164821 
L 285.634286 217.164821 
L 285.634286 217.164821 
L 285.634286 214.173558 
L 285.634286 216.83182 
L 285.634286 216.83182 
L 285.634286 217.401214 
L 285.634286 217.155556 
L 285.634286 217.155556 
L 285.634286 191.996455 
L 285.634286 215.575904 
L 285.634286 215.575904 
L 285.634286 227.906283 
L 285.634286 217.237485 
L 285.634286 217.237485 
L 285.634286 213.060864 
L 285.634286 217.068449 
L 285.634286 217.068449 
L 285.634286 217.245828 
L 285.634286 217.245828 
L 285.634286 217.245828 
L 285.634286 216.201764 
L 285.634286 216.201764 
L 285.634286 216.201764 
L 285.634286 226.44659 
L 285.634286 225.753702 
L 288.822857 227.925751 
L 288.822857 228.678095 
L 288.822857 228.678095 
L 288.822857 228.678095 
L 288.822857 227.1492 
L 288.822857 228.093864 
L 288.822857 228.093864 
L 288.822857 250.336707 
L 288.822857 228.370961 
L 288.822857 228.370961 
L 288.822857 218.993198 
L 288.822857 226.415877 
L 288.822857 226.415877 
L 288.822857 228.680717 
L 288.822857 228.680717 
L 288.822857 228.680717 
L 288.822857 184.852769 
L 288.822857 228.078114 
L 288.822857 228.078114 
L 288.822857 229.332647 
L 288.822857 228.516824 
L 292.011429 228.155498 
L 292.011429 187.707952 
L 292.011429 194.352184 
L 295.2 196.227226 
L 295.2 174.346793 
L 295.2 195.453265 
L 295.2 195.453265 
L 295.2 197.3221 
L 295.2 197.3221 
L 295.2 197.3221 
L 295.2 193.825183 
L 295.2 197.138083 
L 295.2 197.138083 
L 295.2 212.187449 
L 295.2 198.493356 
L 295.2 198.493356 
L 295.2 190.651836 
L 295.2 196.777348 
L 295.2 196.777348 
L 295.2 247.337347 
L 295.2 246.623011 
L 298.388572 248.271915 
L 298.388572 291.292519 
L 298.388572 249.015882 
L 298.388572 249.015882 
L 298.388572 248.20372 
L 298.388572 248.20372 
L 298.388572 248.20372 
L 298.388572 249.801797 
L 298.388572 248.702355 
L 298.388572 248.702355 
L 298.388572 227.737612 
L 298.388572 247.910085 
L 298.388572 247.910085 
L 298.388572 253.256644 
L 298.388572 250.33487 
L 298.388572 250.33487 
L 298.388572 216.355675 
L 298.388572 250.118437 
L 298.388572 250.118437 
L 298.388572 262.177125 
L 301.577143 262.006023 
L 301.577143 271.48775 
L 301.577143 262.092296 
L 301.577143 262.092296 
L 301.577143 217.497109 
L 301.577143 258.79742 
L 301.577143 258.79742 
L 301.577143 332.88446 
L 304.765715 333.884578 
L 304.765715 335.87252 
L 304.765715 335.87252 
L 304.765715 335.87252 
L 304.765715 332.468453 
L 304.765715 334.507364 
L 304.765715 334.507364 
L 304.765715 335.881718 
L 304.765715 335.743731 
L 304.765715 335.743731 
L 304.765715 333.958629 
L 304.765715 335.701694 
L 304.765715 335.701694 
L 304.765715 348.385003 
L 304.765715 336.674936 
L 304.765715 336.674936 
L 304.765715 214.399912 
L 307.954286 213.45013 
L 307.954286 211.231361 
L 307.954286 211.826857 
L 307.954286 211.826857 
L 307.954286 214.875195 
L 307.954286 212.534675 
L 307.954286 212.534675 
L 307.954286 211.436735 
L 307.954286 211.436735 
L 307.954286 211.436735 
L 307.954286 212.765093 
L 307.954286 212.383738 
L 307.954286 212.383738 
L 307.954286 211.093806 
L 307.954286 211.452127 
L 307.954286 211.452127 
L 307.954286 212.559161 
L 307.954286 211.819874 
L 307.954286 211.819874 
L 307.954286 210.559053 
L 307.954286 210.559053 
L 307.954286 210.559053 
L 307.954286 212.022428 
L 307.954286 211.482938 
L 307.954286 211.482938 
L 307.954286 209.938012 
L 307.954286 209.938012 
L 307.954286 209.938012 
L 307.954286 211.522944 
L 307.954286 211.522944 
L 307.954286 211.522944 
L 307.954286 207.021921 
L 307.954286 210.814808 
L 307.954286 210.814808 
L 307.954286 213.423929 
L 307.954286 213.423929 
L 307.954286 213.423929 
L 307.954286 210.26872 
L 307.954286 210.570423 
L 307.954286 210.570423 
L 307.954286 213.629453 
L 307.954286 211.361181 
L 307.954286 211.361181 
L 307.954286 209.732398 
L 307.954286 211.31817 
L 307.954286 211.31817 
L 307.954286 213.593844 
L 307.954286 212.129072 
L 307.954286 212.129072 
L 307.954286 210.921938 
L 307.954286 210.921938 
L 307.954286 210.921938 
L 307.954286 278.18582 
L 307.954286 231.13582 
L 311.142858 230.963669 
L 311.142858 223.534318 
L 311.142858 230.179353 
L 311.142858 230.179353 
L 311.142858 260.727449 
L 311.142858 231.132702 
L 311.142858 231.132702 
L 311.142858 210.961153 
L 311.142858 229.354126 
L 311.142858 229.354126 
L 311.142858 248.319331 
L 311.142858 230.742378 
L 311.142858 230.742378 
L 311.142858 222.930967 
L 311.142858 230.581473 
L 311.142858 230.581473 
L 311.142858 250.537652 
L 311.142858 244.367477 
L 314.331429 244.495477 
L 314.331429 183.121907 
L 314.331429 195.962319 
L 317.52 196.406448 
L 317.52 263.197253 
L 317.52 218.881354 
L 320.708571 220.650758 
L 320.708571 249.706798 
L 320.708571 221.20026 
L 320.708571 221.20026 
L 320.708571 218.864451 
L 320.708571 218.864451 
L 320.708571 218.864451 
L 320.708571 237.35634 
L 320.708571 219.808377 
L 320.708571 219.808377 
L 320.708571 198.404566 
L 320.708571 219.287179 
L 320.708571 219.287179 
L 320.708571 222.110752 
L 320.708571 221.34028 
L 323.897143 218.487834 
L 323.897143 219.639532 
L 323.897143 219.148842 
L 323.897143 219.148842 
L 323.897143 178.359351 
L 323.897143 195.702821 
L 327.085714 194.639804 
L 327.085714 194.686268 
L 327.085714 192.868013 
L 327.085714 192.868013 
L 327.085714 192.868013 
L 327.085714 233.670712 
L 327.085714 193.763043 
L 327.085714 193.763043 
L 327.085714 189.46163 
L 327.085714 193.28822 
L 330.274285 191.919776 
L 330.274285 190.778759 
L 330.274285 191.29988 
L 330.274285 191.29988 
L 330.274285 192.027405 
L 330.274285 192.027405 
L 330.274285 192.027405 
L 330.274285 189.557877 
L 330.274285 191.969375 
L 330.274285 191.969375 
L 330.274285 202.463611 
L 330.274285 192.058254 
L 330.274285 192.058254 
L 330.274285 159.640306 
L 330.274285 183.534547 
L 333.462857 183.662315 
L 333.462857 239.097628 
L 333.462857 237.232642 
L 336.651428 236.925636 
L 336.651428 236.654224 
L 336.651428 236.654224 
L 336.651428 236.654224 
L 336.651428 237.646349 
L 336.651428 237.646349 
L 336.651428 237.646349 
L 336.651428 194.752912 
L 339.84 194.326238 
L 339.84 184.237436 
L 339.84 193.738086 
L 339.84 193.738086 
L 339.84 196.207633 
L 339.84 196.207633 
L 339.84 196.207633 
L 339.84 191.930902 
L 339.84 195.849079 
L 339.84 195.849079 
L 339.84 196.670371 
L 339.84 196.670371 
L 339.84 196.670371 
L 339.84 194.95607 
L 339.84 196.613449 
L 339.84 196.613449 
L 339.84 197.975328 
L 339.84 196.954579 
L 339.84 196.954579 
L 339.84 195.198759 
L 339.84 195.198759 
L 339.84 195.198759 
L 339.84 199.925186 
L 339.84 195.24916 
L 339.84 195.24916 
L 339.84 190.576164 
L 339.84 191.576192 
L 339.84 191.576192 
L 339.84 221.034073 
L 339.84 219.199171 
L 343.028571 220.547443 
L 343.028571 184.548344 
L 343.028571 196.555518 
L 346.217143 198.419412 
L 346.217143 194.834096 
L 346.217143 194.834096 
L 346.217143 194.834096 
L 346.217143 201.399651 
L 346.217143 195.389775 
L 346.217143 195.389775 
L 346.217143 194.656034 
L 346.217143 194.656034 
L 346.217143 194.656034 
L 346.217143 197.399669 
L 346.217143 195.181472 
L 346.217143 195.181472 
L 346.217143 193.545098 
L 346.217143 193.545098 
L 346.217143 193.545098 
L 346.217143 199.176274 
L 346.217143 194.133632 
L 346.217143 194.133632 
L 346.217143 162.334123 
L 346.217143 164.511048 
L 349.405714 165.035155 
L 349.405714 161.407341 
L 349.405714 162.321894 
L 349.405714 162.321894 
L 349.405714 177.763315 
L 349.405714 162.841758 
L 349.405714 162.841758 
L 349.405714 162.128387 
L 349.405714 162.128387 
L 349.405714 162.128387 
L 349.405714 163.787698 
L 349.405714 162.789942 
L 349.405714 162.789942 
L 349.405714 158.606523 
L 349.405714 162.677418 
L 349.405714 162.677418 
L 349.405714 163.970427 
L 349.405714 163.970427 
L 349.405714 163.970427 
L 349.405714 162.02768 
L 349.405714 163.45684 
L 349.405714 163.45684 
L 349.405714 165.407564 
L 349.405714 164.803043 
L 349.405714 164.803043 
L 349.405714 163.18344 
L 349.405714 164.605249 
L 349.405714 164.605249 
L 349.405714 165.169746 
L 349.405714 164.778184 
L 349.405714 164.778184 
L 349.405714 164.266051 
L 349.405714 164.266051 
L 349.405714 164.266051 
L 349.405714 166.138551 
L 349.405714 166.138551 
L 349.405714 166.138551 
L 349.405714 163.793517 
L 349.405714 164.142828 
L 349.405714 164.142828 
L 349.405714 166.688254 
L 349.405714 165.340517 
L 349.405714 165.340517 
L 349.405714 164.10598 
L 349.405714 164.10598 
L 349.405714 164.10598 
L 349.405714 165.519878 
L 349.405714 165.519878 
L 349.405714 165.519878 
L 349.405714 156.957317 
L 349.405714 165.030857 
L 349.405714 165.030857 
L 349.405714 165.665905 
L 349.405714 165.665905 
L 349.405714 165.665905 
L 349.405714 164.19065 
L 349.405714 164.19065 
L 349.405714 164.19065 
L 349.405714 200.043521 
L 349.405714 164.779383 
L 349.405714 164.779383 
L 349.405714 152.318812 
L 349.405714 154.347269 
L 352.594286 151.420021 
L 352.594286 151.615295 
L 352.594286 151.615295 
L 352.594286 151.615295 
L 352.594286 150.799762 
L 352.594286 151.391775 
L 352.594286 151.391775 
L 352.594286 156.163326 
L 352.594286 151.527039 
L 352.594286 151.527039 
L 352.594286 151.082427 
L 352.594286 151.082427 
L 352.594286 151.082427 
L 352.594286 153.369584 
L 352.594286 151.440581 
L 352.594286 151.440581 
L 352.594286 150.402247 
L 352.594286 151.189353 
L 352.594286 151.189353 
L 352.594286 152.627496 
L 352.594286 152.627496 
L 352.594286 152.627496 
L 352.594286 151.13549 
L 352.594286 151.13549 
L 352.594286 151.13549 
L 352.594286 192.570162 
L 352.594286 151.527669 
L 352.594286 151.527669 
L 352.594286 138.976993 
L 352.594286 149.80416 
L 352.594286 149.80416 
L 352.594286 248.960981 
L 352.594286 213.294787 
L 355.782857 210.827486 
L 355.782857 145.147963 
L 355.782857 208.211302 
L 355.782857 208.211302 
L 355.782857 254.974964 
L 355.782857 210.554437 
L 355.782857 210.554437 
L 355.782857 201.874748 
L 355.782857 205.381601 
L 358.971429 201.999683 
L 358.971429 200.906282 
L 358.971429 200.906282 
L 358.971429 200.906282 
L 358.971429 205.58904 
L 358.971429 203.345561 
L 358.971429 203.345561 
L 358.971429 200.571748 
L 358.971429 203.168022 
L 358.971429 203.168022 
L 358.971429 205.672149 
L 358.971429 203.518529 
L 358.971429 203.518529 
L 358.971429 201.857777 
L 358.971429 202.95875 
L 358.971429 202.95875 
L 358.971429 207.720207 
L 358.971429 204.981003 
L 358.971429 204.981003 
L 358.971429 196.561402 
L 358.971429 200.154211 
L 358.971429 200.154211 
L 358.971429 275.236544 
L 358.971429 200.22084 
L 358.971429 200.22084 
L 358.971429 193.227009 
L 358.971429 198.880341 
L 358.971429 198.880341 
L 358.971429 208.611205 
L 358.971429 199.497306 
L 358.971429 199.497306 
L 358.971429 193.19715 
L 358.971429 198.706058 
L 362.16 197.70674 
L 362.16 196.57321 
L 362.16 197.2778 
L 362.16 197.2778 
L 362.16 289.878563 
L 362.16 198.297742 
L 362.16 198.297742 
L 362.16 149.613869 
L 362.16 197.302275 
L 362.16 197.302275 
L 362.16 332.557721 
L 365.348572 333.879965 
L 365.348572 333.740989 
L 365.348572 333.740989 
L 365.348572 333.740989 
L 365.348572 336.80984 
L 365.348572 334.327015 
L 365.348572 334.327015 
L 365.348572 175.256848 
L 365.348572 192.822088 
L 368.537143 195.009864 
L 368.537143 210.911261 
L 368.537143 196.068127 
L 368.537143 196.068127 
L 368.537143 181.401048 
L 368.537143 194.69853 
L 368.537143 194.69853 
L 368.537143 227.480112 
L 368.537143 195.255187 
L 368.537143 195.255187 
L 368.537143 187.299421 
L 368.537143 194.382034 
L 368.537143 194.382034 
L 368.537143 225.167324 
L 368.537143 206.296257 
L 371.725715 205.260746 
L 371.725715 153.425447 
L 371.725715 204.869976 
L 371.725715 204.869976 
L 371.725715 216.091279 
L 374.914286 216.986718 
L 374.914286 263.886021 
L 374.914286 218.568555 
L 374.914286 218.568555 
L 374.914286 210.930696 
L 374.914286 218.226167 
L 374.914286 218.226167 
L 374.914286 248.685024 
L 374.914286 219.144152 
L 378.102858 218.624365 
L 378.102858 219.711042 
L 378.102858 218.796604 
L 378.102858 218.796604 
L 378.102858 217.496566 
L 378.102858 218.689574 
L 378.102858 218.689574 
L 378.102858 218.889176 
L 378.102858 218.889176 
L 378.102858 218.889176 
L 378.102858 215.747264 
L 378.102858 218.191593 
L 378.102858 218.191593 
L 378.102858 235.457847 
L 378.102858 218.521304 
L 378.102858 218.521304 
L 378.102858 169.85404 
L 378.102858 218.21154 
L 378.102858 218.21154 
L 378.102858 223.798424 
L 378.102858 218.332012 
L 378.102858 218.332012 
L 378.102858 218.11544 
L 378.102858 218.11544 
L 378.102858 218.11544 
L 378.102858 219.326976 
L 378.102858 218.199229 
L 378.102858 218.199229 
L 378.102858 217.180192 
L 378.102858 217.944938 
L 378.102858 217.944938 
L 378.102858 219.151287 
L 378.102858 219.151287 
L 378.102858 219.151287 
L 378.102858 206.587863 
L 378.102858 217.980733 
L 378.102858 217.980733 
L 378.102858 225.856586 
L 378.102858 223.328968 
L 381.291429 225.991435 
L 381.291429 236.604523 
L 381.291429 226.763004 
L 381.291429 226.763004 
L 381.291429 155.051092 
L 381.291429 200.336411 
L 384.48 200.395526 
L 384.48 199.325986 
L 384.48 199.500004 
L 384.48 199.500004 
L 384.48 200.715533 
L 384.48 200.080756 
L 384.48 200.080756 
L 384.48 198.861856 
L 384.48 198.861856 
L 384.48 198.861856 
L 384.48 201.211927 
L 384.48 198.968837 
L 384.48 198.968837 
L 384.48 198.71831 
L 384.48 198.71831 
L 384.48 198.71831 
L 384.48 200.817415 
L 384.48 200.208985 
L 384.48 200.208985 
L 384.48 198.285241 
L 384.48 199.924264 
L 384.48 199.924264 
L 384.48 200.671816 
L 384.48 200.671816 
L 384.48 200.671816 
L 384.48 197.907737 
L 384.48 200.147354 
L 384.48 200.147354 
L 384.48 201.157904 
L 384.48 201.157904 
L 384.48 201.157904 
L 384.48 195.251606 
L 384.48 200.721313 
L 384.48 200.721313 
L 384.48 201.458497 
L 384.48 201.458497 
L 384.48 201.458497 
L 384.48 199.933586 
L 384.48 200.225241 
L 384.48 200.225241 
L 384.48 202.613025 
L 384.48 202.613025 
L 384.48 202.613025 
L 384.48 199.901225 
L 384.48 199.901225 
L 384.48 199.901225 
L 384.48 236.608451 
L 384.48 201.128012 
L 384.48 201.128012 
L 384.48 172.817447 
L 387.668571 171.747688 
L 387.668571 165.057467 
L 387.668571 169.336736 
L 387.668571 169.336736 
L 387.668571 219.475977 
L 387.668571 180.047578 
L 390.857142 181.377596 
L 390.857142 122.916294 
L 390.857142 178.778159 
L 390.857142 178.778159 
L 390.857142 210.662741 
L 394.045714 213.487912 
L 394.045714 211.574855 
L 394.045714 213.046873 
L 394.045714 213.046873 
L 394.045714 224.175631 
L 394.045714 216.971378 
L 394.045714 216.971378 
L 394.045714 203.156074 
L 394.045714 215.347863 
L 394.045714 215.347863 
L 394.045714 223.896903 
L 394.045714 216.41355 
L 394.045714 216.41355 
L 394.045714 129.001939 
L 394.045714 198.33688 
L 397.234285 198.854658 
L 397.234285 258.872366 
L 397.234285 201.338061 
L 397.234285 201.338061 
L 397.234285 196.678367 
L 397.234285 201.086894 
L 397.234285 201.086894 
L 397.234285 220.94265 
L 397.234285 217.845076 
L 400.422857 218.172808 
L 400.422857 218.997476 
L 400.422857 218.997476 
L 400.422857 218.997476 
L 400.422857 216.789512 
L 400.422857 218.02068 
L 400.422857 218.02068 
L 400.422857 220.693257 
L 400.422857 220.693257 
L 400.422857 220.693257 
L 400.422857 217.897442 
L 400.422857 219.63172 
L 400.422857 219.63172 
L 400.422857 238.538366 
L 400.422857 220.162264 
L 400.422857 220.162264 
L 400.422857 178.49623 
L 400.422857 183.68764 
L 403.611428 182.57331 
L 403.611428 199.35742 
L 403.611428 182.600195 
L 403.611428 182.600195 
L 403.611428 181.04621 
L 403.611428 181.04621 
L 403.611428 181.04621 
L 403.611428 237.726471 
L 403.611428 233.935546 
L 406.8 237.65711 
L 406.8 232.411318 
L 406.8 236.852972 
L 406.8 236.852972 
L 406.8 239.174184 
L 406.8 239.174184 
L 406.8 239.174184 
L 406.8 220.188271 
L 406.8 238.174479 
L 406.8 238.174479 
L 406.8 263.426812 
L 406.8 251.24583 
L 409.988571 251.287448 
L 409.988571 251.489382 
L 409.988571 251.489382 
L 409.988571 251.489382 
L 409.988571 152.761706 
L 409.988571 158.820869 
L 413.177143 159.291705 
L 413.177143 220.941601 
L 413.177143 218.209456 
L 416.365714 215.027235 
L 416.365714 216.660755 
L 416.365714 216.660755 
L 416.365714 216.660755 
L 416.365714 198.886553 
L 416.365714 214.684393 
L 416.365714 214.684393 
L 416.365714 217.461319 
L 416.365714 215.426183 
L 416.365714 215.426183 
L 416.365714 203.06895 
L 416.365714 212.419733 
L 416.365714 212.419733 
L 416.365714 224.781853 
L 416.365714 212.663151 
L 416.365714 212.663151 
L 416.365714 210.772392 
L 416.365714 212.561856 
L 416.365714 212.561856 
L 416.365714 212.991687 
L 416.365714 212.991687 
L 416.365714 212.991687 
L 416.365714 202.177074 
L 416.365714 210.825929 
L 416.365714 210.825929 
L 416.365714 216.470709 
L 416.365714 212.155869 
L 416.365714 212.155869 
L 416.365714 192.266364 
L 416.365714 198.958703 
L 419.554286 200.631976 
L 419.554286 200.610572 
L 419.554286 201.206702 
L 419.554286 201.013368 
L 419.554286 201.013368 
L 419.554286 200.479605 
L 419.554286 200.479605 
L 419.554286 200.479605 
L 419.554286 229.554246 
L 419.554286 201.259888 
L 419.554286 201.259888 
L 419.554286 200.228018 
L 419.554286 200.625005 
L 419.554286 200.625005 
L 419.554286 218.924624 
L 419.554286 201.164514 
L 419.554286 201.164514 
L 419.554286 198.75415 
L 419.554286 200.178635 
L 419.554286 200.178635 
L 419.554286 202.557217 
L 419.554286 202.557217 
L 419.554286 202.557217 
L 419.554286 200.131614 
L 419.554286 200.131614 
L 419.554286 200.131614 
L 419.554286 223.149513 
L 419.554286 210.828465 
L 422.742857 212.456443 
L 422.742857 211.577003 
L 422.742857 211.818103 
L 422.742857 211.818103 
L 422.742857 224.312523 
L 422.742857 214.126797 
L 422.742857 214.126797 
L 422.742857 211.579792 
L 422.742857 211.579792 
L 422.742857 211.579792 
L 422.742857 215.24292 
L 422.742857 215.24292 
L 422.742857 215.24292 
L 422.742857 203.345594 
L 422.742857 215.095718 
L 422.742857 215.095718 
L 422.742857 215.765918 
L 422.742857 215.765918 
L 422.742857 215.765918 
L 422.742857 178.321854 
L 422.742857 203.453282 
L 425.931429 202.599245 
L 425.931429 203.566058 
L 425.931429 203.566058 
L 425.931429 203.566058 
L 425.931429 202.487594 
L 425.931429 202.487594 
L 425.931429 202.487594 
L 425.931429 205.67182 
L 425.931429 204.425311 
L 425.931429 204.425311 
L 425.931429 201.417328 
L 425.931429 204.230712 
L 425.931429 204.230712 
L 425.931429 206.724377 
L 425.931429 206.724377 
L 425.931429 206.724377 
L 425.931429 201.298772 
L 425.931429 205.709863 
L 425.931429 205.709863 
L 425.931429 227.669712 
L 425.931429 207.259551 
L 425.931429 207.259551 
L 425.931429 203.737545 
L 425.931429 206.566056 
L 425.931429 206.566056 
L 425.931429 209.194426 
L 425.931429 209.194426 
L 425.931429 209.194426 
L 425.931429 206.01895 
L 425.931429 206.46487 
L 425.931429 206.46487 
L 425.931429 209.756605 
L 425.931429 207.224185 
L 425.931429 207.224185 
L 425.931429 206.141471 
L 425.931429 206.141471 
L 425.931429 206.141471 
L 425.931429 219.979909 
L 425.931429 206.384293 
L 425.931429 206.384293 
L 425.931429 204.047798 
L 425.931429 204.047798 
L 425.931429 204.047798 
L 425.931429 208.650797 
L 425.931429 208.342034 
L 425.931429 208.342034 
L 425.931429 202.285082 
L 425.931429 207.761801 
L 425.931429 207.761801 
L 425.931429 210.053133 
L 425.931429 210.053133 
L 425.931429 210.053133 
L 425.931429 203.264229 
L 425.931429 209.267085 
L 425.931429 209.267085 
L 425.931429 214.26607 
L 425.931429 210.093827 
L 425.931429 210.093827 
L 425.931429 208.795273 
L 425.931429 208.795273 
L 425.931429 208.795273 
L 425.931429 211.40813 
L 425.931429 209.236295 
L 425.931429 209.236295 
L 425.931429 197.52957 
L 425.931429 202.709379 
L 429.12 204.82514 
L 429.12 203.137627 
L 429.12 203.137627 
L 429.12 203.137627 
L 429.12 279.339063 
L 429.12 205.871454 
L 429.12 205.871454 
L 429.12 136.681238 
L 432.308572 136.07961 
L 432.308572 136.176354 
L 432.308572 114.492195 
L 432.308572 135.868583 
L 432.308572 135.868583 
L 432.308572 233.867776 
L 432.308572 176.446267 
L 435.497143 173.775089 
L 435.497143 52.362437 
L 435.497143 173.65534 
L 435.497143 173.65534 
L 435.497143 178.385283 
L 435.497143 174.666482 
L 435.497143 174.666482 
L 435.497143 170.645635 
L 435.497143 172.963276 
L 435.497143 172.963276 
L 435.497143 226.645634 
L 435.497143 204.841252 
L 438.685715 205.054675 
L 438.685715 203.478252 
L 438.685715 204.344476 
L 438.685715 204.344476 
L 438.685715 205.257784 
L 438.685715 204.68257 
L 438.685715 204.68257 
L 438.685715 203.153313 
L 438.685715 204.50454 
L 438.685715 204.50454 
L 438.685715 211.848603 
L 438.685715 204.643334 
L 438.685715 204.643334 
L 438.685715 182.593888 
L 438.685715 204.015148 
L 438.685715 204.015148 
L 438.685715 210.835634 
L 438.685715 204.315474 
L 438.685715 204.315474 
L 438.685715 180.455763 
L 438.685715 202.300606 
L 438.685715 202.300606 
L 438.685715 222.218577 
L 438.685715 202.701274 
L 438.685715 202.701274 
L 438.685715 172.479421 
L 441.874286 171.515865 
L 441.874286 140.209355 
L 441.874286 144.741955 
L 441.874286 144.741955 
L 441.874286 261.655939 
L 441.874286 150.124767 
L 441.874286 150.124767 
L 441.874286 136.621504 
L 441.874286 142.137591 
L 441.874286 142.137591 
L 441.874286 253.762781 
L 441.874286 206.415549 
L 445.062858 205.555511 
L 445.062858 206.654847 
L 445.062858 206.502234 
L 445.062858 206.502234 
L 445.062858 205.490579 
L 445.062858 205.490579 
L 445.062858 205.490579 
L 445.062858 206.95285 
L 445.062858 206.170058 
L 445.062858 206.170058 
L 445.062858 205.199187 
L 445.062858 205.199187 
L 445.062858 205.199187 
L 445.062858 206.879492 
L 445.062858 206.358922 
L 448.251429 206.597338 
L 448.251429 206.676218 
L 448.251429 206.676218 
L 448.251429 206.676218 
L 448.251429 205.302649 
L 448.251429 206.428419 
L 448.251429 206.428419 
L 448.251429 206.71857 
L 448.251429 206.508953 
L 448.251429 206.508953 
L 448.251429 205.304386 
L 448.251429 205.304386 
L 448.251429 205.304386 
L 448.251429 206.875965 
L 448.251429 206.445161 
L 448.251429 206.445161 
L 448.251429 205.270109 
L 448.251429 206.376111 
L 448.251429 206.376111 
L 448.251429 206.831116 
L 448.251429 206.563644 
L 448.251429 206.563644 
L 448.251429 205.572154 
L 448.251429 206.52078 
L 448.251429 206.52078 
L 448.251429 206.789323 
L 448.251429 206.62244 
L 448.251429 206.62244 
L 448.251429 205.441591 
L 448.251429 206.434516 
L 448.251429 206.434516 
L 448.251429 206.650967 
L 448.251429 206.531947 
L 448.251429 206.531947 
L 448.251429 206.372422 
L 448.251429 206.465709 
L 448.251429 206.465709 
L 448.251429 206.537082 
L 448.251429 206.537082 
L 448.251429 206.537082 
L 448.251429 206.464955 
L 448.251429 206.464955 
L 448.251429 206.464955 
L 448.251429 206.560635 
L 448.251429 206.560635 
L 448.251429 206.560635 
L 448.251429 206.447384 
L 448.251429 206.447384 
L 448.251429 206.447384 
L 448.251429 206.742127 
L 448.251429 206.742127 
L 448.251429 206.742127 
L 448.251429 204.522815 
L 448.251429 206.561056 
L 451.44 206.375681 
L 451.44 206.227713 
L 451.44 206.227713 
L 451.44 206.227713 
L 451.44 206.467773 
L 451.44 206.467773 
L 451.44 206.467773 
L 451.44 205.381061 
L 451.44 205.381061 
L 451.44 205.381061 
L 451.44 206.605064 
L 451.44 206.605064 
L 451.44 206.605064 
L 451.44 205.237432 
L 451.44 206.535758 
L 451.44 206.535758 
L 451.44 206.642526 
L 451.44 206.642526 
L 451.44 206.642526 
L 451.44 206.265744 
L 451.44 206.516062 
L 451.44 206.516062 
L 451.44 206.718307 
L 451.44 206.718307 
L 451.44 206.718307 
L 451.44 205.50858 
L 451.44 206.525227 
L 451.44 206.525227 
L 451.44 206.929497 
L 451.44 206.929497 
L 451.44 206.929497 
L 451.44 206.329914 
L 451.44 206.584361 
L 451.44 206.584361 
L 451.44 207.057984 
L 451.44 207.057984 
L 451.44 207.057984 
L 451.44 205.23748 
L 451.44 205.23748 
L 451.44 205.23748 
L 451.44 207.098482 
L 451.44 206.373137 
L 451.44 206.373137 
L 451.44 205.220643 
L 451.44 205.220643 
L 451.44 205.220643 
L 451.44 206.909452 
L 451.44 206.589505 
L 454.628572 205.516142 
L 454.628572 206.771737 
L 454.628572 206.657652 
L 454.628572 206.657652 
L 454.628572 205.480894 
L 454.628572 206.573513 
L 454.628572 206.573513 
L 454.628572 206.829127 
L 454.628572 206.829127 
L 454.628572 206.829127 
L 454.628572 205.344718 
L 454.628572 206.445458 
L 454.628572 206.445458 
L 454.628572 206.830626 
L 454.628572 206.830626 
L 454.628572 206.830626 
L 454.628572 205.288722 
L 454.628572 206.618537 
L 454.628572 206.618537 
L 454.628572 206.874347 
L 454.628572 206.874347 
L 454.628572 206.874347 
L 454.628572 205.456443 
L 454.628572 206.5986 
L 454.628572 206.5986 
L 454.628572 206.905594 
L 454.628572 206.905594 
L 454.628572 206.905594 
L 454.628572 205.260225 
L 454.628572 206.49861 
L 454.628572 206.49861 
L 454.628572 206.912884 
L 454.628572 206.912884 
L 454.628572 206.912884 
L 454.628572 205.339388 
L 454.628572 206.527216 
L 457.817142 206.632876 
L 457.817142 205.367144 
L 457.817142 206.501886 
L 457.817142 206.501886 
L 457.817142 206.702931 
L 457.817142 206.702931 
L 457.817142 206.702931 
L 457.817142 205.423832 
L 457.817142 206.628519 
L 457.817142 206.628519 
L 457.817142 206.749875 
L 457.817142 206.749875 
L 457.817142 206.749875 
L 457.817142 205.252535 
L 457.817142 206.356339 
L 457.817142 206.356339 
L 457.817142 206.831892 
L 457.817142 206.831892 
L 457.817142 206.831892 
L 457.817142 205.496085 
L 457.817142 205.496085 
" style="fill:none;stroke:#ffa500;stroke-linecap:square;"/>
   </g>
   <g id="patch_3">
    <path d="M 72 43.2 
L 518.4 43.2 
" style="fill:none;stroke:#000000;stroke-linecap:square;stroke-linejoin:miter;"/>
   </g>
   <g id="patch_4">
    <path d="M 518.4 388.8 
L 518.4 43.2 
" style="fill:none;stroke:#000000;stroke-linecap:square;stroke-linejoin:miter;"/>
   </g>
   <g id="patch_5">
    <path d="M 72 388.8 
L 518.4 388.8 
" style="fill:none;stroke:#000000;stroke-linecap:square;stroke-linejoin:miter;"/>
   </g>
   <g id="patch_6">
    <path d="M 72 388.8 
L 72 43.2 
" style="fill:none;stroke:#000000;stroke-linecap:square;stroke-linejoin:miter;"/>
   </g>
   <g id="matplotlib.axis_1">
    <g id="xtick_1">
     <g id="line2d_2">
      <defs>
       <path d="M 0 0 
L 0 -4 
" id="md4d9c086be" style="stroke:#000000;stroke-width:0.5;"/>
      </defs>
      <g>
       <use style="stroke:#000000;stroke-width:0.5;" x="72.0" xlink:href="#md4d9c086be" y="388.8"/>
      </g>
     </g>
     <g id="line2d_3">
      <defs>
       <path d="M 0 0 
L 0 4 
" id="m2bc5a3a26f" style="stroke:#000000;stroke-width:0.5;"/>
      </defs>
      <g>
       <use style="stroke:#000000;stroke-width:0.5;" x="72.0" xlink:href="#m2bc5a3a26f" y="43.19999999999999"/>
      </g>
     </g>
     <g id="text_1">
      <!-- 0 -->
      <defs>
       <path d="M 31.78125 66.40625 
Q 24.171875 66.40625 20.328125 58.90625 
Q 16.5 51.421875 16.5 36.375 
Q 16.5 21.390625 20.328125 13.890625 
Q 24.171875 6.390625 31.78125 6.390625 
Q 39.453125 6.390625 43.28125 13.890625 
Q 47.125 21.390625 47.125 36.375 
Q 47.125 51.421875 43.28125 58.90625 
Q 39.453125 66.40625 31.78125 66.40625 
M 31.78125 74.21875 
Q 44.046875 74.21875 50.515625 64.515625 
Q 56.984375 54.828125 56.984375 36.375 
Q 56.984375 17.96875 50.515625 8.265625 
Q 44.046875 -1.421875 31.78125 -1.421875 
Q 19.53125 -1.421875 13.0625 8.265625 
Q 6.59375 17.96875 6.59375 36.375 
Q 6.59375 54.828125 13.0625 64.515625 
Q 19.53125 74.21875 31.78125 74.21875 
" id="BitstreamVeraSans-Roman-30"/>
      </defs>
      <g transform="translate(68.1825 401.91812500000003)scale(0.12 -0.12)">
       <use xlink:href="#BitstreamVeraSans-Roman-30"/>
      </g>
     </g>
    </g>
    <g id="xtick_2">
     <g id="line2d_4">
      <g>
       <use style="stroke:#000000;stroke-width:0.5;" x="135.77142906188965" xlink:href="#md4d9c086be" y="388.8"/>
      </g>
     </g>
     <g id="line2d_5">
      <g>
       <use style="stroke:#000000;stroke-width:0.5;" x="135.77142906188965" xlink:href="#m2bc5a3a26f" y="43.19999999999999"/>
      </g>
     </g>
     <g id="text_2">
      <!-- 20 -->
      <defs>
       <path d="M 19.1875 8.296875 
L 53.609375 8.296875 
L 53.609375 0 
L 7.328125 0 
L 7.328125 8.296875 
Q 12.9375 14.109375 22.625 23.890625 
Q 32.328125 33.6875 34.8125 36.53125 
Q 39.546875 41.84375 41.421875 45.53125 
Q 43.3125 49.21875 43.3125 52.78125 
Q 43.3125 58.59375 39.234375 62.25 
Q 35.15625 65.921875 28.609375 65.921875 
Q 23.96875 65.921875 18.8125 64.3125 
Q 13.671875 62.703125 7.8125 59.421875 
L 7.8125 69.390625 
Q 13.765625 71.78125 18.9375 73 
Q 24.125 74.21875 28.421875 74.21875 
Q 39.75 74.21875 46.484375 68.546875 
Q 53.21875 62.890625 53.21875 53.421875 
Q 53.21875 48.921875 51.53125 44.890625 
Q 49.859375 40.875 45.40625 35.40625 
Q 44.1875 33.984375 37.640625 27.21875 
Q 31.109375 20.453125 19.1875 8.296875 
" id="BitstreamVeraSans-Roman-32"/>
      </defs>
      <g transform="translate(128.13642906188966 401.91812500000003)scale(0.12 -0.12)">
       <use xlink:href="#BitstreamVeraSans-Roman-32"/>
       <use x="63.623046875" xlink:href="#BitstreamVeraSans-Roman-30"/>
      </g>
     </g>
    </g>
    <g id="xtick_3">
     <g id="line2d_6">
      <g>
       <use style="stroke:#000000;stroke-width:0.5;" x="199.54285717010498" xlink:href="#md4d9c086be" y="388.8"/>
      </g>
     </g>
     <g id="line2d_7">
      <g>
       <use style="stroke:#000000;stroke-width:0.5;" x="199.54285717010498" xlink:href="#m2bc5a3a26f" y="43.19999999999999"/>
      </g>
     </g>
     <g id="text_3">
      <!-- 40 -->
      <defs>
       <path d="M 37.796875 64.3125 
L 12.890625 25.390625 
L 37.796875 25.390625 
z
M 35.203125 72.90625 
L 47.609375 72.90625 
L 47.609375 25.390625 
L 58.015625 25.390625 
L 58.015625 17.1875 
L 47.609375 17.1875 
L 47.609375 0 
L 37.796875 0 
L 37.796875 17.1875 
L 4.890625 17.1875 
L 4.890625 26.703125 
z
" id="BitstreamVeraSans-Roman-34"/>
      </defs>
      <g transform="translate(191.907857170105 401.91812500000003)scale(0.12 -0.12)">
       <use xlink:href="#BitstreamVeraSans-Roman-34"/>
       <use x="63.623046875" xlink:href="#BitstreamVeraSans-Roman-30"/>
      </g>
     </g>
    </g>
    <g id="xtick_4">
     <g id="line2d_8">
      <g>
       <use style="stroke:#000000;stroke-width:0.5;" x="263.31428623199463" xlink:href="#md4d9c086be" y="388.8"/>
      </g>
     </g>
     <g id="line2d_9">
      <g>
       <use style="stroke:#000000;stroke-width:0.5;" x="263.31428623199463" xlink:href="#m2bc5a3a26f" y="43.19999999999999"/>
      </g>
     </g>
     <g id="text_4">
      <!-- 60 -->
      <defs>
       <path d="M 33.015625 40.375 
Q 26.375 40.375 22.484375 35.828125 
Q 18.609375 31.296875 18.609375 23.390625 
Q 18.609375 15.53125 22.484375 10.953125 
Q 26.375 6.390625 33.015625 6.390625 
Q 39.65625 6.390625 43.53125 10.953125 
Q 47.40625 15.53125 47.40625 23.390625 
Q 47.40625 31.296875 43.53125 35.828125 
Q 39.65625 40.375 33.015625 40.375 
M 52.59375 71.296875 
L 52.59375 62.3125 
Q 48.875 64.0625 45.09375 64.984375 
Q 41.3125 65.921875 37.59375 65.921875 
Q 27.828125 65.921875 22.671875 59.328125 
Q 17.53125 52.734375 16.796875 39.40625 
Q 19.671875 43.65625 24.015625 45.921875 
Q 28.375 48.1875 33.59375 48.1875 
Q 44.578125 48.1875 50.953125 41.515625 
Q 57.328125 34.859375 57.328125 23.390625 
Q 57.328125 12.15625 50.6875 5.359375 
Q 44.046875 -1.421875 33.015625 -1.421875 
Q 20.359375 -1.421875 13.671875 8.265625 
Q 6.984375 17.96875 6.984375 36.375 
Q 6.984375 53.65625 15.1875 63.9375 
Q 23.390625 74.21875 37.203125 74.21875 
Q 40.921875 74.21875 44.703125 73.484375 
Q 48.484375 72.75 52.59375 71.296875 
" id="BitstreamVeraSans-Roman-36"/>
      </defs>
      <g transform="translate(255.67928623199464 401.91812500000003)scale(0.12 -0.12)">
       <use xlink:href="#BitstreamVeraSans-Roman-36"/>
       <use x="63.623046875" xlink:href="#BitstreamVeraSans-Roman-30"/>
      </g>
     </g>
    </g>
    <g id="xtick_5">
     <g id="line2d_10">
      <g>
       <use style="stroke:#000000;stroke-width:0.5;" x="327.08571434020996" xlink:href="#md4d9c086be" y="388.8"/>
      </g>
     </g>
     <g id="line2d_11">
      <g>
       <use style="stroke:#000000;stroke-width:0.5;" x="327.08571434020996" xlink:href="#m2bc5a3a26f" y="43.19999999999999"/>
      </g>
     </g>
     <g id="text_5">
      <!-- 80 -->
      <defs>
       <path d="M 31.78125 34.625 
Q 24.75 34.625 20.71875 30.859375 
Q 16.703125 27.09375 16.703125 20.515625 
Q 16.703125 13.921875 20.71875 10.15625 
Q 24.75 6.390625 31.78125 6.390625 
Q 38.8125 6.390625 42.859375 10.171875 
Q 46.921875 13.96875 46.921875 20.515625 
Q 46.921875 27.09375 42.890625 30.859375 
Q 38.875 34.625 31.78125 34.625 
M 21.921875 38.8125 
Q 15.578125 40.375 12.03125 44.71875 
Q 8.5 49.078125 8.5 55.328125 
Q 8.5 64.0625 14.71875 69.140625 
Q 20.953125 74.21875 31.78125 74.21875 
Q 42.671875 74.21875 48.875 69.140625 
Q 55.078125 64.0625 55.078125 55.328125 
Q 55.078125 49.078125 51.53125 44.71875 
Q 48 40.375 41.703125 38.8125 
Q 48.828125 37.15625 52.796875 32.3125 
Q 56.78125 27.484375 56.78125 20.515625 
Q 56.78125 9.90625 50.3125 4.234375 
Q 43.84375 -1.421875 31.78125 -1.421875 
Q 19.734375 -1.421875 13.25 4.234375 
Q 6.78125 9.90625 6.78125 20.515625 
Q 6.78125 27.484375 10.78125 32.3125 
Q 14.796875 37.15625 21.921875 38.8125 
M 18.3125 54.390625 
Q 18.3125 48.734375 21.84375 45.5625 
Q 25.390625 42.390625 31.78125 42.390625 
Q 38.140625 42.390625 41.71875 45.5625 
Q 45.3125 48.734375 45.3125 54.390625 
Q 45.3125 60.0625 41.71875 63.234375 
Q 38.140625 66.40625 31.78125 66.40625 
Q 25.390625 66.40625 21.84375 63.234375 
Q 18.3125 60.0625 18.3125 54.390625 
" id="BitstreamVeraSans-Roman-38"/>
      </defs>
      <g transform="translate(319.45071434020997 401.91812500000003)scale(0.12 -0.12)">
       <use xlink:href="#BitstreamVeraSans-Roman-38"/>
       <use x="63.623046875" xlink:href="#BitstreamVeraSans-Roman-30"/>
      </g>
     </g>
    </g>
    <g id="xtick_6">
     <g id="line2d_12">
      <g>
       <use style="stroke:#000000;stroke-width:0.5;" x="390.8571424484253" xlink:href="#md4d9c086be" y="388.8"/>
      </g>
     </g>
     <g id="line2d_13">
      <g>
       <use style="stroke:#000000;stroke-width:0.5;" x="390.8571424484253" xlink:href="#m2bc5a3a26f" y="43.19999999999999"/>
      </g>
     </g>
     <g id="text_6">
      <!-- 100 -->
      <defs>
       <path d="M 12.40625 8.296875 
L 28.515625 8.296875 
L 28.515625 63.921875 
L 10.984375 60.40625 
L 10.984375 69.390625 
L 28.421875 72.90625 
L 38.28125 72.90625 
L 38.28125 8.296875 
L 54.390625 8.296875 
L 54.390625 0 
L 12.40625 0 
z
" id="BitstreamVeraSans-Roman-31"/>
      </defs>
      <g transform="translate(379.4046424484253 401.91812500000003)scale(0.12 -0.12)">
       <use xlink:href="#BitstreamVeraSans-Roman-31"/>
       <use x="63.623046875" xlink:href="#BitstreamVeraSans-Roman-30"/>
       <use x="127.24609375" xlink:href="#BitstreamVeraSans-Roman-30"/>
      </g>
     </g>
    </g>
    <g id="xtick_7">
     <g id="line2d_14">
      <g>
       <use style="stroke:#000000;stroke-width:0.5;" x="454.62857151031494" xlink:href="#md4d9c086be" y="388.8"/>
      </g>
     </g>
     <g id="line2d_15">
      <g>
       <use style="stroke:#000000;stroke-width:0.5;" x="454.62857151031494" xlink:href="#m2bc5a3a26f" y="43.19999999999999"/>
      </g>
     </g>
     <g id="text_7">
      <!-- 120 -->
      <g transform="translate(443.17607151031496 401.91812500000003)scale(0.12 -0.12)">
       <use xlink:href="#BitstreamVeraSans-Roman-31"/>
       <use x="63.623046875" xlink:href="#BitstreamVeraSans-Roman-32"/>
       <use x="127.24609375" xlink:href="#BitstreamVeraSans-Roman-30"/>
      </g>
     </g>
    </g>
    <g id="xtick_8">
     <g id="line2d_16">
      <g>
       <use style="stroke:#000000;stroke-width:0.5;" x="518.3999996185303" xlink:href="#md4d9c086be" y="388.8"/>
      </g>
     </g>
     <g id="line2d_17">
      <g>
       <use style="stroke:#000000;stroke-width:0.5;" x="518.3999996185303" xlink:href="#m2bc5a3a26f" y="43.19999999999999"/>
      </g>
     </g>
     <g id="text_8">
      <!-- 140 -->
      <g transform="translate(506.9474996185303 401.91812500000003)scale(0.12 -0.12)">
       <use xlink:href="#BitstreamVeraSans-Roman-31"/>
       <use x="63.623046875" xlink:href="#BitstreamVeraSans-Roman-34"/>
       <use x="127.24609375" xlink:href="#BitstreamVeraSans-Roman-30"/>
      </g>
     </g>
    </g>
    <g id="text_9">
     <!-- Time -->
     <defs>
      <path d="M 56.203125 29.59375 
L 56.203125 25.203125 
L 14.890625 25.203125 
Q 15.484375 15.921875 20.484375 11.0625 
Q 25.484375 6.203125 34.421875 6.203125 
Q 39.59375 6.203125 44.453125 7.46875 
Q 49.3125 8.734375 54.109375 11.28125 
L 54.109375 2.78125 
Q 49.265625 0.734375 44.1875 -0.34375 
Q 39.109375 -1.421875 33.890625 -1.421875 
Q 20.796875 -1.421875 13.15625 6.1875 
Q 5.515625 13.8125 5.515625 26.8125 
Q 5.515625 40.234375 12.765625 48.109375 
Q 20.015625 56 32.328125 56 
Q 43.359375 56 49.78125 48.890625 
Q 56.203125 41.796875 56.203125 29.59375 
M 47.21875 32.234375 
Q 47.125 39.59375 43.09375 43.984375 
Q 39.0625 48.390625 32.421875 48.390625 
Q 24.90625 48.390625 20.390625 44.140625 
Q 15.875 39.890625 15.1875 32.171875 
z
" id="BitstreamVeraSans-Roman-65"/>
      <path d="M 9.421875 54.6875 
L 18.40625 54.6875 
L 18.40625 0 
L 9.421875 0 
z
M 9.421875 75.984375 
L 18.40625 75.984375 
L 18.40625 64.59375 
L 9.421875 64.59375 
z
" id="BitstreamVeraSans-Roman-69"/>
      <path d="M -0.296875 72.90625 
L 61.375 72.90625 
L 61.375 64.59375 
L 35.5 64.59375 
L 35.5 0 
L 25.59375 0 
L 25.59375 64.59375 
L -0.296875 64.59375 
z
" id="BitstreamVeraSans-Roman-54"/>
      <path d="M 52 44.1875 
Q 55.375 50.25 60.0625 53.125 
Q 64.75 56 71.09375 56 
Q 79.640625 56 84.28125 50.015625 
Q 88.921875 44.046875 88.921875 33.015625 
L 88.921875 0 
L 79.890625 0 
L 79.890625 32.71875 
Q 79.890625 40.578125 77.09375 44.375 
Q 74.3125 48.1875 68.609375 48.1875 
Q 61.625 48.1875 57.5625 43.546875 
Q 53.515625 38.921875 53.515625 30.90625 
L 53.515625 0 
L 44.484375 0 
L 44.484375 32.71875 
Q 44.484375 40.625 41.703125 44.40625 
Q 38.921875 48.1875 33.109375 48.1875 
Q 26.21875 48.1875 22.15625 43.53125 
Q 18.109375 38.875 18.109375 30.90625 
L 18.109375 0 
L 9.078125 0 
L 9.078125 54.6875 
L 18.109375 54.6875 
L 18.109375 46.1875 
Q 21.1875 51.21875 25.484375 53.609375 
Q 29.78125 56 35.6875 56 
Q 41.65625 56 45.828125 52.96875 
Q 50 49.953125 52 44.1875 
" id="BitstreamVeraSans-Roman-6d"/>
     </defs>
     <g transform="translate(280.335 418.531875)scale(0.12 -0.12)">
      <use xlink:href="#BitstreamVeraSans-Roman-54"/>
      <use x="61.037109375" xlink:href="#BitstreamVeraSans-Roman-69"/>
      <use x="88.8203125" xlink:href="#BitstreamVeraSans-Roman-6d"/>
      <use x="186.232421875" xlink:href="#BitstreamVeraSans-Roman-65"/>
     </g>
    </g>
    <g id="text_10">
     <!-- +1.5813508e9 -->
     <defs>
      <path d="M 40.578125 39.3125 
Q 47.65625 37.796875 51.625 33 
Q 55.609375 28.21875 55.609375 21.1875 
Q 55.609375 10.40625 48.1875 4.484375 
Q 40.765625 -1.421875 27.09375 -1.421875 
Q 22.515625 -1.421875 17.65625 -0.515625 
Q 12.796875 0.390625 7.625 2.203125 
L 7.625 11.71875 
Q 11.71875 9.328125 16.59375 8.109375 
Q 21.484375 6.890625 26.8125 6.890625 
Q 36.078125 6.890625 40.9375 10.546875 
Q 45.796875 14.203125 45.796875 21.1875 
Q 45.796875 27.640625 41.28125 31.265625 
Q 36.765625 34.90625 28.71875 34.90625 
L 20.21875 34.90625 
L 20.21875 43.015625 
L 29.109375 43.015625 
Q 36.375 43.015625 40.234375 45.921875 
Q 44.09375 48.828125 44.09375 54.296875 
Q 44.09375 59.90625 40.109375 62.90625 
Q 36.140625 65.921875 28.71875 65.921875 
Q 24.65625 65.921875 20.015625 65.03125 
Q 15.375 64.15625 9.8125 62.3125 
L 9.8125 71.09375 
Q 15.4375 72.65625 20.34375 73.4375 
Q 25.25 74.21875 29.59375 74.21875 
Q 40.828125 74.21875 47.359375 69.109375 
Q 53.90625 64.015625 53.90625 55.328125 
Q 53.90625 49.265625 50.4375 45.09375 
Q 46.96875 40.921875 40.578125 39.3125 
" id="BitstreamVeraSans-Roman-33"/>
      <path d="M 10.984375 1.515625 
L 10.984375 10.5 
Q 14.703125 8.734375 18.5 7.8125 
Q 22.3125 6.890625 25.984375 6.890625 
Q 35.75 6.890625 40.890625 13.453125 
Q 46.046875 20.015625 46.78125 33.40625 
Q 43.953125 29.203125 39.59375 26.953125 
Q 35.25 24.703125 29.984375 24.703125 
Q 19.046875 24.703125 12.671875 31.3125 
Q 6.296875 37.9375 6.296875 49.421875 
Q 6.296875 60.640625 12.9375 67.421875 
Q 19.578125 74.21875 30.609375 74.21875 
Q 43.265625 74.21875 49.921875 64.515625 
Q 56.59375 54.828125 56.59375 36.375 
Q 56.59375 19.140625 48.40625 8.859375 
Q 40.234375 -1.421875 26.421875 -1.421875 
Q 22.703125 -1.421875 18.890625 -0.6875 
Q 15.09375 0.046875 10.984375 1.515625 
M 30.609375 32.421875 
Q 37.25 32.421875 41.125 36.953125 
Q 45.015625 41.5 45.015625 49.421875 
Q 45.015625 57.28125 41.125 61.84375 
Q 37.25 66.40625 30.609375 66.40625 
Q 23.96875 66.40625 20.09375 61.84375 
Q 16.21875 57.28125 16.21875 49.421875 
Q 16.21875 41.5 20.09375 36.953125 
Q 23.96875 32.421875 30.609375 32.421875 
" id="BitstreamVeraSans-Roman-39"/>
      <path d="M 46 62.703125 
L 46 35.5 
L 73.1875 35.5 
L 73.1875 27.203125 
L 46 27.203125 
L 46 0 
L 37.796875 0 
L 37.796875 27.203125 
L 10.59375 27.203125 
L 10.59375 35.5 
L 37.796875 35.5 
L 37.796875 62.703125 
z
" id="BitstreamVeraSans-Roman-2b"/>
      <path d="M 10.6875 12.40625 
L 21 12.40625 
L 21 0 
L 10.6875 0 
z
" id="BitstreamVeraSans-Roman-2e"/>
      <path d="M 10.796875 72.90625 
L 49.515625 72.90625 
L 49.515625 64.59375 
L 19.828125 64.59375 
L 19.828125 46.734375 
Q 21.96875 47.46875 24.109375 47.828125 
Q 26.265625 48.1875 28.421875 48.1875 
Q 40.625 48.1875 47.75 41.5 
Q 54.890625 34.8125 54.890625 23.390625 
Q 54.890625 11.625 47.5625 5.09375 
Q 40.234375 -1.421875 26.90625 -1.421875 
Q 22.3125 -1.421875 17.546875 -0.640625 
Q 12.796875 0.140625 7.71875 1.703125 
L 7.71875 11.625 
Q 12.109375 9.234375 16.796875 8.0625 
Q 21.484375 6.890625 26.703125 6.890625 
Q 35.15625 6.890625 40.078125 11.328125 
Q 45.015625 15.765625 45.015625 23.390625 
Q 45.015625 31 40.078125 35.4375 
Q 35.15625 39.890625 26.703125 39.890625 
Q 22.75 39.890625 18.8125 39.015625 
Q 14.890625 38.140625 10.796875 36.28125 
z
" id="BitstreamVeraSans-Roman-35"/>
     </defs>
     <g transform="translate(428.431875 416.531875)scale(0.12 -0.12)">
      <use xlink:href="#BitstreamVeraSans-Roman-2b"/>
      <use x="83.7890625" xlink:href="#BitstreamVeraSans-Roman-31"/>
      <use x="147.412109375" xlink:href="#BitstreamVeraSans-Roman-2e"/>
      <use x="179.19921875" xlink:href="#BitstreamVeraSans-Roman-35"/>
      <use x="242.822265625" xlink:href="#BitstreamVeraSans-Roman-38"/>
      <use x="306.4453125" xlink:href="#BitstreamVeraSans-Roman-31"/>
      <use x="370.068359375" xlink:href="#BitstreamVeraSans-Roman-33"/>
      <use x="433.69140625" xlink:href="#BitstreamVeraSans-Roman-35"/>
      <use x="497.314453125" xlink:href="#BitstreamVeraSans-Roman-30"/>
      <use x="560.9375" xlink:href="#BitstreamVeraSans-Roman-38"/>
      <use x="624.560546875" xlink:href="#BitstreamVeraSans-Roman-65"/>
      <use x="686.083984375" xlink:href="#BitstreamVeraSans-Roman-39"/>
     </g>
    </g>
   </g>
   <g id="matplotlib.axis_2">
    <g id="ytick_1">
     <g id="line2d_18">
      <defs>
       <path d="M 0 0 
L 4 0 
" id="m0882a4187b" style="stroke:#000000;stroke-width:0.5;"/>
      </defs>
      <g>
       <use style="stroke:#000000;stroke-width:0.5;" x="72.0" xlink:href="#m0882a4187b" y="388.8"/>
      </g>
     </g>
     <g id="line2d_19">
      <defs>
       <path d="M 0 0 
L -4 0 
" id="me9508eb5ff" style="stroke:#000000;stroke-width:0.5;"/>
      </defs>
      <g>
       <use style="stroke:#000000;stroke-width:0.5;" x="518.4" xlink:href="#me9508eb5ff" y="388.8"/>
      </g>
     </g>
     <g id="text_11">
      <!-- 0.10 -->
      <defs>
       <path d="M 10.59375 35.5 
L 73.1875 35.5 
L 73.1875 27.203125 
L 10.59375 27.203125 
z
" id="BitstreamVeraSans-Roman-2212"/>
      </defs>
      <g transform="translate(31.225625 392.11125000000004)scale(0.12 -0.12)">
       <use xlink:href="#BitstreamVeraSans-Roman-2212"/>
       <use x="83.7890625" xlink:href="#BitstreamVeraSans-Roman-30"/>
       <use x="147.412109375" xlink:href="#BitstreamVeraSans-Roman-2e"/>
       <use x="179.19921875" xlink:href="#BitstreamVeraSans-Roman-31"/>
       <use x="242.822265625" xlink:href="#BitstreamVeraSans-Roman-30"/>
      </g>
     </g>
    </g>
    <g id="ytick_2">
     <g id="line2d_20">
      <g>
       <use style="stroke:#000000;stroke-width:0.5;" x="72.0" xlink:href="#m0882a4187b" y="302.4"/>
      </g>
     </g>
     <g id="line2d_21">
      <g>
       <use style="stroke:#000000;stroke-width:0.5;" x="518.4" xlink:href="#me9508eb5ff" y="302.4"/>
      </g>
     </g>
     <g id="text_12">
      <!-- 0.05 -->
      <g transform="translate(31.225625 305.71125)scale(0.12 -0.12)">
       <use xlink:href="#BitstreamVeraSans-Roman-2212"/>
       <use x="83.7890625" xlink:href="#BitstreamVeraSans-Roman-30"/>
       <use x="147.412109375" xlink:href="#BitstreamVeraSans-Roman-2e"/>
       <use x="179.19921875" xlink:href="#BitstreamVeraSans-Roman-30"/>
       <use x="242.822265625" xlink:href="#BitstreamVeraSans-Roman-35"/>
      </g>
     </g>
    </g>
    <g id="ytick_3">
     <g id="line2d_22">
      <g>
       <use style="stroke:#000000;stroke-width:0.5;" x="72.0" xlink:href="#m0882a4187b" y="216.0"/>
      </g>
     </g>
     <g id="line2d_23">
      <g>
       <use style="stroke:#000000;stroke-width:0.5;" x="518.4" xlink:href="#me9508eb5ff" y="216.0"/>
      </g>
     </g>
     <g id="text_13">
      <!-- 0.00 -->
      <g transform="translate(41.28125 219.31125)scale(0.12 -0.12)">
       <use xlink:href="#BitstreamVeraSans-Roman-30"/>
       <use x="63.623046875" xlink:href="#BitstreamVeraSans-Roman-2e"/>
       <use x="95.41015625" xlink:href="#BitstreamVeraSans-Roman-30"/>
       <use x="159.033203125" xlink:href="#BitstreamVeraSans-Roman-30"/>
      </g>
     </g>
    </g>
    <g id="ytick_4">
     <g id="line2d_24">
      <g>
       <use style="stroke:#000000;stroke-width:0.5;" x="72.0" xlink:href="#m0882a4187b" y="129.59999999999997"/>
      </g>
     </g>
     <g id="line2d_25">
      <g>
       <use style="stroke:#000000;stroke-width:0.5;" x="518.4" xlink:href="#me9508eb5ff" y="129.59999999999997"/>
      </g>
     </g>
     <g id="text_14">
      <!-- 0.05 -->
      <g transform="translate(41.28125 132.91124999999994)scale(0.12 -0.12)">
       <use xlink:href="#BitstreamVeraSans-Roman-30"/>
       <use x="63.623046875" xlink:href="#BitstreamVeraSans-Roman-2e"/>
       <use x="95.41015625" xlink:href="#BitstreamVeraSans-Roman-30"/>
       <use x="159.033203125" xlink:href="#BitstreamVeraSans-Roman-35"/>
      </g>
     </g>
    </g>
    <g id="ytick_5">
     <g id="line2d_26">
      <g>
       <use style="stroke:#000000;stroke-width:0.5;" x="72.0" xlink:href="#m0882a4187b" y="43.19999999999999"/>
      </g>
     </g>
     <g id="line2d_27">
      <g>
       <use style="stroke:#000000;stroke-width:0.5;" x="518.4" xlink:href="#me9508eb5ff" y="43.19999999999999"/>
      </g>
     </g>
     <g id="text_15">
      <!-- 0.10 -->
      <g transform="translate(41.28125 46.51124999999996)scale(0.12 -0.12)">
       <use xlink:href="#BitstreamVeraSans-Roman-30"/>
       <use x="63.623046875" xlink:href="#BitstreamVeraSans-Roman-2e"/>
       <use x="95.41015625" xlink:href="#BitstreamVeraSans-Roman-31"/>
       <use x="159.033203125" xlink:href="#BitstreamVeraSans-Roman-30"/>
      </g>
     </g>
    </g>
    <g id="text_16">
     <!-- Angle (radian) -->
     <defs>
      <path id="BitstreamVeraSans-Roman-20"/>
      <path d="M 54.890625 33.015625 
L 54.890625 0 
L 45.90625 0 
L 45.90625 32.71875 
Q 45.90625 40.484375 42.875 44.328125 
Q 39.84375 48.1875 33.796875 48.1875 
Q 26.515625 48.1875 22.3125 43.546875 
Q 18.109375 38.921875 18.109375 30.90625 
L 18.109375 0 
L 9.078125 0 
L 9.078125 54.6875 
L 18.109375 54.6875 
L 18.109375 46.1875 
Q 21.34375 51.125 25.703125 53.5625 
Q 30.078125 56 35.796875 56 
Q 45.21875 56 50.046875 50.171875 
Q 54.890625 44.34375 54.890625 33.015625 
" id="BitstreamVeraSans-Roman-6e"/>
      <path d="M 31 75.875 
Q 24.46875 64.65625 21.28125 53.65625 
Q 18.109375 42.671875 18.109375 31.390625 
Q 18.109375 20.125 21.3125 9.0625 
Q 24.515625 -2 31 -13.1875 
L 23.1875 -13.1875 
Q 15.875 -1.703125 12.234375 9.375 
Q 8.59375 20.453125 8.59375 31.390625 
Q 8.59375 42.28125 12.203125 53.3125 
Q 15.828125 64.359375 23.1875 75.875 
z
" id="BitstreamVeraSans-Roman-28"/>
      <path d="M 9.421875 75.984375 
L 18.40625 75.984375 
L 18.40625 0 
L 9.421875 0 
z
" id="BitstreamVeraSans-Roman-6c"/>
      <path d="M 34.28125 27.484375 
Q 23.390625 27.484375 19.1875 25 
Q 14.984375 22.515625 14.984375 16.5 
Q 14.984375 11.71875 18.140625 8.90625 
Q 21.296875 6.109375 26.703125 6.109375 
Q 34.1875 6.109375 38.703125 11.40625 
Q 43.21875 16.703125 43.21875 25.484375 
L 43.21875 27.484375 
z
M 52.203125 31.203125 
L 52.203125 0 
L 43.21875 0 
L 43.21875 8.296875 
Q 40.140625 3.328125 35.546875 0.953125 
Q 30.953125 -1.421875 24.3125 -1.421875 
Q 15.921875 -1.421875 10.953125 3.296875 
Q 6 8.015625 6 15.921875 
Q 6 25.140625 12.171875 29.828125 
Q 18.359375 34.515625 30.609375 34.515625 
L 43.21875 34.515625 
L 43.21875 35.40625 
Q 43.21875 41.609375 39.140625 45 
Q 35.0625 48.390625 27.6875 48.390625 
Q 23 48.390625 18.546875 47.265625 
Q 14.109375 46.140625 10.015625 43.890625 
L 10.015625 52.203125 
Q 14.9375 54.109375 19.578125 55.046875 
Q 24.21875 56 28.609375 56 
Q 40.484375 56 46.34375 49.84375 
Q 52.203125 43.703125 52.203125 31.203125 
" id="BitstreamVeraSans-Roman-61"/>
      <path d="M 34.1875 63.1875 
L 20.796875 26.90625 
L 47.609375 26.90625 
z
M 28.609375 72.90625 
L 39.796875 72.90625 
L 67.578125 0 
L 57.328125 0 
L 50.6875 18.703125 
L 17.828125 18.703125 
L 11.1875 0 
L 0.78125 0 
z
" id="BitstreamVeraSans-Roman-41"/>
      <path d="M 45.40625 46.390625 
L 45.40625 75.984375 
L 54.390625 75.984375 
L 54.390625 0 
L 45.40625 0 
L 45.40625 8.203125 
Q 42.578125 3.328125 38.25 0.953125 
Q 33.9375 -1.421875 27.875 -1.421875 
Q 17.96875 -1.421875 11.734375 6.484375 
Q 5.515625 14.40625 5.515625 27.296875 
Q 5.515625 40.1875 11.734375 48.09375 
Q 17.96875 56 27.875 56 
Q 33.9375 56 38.25 53.625 
Q 42.578125 51.265625 45.40625 46.390625 
M 14.796875 27.296875 
Q 14.796875 17.390625 18.875 11.75 
Q 22.953125 6.109375 30.078125 6.109375 
Q 37.203125 6.109375 41.296875 11.75 
Q 45.40625 17.390625 45.40625 27.296875 
Q 45.40625 37.203125 41.296875 42.84375 
Q 37.203125 48.484375 30.078125 48.484375 
Q 22.953125 48.484375 18.875 42.84375 
Q 14.796875 37.203125 14.796875 27.296875 
" id="BitstreamVeraSans-Roman-64"/>
      <path d="M 45.40625 27.984375 
Q 45.40625 37.75 41.375 43.109375 
Q 37.359375 48.484375 30.078125 48.484375 
Q 22.859375 48.484375 18.828125 43.109375 
Q 14.796875 37.75 14.796875 27.984375 
Q 14.796875 18.265625 18.828125 12.890625 
Q 22.859375 7.515625 30.078125 7.515625 
Q 37.359375 7.515625 41.375 12.890625 
Q 45.40625 18.265625 45.40625 27.984375 
M 54.390625 6.78125 
Q 54.390625 -7.171875 48.1875 -13.984375 
Q 42 -20.796875 29.203125 -20.796875 
Q 24.46875 -20.796875 20.265625 -20.09375 
Q 16.0625 -19.390625 12.109375 -17.921875 
L 12.109375 -9.1875 
Q 16.0625 -11.328125 19.921875 -12.34375 
Q 23.78125 -13.375 27.78125 -13.375 
Q 36.625 -13.375 41.015625 -8.765625 
Q 45.40625 -4.15625 45.40625 5.171875 
L 45.40625 9.625 
Q 42.625 4.78125 38.28125 2.390625 
Q 33.9375 0 27.875 0 
Q 17.828125 0 11.671875 7.65625 
Q 5.515625 15.328125 5.515625 27.984375 
Q 5.515625 40.671875 11.671875 48.328125 
Q 17.828125 56 27.875 56 
Q 33.9375 56 38.28125 53.609375 
Q 42.625 51.21875 45.40625 46.390625 
L 45.40625 54.6875 
L 54.390625 54.6875 
z
" id="BitstreamVeraSans-Roman-67"/>
      <path d="M 41.109375 46.296875 
Q 39.59375 47.171875 37.8125 47.578125 
Q 36.03125 48 33.890625 48 
Q 26.265625 48 22.1875 43.046875 
Q 18.109375 38.09375 18.109375 28.8125 
L 18.109375 0 
L 9.078125 0 
L 9.078125 54.6875 
L 18.109375 54.6875 
L 18.109375 46.1875 
Q 20.953125 51.171875 25.484375 53.578125 
Q 30.03125 56 36.53125 56 
Q 37.453125 56 38.578125 55.875 
Q 39.703125 55.765625 41.0625 55.515625 
z
" id="BitstreamVeraSans-Roman-72"/>
      <path d="M 8.015625 75.875 
L 15.828125 75.875 
Q 23.140625 64.359375 26.78125 53.3125 
Q 30.421875 42.28125 30.421875 31.390625 
Q 30.421875 20.453125 26.78125 9.375 
Q 23.140625 -1.703125 15.828125 -13.1875 
L 8.015625 -13.1875 
Q 14.5 -2 17.703125 9.0625 
Q 20.90625 20.125 20.90625 31.390625 
Q 20.90625 42.671875 17.703125 53.65625 
Q 14.5 64.65625 8.015625 75.875 
" id="BitstreamVeraSans-Roman-29"/>
     </defs>
     <g transform="translate(23.729999999999997 258.7621875)rotate(-90.0)scale(0.12 -0.12)">
      <use xlink:href="#BitstreamVeraSans-Roman-41"/>
      <use x="68.408203125" xlink:href="#BitstreamVeraSans-Roman-6e"/>
      <use x="131.787109375" xlink:href="#BitstreamVeraSans-Roman-67"/>
      <use x="195.263671875" xlink:href="#BitstreamVeraSans-Roman-6c"/>
      <use x="223.046875" xlink:href="#BitstreamVeraSans-Roman-65"/>
      <use x="284.5703125" xlink:href="#BitstreamVeraSans-Roman-20"/>
      <use x="316.357421875" xlink:href="#BitstreamVeraSans-Roman-28"/>
      <use x="355.37109375" xlink:href="#BitstreamVeraSans-Roman-72"/>
      <use x="396.484375" xlink:href="#BitstreamVeraSans-Roman-61"/>
      <use x="457.763671875" xlink:href="#BitstreamVeraSans-Roman-64"/>
      <use x="521.240234375" xlink:href="#BitstreamVeraSans-Roman-69"/>
      <use x="549.0234375" xlink:href="#BitstreamVeraSans-Roman-61"/>
      <use x="610.302734375" xlink:href="#BitstreamVeraSans-Roman-6e"/>
      <use x="673.681640625" xlink:href="#BitstreamVeraSans-Roman-29"/>
     </g>
    </g>
   </g>
   <g id="text_17">
    <!-- Pitch Angle v/s Time -->
    <defs>
     <path d="M 19.671875 64.796875 
L 19.671875 37.40625 
L 32.078125 37.40625 
Q 38.96875 37.40625 42.71875 40.96875 
Q 46.484375 44.53125 46.484375 51.125 
Q 46.484375 57.671875 42.71875 61.234375 
Q 38.96875 64.796875 32.078125 64.796875 
z
M 9.8125 72.90625 
L 32.078125 72.90625 
Q 44.34375 72.90625 50.609375 67.359375 
Q 56.890625 61.8125 56.890625 51.125 
Q 56.890625 40.328125 50.609375 34.8125 
Q 44.34375 29.296875 32.078125 29.296875 
L 19.671875 29.296875 
L 19.671875 0 
L 9.8125 0 
z
" id="BitstreamVeraSans-Roman-50"/>
     <path d="M 54.890625 33.015625 
L 54.890625 0 
L 45.90625 0 
L 45.90625 32.71875 
Q 45.90625 40.484375 42.875 44.328125 
Q 39.84375 48.1875 33.796875 48.1875 
Q 26.515625 48.1875 22.3125 43.546875 
Q 18.109375 38.921875 18.109375 30.90625 
L 18.109375 0 
L 9.078125 0 
L 9.078125 75.984375 
L 18.109375 75.984375 
L 18.109375 46.1875 
Q 21.34375 51.125 25.703125 53.5625 
Q 30.078125 56 35.796875 56 
Q 45.21875 56 50.046875 50.171875 
Q 54.890625 44.34375 54.890625 33.015625 
" id="BitstreamVeraSans-Roman-68"/>
     <path d="M 25.390625 72.90625 
L 33.6875 72.90625 
L 8.296875 -9.28125 
L 0 -9.28125 
z
" id="BitstreamVeraSans-Roman-2f"/>
     <path d="M 2.984375 54.6875 
L 12.5 54.6875 
L 29.59375 8.796875 
L 46.6875 54.6875 
L 56.203125 54.6875 
L 35.6875 0 
L 23.484375 0 
z
" id="BitstreamVeraSans-Roman-76"/>
     <path d="M 18.3125 70.21875 
L 18.3125 54.6875 
L 36.8125 54.6875 
L 36.8125 47.703125 
L 18.3125 47.703125 
L 18.3125 18.015625 
Q 18.3125 11.328125 20.140625 9.421875 
Q 21.96875 7.515625 27.59375 7.515625 
L 36.8125 7.515625 
L 36.8125 0 
L 27.59375 0 
Q 17.1875 0 13.234375 3.875 
Q 9.28125 7.765625 9.28125 18.015625 
L 9.28125 47.703125 
L 2.6875 47.703125 
L 2.6875 54.6875 
L 9.28125 54.6875 
L 9.28125 70.21875 
z
" id="BitstreamVeraSans-Roman-74"/>
     <path d="M 44.28125 53.078125 
L 44.28125 44.578125 
Q 40.484375 46.53125 36.375 47.5 
Q 32.28125 48.484375 27.875 48.484375 
Q 21.1875 48.484375 17.84375 46.4375 
Q 14.5 44.390625 14.5 40.28125 
Q 14.5 37.15625 16.890625 35.375 
Q 19.28125 33.59375 26.515625 31.984375 
L 29.59375 31.296875 
Q 39.15625 29.25 43.1875 25.515625 
Q 47.21875 21.78125 47.21875 15.09375 
Q 47.21875 7.46875 41.1875 3.015625 
Q 35.15625 -1.421875 24.609375 -1.421875 
Q 20.21875 -1.421875 15.453125 -0.5625 
Q 10.6875 0.296875 5.421875 2 
L 5.421875 11.28125 
Q 10.40625 8.6875 15.234375 7.390625 
Q 20.0625 6.109375 24.8125 6.109375 
Q 31.15625 6.109375 34.5625 8.28125 
Q 37.984375 10.453125 37.984375 14.40625 
Q 37.984375 18.0625 35.515625 20.015625 
Q 33.0625 21.96875 24.703125 23.78125 
L 21.578125 24.515625 
Q 13.234375 26.265625 9.515625 29.90625 
Q 5.8125 33.546875 5.8125 39.890625 
Q 5.8125 47.609375 11.28125 51.796875 
Q 16.75 56 26.8125 56 
Q 31.78125 56 36.171875 55.265625 
Q 40.578125 54.546875 44.28125 53.078125 
" id="BitstreamVeraSans-Roman-73"/>
     <path d="M 48.78125 52.59375 
L 48.78125 44.1875 
Q 44.96875 46.296875 41.140625 47.34375 
Q 37.3125 48.390625 33.40625 48.390625 
Q 24.65625 48.390625 19.8125 42.84375 
Q 14.984375 37.3125 14.984375 27.296875 
Q 14.984375 17.28125 19.8125 11.734375 
Q 24.65625 6.203125 33.40625 6.203125 
Q 37.3125 6.203125 41.140625 7.25 
Q 44.96875 8.296875 48.78125 10.40625 
L 48.78125 2.09375 
Q 45.015625 0.34375 40.984375 -0.53125 
Q 36.96875 -1.421875 32.421875 -1.421875 
Q 20.0625 -1.421875 12.78125 6.34375 
Q 5.515625 14.109375 5.515625 27.296875 
Q 5.515625 40.671875 12.859375 48.328125 
Q 20.21875 56 33.015625 56 
Q 37.15625 56 41.109375 55.140625 
Q 45.0625 54.296875 48.78125 52.59375 
" id="BitstreamVeraSans-Roman-63"/>
    </defs>
    <g transform="translate(221.886 38.19999999999999)scale(0.144 -0.144)">
     <use xlink:href="#BitstreamVeraSans-Roman-50"/>
     <use x="60.271484375" xlink:href="#BitstreamVeraSans-Roman-69"/>
     <use x="88.0546875" xlink:href="#BitstreamVeraSans-Roman-74"/>
     <use x="127.263671875" xlink:href="#BitstreamVeraSans-Roman-63"/>
     <use x="182.244140625" xlink:href="#BitstreamVeraSans-Roman-68"/>
     <use x="245.623046875" xlink:href="#BitstreamVeraSans-Roman-20"/>
     <use x="277.41015625" xlink:href="#BitstreamVeraSans-Roman-41"/>
     <use x="345.818359375" xlink:href="#BitstreamVeraSans-Roman-6e"/>
     <use x="409.197265625" xlink:href="#BitstreamVeraSans-Roman-67"/>
     <use x="472.673828125" xlink:href="#BitstreamVeraSans-Roman-6c"/>
     <use x="500.45703125" xlink:href="#BitstreamVeraSans-Roman-65"/>
     <use x="561.98046875" xlink:href="#BitstreamVeraSans-Roman-20"/>
     <use x="593.767578125" xlink:href="#BitstreamVeraSans-Roman-76"/>
     <use x="652.947265625" xlink:href="#BitstreamVeraSans-Roman-2f"/>
     <use x="686.638671875" xlink:href="#BitstreamVeraSans-Roman-73"/>
     <use x="738.73828125" xlink:href="#BitstreamVeraSans-Roman-20"/>
     <use x="770.525390625" xlink:href="#BitstreamVeraSans-Roman-54"/>
     <use x="831.5625" xlink:href="#BitstreamVeraSans-Roman-69"/>
     <use x="859.345703125" xlink:href="#BitstreamVeraSans-Roman-6d"/>
     <use x="956.7578125" xlink:href="#BitstreamVeraSans-Roman-65"/>
    </g>
   </g>
   <g id="legend_1">
    <g id="patch_7">
     <path d="M 79.2 75.8565 
L 166.40775 75.8565 
L 166.40775 50.4 
L 79.2 50.4 
z
" style="fill:#ffffff;stroke:#000000;stroke-linejoin:miter;"/>
    </g>
    <g id="line2d_28">
     <path d="M 89.28 62.06175 
L 109.44 62.06175 
" style="fill:none;stroke:#ffa500;stroke-linecap:square;"/>
    </g>
    <g id="line2d_29"/>
    <g id="text_18">
     <!-- Pitch -->
     <g transform="translate(125.28 67.10174999999998)scale(0.144 -0.144)">
      <use xlink:href="#BitstreamVeraSans-Roman-50"/>
      <use x="60.271484375" xlink:href="#BitstreamVeraSans-Roman-69"/>
      <use x="88.0546875" xlink:href="#BitstreamVeraSans-Roman-74"/>
      <use x="127.263671875" xlink:href="#BitstreamVeraSans-Roman-63"/>
      <use x="182.244140625" xlink:href="#BitstreamVeraSans-Roman-68"/>
     </g>
    </g>
   </g>
  </g>
 </g>
 <defs>
  <clipPath id="p96750710a2">
   <rect height="345.6" width="446.4" x="72.0" y="43.19999999999999"/>
  </clipPath>
 </defs>
</svg>
