<?xml version="1.0" encoding="utf-8" standalone="no"?>
<!DOCTYPE svg PUBLIC "-//W3C//DTD SVG 1.1//EN"
  "http://www.w3.org/Graphics/SVG/1.1/DTD/svg11.dtd">
<!-- Created with matplotlib (https://matplotlib.org/) -->
<svg height="345.6pt" version="1.1" viewBox="0 0 460.8 345.6" width="460.8pt" xmlns="http://www.w3.org/2000/svg" xmlns:xlink="http://www.w3.org/1999/xlink">
 <defs>
  <style type="text/css">
*{stroke-linecap:butt;stroke-linejoin:round;}
  </style>
 </defs>
 <g id="figure_1">
  <g id="patch_1">
   <path d="M 0 345.6 
L 460.8 345.6 
L 460.8 0 
L 0 0 
z
" style="fill:#ffffff;"/>
  </g>
  <g id="axes_1">
   <g id="patch_2">
    <path d="M 57.6 307.584 
L 414.72 307.584 
L 414.72 41.472 
L 57.6 41.472 
z
" style="fill:#ffffff;"/>
   </g>
   <g id="matplotlib.axis_1">
    <g id="xtick_1">
     <g id="line2d_1">
      <defs>
       <path d="M 0 0 
L 0 3.5 
" id="m36a738c2c8" style="stroke:#000000;stroke-width:0.8;"/>
      </defs>
      <g>
       <use style="stroke:#000000;stroke-width:0.8;" x="94.875152" xlink:href="#m36a738c2c8" y="307.584"/>
      </g>
     </g>
     <g id="text_1">
      <!-- 820 -->
      <defs>
       <path d="M 31.78125 34.625 
Q 24.75 34.625 20.71875 30.859375 
Q 16.703125 27.09375 16.703125 20.515625 
Q 16.703125 13.921875 20.71875 10.15625 
Q 24.75 6.390625 31.78125 6.390625 
Q 38.8125 6.390625 42.859375 10.171875 
Q 46.921875 13.96875 46.921875 20.515625 
Q 46.921875 27.09375 42.890625 30.859375 
Q 38.875 34.625 31.78125 34.625 
z
M 21.921875 38.8125 
Q 15.578125 40.375 12.03125 44.71875 
Q 8.5 49.078125 8.5 55.328125 
Q 8.5 64.0625 14.71875 69.140625 
Q 20.953125 74.21875 31.78125 74.21875 
Q 42.671875 74.21875 48.875 69.140625 
Q 55.078125 64.0625 55.078125 55.328125 
Q 55.078125 49.078125 51.53125 44.71875 
Q 48 40.375 41.703125 38.8125 
Q 48.828125 37.15625 52.796875 32.3125 
Q 56.78125 27.484375 56.78125 20.515625 
Q 56.78125 9.90625 50.3125 4.234375 
Q 43.84375 -1.421875 31.78125 -1.421875 
Q 19.734375 -1.421875 13.25 4.234375 
Q 6.78125 9.90625 6.78125 20.515625 
Q 6.78125 27.484375 10.78125 32.3125 
Q 14.796875 37.15625 21.921875 38.8125 
z
M 18.3125 54.390625 
Q 18.3125 48.734375 21.84375 45.5625 
Q 25.390625 42.390625 31.78125 42.390625 
Q 38.140625 42.390625 41.71875 45.5625 
Q 45.3125 48.734375 45.3125 54.390625 
Q 45.3125 60.0625 41.71875 63.234375 
Q 38.140625 66.40625 31.78125 66.40625 
Q 25.390625 66.40625 21.84375 63.234375 
Q 18.3125 60.0625 18.3125 54.390625 
z
" id="DejaVuSans-56"/>
       <path d="M 19.1875 8.296875 
L 53.609375 8.296875 
L 53.609375 0 
L 7.328125 0 
L 7.328125 8.296875 
Q 12.9375 14.109375 22.625 23.890625 
Q 32.328125 33.6875 34.8125 36.53125 
Q 39.546875 41.84375 41.421875 45.53125 
Q 43.3125 49.21875 43.3125 52.78125 
Q 43.3125 58.59375 39.234375 62.25 
Q 35.15625 65.921875 28.609375 65.921875 
Q 23.96875 65.921875 18.8125 64.3125 
Q 13.671875 62.703125 7.8125 59.421875 
L 7.8125 69.390625 
Q 13.765625 71.78125 18.9375 73 
Q 24.125 74.21875 28.421875 74.21875 
Q 39.75 74.21875 46.484375 68.546875 
Q 53.21875 62.890625 53.21875 53.421875 
Q 53.21875 48.921875 51.53125 44.890625 
Q 49.859375 40.875 45.40625 35.40625 
Q 44.1875 33.984375 37.640625 27.21875 
Q 31.109375 20.453125 19.1875 8.296875 
z
" id="DejaVuSans-50"/>
       <path d="M 31.78125 66.40625 
Q 24.171875 66.40625 20.328125 58.90625 
Q 16.5 51.421875 16.5 36.375 
Q 16.5 21.390625 20.328125 13.890625 
Q 24.171875 6.390625 31.78125 6.390625 
Q 39.453125 6.390625 43.28125 13.890625 
Q 47.125 21.390625 47.125 36.375 
Q 47.125 51.421875 43.28125 58.90625 
Q 39.453125 66.40625 31.78125 66.40625 
z
M 31.78125 74.21875 
Q 44.046875 74.21875 50.515625 64.515625 
Q 56.984375 54.828125 56.984375 36.375 
Q 56.984375 17.96875 50.515625 8.265625 
Q 44.046875 -1.421875 31.78125 -1.421875 
Q 19.53125 -1.421875 13.0625 8.265625 
Q 6.59375 17.96875 6.59375 36.375 
Q 6.59375 54.828125 13.0625 64.515625 
Q 19.53125 74.21875 31.78125 74.21875 
z
" id="DejaVuSans-48"/>
      </defs>
      <g transform="translate(85.331402 322.182437)scale(0.1 -0.1)">
       <use xlink:href="#DejaVuSans-56"/>
       <use x="63.623047" xlink:href="#DejaVuSans-50"/>
       <use x="127.246094" xlink:href="#DejaVuSans-48"/>
      </g>
     </g>
    </g>
    <g id="xtick_2">
     <g id="line2d_2">
      <g>
       <use style="stroke:#000000;stroke-width:0.8;" x="154.996364" xlink:href="#m36a738c2c8" y="307.584"/>
      </g>
     </g>
     <g id="text_2">
      <!-- 840 -->
      <defs>
       <path d="M 37.796875 64.3125 
L 12.890625 25.390625 
L 37.796875 25.390625 
z
M 35.203125 72.90625 
L 47.609375 72.90625 
L 47.609375 25.390625 
L 58.015625 25.390625 
L 58.015625 17.1875 
L 47.609375 17.1875 
L 47.609375 0 
L 37.796875 0 
L 37.796875 17.1875 
L 4.890625 17.1875 
L 4.890625 26.703125 
z
" id="DejaVuSans-52"/>
      </defs>
      <g transform="translate(145.452614 322.182437)scale(0.1 -0.1)">
       <use xlink:href="#DejaVuSans-56"/>
       <use x="63.623047" xlink:href="#DejaVuSans-52"/>
       <use x="127.246094" xlink:href="#DejaVuSans-48"/>
      </g>
     </g>
    </g>
    <g id="xtick_3">
     <g id="line2d_3">
      <g>
       <use style="stroke:#000000;stroke-width:0.8;" x="215.117576" xlink:href="#m36a738c2c8" y="307.584"/>
      </g>
     </g>
     <g id="text_3">
      <!-- 860 -->
      <defs>
       <path d="M 33.015625 40.375 
Q 26.375 40.375 22.484375 35.828125 
Q 18.609375 31.296875 18.609375 23.390625 
Q 18.609375 15.53125 22.484375 10.953125 
Q 26.375 6.390625 33.015625 6.390625 
Q 39.65625 6.390625 43.53125 10.953125 
Q 47.40625 15.53125 47.40625 23.390625 
Q 47.40625 31.296875 43.53125 35.828125 
Q 39.65625 40.375 33.015625 40.375 
z
M 52.59375 71.296875 
L 52.59375 62.3125 
Q 48.875 64.0625 45.09375 64.984375 
Q 41.3125 65.921875 37.59375 65.921875 
Q 27.828125 65.921875 22.671875 59.328125 
Q 17.53125 52.734375 16.796875 39.40625 
Q 19.671875 43.65625 24.015625 45.921875 
Q 28.375 48.1875 33.59375 48.1875 
Q 44.578125 48.1875 50.953125 41.515625 
Q 57.328125 34.859375 57.328125 23.390625 
Q 57.328125 12.15625 50.6875 5.359375 
Q 44.046875 -1.421875 33.015625 -1.421875 
Q 20.359375 -1.421875 13.671875 8.265625 
Q 6.984375 17.96875 6.984375 36.375 
Q 6.984375 53.65625 15.1875 63.9375 
Q 23.390625 74.21875 37.203125 74.21875 
Q 40.921875 74.21875 44.703125 73.484375 
Q 48.484375 72.75 52.59375 71.296875 
z
" id="DejaVuSans-54"/>
      </defs>
      <g transform="translate(205.573826 322.182437)scale(0.1 -0.1)">
       <use xlink:href="#DejaVuSans-56"/>
       <use x="63.623047" xlink:href="#DejaVuSans-54"/>
       <use x="127.246094" xlink:href="#DejaVuSans-48"/>
      </g>
     </g>
    </g>
    <g id="xtick_4">
     <g id="line2d_4">
      <g>
       <use style="stroke:#000000;stroke-width:0.8;" x="275.238788" xlink:href="#m36a738c2c8" y="307.584"/>
      </g>
     </g>
     <g id="text_4">
      <!-- 880 -->
      <g transform="translate(265.695038 322.182437)scale(0.1 -0.1)">
       <use xlink:href="#DejaVuSans-56"/>
       <use x="63.623047" xlink:href="#DejaVuSans-56"/>
       <use x="127.246094" xlink:href="#DejaVuSans-48"/>
      </g>
     </g>
    </g>
    <g id="xtick_5">
     <g id="line2d_5">
      <g>
       <use style="stroke:#000000;stroke-width:0.8;" x="335.36" xlink:href="#m36a738c2c8" y="307.584"/>
      </g>
     </g>
     <g id="text_5">
      <!-- 900 -->
      <defs>
       <path d="M 10.984375 1.515625 
L 10.984375 10.5 
Q 14.703125 8.734375 18.5 7.8125 
Q 22.3125 6.890625 25.984375 6.890625 
Q 35.75 6.890625 40.890625 13.453125 
Q 46.046875 20.015625 46.78125 33.40625 
Q 43.953125 29.203125 39.59375 26.953125 
Q 35.25 24.703125 29.984375 24.703125 
Q 19.046875 24.703125 12.671875 31.3125 
Q 6.296875 37.9375 6.296875 49.421875 
Q 6.296875 60.640625 12.9375 67.421875 
Q 19.578125 74.21875 30.609375 74.21875 
Q 43.265625 74.21875 49.921875 64.515625 
Q 56.59375 54.828125 56.59375 36.375 
Q 56.59375 19.140625 48.40625 8.859375 
Q 40.234375 -1.421875 26.421875 -1.421875 
Q 22.703125 -1.421875 18.890625 -0.6875 
Q 15.09375 0.046875 10.984375 1.515625 
z
M 30.609375 32.421875 
Q 37.25 32.421875 41.125 36.953125 
Q 45.015625 41.5 45.015625 49.421875 
Q 45.015625 57.28125 41.125 61.84375 
Q 37.25 66.40625 30.609375 66.40625 
Q 23.96875 66.40625 20.09375 61.84375 
Q 16.21875 57.28125 16.21875 49.421875 
Q 16.21875 41.5 20.09375 36.953125 
Q 23.96875 32.421875 30.609375 32.421875 
z
" id="DejaVuSans-57"/>
      </defs>
      <g transform="translate(325.81625 322.182437)scale(0.1 -0.1)">
       <use xlink:href="#DejaVuSans-57"/>
       <use x="63.623047" xlink:href="#DejaVuSans-48"/>
       <use x="127.246094" xlink:href="#DejaVuSans-48"/>
      </g>
     </g>
    </g>
    <g id="xtick_6">
     <g id="line2d_6">
      <g>
       <use style="stroke:#000000;stroke-width:0.8;" x="395.481212" xlink:href="#m36a738c2c8" y="307.584"/>
      </g>
     </g>
     <g id="text_6">
      <!-- 920 -->
      <g transform="translate(385.937462 322.182437)scale(0.1 -0.1)">
       <use xlink:href="#DejaVuSans-57"/>
       <use x="63.623047" xlink:href="#DejaVuSans-50"/>
       <use x="127.246094" xlink:href="#DejaVuSans-48"/>
      </g>
     </g>
    </g>
    <g id="text_7">
     <!-- Time -->
     <defs>
      <path d="M -0.296875 72.90625 
L 61.375 72.90625 
L 61.375 64.59375 
L 35.5 64.59375 
L 35.5 0 
L 25.59375 0 
L 25.59375 64.59375 
L -0.296875 64.59375 
z
" id="DejaVuSans-84"/>
      <path d="M 9.421875 54.6875 
L 18.40625 54.6875 
L 18.40625 0 
L 9.421875 0 
z
M 9.421875 75.984375 
L 18.40625 75.984375 
L 18.40625 64.59375 
L 9.421875 64.59375 
z
" id="DejaVuSans-105"/>
      <path d="M 52 44.1875 
Q 55.375 50.25 60.0625 53.125 
Q 64.75 56 71.09375 56 
Q 79.640625 56 84.28125 50.015625 
Q 88.921875 44.046875 88.921875 33.015625 
L 88.921875 0 
L 79.890625 0 
L 79.890625 32.71875 
Q 79.890625 40.578125 77.09375 44.375 
Q 74.3125 48.1875 68.609375 48.1875 
Q 61.625 48.1875 57.5625 43.546875 
Q 53.515625 38.921875 53.515625 30.90625 
L 53.515625 0 
L 44.484375 0 
L 44.484375 32.71875 
Q 44.484375 40.625 41.703125 44.40625 
Q 38.921875 48.1875 33.109375 48.1875 
Q 26.21875 48.1875 22.15625 43.53125 
Q 18.109375 38.875 18.109375 30.90625 
L 18.109375 0 
L 9.078125 0 
L 9.078125 54.6875 
L 18.109375 54.6875 
L 18.109375 46.1875 
Q 21.1875 51.21875 25.484375 53.609375 
Q 29.78125 56 35.6875 56 
Q 41.65625 56 45.828125 52.96875 
Q 50 49.953125 52 44.1875 
z
" id="DejaVuSans-109"/>
      <path d="M 56.203125 29.59375 
L 56.203125 25.203125 
L 14.890625 25.203125 
Q 15.484375 15.921875 20.484375 11.0625 
Q 25.484375 6.203125 34.421875 6.203125 
Q 39.59375 6.203125 44.453125 7.46875 
Q 49.3125 8.734375 54.109375 11.28125 
L 54.109375 2.78125 
Q 49.265625 0.734375 44.1875 -0.34375 
Q 39.109375 -1.421875 33.890625 -1.421875 
Q 20.796875 -1.421875 13.15625 6.1875 
Q 5.515625 13.8125 5.515625 26.8125 
Q 5.515625 40.234375 12.765625 48.109375 
Q 20.015625 56 32.328125 56 
Q 43.359375 56 49.78125 48.890625 
Q 56.203125 41.796875 56.203125 29.59375 
z
M 47.21875 32.234375 
Q 47.125 39.59375 43.09375 43.984375 
Q 39.0625 48.390625 32.421875 48.390625 
Q 24.90625 48.390625 20.390625 44.140625 
Q 15.875 39.890625 15.1875 32.171875 
z
" id="DejaVuSans-101"/>
     </defs>
     <g transform="translate(223.7725 335.860562)scale(0.1 -0.1)">
      <use xlink:href="#DejaVuSans-84"/>
      <use x="61.037109" xlink:href="#DejaVuSans-105"/>
      <use x="88.820312" xlink:href="#DejaVuSans-109"/>
      <use x="186.232422" xlink:href="#DejaVuSans-101"/>
     </g>
    </g>
    <g id="text_8">
     <!-- +1.58135e9 -->
     <defs>
      <path d="M 46 62.703125 
L 46 35.5 
L 73.1875 35.5 
L 73.1875 27.203125 
L 46 27.203125 
L 46 0 
L 37.796875 0 
L 37.796875 27.203125 
L 10.59375 27.203125 
L 10.59375 35.5 
L 37.796875 35.5 
L 37.796875 62.703125 
z
" id="DejaVuSans-43"/>
      <path d="M 12.40625 8.296875 
L 28.515625 8.296875 
L 28.515625 63.921875 
L 10.984375 60.40625 
L 10.984375 69.390625 
L 28.421875 72.90625 
L 38.28125 72.90625 
L 38.28125 8.296875 
L 54.390625 8.296875 
L 54.390625 0 
L 12.40625 0 
z
" id="DejaVuSans-49"/>
      <path d="M 10.6875 12.40625 
L 21 12.40625 
L 21 0 
L 10.6875 0 
z
" id="DejaVuSans-46"/>
      <path d="M 10.796875 72.90625 
L 49.515625 72.90625 
L 49.515625 64.59375 
L 19.828125 64.59375 
L 19.828125 46.734375 
Q 21.96875 47.46875 24.109375 47.828125 
Q 26.265625 48.1875 28.421875 48.1875 
Q 40.625 48.1875 47.75 41.5 
Q 54.890625 34.8125 54.890625 23.390625 
Q 54.890625 11.625 47.5625 5.09375 
Q 40.234375 -1.421875 26.90625 -1.421875 
Q 22.3125 -1.421875 17.546875 -0.640625 
Q 12.796875 0.140625 7.71875 1.703125 
L 7.71875 11.625 
Q 12.109375 9.234375 16.796875 8.0625 
Q 21.484375 6.890625 26.703125 6.890625 
Q 35.15625 6.890625 40.078125 11.328125 
Q 45.015625 15.765625 45.015625 23.390625 
Q 45.015625 31 40.078125 35.4375 
Q 35.15625 39.890625 26.703125 39.890625 
Q 22.75 39.890625 18.8125 39.015625 
Q 14.890625 38.140625 10.796875 36.28125 
z
" id="DejaVuSans-53"/>
      <path d="M 40.578125 39.3125 
Q 47.65625 37.796875 51.625 33 
Q 55.609375 28.21875 55.609375 21.1875 
Q 55.609375 10.40625 48.1875 4.484375 
Q 40.765625 -1.421875 27.09375 -1.421875 
Q 22.515625 -1.421875 17.65625 -0.515625 
Q 12.796875 0.390625 7.625 2.203125 
L 7.625 11.71875 
Q 11.71875 9.328125 16.59375 8.109375 
Q 21.484375 6.890625 26.8125 6.890625 
Q 36.078125 6.890625 40.9375 10.546875 
Q 45.796875 14.203125 45.796875 21.1875 
Q 45.796875 27.640625 41.28125 31.265625 
Q 36.765625 34.90625 28.71875 34.90625 
L 20.21875 34.90625 
L 20.21875 43.015625 
L 29.109375 43.015625 
Q 36.375 43.015625 40.234375 45.921875 
Q 44.09375 48.828125 44.09375 54.296875 
Q 44.09375 59.90625 40.109375 62.90625 
Q 36.140625 65.921875 28.71875 65.921875 
Q 24.65625 65.921875 20.015625 65.03125 
Q 15.375 64.15625 9.8125 62.3125 
L 9.8125 71.09375 
Q 15.4375 72.65625 20.34375 73.4375 
Q 25.25 74.21875 29.59375 74.21875 
Q 40.828125 74.21875 47.359375 69.109375 
Q 53.90625 64.015625 53.90625 55.328125 
Q 53.90625 49.265625 50.4375 45.09375 
Q 46.96875 40.921875 40.578125 39.3125 
z
" id="DejaVuSans-51"/>
     </defs>
     <g transform="translate(352.471563 334.860562)scale(0.1 -0.1)">
      <use xlink:href="#DejaVuSans-43"/>
      <use x="83.789062" xlink:href="#DejaVuSans-49"/>
      <use x="147.412109" xlink:href="#DejaVuSans-46"/>
      <use x="179.199219" xlink:href="#DejaVuSans-53"/>
      <use x="242.822266" xlink:href="#DejaVuSans-56"/>
      <use x="306.445312" xlink:href="#DejaVuSans-49"/>
      <use x="370.068359" xlink:href="#DejaVuSans-51"/>
      <use x="433.691406" xlink:href="#DejaVuSans-53"/>
      <use x="497.314453" xlink:href="#DejaVuSans-101"/>
      <use x="558.837891" xlink:href="#DejaVuSans-57"/>
     </g>
    </g>
   </g>
   <g id="matplotlib.axis_2">
    <g id="ytick_1">
     <g id="line2d_7">
      <defs>
       <path d="M 0 0 
L -3.5 0 
" id="mf4edf68438" style="stroke:#000000;stroke-width:0.8;"/>
      </defs>
      <g>
       <use style="stroke:#000000;stroke-width:0.8;" x="57.6" xlink:href="#mf4edf68438" y="260.424569"/>
      </g>
     </g>
     <g id="text_9">
      <!-- −0.04 -->
      <defs>
       <path d="M 10.59375 35.5 
L 73.1875 35.5 
L 73.1875 27.203125 
L 10.59375 27.203125 
z
" id="DejaVuSans-8722"/>
      </defs>
      <g transform="translate(19.954687 264.223787)scale(0.1 -0.1)">
       <use xlink:href="#DejaVuSans-8722"/>
       <use x="83.789062" xlink:href="#DejaVuSans-48"/>
       <use x="147.412109" xlink:href="#DejaVuSans-46"/>
       <use x="179.199219" xlink:href="#DejaVuSans-48"/>
       <use x="242.822266" xlink:href="#DejaVuSans-52"/>
      </g>
     </g>
    </g>
    <g id="ytick_2">
     <g id="line2d_8">
      <g>
       <use style="stroke:#000000;stroke-width:0.8;" x="57.6" xlink:href="#mf4edf68438" y="207.029279"/>
      </g>
     </g>
     <g id="text_10">
      <!-- −0.02 -->
      <g transform="translate(19.954687 210.828497)scale(0.1 -0.1)">
       <use xlink:href="#DejaVuSans-8722"/>
       <use x="83.789062" xlink:href="#DejaVuSans-48"/>
       <use x="147.412109" xlink:href="#DejaVuSans-46"/>
       <use x="179.199219" xlink:href="#DejaVuSans-48"/>
       <use x="242.822266" xlink:href="#DejaVuSans-50"/>
      </g>
     </g>
    </g>
    <g id="ytick_3">
     <g id="line2d_9">
      <g>
       <use style="stroke:#000000;stroke-width:0.8;" x="57.6" xlink:href="#mf4edf68438" y="153.633988"/>
      </g>
     </g>
     <g id="text_11">
      <!-- 0.00 -->
      <g transform="translate(28.334375 157.433207)scale(0.1 -0.1)">
       <use xlink:href="#DejaVuSans-48"/>
       <use x="63.623047" xlink:href="#DejaVuSans-46"/>
       <use x="95.410156" xlink:href="#DejaVuSans-48"/>
       <use x="159.033203" xlink:href="#DejaVuSans-48"/>
      </g>
     </g>
    </g>
    <g id="ytick_4">
     <g id="line2d_10">
      <g>
       <use style="stroke:#000000;stroke-width:0.8;" x="57.6" xlink:href="#mf4edf68438" y="100.238698"/>
      </g>
     </g>
     <g id="text_12">
      <!-- 0.02 -->
      <g transform="translate(28.334375 104.037917)scale(0.1 -0.1)">
       <use xlink:href="#DejaVuSans-48"/>
       <use x="63.623047" xlink:href="#DejaVuSans-46"/>
       <use x="95.410156" xlink:href="#DejaVuSans-48"/>
       <use x="159.033203" xlink:href="#DejaVuSans-50"/>
      </g>
     </g>
    </g>
    <g id="ytick_5">
     <g id="line2d_11">
      <g>
       <use style="stroke:#000000;stroke-width:0.8;" x="57.6" xlink:href="#mf4edf68438" y="46.843408"/>
      </g>
     </g>
     <g id="text_13">
      <!-- 0.04 -->
      <g transform="translate(28.334375 50.642627)scale(0.1 -0.1)">
       <use xlink:href="#DejaVuSans-48"/>
       <use x="63.623047" xlink:href="#DejaVuSans-46"/>
       <use x="95.410156" xlink:href="#DejaVuSans-48"/>
       <use x="159.033203" xlink:href="#DejaVuSans-52"/>
      </g>
     </g>
    </g>
    <g id="text_14">
     <!-- Roll Angle -->
     <defs>
      <path d="M 44.390625 34.1875 
Q 47.5625 33.109375 50.5625 29.59375 
Q 53.5625 26.078125 56.59375 19.921875 
L 66.609375 0 
L 56 0 
L 46.6875 18.703125 
Q 43.0625 26.03125 39.671875 28.421875 
Q 36.28125 30.8125 30.421875 30.8125 
L 19.671875 30.8125 
L 19.671875 0 
L 9.8125 0 
L 9.8125 72.90625 
L 32.078125 72.90625 
Q 44.578125 72.90625 50.734375 67.671875 
Q 56.890625 62.453125 56.890625 51.90625 
Q 56.890625 45.015625 53.6875 40.46875 
Q 50.484375 35.9375 44.390625 34.1875 
z
M 19.671875 64.796875 
L 19.671875 38.921875 
L 32.078125 38.921875 
Q 39.203125 38.921875 42.84375 42.21875 
Q 46.484375 45.515625 46.484375 51.90625 
Q 46.484375 58.296875 42.84375 61.546875 
Q 39.203125 64.796875 32.078125 64.796875 
z
" id="DejaVuSans-82"/>
      <path d="M 30.609375 48.390625 
Q 23.390625 48.390625 19.1875 42.75 
Q 14.984375 37.109375 14.984375 27.296875 
Q 14.984375 17.484375 19.15625 11.84375 
Q 23.34375 6.203125 30.609375 6.203125 
Q 37.796875 6.203125 41.984375 11.859375 
Q 46.1875 17.53125 46.1875 27.296875 
Q 46.1875 37.015625 41.984375 42.703125 
Q 37.796875 48.390625 30.609375 48.390625 
z
M 30.609375 56 
Q 42.328125 56 49.015625 48.375 
Q 55.71875 40.765625 55.71875 27.296875 
Q 55.71875 13.875 49.015625 6.21875 
Q 42.328125 -1.421875 30.609375 -1.421875 
Q 18.84375 -1.421875 12.171875 6.21875 
Q 5.515625 13.875 5.515625 27.296875 
Q 5.515625 40.765625 12.171875 48.375 
Q 18.84375 56 30.609375 56 
z
" id="DejaVuSans-111"/>
      <path d="M 9.421875 75.984375 
L 18.40625 75.984375 
L 18.40625 0 
L 9.421875 0 
z
" id="DejaVuSans-108"/>
      <path id="DejaVuSans-32"/>
      <path d="M 34.1875 63.1875 
L 20.796875 26.90625 
L 47.609375 26.90625 
z
M 28.609375 72.90625 
L 39.796875 72.90625 
L 67.578125 0 
L 57.328125 0 
L 50.6875 18.703125 
L 17.828125 18.703125 
L 11.1875 0 
L 0.78125 0 
z
" id="DejaVuSans-65"/>
      <path d="M 54.890625 33.015625 
L 54.890625 0 
L 45.90625 0 
L 45.90625 32.71875 
Q 45.90625 40.484375 42.875 44.328125 
Q 39.84375 48.1875 33.796875 48.1875 
Q 26.515625 48.1875 22.3125 43.546875 
Q 18.109375 38.921875 18.109375 30.90625 
L 18.109375 0 
L 9.078125 0 
L 9.078125 54.6875 
L 18.109375 54.6875 
L 18.109375 46.1875 
Q 21.34375 51.125 25.703125 53.5625 
Q 30.078125 56 35.796875 56 
Q 45.21875 56 50.046875 50.171875 
Q 54.890625 44.34375 54.890625 33.015625 
z
" id="DejaVuSans-110"/>
      <path d="M 45.40625 27.984375 
Q 45.40625 37.75 41.375 43.109375 
Q 37.359375 48.484375 30.078125 48.484375 
Q 22.859375 48.484375 18.828125 43.109375 
Q 14.796875 37.75 14.796875 27.984375 
Q 14.796875 18.265625 18.828125 12.890625 
Q 22.859375 7.515625 30.078125 7.515625 
Q 37.359375 7.515625 41.375 12.890625 
Q 45.40625 18.265625 45.40625 27.984375 
z
M 54.390625 6.78125 
Q 54.390625 -7.171875 48.1875 -13.984375 
Q 42 -20.796875 29.203125 -20.796875 
Q 24.46875 -20.796875 20.265625 -20.09375 
Q 16.0625 -19.390625 12.109375 -17.921875 
L 12.109375 -9.1875 
Q 16.0625 -11.328125 19.921875 -12.34375 
Q 23.78125 -13.375 27.78125 -13.375 
Q 36.625 -13.375 41.015625 -8.765625 
Q 45.40625 -4.15625 45.40625 5.171875 
L 45.40625 9.625 
Q 42.625 4.78125 38.28125 2.390625 
Q 33.9375 0 27.875 0 
Q 17.828125 0 11.671875 7.65625 
Q 5.515625 15.328125 5.515625 27.984375 
Q 5.515625 40.671875 11.671875 48.328125 
Q 17.828125 56 27.875 56 
Q 33.9375 56 38.28125 53.609375 
Q 42.625 51.21875 45.40625 46.390625 
L 45.40625 54.6875 
L 54.390625 54.6875 
z
" id="DejaVuSans-103"/>
     </defs>
     <g transform="translate(13.875 199.654562)rotate(-90)scale(0.1 -0.1)">
      <use xlink:href="#DejaVuSans-82"/>
      <use x="69.419922" xlink:href="#DejaVuSans-111"/>
      <use x="130.601562" xlink:href="#DejaVuSans-108"/>
      <use x="158.384766" xlink:href="#DejaVuSans-108"/>
      <use x="186.167969" xlink:href="#DejaVuSans-32"/>
      <use x="217.955078" xlink:href="#DejaVuSans-65"/>
      <use x="286.363281" xlink:href="#DejaVuSans-110"/>
      <use x="349.742188" xlink:href="#DejaVuSans-103"/>
      <use x="413.21875" xlink:href="#DejaVuSans-108"/>
      <use x="441.001953" xlink:href="#DejaVuSans-101"/>
     </g>
    </g>
   </g>
   <g id="line2d_12">
    <path clip-path="url(#pffd9bab0ae)" d="M 73.832727 153.633988 
L 398.487272 153.633988 
L 398.487272 153.633988 
" style="fill:none;stroke:#1f77b4;stroke-linecap:square;stroke-width:1.5;"/>
   </g>
   <g id="line2d_13">
    <path clip-path="url(#pffd9bab0ae)" d="M 73.832727 145.409506 
L 73.832727 146.037929 
L 73.832727 145.17947 
L 73.832727 145.469604 
L 76.838788 145.465543 
L 76.838788 145.161911 
L 76.838788 145.569468 
L 76.838788 145.363554 
L 79.844849 145.325733 
L 79.844849 145.330806 
L 79.844849 145.604922 
L 79.844849 145.157382 
L 79.844849 145.35277 
L 82.850909 145.28027 
L 82.850909 145.367302 
L 82.850909 145.589962 
L 82.850909 145.130027 
L 82.850909 145.371918 
L 85.85697 145.496974 
L 85.85697 145.185964 
L 85.85697 145.610597 
L 85.85697 145.344321 
L 88.86303 145.443368 
L 88.86303 145.622573 
L 88.86303 145.199331 
L 88.86303 145.412953 
L 91.869091 145.508586 
L 91.869091 145.459217 
L 91.869091 145.210044 
L 91.869091 145.571254 
L 91.869091 145.412173 
L 94.875152 145.478005 
L 94.875152 145.174827 
L 94.875152 145.553123 
L 94.875152 145.379114 
L 97.881212 145.392589 
L 97.881212 145.31748 
L 97.881212 145.130714 
L 97.881212 145.64107 
L 97.881212 145.375815 
L 100.887273 145.364362 
L 100.887273 145.443284 
L 100.887273 143.679851 
L 100.887273 145.602862 
L 100.887273 145.472758 
L 103.893333 145.306365 
L 103.893333 145.165828 
L 103.893333 145.572099 
L 103.893333 145.449652 
L 106.899394 145.535449 
L 106.899394 145.187715 
L 106.899394 145.599202 
L 106.899394 145.454224 
L 109.905455 145.238984 
L 109.905455 145.303364 
L 109.905455 145.558068 
L 109.905455 145.194567 
L 109.905455 145.328854 
L 112.911515 145.408129 
L 112.911515 145.180313 
L 112.911515 145.604878 
L 112.911515 145.266001 
L 115.917576 145.539526 
L 115.917576 145.181285 
L 115.917576 145.578298 
L 115.917576 145.483568 
L 118.923636 145.290133 
L 118.923636 145.857314 
L 118.923636 144.905424 
L 118.923636 145.3636 
L 121.929697 145.375176 
L 121.929697 146.444432 
L 121.929697 143.956238 
L 121.929697 145.563802 
L 124.935758 145.306342 
L 124.935758 142.501848 
L 124.935758 154.453935 
L 127.941818 155.051745 
L 127.941818 230.491223 
L 127.941818 228.359122 
L 130.947879 228.66843 
L 130.947879 63.192497 
L 130.947879 179.015676 
L 133.953939 178.642051 
L 133.953939 180.786775 
L 133.953939 143.548882 
L 133.953939 167.33714 
L 136.96 168.177871 
L 136.96 129.82813 
L 136.96 171.859213 
L 136.96 134.673918 
L 139.966061 135.147511 
L 139.966061 113.830695 
L 139.966061 146.729732 
L 139.966061 143.65969 
L 142.972121 143.926047 
L 142.972121 144.399676 
L 142.972121 131.811905 
L 142.972121 135.337756 
L 145.978182 135.284122 
L 145.978182 130.861985 
L 145.978182 295.488 
L 145.978182 268.854893 
L 148.984242 268.246873 
L 148.984242 174.350246 
L 151.990303 173.818059 
L 151.990303 147.618575 
L 151.990303 222.219838 
L 151.990303 156.788063 
L 154.996364 157.326711 
L 154.996364 153.93075 
L 154.996364 222.04991 
L 154.996364 161.937172 
L 158.002424 162.077673 
L 158.002424 102.304187 
L 158.002424 160.115655 
L 161.008485 159.667746 
L 161.008485 124.804144 
L 161.008485 160.848727 
L 161.008485 125.340771 
L 164.014545 125.23338 
L 164.014545 104.078741 
L 164.014545 142.073848 
L 164.014545 139.804452 
L 167.020606 140.494386 
L 167.020606 137.329839 
L 167.020606 149.881417 
L 167.020606 142.090788 
L 170.026667 140.71202 
L 170.026667 128.310378 
L 170.026667 218.06684 
L 173.032727 217.839362 
L 173.032727 220.963524 
L 173.032727 94.200547 
L 173.032727 94.285091 
L 176.038788 94.047189 
L 176.038788 75.105569 
L 176.038788 146.435546 
L 176.038788 146.323014 
L 179.044848 147.596875 
L 179.044848 193.183345 
L 179.044848 102.832521 
L 179.044848 108.291573 
L 182.050909 108.512282 
L 182.050909 157.213132 
L 182.050909 85.250981 
L 182.050909 130.120573 
L 185.05697 129.668032 
L 185.05697 98.42717 
L 185.05697 150.232635 
L 188.06303 150.264298 
L 188.06303 207.55819 
L 188.06303 171.688481 
L 191.069091 171.739841 
L 191.069091 146.550419 
L 191.069091 179.097977 
L 191.069091 161.712949 
L 194.075151 162.278223 
L 194.075151 167.636067 
L 194.075151 131.70165 
L 194.075151 166.12044 
L 197.081212 166.414301 
L 197.081212 181.311508 
L 197.081212 153.918939 
L 197.081212 169.351754 
L 200.087273 168.661245 
L 200.087273 175.149861 
L 200.087273 147.002147 
L 200.087273 157.739235 
L 203.093333 157.888305 
L 203.093333 181.380838 
L 203.093333 156.881199 
L 203.093333 177.481691 
L 206.099394 178.165111 
L 206.099394 192.993835 
L 206.099394 163.351834 
L 206.099394 175.4946 
L 209.105454 175.238389 
L 209.105454 180.11178 
L 209.105454 147.471126 
L 209.105454 151.632158 
L 212.111515 151.774612 
L 212.111515 174.839343 
L 212.111515 169.168067 
L 215.117576 169.35083 
L 215.117576 182.406096 
L 215.117576 158.285126 
L 218.123636 158.323392 
L 218.123636 113.598813 
L 218.123636 167.222649 
L 218.123636 165.826347 
L 221.129697 165.001812 
L 221.129697 124.91645 
L 221.129697 166.858597 
L 221.129697 135.107066 
L 224.135757 135.032954 
L 224.135757 148.010729 
L 224.135757 131.897579 
L 224.135757 133.376743 
L 227.141818 134.218681 
L 227.141818 125.459977 
L 227.141818 139.708162 
L 227.141818 137.900857 
L 230.147879 138.153737 
L 230.147879 91.81175 
L 233.153939 91.569821 
L 233.153939 53.568 
L 233.153939 140.160033 
L 233.153939 139.825284 
L 236.16 140.568192 
L 236.16 135.929815 
L 236.16 151.031717 
L 236.16 146.202662 
L 239.16606 145.978124 
L 239.16606 163.158135 
L 239.16606 134.315831 
L 239.16606 136.670278 
L 242.172121 136.617296 
L 242.172121 136.676109 
L 242.172121 121.551118 
L 242.172121 141.02297 
L 242.172121 139.97496 
L 245.178182 138.412043 
L 245.178182 130.226358 
L 245.178182 166.429468 
L 248.184242 167.148922 
L 248.184242 211.785266 
L 248.184242 145.512982 
L 248.184242 147.283076 
L 251.190303 147.685077 
L 251.190303 104.370844 
L 251.190303 156.491273 
L 251.190303 106.134195 
L 254.196363 106.088503 
L 254.196363 105.713428 
L 254.196363 168.02478 
L 254.196363 165.678686 
L 257.202424 165.936906 
L 257.202424 124.477179 
L 257.202424 166.740854 
L 257.202424 139.343478 
L 260.208485 138.90741 
L 260.208485 147.913956 
L 260.208485 123.625087 
L 260.208485 128.410275 
L 263.214545 127.717603 
L 263.214545 165.38269 
L 263.214545 126.920239 
L 263.214545 164.10211 
L 266.220606 164.687332 
L 266.220606 164.673492 
L 266.220606 164.852837 
L 266.220606 126.80592 
L 266.220606 137.30656 
L 269.226666 135.997162 
L 269.226666 116.029444 
L 269.226666 157.052119 
L 269.226666 139.447538 
L 272.232727 141.78055 
L 272.232727 140.819759 
L 272.232727 175.107342 
L 272.232727 164.276803 
L 275.238788 165.127687 
L 275.238788 165.076865 
L 275.238788 174.177285 
L 275.238788 136.838971 
L 275.238788 171.339759 
L 278.244848 172.386062 
L 278.244848 200.45192 
L 278.244848 163.945316 
L 278.244848 186.711598 
L 281.250909 186.556985 
L 281.250909 151.712849 
L 281.250909 187.05093 
L 281.250909 152.670413 
L 284.256969 152.77655 
L 284.256969 151.551198 
L 284.256969 182.052779 
L 284.256969 178.546573 
L 287.26303 178.935572 
L 287.26303 188.724677 
L 287.26303 103.853982 
L 287.26303 111.083331 
L 290.269091 111.22517 
L 290.269091 83.767765 
L 290.269091 112.166208 
L 290.269091 110.181385 
L 293.275151 110.125535 
L 293.275151 126.37803 
L 293.275151 110.016631 
L 293.275151 117.887936 
L 296.281212 117.848271 
L 296.281212 135.234212 
L 296.281212 80.807262 
L 299.287272 81.066063 
L 299.287272 80.498548 
L 299.287272 178.683882 
L 299.287272 119.572564 
L 302.293333 120.199053 
L 302.293333 173.172007 
L 302.293333 109.28203 
L 302.293333 143.091868 
L 305.299394 144.624611 
L 305.299394 153.473139 
L 305.299394 73.762365 
L 305.299394 78.996711 
L 308.305454 79.294146 
L 308.305454 132.309274 
L 308.305454 56.608076 
L 308.305454 131.399705 
L 311.311515 131.490245 
L 311.311515 103.744318 
L 311.311515 161.212876 
L 311.311515 125.584819 
L 314.317575 125.289026 
L 314.317575 105.16369 
L 314.317575 151.46026 
L 314.317575 126.862577 
L 317.323636 127.372118 
L 317.323636 174.202339 
L 317.323636 145.364111 
L 320.329697 144.658175 
L 320.329697 119.501856 
L 320.329697 150.442248 
L 320.329697 125.029501 
L 323.335757 124.988181 
L 323.335757 121.386622 
L 323.335757 161.453749 
L 323.335757 125.317155 
L 326.341818 123.455285 
L 326.341818 107.497384 
L 326.341818 199.302902 
L 326.341818 159.651984 
L 329.347878 159.244166 
L 329.347878 132.000287 
L 329.347878 191.12981 
L 332.353939 191.995178 
L 332.353939 196.755819 
L 332.353939 156.751552 
L 332.353939 185.300445 
L 335.36 183.963873 
L 335.36 223.264374 
L 335.36 158.152442 
L 338.36606 155.988356 
L 338.36606 212.211436 
L 338.36606 147.253418 
L 338.36606 165.95047 
L 341.372121 165.612859 
L 341.372121 125.965906 
L 341.372121 174.893487 
L 341.372121 169.46911 
L 344.378181 169.215316 
L 344.378181 130.951382 
L 344.378181 209.817084 
L 344.378181 209.455718 
L 347.384242 210.001537 
L 347.384242 85.246318 
L 347.384242 144.370846 
L 350.390303 145.415835 
L 350.390303 123.75078 
L 350.390303 145.783071 
L 350.390303 139.195804 
L 353.396363 139.659142 
L 353.396363 143.647389 
L 353.396363 77.986369 
L 353.396363 80.967764 
L 356.402424 81.824599 
L 356.402424 133.290101 
L 356.402424 121.92292 
L 359.408484 122.465809 
L 359.408484 89.117963 
L 362.414545 87.021733 
L 362.414545 56.595996 
L 362.414545 148.423267 
L 362.414545 127.626011 
L 365.420606 127.275871 
L 365.420606 94.098182 
L 365.420606 133.297962 
L 365.420606 129.498188 
L 368.426666 129.389823 
L 368.426666 108.999619 
L 368.426666 138.1882 
L 368.426666 132.006647 
L 371.432727 131.815612 
L 371.432727 100.755932 
L 371.432727 154.134321 
L 374.438787 154.35367 
L 374.438787 94.75449 
L 374.438787 212.907726 
L 377.444848 214.97523 
L 377.444848 260.637199 
L 377.444848 144.603515 
L 377.444848 178.045078 
L 380.450909 177.586596 
L 380.450909 135.909965 
L 380.450909 185.075897 
L 380.450909 179.398292 
L 383.456969 179.598178 
L 383.456969 239.859554 
L 383.456969 95.99398 
L 383.456969 145.922178 
L 386.46303 147.106462 
L 386.46303 145.372001 
L 386.46303 147.296541 
L 386.46303 145.968552 
L 389.46909 145.758117 
L 389.46909 145.76248 
L 389.46909 147.230134 
L 389.46909 145.588221 
L 389.46909 145.765014 
L 392.475151 145.967364 
L 392.475151 145.960998 
L 392.475151 147.284062 
L 392.475151 145.375073 
L 392.475151 145.817348 
L 395.481212 147.005105 
L 395.481212 145.578592 
L 395.481212 147.226342 
L 395.481212 145.918313 
L 398.487272 145.78539 
L 398.487272 145.869943 
L 398.487272 147.210628 
L 398.487272 145.64257 
L 398.487272 146.998973 
" style="fill:none;stroke:#ff7f0e;stroke-linecap:square;stroke-width:1.5;"/>
   </g>
   <g id="patch_3">
    <path d="M 57.6 307.584 
L 57.6 41.472 
" style="fill:none;stroke:#000000;stroke-linecap:square;stroke-linejoin:miter;stroke-width:0.8;"/>
   </g>
   <g id="patch_4">
    <path d="M 414.72 307.584 
L 414.72 41.472 
" style="fill:none;stroke:#000000;stroke-linecap:square;stroke-linejoin:miter;stroke-width:0.8;"/>
   </g>
   <g id="patch_5">
    <path d="M 57.6 307.584 
L 414.72 307.584 
" style="fill:none;stroke:#000000;stroke-linecap:square;stroke-linejoin:miter;stroke-width:0.8;"/>
   </g>
   <g id="patch_6">
    <path d="M 57.6 41.472 
L 414.72 41.472 
" style="fill:none;stroke:#000000;stroke-linecap:square;stroke-linejoin:miter;stroke-width:0.8;"/>
   </g>
   <g id="text_15">
    <!-- Roll Angle v/s Time -->
    <defs>
     <path d="M 2.984375 54.6875 
L 12.5 54.6875 
L 29.59375 8.796875 
L 46.6875 54.6875 
L 56.203125 54.6875 
L 35.6875 0 
L 23.484375 0 
z
" id="DejaVuSans-118"/>
     <path d="M 25.390625 72.90625 
L 33.6875 72.90625 
L 8.296875 -9.28125 
L 0 -9.28125 
z
" id="DejaVuSans-47"/>
     <path d="M 44.28125 53.078125 
L 44.28125 44.578125 
Q 40.484375 46.53125 36.375 47.5 
Q 32.28125 48.484375 27.875 48.484375 
Q 21.1875 48.484375 17.84375 46.4375 
Q 14.5 44.390625 14.5 40.28125 
Q 14.5 37.15625 16.890625 35.375 
Q 19.28125 33.59375 26.515625 31.984375 
L 29.59375 31.296875 
Q 39.15625 29.25 43.1875 25.515625 
Q 47.21875 21.78125 47.21875 15.09375 
Q 47.21875 7.46875 41.1875 3.015625 
Q 35.15625 -1.421875 24.609375 -1.421875 
Q 20.21875 -1.421875 15.453125 -0.5625 
Q 10.6875 0.296875 5.421875 2 
L 5.421875 11.28125 
Q 10.40625 8.6875 15.234375 7.390625 
Q 20.0625 6.109375 24.8125 6.109375 
Q 31.15625 6.109375 34.5625 8.28125 
Q 37.984375 10.453125 37.984375 14.40625 
Q 37.984375 18.0625 35.515625 20.015625 
Q 33.0625 21.96875 24.703125 23.78125 
L 21.578125 24.515625 
Q 13.234375 26.265625 9.515625 29.90625 
Q 5.8125 33.546875 5.8125 39.890625 
Q 5.8125 47.609375 11.28125 51.796875 
Q 16.75 56 26.8125 56 
Q 31.78125 56 36.171875 55.265625 
Q 40.578125 54.546875 44.28125 53.078125 
z
" id="DejaVuSans-115"/>
    </defs>
    <g transform="translate(178.63125 35.472)scale(0.12 -0.12)">
     <use xlink:href="#DejaVuSans-82"/>
     <use x="69.419922" xlink:href="#DejaVuSans-111"/>
     <use x="130.601562" xlink:href="#DejaVuSans-108"/>
     <use x="158.384766" xlink:href="#DejaVuSans-108"/>
     <use x="186.167969" xlink:href="#DejaVuSans-32"/>
     <use x="217.955078" xlink:href="#DejaVuSans-65"/>
     <use x="286.363281" xlink:href="#DejaVuSans-110"/>
     <use x="349.742188" xlink:href="#DejaVuSans-103"/>
     <use x="413.21875" xlink:href="#DejaVuSans-108"/>
     <use x="441.001953" xlink:href="#DejaVuSans-101"/>
     <use x="502.525391" xlink:href="#DejaVuSans-32"/>
     <use x="534.3125" xlink:href="#DejaVuSans-118"/>
     <use x="593.492188" xlink:href="#DejaVuSans-47"/>
     <use x="627.183594" xlink:href="#DejaVuSans-115"/>
     <use x="679.283203" xlink:href="#DejaVuSans-32"/>
     <use x="711.070312" xlink:href="#DejaVuSans-84"/>
     <use x="772.107422" xlink:href="#DejaVuSans-105"/>
     <use x="799.890625" xlink:href="#DejaVuSans-109"/>
     <use x="897.302734" xlink:href="#DejaVuSans-101"/>
    </g>
   </g>
   <g id="legend_1">
    <g id="patch_7">
     <path d="M 318.309063 302.584 
L 407.72 302.584 
Q 409.72 302.584 409.72 300.584 
L 409.72 272.22775 
Q 409.72 270.22775 407.72 270.22775 
L 318.309063 270.22775 
Q 316.309063 270.22775 316.309063 272.22775 
L 316.309063 300.584 
Q 316.309063 302.584 318.309063 302.584 
z
" style="fill:#ffffff;opacity:0.8;stroke:#cccccc;stroke-linejoin:miter;"/>
    </g>
    <g id="line2d_14">
     <path d="M 320.309063 278.326187 
L 340.309063 278.326187 
" style="fill:none;stroke:#1f77b4;stroke-linecap:square;stroke-width:1.5;"/>
    </g>
    <g id="line2d_15"/>
    <g id="text_16">
     <!-- Desired roll -->
     <defs>
      <path d="M 19.671875 64.796875 
L 19.671875 8.109375 
L 31.59375 8.109375 
Q 46.6875 8.109375 53.6875 14.9375 
Q 60.6875 21.78125 60.6875 36.53125 
Q 60.6875 51.171875 53.6875 57.984375 
Q 46.6875 64.796875 31.59375 64.796875 
z
M 9.8125 72.90625 
L 30.078125 72.90625 
Q 51.265625 72.90625 61.171875 64.09375 
Q 71.09375 55.28125 71.09375 36.53125 
Q 71.09375 17.671875 61.125 8.828125 
Q 51.171875 0 30.078125 0 
L 9.8125 0 
z
" id="DejaVuSans-68"/>
      <path d="M 41.109375 46.296875 
Q 39.59375 47.171875 37.8125 47.578125 
Q 36.03125 48 33.890625 48 
Q 26.265625 48 22.1875 43.046875 
Q 18.109375 38.09375 18.109375 28.8125 
L 18.109375 0 
L 9.078125 0 
L 9.078125 54.6875 
L 18.109375 54.6875 
L 18.109375 46.1875 
Q 20.953125 51.171875 25.484375 53.578125 
Q 30.03125 56 36.53125 56 
Q 37.453125 56 38.578125 55.875 
Q 39.703125 55.765625 41.0625 55.515625 
z
" id="DejaVuSans-114"/>
      <path d="M 45.40625 46.390625 
L 45.40625 75.984375 
L 54.390625 75.984375 
L 54.390625 0 
L 45.40625 0 
L 45.40625 8.203125 
Q 42.578125 3.328125 38.25 0.953125 
Q 33.9375 -1.421875 27.875 -1.421875 
Q 17.96875 -1.421875 11.734375 6.484375 
Q 5.515625 14.40625 5.515625 27.296875 
Q 5.515625 40.1875 11.734375 48.09375 
Q 17.96875 56 27.875 56 
Q 33.9375 56 38.25 53.625 
Q 42.578125 51.265625 45.40625 46.390625 
z
M 14.796875 27.296875 
Q 14.796875 17.390625 18.875 11.75 
Q 22.953125 6.109375 30.078125 6.109375 
Q 37.203125 6.109375 41.296875 11.75 
Q 45.40625 17.390625 45.40625 27.296875 
Q 45.40625 37.203125 41.296875 42.84375 
Q 37.203125 48.484375 30.078125 48.484375 
Q 22.953125 48.484375 18.875 42.84375 
Q 14.796875 37.203125 14.796875 27.296875 
z
" id="DejaVuSans-100"/>
     </defs>
     <g transform="translate(348.309063 281.826187)scale(0.1 -0.1)">
      <use xlink:href="#DejaVuSans-68"/>
      <use x="77.001953" xlink:href="#DejaVuSans-101"/>
      <use x="138.525391" xlink:href="#DejaVuSans-115"/>
      <use x="190.625" xlink:href="#DejaVuSans-105"/>
      <use x="218.408203" xlink:href="#DejaVuSans-114"/>
      <use x="259.490234" xlink:href="#DejaVuSans-101"/>
      <use x="321.013672" xlink:href="#DejaVuSans-100"/>
      <use x="384.490234" xlink:href="#DejaVuSans-32"/>
      <use x="416.277344" xlink:href="#DejaVuSans-114"/>
      <use x="457.359375" xlink:href="#DejaVuSans-111"/>
      <use x="518.541016" xlink:href="#DejaVuSans-108"/>
      <use x="546.324219" xlink:href="#DejaVuSans-108"/>
     </g>
    </g>
    <g id="line2d_16">
     <path d="M 320.309063 293.004312 
L 340.309063 293.004312 
" style="fill:none;stroke:#ff7f0e;stroke-linecap:square;stroke-width:1.5;"/>
    </g>
    <g id="line2d_17"/>
    <g id="text_17">
     <!-- Actual roll -->
     <defs>
      <path d="M 48.78125 52.59375 
L 48.78125 44.1875 
Q 44.96875 46.296875 41.140625 47.34375 
Q 37.3125 48.390625 33.40625 48.390625 
Q 24.65625 48.390625 19.8125 42.84375 
Q 14.984375 37.3125 14.984375 27.296875 
Q 14.984375 17.28125 19.8125 11.734375 
Q 24.65625 6.203125 33.40625 6.203125 
Q 37.3125 6.203125 41.140625 7.25 
Q 44.96875 8.296875 48.78125 10.40625 
L 48.78125 2.09375 
Q 45.015625 0.34375 40.984375 -0.53125 
Q 36.96875 -1.421875 32.421875 -1.421875 
Q 20.0625 -1.421875 12.78125 6.34375 
Q 5.515625 14.109375 5.515625 27.296875 
Q 5.515625 40.671875 12.859375 48.328125 
Q 20.21875 56 33.015625 56 
Q 37.15625 56 41.109375 55.140625 
Q 45.0625 54.296875 48.78125 52.59375 
z
" id="DejaVuSans-99"/>
      <path d="M 18.3125 70.21875 
L 18.3125 54.6875 
L 36.8125 54.6875 
L 36.8125 47.703125 
L 18.3125 47.703125 
L 18.3125 18.015625 
Q 18.3125 11.328125 20.140625 9.421875 
Q 21.96875 7.515625 27.59375 7.515625 
L 36.8125 7.515625 
L 36.8125 0 
L 27.59375 0 
Q 17.1875 0 13.234375 3.875 
Q 9.28125 7.765625 9.28125 18.015625 
L 9.28125 47.703125 
L 2.6875 47.703125 
L 2.6875 54.6875 
L 9.28125 54.6875 
L 9.28125 70.21875 
z
" id="DejaVuSans-116"/>
      <path d="M 8.5 21.578125 
L 8.5 54.6875 
L 17.484375 54.6875 
L 17.484375 21.921875 
Q 17.484375 14.15625 20.5 10.265625 
Q 23.53125 6.390625 29.59375 6.390625 
Q 36.859375 6.390625 41.078125 11.03125 
Q 45.3125 15.671875 45.3125 23.6875 
L 45.3125 54.6875 
L 54.296875 54.6875 
L 54.296875 0 
L 45.3125 0 
L 45.3125 8.40625 
Q 42.046875 3.421875 37.71875 1 
Q 33.40625 -1.421875 27.6875 -1.421875 
Q 18.265625 -1.421875 13.375 4.4375 
Q 8.5 10.296875 8.5 21.578125 
z
M 31.109375 56 
z
" id="DejaVuSans-117"/>
      <path d="M 34.28125 27.484375 
Q 23.390625 27.484375 19.1875 25 
Q 14.984375 22.515625 14.984375 16.5 
Q 14.984375 11.71875 18.140625 8.90625 
Q 21.296875 6.109375 26.703125 6.109375 
Q 34.1875 6.109375 38.703125 11.40625 
Q 43.21875 16.703125 43.21875 25.484375 
L 43.21875 27.484375 
z
M 52.203125 31.203125 
L 52.203125 0 
L 43.21875 0 
L 43.21875 8.296875 
Q 40.140625 3.328125 35.546875 0.953125 
Q 30.953125 -1.421875 24.3125 -1.421875 
Q 15.921875 -1.421875 10.953125 3.296875 
Q 6 8.015625 6 15.921875 
Q 6 25.140625 12.171875 29.828125 
Q 18.359375 34.515625 30.609375 34.515625 
L 43.21875 34.515625 
L 43.21875 35.40625 
Q 43.21875 41.609375 39.140625 45 
Q 35.0625 48.390625 27.6875 48.390625 
Q 23 48.390625 18.546875 47.265625 
Q 14.109375 46.140625 10.015625 43.890625 
L 10.015625 52.203125 
Q 14.9375 54.109375 19.578125 55.046875 
Q 24.21875 56 28.609375 56 
Q 40.484375 56 46.34375 49.84375 
Q 52.203125 43.703125 52.203125 31.203125 
z
" id="DejaVuSans-97"/>
     </defs>
     <g transform="translate(348.309063 296.504312)scale(0.1 -0.1)">
      <use xlink:href="#DejaVuSans-65"/>
      <use x="68.392578" xlink:href="#DejaVuSans-99"/>
      <use x="123.373047" xlink:href="#DejaVuSans-116"/>
      <use x="162.582031" xlink:href="#DejaVuSans-117"/>
      <use x="225.960938" xlink:href="#DejaVuSans-97"/>
      <use x="287.240234" xlink:href="#DejaVuSans-108"/>
      <use x="315.023438" xlink:href="#DejaVuSans-32"/>
      <use x="346.810547" xlink:href="#DejaVuSans-114"/>
      <use x="387.892578" xlink:href="#DejaVuSans-111"/>
      <use x="449.074219" xlink:href="#DejaVuSans-108"/>
      <use x="476.857422" xlink:href="#DejaVuSans-108"/>
     </g>
    </g>
   </g>
  </g>
 </g>
 <defs>
  <clipPath id="pffd9bab0ae">
   <rect height="266.112" width="357.12" x="57.6" y="41.472"/>
  </clipPath>
 </defs>
</svg>
