<?xml version="1.0" encoding="utf-8" standalone="no"?>
<!DOCTYPE svg PUBLIC "-//W3C//DTD SVG 1.1//EN"
  "http://www.w3.org/Graphics/SVG/1.1/DTD/svg11.dtd">
<!-- Created with matplotlib (http://matplotlib.org/) -->
<svg height="432pt" version="1.1" viewBox="0 0 576 432" width="576pt" xmlns="http://www.w3.org/2000/svg" xmlns:xlink="http://www.w3.org/1999/xlink">
 <defs>
  <style type="text/css">
*{stroke-linecap:butt;stroke-linejoin:round;stroke-miterlimit:100000;}
  </style>
 </defs>
 <g id="figure_1">
  <g id="patch_1">
   <path d="M 0 432 
L 576 432 
L 576 0 
L 0 0 
z
" style="fill:#ffffff;"/>
  </g>
  <g id="axes_1">
   <g id="patch_2">
    <path d="M 72 388.8 
L 518.4 388.8 
L 518.4 43.2 
L 72 43.2 
z
" style="fill:#ffffff;"/>
   </g>
   <g id="line2d_1">
    <path clip-path="url(#pd3e2831569)" d="M 112.551429 207.006757 
L 112.551429 207.027421 
L 112.551429 207.027421 
L 112.551429 207.027421 
L 112.551429 206.956425 
L 112.551429 206.956425 
L 112.551429 206.956425 
L 112.551429 207.071859 
L 112.551429 207.071859 
L 112.551429 207.071859 
L 112.551429 206.890519 
L 112.551429 206.955565 
L 112.551429 206.955565 
L 112.551429 207.099025 
L 112.551429 206.990787 
L 112.551429 206.990787 
L 112.551429 206.92834 
L 112.551429 206.92834 
L 112.551429 206.92834 
L 112.551429 207.049361 
L 112.551429 207.049361 
L 112.551429 207.049361 
L 112.551429 206.856913 
L 112.551429 206.969125 
L 112.551429 206.969125 
L 112.551429 207.105622 
L 112.551429 207.008774 
L 112.551429 207.008774 
L 112.551429 206.841501 
L 112.551429 206.855943 
L 112.551429 206.855943 
L 112.551429 207.103357 
L 112.551429 206.99414 
L 112.551429 206.99414 
L 112.551429 206.854493 
L 112.551429 206.937259 
L 112.551429 206.937259 
L 112.551429 207.055991 
L 112.551429 207.016631 
L 112.551429 207.016631 
L 112.551429 206.931846 
L 112.551429 206.952345 
L 112.551429 206.952345 
L 112.551429 207.114136 
L 112.551429 206.970875 
L 112.551429 206.970875 
L 112.551429 206.866789 
L 112.551429 206.942768 
L 112.551429 206.942768 
L 112.551429 207.194707 
L 112.551429 206.987043 
L 112.551429 206.987043 
L 112.551429 206.936924 
L 112.551429 206.97277 
L 112.551429 206.97277 
L 112.551429 207.055689 
L 112.551429 207.055689 
L 112.551429 207.055689 
L 112.551429 206.913158 
L 112.551429 206.980707 
L 112.551429 206.980707 
L 112.551429 207.130959 
L 112.551429 207.018199 
L 112.551429 207.018199 
L 112.551429 206.898953 
L 112.551429 206.984596 
L 112.551429 206.984596 
L 112.551429 207.060098 
L 112.551429 207.004583 
L 112.551429 207.004583 
L 112.551429 206.933652 
L 112.551429 206.973252 
L 112.551429 206.973252 
L 112.551429 207.049813 
L 112.551429 207.049813 
L 112.551429 207.049813 
L 112.551429 206.885144 
L 112.551429 206.980391 
L 112.551429 206.980391 
L 112.551429 207.627519 
L 112.551429 207.627519 
L 112.551429 207.627519 
L 112.551429 206.778789 
L 112.551429 207.069102 
L 115.740001 207.062588 
L 115.740001 206.858703 
L 115.740001 206.858703 
L 115.740001 206.858703 
L 115.740001 207.112858 
L 115.740001 206.976868 
L 115.740001 206.976868 
L 115.740001 206.844032 
L 115.740001 206.94793 
L 115.740001 206.94793 
L 115.740001 207.093488 
L 115.740001 207.093488 
L 115.740001 207.093488 
L 115.740001 206.8215 
L 115.740001 207.011931 
L 115.740001 207.011931 
L 115.740001 207.153674 
L 115.740001 207.153674 
L 115.740001 207.153674 
L 115.740001 206.764889 
L 115.740001 206.880375 
L 115.740001 206.880375 
L 115.740001 207.166751 
L 115.740001 206.953648 
L 115.740001 206.953648 
L 115.740001 206.863157 
L 115.740001 206.925492 
L 115.740001 206.925492 
L 115.740001 207.010268 
L 115.740001 207.010268 
L 115.740001 207.010268 
L 115.740001 206.911591 
L 115.740001 206.994269 
L 115.740001 206.994269 
L 115.740001 207.024285 
L 115.740001 207.024285 
L 115.740001 207.024285 
L 115.740001 206.950394 
L 115.740001 206.950394 
L 115.740001 206.950394 
L 115.740001 207.109697 
L 115.740001 207.109697 
L 115.740001 207.109697 
L 115.740001 206.890141 
L 115.740001 206.901996 
L 115.740001 206.901996 
L 115.740001 207.139418 
L 115.740001 206.930426 
L 115.740001 206.930426 
L 115.740001 206.832275 
L 115.740001 206.884451 
L 115.740001 206.884451 
L 115.740001 207.012905 
L 115.740001 207.012905 
L 115.740001 207.012905 
L 115.740001 206.830713 
L 115.740001 206.980561 
L 115.740001 206.980561 
L 115.740001 207.038625 
L 115.740001 207.038625 
L 115.740001 207.038625 
L 115.740001 206.960798 
L 115.740001 206.960798 
L 115.740001 206.960798 
L 115.740001 207.102801 
L 115.740001 207.102801 
L 115.740001 207.102801 
L 115.740001 206.759677 
L 115.740001 206.962824 
L 118.928572 206.92662 
L 118.928572 206.930463 
L 118.928572 207.098101 
L 118.928572 207.000707 
L 118.928572 207.000707 
L 118.928572 206.919671 
L 118.928572 206.960757 
L 118.928572 206.960757 
L 118.928572 207.034432 
L 118.928572 207.031641 
L 118.928572 207.031641 
L 118.928572 206.870508 
L 118.928572 207.029356 
L 118.928572 207.029356 
L 118.928572 207.060378 
L 118.928572 207.060378 
L 118.928572 207.060378 
L 118.928572 206.808809 
L 118.928572 206.808809 
L 118.928572 206.808809 
L 118.928572 207.166044 
L 118.928572 206.871632 
L 118.928572 206.871632 
L 118.928572 206.791808 
L 118.928572 206.791808 
L 118.928572 206.791808 
L 118.928572 207.205001 
L 118.928572 206.909028 
L 118.928572 206.909028 
L 118.928572 206.757595 
L 118.928572 206.757595 
L 118.928572 206.757595 
L 118.928572 207.07037 
L 118.928572 206.955803 
L 122.117144 206.880375 
L 122.117144 206.969217 
L 122.117144 207.060059 
L 122.117144 207.060059 
L 122.117144 207.060059 
L 122.117144 206.860953 
L 122.117144 206.959679 
L 122.117144 206.959679 
L 122.117144 207.06763 
L 122.117144 207.010696 
L 122.117144 207.010696 
L 122.117144 206.931117 
L 122.117144 206.983231 
L 122.117144 206.983231 
L 122.117144 207.14177 
L 122.117144 207.032318 
L 122.117144 207.032318 
L 122.117144 206.970062 
L 122.117144 206.970062 
L 122.117144 206.970062 
L 122.117144 207.078554 
L 122.117144 206.986199 
L 122.117144 206.986199 
L 122.117144 206.959812 
L 122.117144 206.975637 
L 122.117144 206.975637 
L 122.117144 207.029795 
L 122.117144 206.980748 
L 122.117144 206.980748 
L 122.117144 206.920801 
L 122.117144 206.969511 
L 122.117144 206.969511 
L 122.117144 207.113411 
L 122.117144 207.023078 
L 122.117144 207.023078 
L 122.117144 206.876541 
L 122.117144 206.876541 
L 122.117144 206.876541 
L 122.117144 207.05291 
L 122.117144 206.888666 
L 122.117144 206.888666 
L 122.117144 206.817803 
L 122.117144 206.854236 
L 122.117144 206.854236 
L 122.117144 207.08471 
L 122.117144 207.08471 
L 122.117144 207.08471 
L 122.117144 206.842949 
L 122.117144 206.842949 
L 122.117144 206.842949 
L 122.117144 207.107207 
L 122.117144 207.007309 
L 122.117144 207.007309 
L 122.117144 206.818484 
L 122.117144 206.818484 
L 122.117144 206.818484 
L 122.117144 207.145643 
L 122.117144 207.056628 
L 122.117144 207.056628 
L 122.117144 206.728801 
L 122.117144 206.728801 
L 122.117144 206.728801 
L 122.117144 207.192314 
L 122.117144 206.971593 
L 125.305715 207.0956 
L 125.305715 206.978532 
L 125.305715 207.019617 
L 125.305715 207.019617 
L 125.305715 207.144579 
L 125.305715 207.144579 
L 125.305715 207.144579 
L 125.305715 206.879208 
L 125.305715 207.073655 
L 125.305715 207.073655 
L 125.305715 207.159334 
L 125.305715 207.159334 
L 125.305715 207.159334 
L 125.305715 206.824849 
L 125.305715 206.950973 
L 125.305715 206.950973 
L 125.305715 207.200902 
L 125.305715 207.039553 
L 125.305715 207.039553 
L 125.305715 206.828677 
L 125.305715 206.863666 
L 125.305715 206.863666 
L 125.305715 207.052394 
L 125.305715 206.919123 
L 125.305715 206.919123 
L 125.305715 206.783841 
L 125.305715 206.783841 
L 125.305715 206.783841 
L 125.305715 207.212338 
L 125.305715 206.946062 
L 128.494287 207.045097 
L 128.494287 207.199073 
L 128.494287 207.199073 
L 128.494287 207.199073 
L 128.494287 206.800256 
L 128.494287 206.910502 
L 128.494287 206.910502 
L 128.494287 207.223001 
L 128.494287 207.223001 
L 128.494287 207.223001 
L 128.494287 206.845993 
L 128.494287 207.008713 
L 131.682858 207.101701 
L 131.682858 207.057389 
L 131.682858 206.940591 
L 131.682858 207.044006 
L 131.682858 207.044006 
L 131.682858 207.058676 
L 131.682858 207.058676 
L 131.682858 207.058676 
L 131.682858 206.860943 
L 131.682858 207.012524 
L 131.682858 207.012524 
L 131.682858 207.142121 
L 131.682858 207.039769 
L 131.682858 207.039769 
L 131.682858 206.929353 
L 131.682858 206.949953 
L 131.682858 206.949953 
L 131.682858 207.099707 
L 131.682858 207.099707 
L 131.682858 207.099707 
L 131.682858 206.881999 
L 131.682858 206.881999 
L 131.682858 206.881999 
L 131.682858 207.125436 
L 131.682858 207.090874 
L 131.682858 207.090874 
L 131.682858 206.815141 
L 131.682858 206.938503 
L 131.682858 206.938503 
L 131.682858 207.114561 
L 131.682858 207.106981 
L 131.682858 207.106981 
L 131.682858 206.89468 
L 131.682858 206.953176 
L 131.682858 206.953176 
L 131.682858 207.170255 
L 131.682858 207.170255 
L 131.682858 207.170255 
L 131.682858 206.807808 
L 131.682858 207.011342 
L 134.871429 207.074013 
L 134.871429 206.9036 
L 134.871429 206.943032 
L 134.871429 206.943032 
L 134.871429 207.098729 
L 134.871429 207.063139 
L 134.871429 207.063139 
L 134.871429 206.825807 
L 134.871429 206.952899 
L 134.871429 206.952899 
L 134.871429 207.101117 
L 134.871429 207.101117 
L 134.871429 207.101117 
L 134.871429 206.848818 
L 134.871429 206.949678 
L 134.871429 206.949678 
L 134.871429 207.131638 
L 134.871429 207.131638 
L 134.871429 207.131638 
L 134.871429 206.776047 
L 134.871429 206.793641 
L 134.871429 206.793641 
L 134.871429 207.150026 
L 134.871429 206.975564 
L 138.06 207.087061 
L 138.06 206.918986 
L 138.06 207.13077 
L 138.06 206.988373 
L 138.06 206.988373 
L 138.06 206.874764 
L 138.06 206.874764 
L 138.06 206.874764 
L 138.06 207.109398 
L 138.06 206.984951 
L 138.06 206.984951 
L 138.06 206.869307 
L 138.06 206.933697 
L 138.06 206.933697 
L 138.06 207.067374 
L 138.06 206.951672 
L 138.06 206.951672 
L 138.06 206.920936 
L 138.06 206.920936 
L 138.06 206.920936 
L 138.06 207.239709 
L 138.06 206.98506 
L 138.06 206.98506 
L 138.06 206.858426 
L 138.06 206.858426 
L 138.06 206.858426 
L 138.06 207.133266 
L 138.06 206.995152 
L 138.06 206.995152 
L 138.06 206.858291 
L 138.06 206.953163 
L 138.06 206.953163 
L 138.06 207.102396 
L 138.06 207.016388 
L 138.06 207.016388 
L 138.06 206.879996 
L 138.06 206.879996 
L 138.06 206.879996 
L 138.06 207.100509 
L 138.06 206.996427 
L 138.06 206.996427 
L 138.06 206.843832 
L 138.06 206.957557 
L 138.06 206.957557 
L 138.06 207.072277 
L 138.06 207.072277 
L 138.06 207.072277 
L 138.06 206.881589 
L 138.06 206.960581 
L 138.06 206.960581 
L 138.06 207.144599 
L 138.06 207.144599 
L 138.06 207.144599 
L 138.06 206.818526 
L 138.06 207.002161 
L 138.06 207.002161 
L 138.06 207.152159 
L 138.06 207.152159 
L 138.06 207.152159 
L 138.06 206.758411 
L 138.06 207.1222 
L 138.06 207.1222 
L 138.06 207.176891 
L 138.06 207.176891 
L 138.06 207.176891 
L 138.06 206.733647 
L 138.06 207.031684 
L 138.06 207.031684 
L 138.06 207.189953 
L 138.06 207.189953 
L 138.06 207.189953 
L 138.06 206.876507 
L 138.06 206.974297 
L 141.248571 206.850375 
L 141.248571 207.1251 
L 141.248571 207.041601 
L 141.248571 207.041601 
L 141.248571 206.802104 
L 141.248571 206.919653 
L 141.248571 206.919653 
L 141.248571 207.076531 
L 141.248571 206.92226 
L 141.248571 206.92226 
L 141.248571 206.918014 
L 141.248571 206.918014 
L 141.248571 206.918014 
L 141.248571 206.984007 
L 141.248571 206.984007 
L 141.248571 206.984007 
L 141.248571 206.887581 
L 141.248571 206.887581 
L 141.248571 206.887581 
L 141.248571 207.14767 
L 141.248571 206.992185 
L 141.248571 206.992185 
L 141.248571 206.800684 
L 141.248571 206.988812 
L 141.248571 206.988812 
L 141.248571 207.120106 
L 141.248571 207.120106 
L 141.248571 207.120106 
L 141.248571 206.786378 
L 141.248571 206.985726 
L 141.248571 206.985726 
L 141.248571 207.200014 
L 141.248571 207.083761 
L 141.248571 207.083761 
L 141.248571 206.976974 
L 141.248571 207.025428 
L 141.248571 207.025428 
L 141.248571 207.086885 
L 141.248571 207.086885 
L 141.248571 207.086885 
L 141.248571 206.885873 
L 141.248571 207.012079 
L 141.248571 207.012079 
L 141.248571 207.143659 
L 141.248571 207.143659 
L 141.248571 207.143659 
L 141.248571 205.218607 
L 141.248571 207.070492 
L 141.248571 207.070492 
L 141.248571 207.15333 
L 141.248571 207.15333 
L 141.248571 207.15333 
L 141.248571 206.930253 
L 141.248571 207.048326 
L 141.248571 207.048326 
L 141.248571 207.170889 
L 141.248571 207.170889 
L 141.248571 207.170889 
L 141.248571 206.881676 
L 141.248571 207.064674 
L 141.248571 207.064674 
L 141.248571 207.196679 
L 141.248571 207.196679 
L 141.248571 207.196679 
L 141.248571 206.887155 
L 141.248571 207.072165 
L 144.437143 206.903324 
L 144.437143 206.821062 
L 144.437143 206.894806 
L 144.437143 206.894806 
L 144.437143 207.171907 
L 144.437143 207.117724 
L 144.437143 207.117724 
L 144.437143 206.833936 
L 144.437143 206.951793 
L 144.437143 206.951793 
L 144.437143 207.131727 
L 144.437143 207.008247 
L 144.437143 207.008247 
L 144.437143 206.909067 
L 144.437143 206.952072 
L 144.437143 206.952072 
L 144.437143 207.054965 
L 144.437143 207.054965 
L 144.437143 207.054965 
L 144.437143 206.878196 
L 144.437143 206.878196 
L 144.437143 206.878196 
L 144.437143 207.103987 
L 144.437143 207.000325 
L 144.437143 207.000325 
L 144.437143 206.812829 
L 144.437143 206.995714 
L 144.437143 206.995714 
L 144.437143 207.093697 
L 144.437143 207.088268 
L 144.437143 207.088268 
L 144.437143 206.968904 
L 144.437143 206.968904 
L 144.437143 206.968904 
L 144.437143 207.137736 
L 144.437143 207.015994 
L 144.437143 207.015994 
L 144.437143 206.857447 
L 144.437143 207.008464 
L 144.437143 207.008464 
L 144.437143 207.113781 
L 144.437143 207.113781 
L 144.437143 207.113781 
L 144.437143 206.856065 
L 144.437143 206.993306 
L 144.437143 206.993306 
L 144.437143 207.140231 
L 144.437143 207.140231 
L 144.437143 207.140231 
L 144.437143 206.8348 
L 144.437143 206.986703 
L 144.437143 206.986703 
L 144.437143 207.149742 
L 144.437143 207.064472 
L 144.437143 207.064472 
L 144.437143 206.857105 
L 144.437143 207.046088 
L 144.437143 207.046088 
L 144.437143 207.071707 
L 144.437143 207.071707 
L 144.437143 207.071707 
L 144.437143 206.823998 
L 144.437143 207.000576 
L 144.437143 207.000576 
L 144.437143 207.14748 
L 144.437143 207.14748 
L 144.437143 207.14748 
L 144.437143 206.767914 
L 144.437143 206.957972 
L 144.437143 206.957972 
L 144.437143 207.156796 
L 144.437143 206.983454 
L 144.437143 206.983454 
L 144.437143 206.917701 
L 144.437143 206.917701 
L 144.437143 206.917701 
L 144.437143 207.05203 
L 144.437143 207.017714 
L 144.437143 207.017714 
L 144.437143 206.916081 
L 144.437143 206.916081 
L 144.437143 206.916081 
L 144.437143 207.153184 
L 144.437143 207.076344 
L 144.437143 207.076344 
L 144.437143 206.876984 
L 144.437143 206.876984 
L 144.437143 206.876984 
L 144.437143 207.088902 
L 144.437143 207.045115 
L 147.625714 207.136382 
L 147.625714 206.857526 
L 147.625714 207.005674 
L 147.625714 207.005674 
L 147.625714 207.187086 
L 147.625714 207.187086 
L 147.625714 207.187086 
L 147.625714 206.787035 
L 147.625714 207.020193 
L 147.625714 207.020193 
L 147.625714 207.198388 
L 147.625714 207.198388 
L 147.625714 207.198388 
L 147.625714 206.796293 
L 147.625714 207.05075 
L 150.814286 206.839912 
L 150.814286 206.898194 
L 150.814286 207.074677 
L 150.814286 207.074677 
L 150.814286 207.074677 
L 150.814286 206.804491 
L 150.814286 207.017049 
L 150.814286 207.017049 
L 150.814286 207.140858 
L 150.814286 207.140858 
L 150.814286 207.140858 
L 150.814286 206.845733 
L 150.814286 206.956714 
L 150.814286 206.956714 
L 150.814286 207.15674 
L 150.814286 207.107234 
L 150.814286 207.107234 
L 150.814286 206.927354 
L 150.814286 206.97109 
L 150.814286 206.97109 
L 150.814286 207.121654 
L 150.814286 207.037761 
L 150.814286 207.037761 
L 150.814286 206.916966 
L 150.814286 206.916966 
L 150.814286 206.916966 
L 150.814286 207.133222 
L 150.814286 206.932631 
L 150.814286 206.932631 
L 150.814286 206.895984 
L 150.814286 206.895984 
L 150.814286 206.895984 
L 150.814286 206.992194 
L 150.814286 206.978296 
L 150.814286 206.978296 
L 150.814286 206.893054 
L 150.814286 206.893054 
L 150.814286 206.893054 
L 150.814286 207.019078 
L 150.814286 206.948353 
L 150.814286 206.948353 
L 150.814286 206.887373 
L 150.814286 206.918609 
L 150.814286 206.918609 
L 150.814286 206.985434 
L 150.814286 206.985434 
L 150.814286 206.985434 
L 150.814286 206.84512 
L 150.814286 206.941063 
L 150.814286 206.941063 
L 150.814286 207.058274 
L 150.814286 207.048729 
L 150.814286 207.048729 
L 150.814286 206.86014 
L 150.814286 206.86014 
L 150.814286 206.86014 
L 150.814286 207.128295 
L 150.814286 206.997288 
L 150.814286 206.997288 
L 150.814286 206.817109 
L 150.814286 206.98868 
L 150.814286 206.98868 
L 150.814286 207.031219 
L 150.814286 207.031219 
L 150.814286 207.031219 
L 150.814286 206.862214 
L 150.814286 206.941721 
L 150.814286 206.941721 
L 150.814286 207.043681 
L 150.814286 206.958099 
L 150.814286 206.958099 
L 150.814286 206.853052 
L 150.814286 206.930389 
L 150.814286 206.930389 
L 150.814286 207.038655 
L 150.814286 207.038655 
L 150.814286 207.038655 
L 150.814286 206.896687 
L 150.814286 206.948966 
L 150.814286 206.948966 
L 150.814286 207.089369 
L 150.814286 207.089369 
L 150.814286 207.089369 
L 150.814286 206.891251 
L 150.814286 206.891251 
L 150.814286 206.891251 
L 150.814286 207.151592 
L 150.814286 206.928378 
L 150.814286 206.928378 
L 150.814286 206.794061 
L 150.814286 206.794061 
L 150.814286 206.794061 
L 150.814286 207.120131 
L 150.814286 206.924441 
L 154.002857 207.042648 
L 154.002857 207.042601 
L 154.002857 206.836309 
L 154.002857 206.980008 
L 154.002857 206.980008 
L 154.002857 207.06288 
L 154.002857 207.031835 
L 154.002857 207.031835 
L 154.002857 206.948452 
L 154.002857 206.993155 
L 154.002857 206.993155 
L 154.002857 207.03494 
L 154.002857 207.03494 
L 154.002857 207.03494 
L 154.002857 206.79398 
L 154.002857 206.811714 
L 154.002857 206.811714 
L 154.002857 207.173072 
L 154.002857 207.005673 
L 154.002857 207.005673 
L 154.002857 206.780079 
L 154.002857 206.780079 
L 154.002857 206.780079 
L 154.002857 207.203795 
L 154.002857 206.862418 
L 157.191429 207.137923 
L 157.191429 206.781629 
L 157.191429 206.92908 
L 157.191429 206.92908 
L 157.191429 207.138834 
L 157.191429 207.010841 
L 157.191429 207.010841 
L 157.191429 206.925069 
L 157.191429 206.991105 
L 157.191429 206.991105 
L 157.191429 207.034859 
L 157.191429 207.034859 
L 157.191429 207.034859 
L 157.191429 206.914754 
L 157.191429 206.947889 
L 157.191429 206.947889 
L 157.191429 207.175337 
L 157.191429 206.991879 
L 157.191429 206.991879 
L 157.191429 206.927402 
L 157.191429 206.927402 
L 157.191429 206.927402 
L 157.191429 206.996129 
L 157.191429 206.996129 
L 157.191429 206.996129 
L 157.191429 206.863261 
L 157.191429 206.917153 
L 157.191429 206.917153 
L 157.191429 207.127467 
L 157.191429 207.008657 
L 157.191429 207.008657 
L 157.191429 206.829207 
L 157.191429 206.974598 
L 157.191429 206.974598 
L 157.191429 207.08543 
L 157.191429 207.08543 
L 157.191429 207.08543 
L 157.191429 206.921827 
L 157.191429 206.921827 
L 157.191429 206.921827 
L 157.191429 207.116262 
L 157.191429 206.945168 
L 157.191429 206.945168 
L 157.191429 206.860416 
L 157.191429 206.860416 
L 157.191429 206.860416 
L 157.191429 207.011404 
L 157.191429 206.973242 
L 157.191429 206.973242 
L 157.191429 206.842483 
L 157.191429 206.858509 
L 157.191429 206.858509 
L 157.191429 207.065209 
L 157.191429 207.020848 
L 157.191429 207.020848 
L 157.191429 206.842396 
L 157.191429 206.842396 
L 157.191429 206.842396 
L 157.191429 207.080063 
L 160.38 206.887949 
L 160.38 207.083422 
L 160.38 207.083422 
L 160.38 207.083422 
L 160.38 206.817458 
L 160.38 206.817458 
L 160.38 206.817458 
L 160.38 207.155092 
L 160.38 206.959562 
L 160.38 206.959562 
L 160.38 206.743555 
L 160.38 206.743555 
L 160.38 206.743555 
L 160.38 207.362939 
L 160.38 206.975274 
L 160.38 206.975274 
L 160.38 206.5105 
L 160.38 206.974766 
L 160.38 206.974766 
L 160.38 207.275769 
L 160.38 207.091216 
L 160.38 207.091216 
L 160.38 206.765504 
L 160.38 207.030985 
L 160.38 207.030985 
L 160.38 207.170729 
L 160.38 207.170729 
L 160.38 207.170729 
L 160.38 207.028213 
L 160.38 207.028213 
L 160.38 207.028213 
L 160.38 207.455084 
L 160.38 207.232698 
L 160.38 207.232698 
L 160.38 206.674846 
L 160.38 207.126117 
L 160.38 207.126117 
L 160.38 207.41613 
L 160.38 207.264317 
L 160.38 207.264317 
L 160.38 206.696382 
L 160.38 206.96035 
L 163.568572 206.969875 
L 163.568572 207.094673 
L 163.568572 207.094673 
L 163.568572 207.094673 
L 163.568572 206.730492 
L 163.568572 207.034233 
L 163.568572 207.034233 
L 163.568572 207.339692 
L 163.568572 207.036088 
L 163.568572 207.036088 
L 163.568572 206.782344 
L 163.568572 206.830721 
L 163.568572 206.830721 
L 163.568572 207.214609 
L 163.568572 207.078705 
L 163.568572 207.078705 
L 163.568572 206.696091 
L 163.568572 206.918172 
L 163.568572 206.918172 
L 163.568572 207.122987 
L 163.568572 207.122987 
L 163.568572 207.122987 
L 163.568572 206.85248 
L 163.568572 207.054179 
L 163.568572 207.054179 
L 163.568572 207.623674 
L 163.568572 207.074934 
L 163.568572 207.074934 
L 163.568572 206.080644 
L 163.568572 207.027291 
L 163.568572 207.027291 
L 163.568572 208.072923 
L 163.568572 207.135476 
L 163.568572 207.135476 
L 163.568572 206.393517 
L 163.568572 207.016246 
L 163.568572 207.016246 
L 163.568572 207.707759 
L 163.568572 207.193909 
L 163.568572 207.193909 
L 163.568572 206.26303 
L 163.568572 207.007035 
L 163.568572 207.007035 
L 163.568572 207.564426 
L 163.568572 207.071388 
L 163.568572 207.071388 
L 163.568572 206.172114 
L 163.568572 206.93963 
L 163.568572 206.93963 
L 163.568572 207.0817 
L 163.568572 207.0817 
L 163.568572 207.0817 
L 163.568572 206.494024 
L 163.568572 207.033075 
L 163.568572 207.033075 
L 163.568572 207.165389 
L 163.568572 207.116781 
L 163.568572 207.116781 
L 163.568572 205.516754 
L 163.568572 207.027631 
L 163.568572 207.027631 
L 163.568572 207.260438 
L 163.568572 207.160391 
L 163.568572 207.160391 
L 163.568572 206.243594 
L 163.568572 206.927162 
L 163.568572 206.927162 
L 163.568572 207.192956 
L 163.568572 207.1649 
L 163.568572 207.1649 
L 163.568572 206.405189 
L 163.568572 206.836091 
L 163.568572 206.836091 
L 163.568572 207.222767 
L 163.568572 207.186406 
L 163.568572 207.186406 
L 163.568572 206.093809 
L 163.568572 206.973354 
L 163.568572 206.973354 
L 163.568572 207.589485 
L 163.568572 207.069183 
L 163.568572 207.069183 
L 163.568572 206.242137 
L 163.568572 206.4778 
L 163.568572 206.4778 
L 163.568572 207.142329 
L 166.757143 206.871598 
L 166.757143 207.39705 
L 166.757143 206.884871 
L 166.757143 206.884871 
L 166.757143 206.71147 
L 166.757143 206.819076 
L 166.757143 206.819076 
L 166.757143 207.754506 
L 166.757143 206.941996 
L 166.757143 206.941996 
L 166.757143 205.956436 
L 166.757143 206.853659 
L 166.757143 206.853659 
L 166.757143 208.462064 
L 166.757143 207.221783 
L 166.757143 207.221783 
L 166.757143 205.666742 
L 166.757143 206.819911 
L 166.757143 206.819911 
L 166.757143 207.543234 
L 166.757143 207.023638 
L 166.757143 207.023638 
L 166.757143 205.844173 
L 166.757143 207.021411 
L 166.757143 207.021411 
L 166.757143 208.1156 
L 166.757143 207.171963 
L 166.757143 207.171963 
L 166.757143 205.618972 
L 166.757143 207.052495 
L 166.757143 207.052495 
L 166.757143 207.442813 
L 166.757143 207.348081 
L 166.757143 207.348081 
L 166.757143 205.530163 
L 166.757143 207.139116 
L 166.757143 207.139116 
L 166.757143 209.073829 
L 166.757143 207.140083 
L 166.757143 207.140083 
L 166.757143 205.287263 
L 166.757143 206.51084 
L 166.757143 206.51084 
L 166.757143 207.552354 
L 166.757143 207.108721 
L 166.757143 207.108721 
L 166.757143 204.217654 
L 166.757143 206.008076 
L 166.757143 206.008076 
L 166.757143 210.219161 
L 166.757143 207.004611 
L 166.757143 207.004611 
L 166.757143 205.658273 
L 166.757143 206.959355 
L 166.757143 206.959355 
L 166.757143 207.116963 
L 166.757143 207.000609 
L 166.757143 207.000609 
L 166.757143 204.651652 
L 166.757143 206.694437 
L 166.757143 206.694437 
L 166.757143 210.645707 
L 166.757143 208.212739 
L 166.757143 208.212739 
L 166.757143 205.244254 
L 166.757143 208.093706 
L 166.757143 208.093706 
L 166.757143 209.750716 
L 166.757143 208.473533 
L 166.757143 208.473533 
L 166.757143 204.120659 
L 166.757143 207.711676 
L 166.757143 207.711676 
L 166.757143 210.541016 
L 166.757143 208.647175 
L 166.757143 208.647175 
L 166.757143 205.205276 
L 166.757143 206.983807 
L 166.757143 206.983807 
L 166.757143 212.425508 
L 166.757143 207.323167 
L 166.757143 207.323167 
L 166.757143 206.887847 
L 166.757143 206.887847 
L 166.757143 206.887847 
L 166.757143 216.80184 
L 169.945715 217.39904 
L 169.945715 298.097857 
L 169.945715 296.741527 
L 173.134286 297.007302 
L 173.134286 118.453593 
L 173.134286 242.111574 
L 176.322858 241.742981 
L 176.322858 243.972574 
L 176.322858 241.99823 
L 176.322858 241.99823 
L 176.322858 205.129238 
L 176.322858 229.897432 
L 179.511429 230.727282 
L 179.511429 227.060128 
L 179.511429 230.513042 
L 179.511429 230.513042 
L 179.511429 230.737807 
L 179.511429 230.518189 
L 179.511429 230.518189 
L 179.511429 230.412697 
L 179.511429 230.412697 
L 179.511429 230.412697 
L 179.511429 234.605096 
L 179.511429 230.531832 
L 179.511429 230.531832 
L 179.511429 190.643468 
L 179.511429 195.246889 
L 182.700001 195.663525 
L 182.700001 173.690017 
L 182.700001 195.133441 
L 182.700001 195.133441 
L 182.700001 207.495354 
L 182.700001 204.357817 
L 185.888572 204.616705 
L 185.888572 205.059307 
L 185.888572 205.059307 
L 185.888572 205.059307 
L 185.888572 192.890285 
L 185.888572 196.807557 
L 189.077144 196.747714 
L 189.077144 195.663638 
L 189.077144 195.829486 
L 189.077144 195.829486 
L 189.077144 199.186957 
L 189.077144 195.960156 
L 189.077144 195.960156 
L 189.077144 192.684338 
L 189.077144 195.64647 
L 189.077144 195.64647 
L 189.077144 196.233052 
L 189.077144 196.233052 
L 189.077144 196.233052 
L 189.077144 192.241313 
L 189.077144 195.582323 
L 189.077144 195.582323 
L 189.077144 196.883509 
L 189.077144 195.935791 
L 189.077144 195.935791 
L 189.077144 195.404397 
L 189.077144 195.404397 
L 189.077144 195.404397 
L 189.077144 197.468837 
L 189.077144 195.461237 
L 189.077144 195.461237 
L 189.077144 195.323437 
L 189.077144 195.323437 
L 189.077144 195.323437 
L 189.077144 361.315939 
L 189.077144 335.204006 
L 192.265715 334.597684 
L 192.265715 237.496508 
L 195.454287 236.979422 
L 195.454287 229.782679 
L 195.454287 236.611373 
L 195.454287 236.611373 
L 195.454287 286.51162 
L 195.454287 237.700499 
L 195.454287 237.700499 
L 195.454287 209.060947 
L 195.454287 236.802139 
L 195.454287 236.802139 
L 195.454287 245.957111 
L 195.454287 236.802512 
L 195.454287 236.802512 
L 195.454287 218.32616 
L 195.454287 218.781267 
L 198.642858 219.319877 
L 198.642858 215.851395 
L 198.642858 219.249213 
L 198.642858 219.249213 
L 198.642858 286.195064 
L 198.642858 224.541312 
L 201.831429 224.704845 
L 201.831429 161.350441 
L 201.831429 222.424814 
L 205.02 221.944479 
L 205.02 221.505934 
L 205.02 221.824312 
L 205.02 221.824312 
L 205.02 222.141905 
L 205.02 222.141905 
L 205.02 222.141905 
L 205.02 219.180086 
L 205.02 221.388783 
L 205.02 221.388783 
L 205.02 222.390163 
L 205.02 222.293771 
L 205.02 222.293771 
L 205.02 221.202667 
L 205.02 221.202667 
L 205.02 221.202667 
L 205.02 222.558031 
L 205.02 221.896958 
L 205.02 221.896958 
L 205.02 220.234785 
L 205.02 220.234785 
L 205.02 220.234785 
L 205.02 222.812635 
L 205.02 220.807458 
L 205.02 220.807458 
L 205.02 219.371674 
L 205.02 220.032148 
L 205.02 220.032148 
L 205.02 222.161975 
L 205.02 221.295702 
L 205.02 221.295702 
L 205.02 186.246924 
L 205.02 186.371453 
L 208.208571 186.220181 
L 208.208571 164.317433 
L 208.208571 185.623 
L 208.208571 185.623 
L 208.208571 203.639469 
L 208.208571 201.197111 
L 211.397143 201.909299 
L 211.397143 201.482818 
L 211.397143 201.482818 
L 211.397143 201.482818 
L 211.397143 206.269735 
L 211.397143 201.830015 
L 211.397143 201.830015 
L 211.397143 201.391189 
L 211.397143 201.481835 
L 211.397143 201.481835 
L 211.397143 202.180177 
L 211.397143 202.180177 
L 211.397143 202.180177 
L 211.397143 198.837228 
L 211.397143 201.78057 
L 211.397143 201.78057 
L 211.397143 203.773091 
L 211.397143 201.85062 
L 211.397143 201.85062 
L 211.397143 199.022993 
L 211.397143 200.47174 
L 211.397143 200.47174 
L 211.397143 212.235726 
L 211.397143 203.522244 
L 214.585714 202.046425 
L 214.585714 189.69631 
L 214.585714 202.016857 
L 214.585714 202.016857 
L 214.585714 281.89231 
L 217.774286 281.65987 
L 217.774286 284.837126 
L 217.774286 281.934215 
L 217.774286 281.934215 
L 217.774286 153.225748 
L 217.774286 153.345194 
L 220.962857 153.091188 
L 220.962857 134.1027 
L 220.962857 153.000862 
L 220.962857 153.000862 
L 220.962857 207.335068 
L 220.962857 207.073915 
L 224.151429 208.40284 
L 224.151429 249.829939 
L 224.151429 209.113886 
L 224.151429 209.113886 
L 224.151429 162.640938 
L 224.151429 168.538479 
L 227.34 168.771068 
L 227.34 169.118035 
L 227.34 169.118035 
L 227.34 169.118035 
L 227.34 168.489619 
L 227.34 168.489619 
L 227.34 168.489619 
L 227.34 172.32299 
L 227.34 169.088102 
L 227.34 169.088102 
L 227.34 144.558579 
L 227.34 167.492237 
L 227.34 167.492237 
L 227.34 219.355848 
L 227.34 191.210314 
L 230.528572 190.716934 
L 230.528572 191.081391 
L 230.528572 191.081391 
L 230.528572 191.081391 
L 230.528572 158.392948 
L 230.528572 190.867917 
L 230.528572 190.867917 
L 230.528572 200.372565 
L 230.528572 191.417157 
L 230.528572 191.417157 
L 230.528572 186.833601 
L 230.528572 189.739232 
L 230.528572 189.739232 
L 230.528572 212.284778 
L 233.717143 212.320632 
L 233.717143 271.104246 
L 233.717143 234.43451 
L 236.905715 234.484378 
L 236.905715 233.806683 
L 236.905715 233.806683 
L 236.905715 233.806683 
L 236.905715 241.776672 
L 236.905715 234.127197 
L 236.905715 234.127197 
L 236.905715 208.361255 
L 236.905715 223.644649 
L 240.094286 224.219237 
L 240.094286 228.95335 
L 240.094286 224.228057 
L 240.094286 224.228057 
L 240.094286 193.025419 
L 240.094286 224.225054 
L 240.094286 224.225054 
L 240.094286 229.753316 
L 240.094286 228.226765 
L 243.282858 228.533414 
L 243.282858 231.78982 
L 243.282858 229.12041 
L 243.282858 229.12041 
L 243.282858 216.008843 
L 243.282858 228.843697 
L 243.282858 228.843697 
L 243.282858 240.056983 
L 243.282858 229.176283 
L 243.282858 229.176283 
L 243.282858 221.064342 
L 243.282858 229.09669 
L 243.282858 229.09669 
L 243.282858 243.690664 
L 243.282858 230.726637 
L 243.282858 230.726637 
L 243.282858 219.8175 
L 243.282858 230.327987 
L 243.282858 230.327987 
L 243.282858 237.991281 
L 243.282858 231.745093 
L 246.471429 231.067362 
L 246.471429 231.536504 
L 246.471429 231.536504 
L 246.471429 231.536504 
L 246.471429 210.938418 
L 246.471429 231.141536 
L 246.471429 231.141536 
L 246.471429 237.598507 
L 246.471429 231.339708 
L 246.471429 231.339708 
L 246.471429 208.728082 
L 246.471429 230.704632 
L 246.471429 230.704632 
L 246.471429 233.621094 
L 246.471429 231.663471 
L 246.471429 231.663471 
L 246.471429 216.800954 
L 246.471429 231.337709 
L 246.471429 231.337709 
L 246.471429 233.827596 
L 246.471429 231.575922 
L 246.471429 231.575922 
L 246.471429 220.018466 
L 249.660001 220.160897 
L 249.660001 220.638032 
L 249.660001 220.638032 
L 249.660001 220.638032 
L 249.660001 219.130463 
L 249.660001 219.803347 
L 249.660001 219.803347 
L 249.660001 221.16487 
L 249.660001 220.521081 
L 249.660001 220.521081 
L 249.660001 219.514505 
L 249.660001 219.514505 
L 249.660001 219.514505 
L 249.660001 244.041966 
L 249.660001 240.366712 
L 252.848572 241.057261 
L 252.848572 256.192253 
L 252.848572 242.479528 
L 252.848572 242.479528 
L 252.848572 236.445309 
L 252.848572 242.434804 
L 252.848572 242.434804 
L 252.848572 256.01824 
L 252.848572 242.6523 
L 252.848572 242.6523 
L 252.848572 237.599283 
L 252.848572 242.546527 
L 252.848572 242.546527 
L 252.848572 245.675211 
L 252.848572 243.596767 
L 252.848572 243.596767 
L 252.848572 225.889524 
L 252.848572 237.886925 
L 256.037144 237.610297 
L 256.037144 242.89315 
L 256.037144 238.488735 
L 256.037144 238.488735 
L 256.037144 209.409842 
L 256.037144 213.722298 
L 259.225715 213.883304 
L 259.225715 237.571914 
L 259.225715 231.55803 
L 262.414287 231.758025 
L 262.414287 232.075875 
L 262.414287 232.075875 
L 262.414287 232.075875 
L 262.414287 230.112497 
L 262.414287 230.112497 
L 262.414287 230.112497 
L 262.414287 245.366878 
L 262.414287 230.784645 
L 262.414287 230.784645 
L 262.414287 220.277392 
L 265.602858 220.316886 
L 265.602858 173.380702 
L 265.602858 220.167249 
L 265.602858 220.167249 
L 265.602858 229.422268 
L 265.602858 227.730753 
L 268.791429 226.854154 
L 268.791429 226.528059 
L 268.791429 226.591147 
L 268.791429 226.591147 
L 268.791429 228.733651 
L 268.791429 227.094248 
L 268.791429 227.094248 
L 268.791429 185.339706 
L 268.791429 196.327752 
L 271.98 196.250474 
L 271.98 196.722126 
L 271.98 196.722126 
L 271.98 196.722126 
L 271.98 193.112182 
L 271.98 196.340026 
L 271.98 196.340026 
L 271.98 196.788905 
L 271.98 196.788905 
L 271.98 196.788905 
L 271.98 195.027711 
L 271.98 196.585777 
L 271.98 196.585777 
L 271.98 199.009825 
L 271.98 199.009825 
L 271.98 199.009825 
L 271.98 196.302369 
L 271.98 198.333106 
L 271.98 198.333106 
L 271.98 209.660174 
L 271.98 198.935907 
L 271.98 198.935907 
L 271.98 194.432568 
L 275.168571 195.296855 
L 275.168571 189.087752 
L 275.168571 195.235605 
L 275.168571 195.235605 
L 275.168571 196.4722 
L 275.168571 195.602618 
L 275.168571 195.602618 
L 275.168571 195.015351 
L 275.168571 195.032894 
L 275.168571 195.032894 
L 275.168571 195.956167 
L 275.168571 195.956167 
L 275.168571 195.956167 
L 275.168571 186.474146 
L 275.168571 194.816983 
L 275.168571 194.816983 
L 275.168571 198.306808 
L 275.168571 195.371977 
L 275.168571 195.371977 
L 275.168571 193.798362 
L 275.168571 194.878585 
L 275.168571 194.878585 
L 275.168571 201.294464 
L 275.168571 199.39861 
L 278.357143 199.653227 
L 278.357143 151.524284 
L 281.545714 151.288467 
L 281.545714 150.635523 
L 281.545714 151.009691 
L 281.545714 151.009691 
L 281.545714 153.501519 
L 281.545714 151.694383 
L 281.545714 151.694383 
L 281.545714 111.797593 
L 281.545714 147.519502 
L 281.545714 147.519502 
L 281.545714 201.688328 
L 281.545714 201.337969 
L 284.734286 202.110505 
L 284.734286 201.223567 
L 284.734286 201.534414 
L 284.734286 201.534414 
L 284.734286 212.933215 
L 284.734286 202.424589 
L 284.734286 202.424589 
L 284.734286 197.300025 
L 284.734286 202.26777 
L 284.734286 202.26777 
L 284.734286 208.210907 
L 284.734286 208.015672 
L 287.922857 207.798922 
L 287.922857 225.535132 
L 287.922857 208.280835 
L 287.922857 208.280835 
L 287.922857 195.373535 
L 287.922857 197.988862 
L 291.111429 197.940494 
L 291.111429 198.01558 
L 291.111429 191.403721 
L 291.111429 197.270387 
L 291.111429 197.270387 
L 291.111429 198.085389 
L 291.111429 198.085389 
L 291.111429 198.085389 
L 291.111429 182.23265 
L 291.111429 197.308337 
L 291.111429 197.308337 
L 291.111429 202.643528 
L 291.111429 201.521794 
L 294.3 199.890797 
L 294.3 200.425796 
L 294.3 200.425796 
L 294.3 200.425796 
L 294.3 190.981734 
L 294.3 199.272586 
L 294.3 199.272586 
L 294.3 204.170684 
L 294.3 199.459466 
L 294.3 199.459466 
L 294.3 196.598382 
L 294.3 198.288792 
L 294.3 198.288792 
L 294.3 206.283462 
L 294.3 198.984305 
L 294.3 198.984305 
L 294.3 194.686415 
L 294.3 198.699691 
L 294.3 198.699691 
L 294.3 228.709355 
L 297.488572 229.439634 
L 297.488572 276.300818 
L 297.488572 229.775956 
L 297.488572 229.775956 
L 297.488572 207.045304 
L 297.488572 208.725861 
L 300.677143 209.124078 
L 300.677143 207.153727 
L 300.677143 207.33129 
L 300.677143 207.33129 
L 300.677143 211.515126 
L 300.677143 207.715592 
L 300.677143 207.715592 
L 300.677143 192.12602 
L 300.677143 207.647718 
L 300.677143 207.647718 
L 300.677143 218.484917 
L 300.677143 208.131338 
L 300.677143 208.131338 
L 300.677143 200.353223 
L 300.677143 207.757604 
L 300.677143 207.757604 
L 300.677143 212.142085 
L 300.677143 208.518449 
L 300.677143 208.518449 
L 300.677143 170.324287 
L 300.677143 174.761307 
L 303.865715 174.864852 
L 303.865715 174.727889 
L 303.865715 174.727889 
L 303.865715 174.727889 
L 303.865715 235.480141 
L 303.865715 228.697033 
L 307.054286 228.660234 
L 307.054286 227.903495 
L 307.054286 228.472587 
L 307.054286 228.472587 
L 307.054286 228.798253 
L 307.054286 228.798253 
L 307.054286 228.798253 
L 307.054286 191.984229 
L 307.054286 206.323494 
L 310.242858 205.646193 
L 310.242858 205.72301 
L 310.242858 198.595627 
L 310.242858 205.245039 
L 310.242858 205.245039 
L 310.242858 220.983158 
L 310.242858 205.290361 
L 310.242858 205.290361 
L 310.242858 197.609325 
L 310.242858 204.398525 
L 310.242858 204.398525 
L 310.242858 217.369126 
L 310.242858 205.255237 
L 310.242858 205.255237 
L 310.242858 193.738857 
L 310.242858 201.629853 
L 313.431429 200.835797 
L 313.431429 184.905164 
L 313.431429 199.819639 
L 313.431429 199.819639 
L 313.431429 230.494861 
L 313.431429 201.780309 
L 313.431429 201.780309 
L 313.431429 184.800584 
L 313.431429 201.39686 
L 313.431429 201.39686 
L 313.431429 211.146829 
L 316.620001 212.758168 
L 316.620001 248.943399 
L 316.620001 213.345826 
L 316.620001 213.345826 
L 316.620001 177.894624 
L 316.620001 180.041545 
L 319.808572 179.859788 
L 319.808572 177.272996 
L 319.808572 177.272996 
L 319.808572 177.272996 
L 319.808572 180.222622 
L 319.808572 177.3333 
L 319.808572 177.3333 
L 319.808572 176.04044 
L 319.808572 176.987554 
L 319.808572 176.987554 
L 319.808572 181.106616 
L 319.808572 177.18052 
L 319.808572 177.18052 
L 319.808572 172.785294 
L 319.808572 176.927768 
L 319.808572 176.927768 
L 319.808572 189.685035 
L 319.808572 177.735958 
L 319.808572 177.735958 
L 319.808572 176.805256 
L 319.808572 176.805256 
L 319.808572 176.805256 
L 319.808572 177.861481 
L 319.808572 176.806995 
L 319.808572 176.806995 
L 319.808572 174.623477 
L 319.808572 175.768701 
L 319.808572 175.768701 
L 319.808572 191.617555 
L 319.808572 177.745857 
L 322.997144 178.457399 
L 322.997144 144.620749 
L 322.997144 177.124699 
L 322.997144 177.124699 
L 322.997144 185.566888 
L 322.997144 177.187904 
L 322.997144 177.187904 
L 322.997144 176.744667 
L 322.997144 176.744667 
L 322.997144 176.744667 
L 322.997144 177.251491 
L 322.997144 177.251491 
L 322.997144 177.251491 
L 322.997144 173.494012 
L 326.185715 173.525108 
L 326.185715 163.548604 
L 326.185715 173.080661 
L 326.185715 173.080661 
L 326.185715 223.520969 
L 326.185715 211.286157 
L 329.374286 211.632176 
L 329.374286 210.521041 
L 329.374286 211.61458 
L 329.374286 211.61458 
L 329.374286 234.981616 
L 329.374286 211.914694 
L 329.374286 211.914694 
L 329.374286 211.240274 
L 329.374286 211.240274 
L 329.374286 211.240274 
L 329.374286 217.701814 
L 329.374286 211.35309 
L 329.374286 211.35309 
L 329.374286 166.489777 
L 329.374286 169.983016 
L 332.562858 170.008874 
L 332.562858 170.255077 
L 332.562858 170.199019 
L 332.562858 170.199019 
L 332.562858 169.773042 
L 332.562858 169.773042 
L 332.562858 169.773042 
L 332.562858 170.274569 
L 332.562858 169.920575 
L 332.562858 169.920575 
L 332.562858 168.766877 
L 332.562858 169.395407 
L 332.562858 169.395407 
L 332.562858 177.26365 
L 332.562858 169.560373 
L 332.562858 169.560373 
L 332.562858 153.645196 
L 332.562858 169.270505 
L 332.562858 169.270505 
L 332.562858 171.099129 
L 335.751429 171.655848 
L 335.751429 185.202135 
L 335.751429 171.895485 
L 335.751429 171.895485 
L 335.751429 170.912242 
L 335.751429 171.555245 
L 335.751429 171.555245 
L 335.751429 192.92285 
L 338.940001 192.728319 
L 338.940001 193.316111 
L 338.940001 193.119164 
L 338.940001 193.119164 
L 338.940001 138.579478 
L 338.940001 140.55715 
L 342.128572 139.569382 
L 342.128572 139.355106 
L 342.128572 139.355106 
L 342.128572 139.355106 
L 342.128572 140.5043 
L 342.128572 139.524224 
L 342.128572 139.524224 
L 342.128572 138.99077 
L 342.128572 138.99077 
L 342.128572 138.99077 
L 342.128572 140.024152 
L 342.128572 139.390456 
L 342.128572 139.390456 
L 342.128572 127.312961 
L 342.128572 137.560447 
L 342.128572 137.560447 
L 342.128572 168.731617 
L 345.317143 167.284889 
L 345.317143 204.827976 
L 345.317143 198.465858 
L 348.505714 198.086817 
L 348.505714 214.915518 
L 348.505714 199.459653 
L 348.505714 199.459653 
L 348.505714 179.982533 
L 348.505714 197.673804 
L 348.505714 197.673804 
L 348.505714 202.03626 
L 348.505714 198.553128 
L 348.505714 198.553128 
L 348.505714 155.429387 
L 351.694286 156.829557 
L 351.694286 155.403897 
L 351.694286 156.667707 
L 351.694286 156.667707 
L 351.694286 156.950522 
L 351.694286 156.721355 
L 351.694286 156.721355 
L 351.694286 156.446601 
L 351.694286 156.446601 
L 351.694286 156.446601 
L 351.694286 264.30918 
L 351.694286 158.532422 
L 351.694286 158.532422 
L 351.694286 155.067737 
L 351.694286 157.989096 
L 351.694286 157.989096 
L 351.694286 179.804371 
L 351.694286 179.592409 
L 354.882857 180.831735 
L 354.882857 248.160328 
L 354.882857 181.995864 
L 354.882857 181.995864 
L 354.882857 164.962042 
L 354.882857 181.291445 
L 354.882857 181.291445 
L 354.882857 183.532513 
L 354.882857 183.532513 
L 354.882857 183.532513 
L 354.882857 180.833984 
L 354.882857 180.833984 
L 354.882857 180.833984 
L 354.882857 208.766273 
L 354.882857 205.652007 
L 358.071429 207.569301 
L 358.071429 208.766705 
L 358.071429 208.766705 
L 358.071429 208.766705 
L 358.071429 206.860889 
L 358.071429 208.149931 
L 358.071429 208.149931 
L 358.071429 209.672035 
L 358.071429 208.726572 
L 358.071429 208.726572 
L 358.071429 208.051473 
L 358.071429 208.703009 
L 358.071429 208.703009 
L 358.071429 213.365707 
L 358.071429 209.292928 
L 358.071429 209.292928 
L 358.071429 208.565376 
L 358.071429 208.565376 
L 358.071429 208.565376 
L 358.071429 209.917837 
L 358.071429 209.917837 
L 358.071429 209.917837 
L 358.071429 208.438355 
L 358.071429 209.709833 
L 358.071429 209.709833 
L 358.071429 216.380639 
L 358.071429 209.718748 
L 358.071429 209.718748 
L 358.071429 208.781775 
L 358.071429 208.781775 
L 358.071429 208.781775 
L 358.071429 212.031521 
L 358.071429 209.959869 
L 358.071429 209.959869 
L 358.071429 131.940836 
L 358.071429 137.77028 
L 361.26 138.05033 
L 361.26 142.759505 
L 361.26 139.230909 
L 361.26 139.230909 
L 361.26 117.643925 
L 361.26 137.952509 
L 361.26 137.952509 
L 361.26 210.104569 
L 364.448572 210.481805 
L 364.448572 210.060575 
L 364.448572 210.229763 
L 364.448572 210.229763 
L 364.448572 211.655889 
L 364.448572 210.70679 
L 364.448572 210.70679 
L 364.448572 209.077717 
L 364.448572 209.077717 
L 364.448572 209.077717 
L 364.448572 210.734667 
L 364.448572 209.553584 
L 364.448572 209.553584 
L 364.448572 165.09493 
L 364.448572 208.5204 
L 364.448572 208.5204 
L 364.448572 225.953742 
L 364.448572 209.109921 
L 364.448572 209.109921 
L 364.448572 175.008869 
L 364.448572 177.747597 
L 367.637143 178.062795 
L 367.637143 207.872118 
L 367.637143 178.429115 
L 367.637143 178.429115 
L 367.637143 158.848746 
L 367.637143 177.401411 
L 367.637143 177.401411 
L 367.637143 179.7579 
L 370.825715 179.87867 
L 370.825715 182.369587 
L 370.825715 181.06617 
L 370.825715 181.06617 
L 370.825715 172.529328 
L 370.825715 180.732105 
L 370.825715 180.732105 
L 370.825715 213.548693 
L 370.825715 204.801449 
L 374.014286 204.389209 
L 374.014286 186.116398 
L 374.014286 203.635665 
L 374.014286 203.635665 
L 374.014286 204.829505 
L 374.014286 204.829505 
L 374.014286 204.829505 
L 374.014286 201.859873 
L 374.014286 203.880755 
L 374.014286 203.880755 
L 374.014286 214.800517 
L 374.014286 204.338325 
L 374.014286 204.338325 
L 374.014286 180.554705 
L 374.014286 202.191652 
L 374.014286 202.191652 
L 374.014286 207.959401 
L 374.014286 203.057133 
L 374.014286 203.057133 
L 374.014286 174.555963 
L 377.202858 174.001178 
L 377.202858 169.631205 
L 377.202858 173.962243 
L 377.202858 173.962243 
L 377.202858 189.484352 
L 377.202858 174.37128 
L 377.202858 174.37128 
L 377.202858 170.447453 
L 377.202858 173.232141 
L 377.202858 173.232141 
L 377.202858 193.125872 
L 377.202858 173.481671 
L 377.202858 173.481671 
L 377.202858 157.473509 
L 377.202858 172.172154 
L 380.391429 171.860568 
L 380.391429 185.030957 
L 380.391429 172.940598 
L 380.391429 172.940598 
L 380.391429 143.246684 
L 380.391429 172.772667 
L 380.391429 172.772667 
L 380.391429 233.992566 
L 380.391429 203.764861 
L 383.580001 202.803177 
L 383.580001 177.608787 
L 383.580001 202.265164 
L 383.580001 202.265164 
L 383.580001 236.460095 
L 383.580001 236.078987 
L 386.768572 236.370134 
L 386.768572 236.796199 
L 386.768572 236.796199 
L 386.768572 236.796199 
L 386.768572 234.825425 
L 386.768572 235.490728 
L 386.768572 235.490728 
L 386.768572 244.683588 
L 386.768572 235.674375 
L 386.768572 235.674375 
L 386.768572 227.6956 
L 386.768572 234.508399 
L 386.768572 234.508399 
L 386.768572 268.508514 
L 386.768572 251.408678 
L 389.957143 248.870669 
L 389.957143 153.205035 
L 389.957143 202.085671 
L 393.145715 201.382508 
L 393.145715 285.459606 
L 393.145715 221.514765 
L 396.334286 221.179042 
L 396.334286 164.347165 
L 396.334286 164.603794 
L 399.522858 164.745288 
L 399.522858 163.893114 
L 399.522858 163.893114 
L 399.522858 163.893114 
L 399.522858 264.451909 
L 399.522858 165.412094 
L 399.522858 165.412094 
L 399.522858 143.338398 
L 402.711429 143.77068 
L 402.711429 122.27715 
L 402.711429 140.461982 
L 402.711429 140.461982 
L 402.711429 186.745304 
L 402.711429 181.920233 
L 405.900001 179.824973 
L 405.900001 182.193718 
L 405.900001 180.80568 
L 405.900001 180.80568 
L 405.900001 179.812088 
L 405.900001 180.363595 
L 405.900001 180.363595 
L 405.900001 181.051396 
L 405.900001 181.051396 
L 405.900001 181.051396 
L 405.900001 178.780998 
L 405.900001 180.570953 
L 405.900001 180.570953 
L 405.900001 184.210703 
L 405.900001 181.315451 
L 405.900001 181.315451 
L 405.900001 152.803313 
L 405.900001 168.907682 
L 409.088572 169.537853 
L 409.088572 170.013303 
L 409.088572 170.013303 
L 409.088572 170.013303 
L 409.088572 169.493436 
L 409.088572 169.493436 
L 409.088572 169.493436 
L 409.088572 188.542309 
L 409.088572 170.045715 
L 409.088572 170.045715 
L 409.088572 147.953301 
L 409.088572 168.786536 
L 409.088572 168.786536 
L 409.088572 170.414877 
L 409.088572 169.489146 
L 409.088572 169.489146 
L 409.088572 167.662625 
L 409.088572 168.767613 
L 409.088572 168.767613 
L 409.088572 170.05613 
L 409.088572 168.964279 
L 409.088572 168.964279 
L 409.088572 153.575215 
L 409.088572 155.663487 
L 412.277143 156.478345 
L 412.277143 155.28545 
L 412.277143 156.426727 
L 412.277143 156.426727 
L 412.277143 195.841893 
L 412.277143 178.507244 
L 415.465714 180.338367 
L 415.465714 178.989558 
L 415.465714 180.095017 
L 415.465714 180.095017 
L 415.465714 183.583772 
L 415.465714 182.329293 
L 415.465714 182.329293 
L 415.465714 150.077744 
L 418.654286 147.456921 
L 418.654286 113.475251 
L 418.654286 146.135057 
L 418.654286 146.135057 
L 418.654286 210.149619 
L 418.654286 189.010836 
L 421.842857 188.532951 
L 421.842857 153.644239 
L 421.842857 186.302151 
L 421.842857 186.302151 
L 421.842857 194.132068 
L 421.842857 190.270715 
L 425.031429 190.122354 
L 425.031429 168.836673 
L 425.031429 188.60553 
L 425.031429 188.60553 
L 425.031429 195.68696 
L 425.031429 188.97748 
L 425.031429 188.97748 
L 425.031429 182.149468 
L 425.031429 186.175628 
L 425.031429 186.175628 
L 425.031429 198.510876 
L 425.031429 190.602993 
L 428.22 190.742519 
L 428.22 192.719184 
L 428.22 191.051421 
L 428.22 191.051421 
L 428.22 182.395617 
L 428.22 190.916946 
L 428.22 190.916946 
L 428.22 217.315172 
L 428.22 190.927284 
L 428.22 190.927284 
L 428.22 153.488492 
L 428.22 190.779732 
L 428.22 190.779732 
L 428.22 193.483925 
L 431.408572 193.526778 
L 431.408572 193.267658 
L 431.408572 193.267658 
L 431.408572 193.267658 
L 431.408572 194.244378 
L 431.408572 193.567222 
L 431.408572 193.567222 
L 431.408572 146.088166 
L 431.408572 193.507314 
L 431.408572 193.507314 
L 431.408572 198.270579 
L 431.408572 194.390715 
L 431.408572 194.390715 
L 431.408572 155.586345 
L 431.408572 194.326701 
L 431.408572 194.326701 
L 431.408572 268.273625 
L 434.597143 269.521989 
L 434.597143 291.412279 
L 434.597143 271.11107 
L 434.597143 271.11107 
L 434.597143 186.825549 
L 434.597143 240.84832 
L 437.785715 240.382764 
L 437.785715 235.179207 
L 437.785715 240.26679 
L 437.785715 240.26679 
L 437.785715 240.718136 
L 437.785715 240.718136 
L 437.785715 240.718136 
L 437.785715 180.29034 
L 437.785715 240.572485 
L 437.785715 240.572485 
L 437.785715 256.307807 
L 437.785715 241.57275 
L 437.785715 241.57275 
L 437.785715 217.333022 
L 440.974286 216.781686 
L 440.974286 215.598127 
L 440.974286 215.598127 
L 440.974286 215.598127 
L 440.974286 217.108301 
L 440.974286 216.29689 
L 440.974286 216.29689 
L 440.974286 201.138732 
L 440.974286 202.224119 
L 440.974286 202.224119 
L 440.974286 217.715895 
L 440.974286 217.715895 
L 440.974286 217.715895 
L 440.974286 157.127371 
L 440.974286 206.15009 
L 440.974286 206.15009 
L 440.974286 289.570936 
L 440.974286 245.29424 
L 440.974286 245.29424 
L 440.974286 159.957577 
L 440.974286 195.19914 
L 444.162858 196.264073 
L 444.162858 194.817104 
L 444.162858 195.220795 
L 447.351429 195.071781 
L 447.351429 195.106217 
L 447.351429 196.016163 
L 447.351429 195.191796 
L 447.351429 195.191796 
L 447.351429 195.067574 
L 447.351429 195.067574 
L 447.351429 195.067574 
L 447.351429 195.220895 
L 447.351429 195.148142 
L 447.351429 195.148142 
L 447.351429 195.024028 
L 447.351429 195.024028 
L 447.351429 195.024028 
L 447.351429 196.211121 
L 447.351429 195.241559 
L 447.351429 195.241559 
L 447.351429 195.013727 
L 447.351429 195.224444 
L 447.351429 195.224444 
L 447.351429 196.065531 
L 447.351429 195.273424 
L 447.351429 195.273424 
L 447.351429 195.064198 
L 447.351429 195.064198 
L 447.351429 195.064198 
L 447.351429 195.9694 
L 447.351429 195.144336 
L 447.351429 195.144336 
L 447.351429 195.032455 
L 447.351429 195.032455 
L 447.351429 195.032455 
L 447.351429 196.130036 
L 447.351429 195.211665 
L 447.351429 195.211665 
L 447.351429 195.020134 
L 447.351429 195.113242 
L 447.351429 195.113242 
L 447.351429 196.084641 
L 447.351429 195.233077 
L 447.351429 195.233077 
L 447.351429 195.064333 
L 447.351429 195.064333 
L 447.351429 195.064333 
L 447.351429 196.119161 
L 447.351429 195.126828 
L 447.351429 195.126828 
L 447.351429 195.016081 
L 447.351429 195.089976 
L 447.351429 195.089976 
L 447.351429 196.120882 
L 447.351429 195.230797 
L 447.351429 195.230797 
L 447.351429 195.078281 
L 447.351429 195.078281 
L 447.351429 195.078281 
L 447.351429 195.326043 
L 447.351429 195.173307 
L 447.351429 195.173307 
L 447.351429 195.054605 
L 447.351429 195.054605 
L 447.351429 195.054605 
L 447.351429 195.366571 
L 447.351429 195.066337 
L 447.351429 195.066337 
L 447.351429 195.015952 
L 447.351429 195.015952 
L 447.351429 195.015952 
L 447.351429 196.213994 
L 447.351429 195.135728 
L 447.351429 195.135728 
L 447.351429 194.999726 
L 447.351429 194.999726 
L 447.351429 194.999726 
L 447.351429 196.093599 
L 447.351429 195.085188 
L 450.54 195.293 
L 450.54 195.187989 
L 450.54 196.058828 
L 450.54 195.317697 
L 450.54 195.317697 
L 450.54 195.121944 
L 450.54 195.213426 
L 450.54 195.213426 
L 450.54 196.153595 
L 450.54 195.244175 
L 450.54 195.244175 
L 450.54 195.151139 
L 450.54 195.151139 
L 450.54 195.151139 
L 450.54 196.192611 
L 450.54 195.220705 
L 450.54 195.220705 
L 450.54 195.144661 
L 450.54 195.208461 
L 450.54 195.208461 
L 450.54 195.380604 
L 450.54 195.380604 
L 450.54 195.380604 
L 450.54 195.057648 
L 450.54 195.057648 
L 450.54 195.057648 
L 450.54 196.113109 
L 450.54 195.142164 
L 450.54 195.142164 
L 450.54 195.012031 
L 450.54 195.012031 
L 450.54 195.012031 
L 450.54 196.217887 
L 450.54 196.217887 
L 450.54 196.217887 
L 450.54 194.958854 
L 450.54 195.079207 
L 450.54 195.079207 
L 450.54 196.222559 
L 450.54 195.172977 
L 450.54 195.172977 
L 450.54 195.011659 
L 450.54 195.011659 
L 450.54 195.011659 
L 450.54 196.241666 
L 450.54 195.183799 
L 450.54 195.183799 
L 450.54 194.968574 
L 450.54 195.176987 
L 450.54 195.176987 
L 450.54 196.12759 
L 450.54 196.12759 
L 450.54 196.12759 
L 450.54 195.00203 
L 450.54 195.143632 
L 450.54 195.143632 
L 450.54 196.207678 
L 450.54 196.207678 
L 450.54 196.207678 
L 450.54 195.024007 
L 450.54 195.190822 
L 453.728572 196.072299 
L 453.728572 195.056139 
L 453.728572 195.056139 
L 453.728572 195.056139 
L 453.728572 196.143406 
L 453.728572 195.180468 
L 453.728572 195.180468 
L 453.728572 195.035231 
L 453.728572 195.138585 
L 453.728572 195.138585 
L 453.728572 196.139698 
L 453.728572 196.139698 
L 453.728572 196.139698 
L 453.728572 195.087802 
L 453.728572 195.087802 
L 453.728572 195.087802 
L 453.728572 196.174231 
L 453.728572 195.105519 
L 453.728572 195.105519 
L 453.728572 195.031751 
L 453.728572 195.031751 
L 453.728572 195.031751 
L 453.728572 196.220244 
L 453.728572 195.291515 
L 456.917143 195.197914 
L 456.917143 195.127105 
L 456.917143 195.127105 
L 456.917143 195.127105 
L 456.917143 196.1828 
L 456.917143 195.216211 
L 456.917143 195.216211 
L 456.917143 195.086081 
L 456.917143 195.215111 
L 456.917143 195.215111 
L 456.917143 196.123611 
L 456.917143 196.123611 
L 456.917143 196.123611 
L 456.917143 195.06305 
L 456.917143 195.189726 
L 456.917143 195.189726 
L 456.917143 196.15769 
L 456.917143 196.15769 
L 456.917143 196.15769 
L 456.917143 195.086982 
L 456.917143 196.04502 
" style="fill:none;stroke:#ffa500;stroke-linecap:square;"/>
   </g>
   <g id="patch_3">
    <path d="M 72 43.2 
L 518.400001 43.2 
" style="fill:none;stroke:#000000;stroke-linecap:square;stroke-linejoin:miter;"/>
   </g>
   <g id="patch_4">
    <path d="M 518.4 388.8 
L 518.4 43.2 
" style="fill:none;stroke:#000000;stroke-linecap:square;stroke-linejoin:miter;"/>
   </g>
   <g id="patch_5">
    <path d="M 72 388.8 
L 518.400001 388.8 
" style="fill:none;stroke:#000000;stroke-linecap:square;stroke-linejoin:miter;"/>
   </g>
   <g id="patch_6">
    <path d="M 72 388.8 
L 72 43.2 
" style="fill:none;stroke:#000000;stroke-linecap:square;stroke-linejoin:miter;"/>
   </g>
   <g id="matplotlib.axis_1">
    <g id="xtick_1">
     <g id="line2d_2">
      <defs>
       <path d="M 0 0 
L 0 -4 
" id="m38ba7e8040" style="stroke:#000000;stroke-width:0.5;"/>
      </defs>
      <g>
       <use style="stroke:#000000;stroke-width:0.5;" x="134.87142944335938" xlink:href="#m38ba7e8040" y="388.8"/>
      </g>
     </g>
     <g id="line2d_3">
      <defs>
       <path d="M 0 0 
L 0 4 
" id="mbb01d7505d" style="stroke:#000000;stroke-width:0.5;"/>
      </defs>
      <g>
       <use style="stroke:#000000;stroke-width:0.5;" x="134.87142944335938" xlink:href="#mbb01d7505d" y="43.19999999999999"/>
      </g>
     </g>
     <g id="text_1">
      <!-- 20 -->
      <defs>
       <path d="M 19.1875 8.296875 
L 53.609375 8.296875 
L 53.609375 0 
L 7.328125 0 
L 7.328125 8.296875 
Q 12.9375 14.109375 22.625 23.890625 
Q 32.328125 33.6875 34.8125 36.53125 
Q 39.546875 41.84375 41.421875 45.53125 
Q 43.3125 49.21875 43.3125 52.78125 
Q 43.3125 58.59375 39.234375 62.25 
Q 35.15625 65.921875 28.609375 65.921875 
Q 23.96875 65.921875 18.8125 64.3125 
Q 13.671875 62.703125 7.8125 59.421875 
L 7.8125 69.390625 
Q 13.765625 71.78125 18.9375 73 
Q 24.125 74.21875 28.421875 74.21875 
Q 39.75 74.21875 46.484375 68.546875 
Q 53.21875 62.890625 53.21875 53.421875 
Q 53.21875 48.921875 51.53125 44.890625 
Q 49.859375 40.875 45.40625 35.40625 
Q 44.1875 33.984375 37.640625 27.21875 
Q 31.109375 20.453125 19.1875 8.296875 
" id="BitstreamVeraSans-Roman-32"/>
       <path d="M 31.78125 66.40625 
Q 24.171875 66.40625 20.328125 58.90625 
Q 16.5 51.421875 16.5 36.375 
Q 16.5 21.390625 20.328125 13.890625 
Q 24.171875 6.390625 31.78125 6.390625 
Q 39.453125 6.390625 43.28125 13.890625 
Q 47.125 21.390625 47.125 36.375 
Q 47.125 51.421875 43.28125 58.90625 
Q 39.453125 66.40625 31.78125 66.40625 
M 31.78125 74.21875 
Q 44.046875 74.21875 50.515625 64.515625 
Q 56.984375 54.828125 56.984375 36.375 
Q 56.984375 17.96875 50.515625 8.265625 
Q 44.046875 -1.421875 31.78125 -1.421875 
Q 19.53125 -1.421875 13.0625 8.265625 
Q 6.59375 17.96875 6.59375 36.375 
Q 6.59375 54.828125 13.0625 64.515625 
Q 19.53125 74.21875 31.78125 74.21875 
" id="BitstreamVeraSans-Roman-30"/>
      </defs>
      <g transform="translate(127.23642944335937 401.91812500000003)scale(0.12 -0.12)">
       <use xlink:href="#BitstreamVeraSans-Roman-32"/>
       <use x="63.623046875" xlink:href="#BitstreamVeraSans-Roman-30"/>
      </g>
     </g>
    </g>
    <g id="xtick_2">
     <g id="line2d_4">
      <g>
       <use style="stroke:#000000;stroke-width:0.5;" x="198.6428575515747" xlink:href="#m38ba7e8040" y="388.8"/>
      </g>
     </g>
     <g id="line2d_5">
      <g>
       <use style="stroke:#000000;stroke-width:0.5;" x="198.6428575515747" xlink:href="#mbb01d7505d" y="43.19999999999999"/>
      </g>
     </g>
     <g id="text_2">
      <!-- 40 -->
      <defs>
       <path d="M 37.796875 64.3125 
L 12.890625 25.390625 
L 37.796875 25.390625 
z
M 35.203125 72.90625 
L 47.609375 72.90625 
L 47.609375 25.390625 
L 58.015625 25.390625 
L 58.015625 17.1875 
L 47.609375 17.1875 
L 47.609375 0 
L 37.796875 0 
L 37.796875 17.1875 
L 4.890625 17.1875 
L 4.890625 26.703125 
z
" id="BitstreamVeraSans-Roman-34"/>
      </defs>
      <g transform="translate(191.00785755157472 401.91812500000003)scale(0.12 -0.12)">
       <use xlink:href="#BitstreamVeraSans-Roman-34"/>
       <use x="63.623046875" xlink:href="#BitstreamVeraSans-Roman-30"/>
      </g>
     </g>
    </g>
    <g id="xtick_3">
     <g id="line2d_6">
      <g>
       <use style="stroke:#000000;stroke-width:0.5;" x="262.41428661346436" xlink:href="#m38ba7e8040" y="388.8"/>
      </g>
     </g>
     <g id="line2d_7">
      <g>
       <use style="stroke:#000000;stroke-width:0.5;" x="262.41428661346436" xlink:href="#mbb01d7505d" y="43.19999999999999"/>
      </g>
     </g>
     <g id="text_3">
      <!-- 60 -->
      <defs>
       <path d="M 33.015625 40.375 
Q 26.375 40.375 22.484375 35.828125 
Q 18.609375 31.296875 18.609375 23.390625 
Q 18.609375 15.53125 22.484375 10.953125 
Q 26.375 6.390625 33.015625 6.390625 
Q 39.65625 6.390625 43.53125 10.953125 
Q 47.40625 15.53125 47.40625 23.390625 
Q 47.40625 31.296875 43.53125 35.828125 
Q 39.65625 40.375 33.015625 40.375 
M 52.59375 71.296875 
L 52.59375 62.3125 
Q 48.875 64.0625 45.09375 64.984375 
Q 41.3125 65.921875 37.59375 65.921875 
Q 27.828125 65.921875 22.671875 59.328125 
Q 17.53125 52.734375 16.796875 39.40625 
Q 19.671875 43.65625 24.015625 45.921875 
Q 28.375 48.1875 33.59375 48.1875 
Q 44.578125 48.1875 50.953125 41.515625 
Q 57.328125 34.859375 57.328125 23.390625 
Q 57.328125 12.15625 50.6875 5.359375 
Q 44.046875 -1.421875 33.015625 -1.421875 
Q 20.359375 -1.421875 13.671875 8.265625 
Q 6.984375 17.96875 6.984375 36.375 
Q 6.984375 53.65625 15.1875 63.9375 
Q 23.390625 74.21875 37.203125 74.21875 
Q 40.921875 74.21875 44.703125 73.484375 
Q 48.484375 72.75 52.59375 71.296875 
" id="BitstreamVeraSans-Roman-36"/>
      </defs>
      <g transform="translate(254.77928661346436 401.91812500000003)scale(0.12 -0.12)">
       <use xlink:href="#BitstreamVeraSans-Roman-36"/>
       <use x="63.623046875" xlink:href="#BitstreamVeraSans-Roman-30"/>
      </g>
     </g>
    </g>
    <g id="xtick_4">
     <g id="line2d_8">
      <g>
       <use style="stroke:#000000;stroke-width:0.5;" x="326.1857147216797" xlink:href="#m38ba7e8040" y="388.8"/>
      </g>
     </g>
     <g id="line2d_9">
      <g>
       <use style="stroke:#000000;stroke-width:0.5;" x="326.1857147216797" xlink:href="#mbb01d7505d" y="43.19999999999999"/>
      </g>
     </g>
     <g id="text_4">
      <!-- 80 -->
      <defs>
       <path d="M 31.78125 34.625 
Q 24.75 34.625 20.71875 30.859375 
Q 16.703125 27.09375 16.703125 20.515625 
Q 16.703125 13.921875 20.71875 10.15625 
Q 24.75 6.390625 31.78125 6.390625 
Q 38.8125 6.390625 42.859375 10.171875 
Q 46.921875 13.96875 46.921875 20.515625 
Q 46.921875 27.09375 42.890625 30.859375 
Q 38.875 34.625 31.78125 34.625 
M 21.921875 38.8125 
Q 15.578125 40.375 12.03125 44.71875 
Q 8.5 49.078125 8.5 55.328125 
Q 8.5 64.0625 14.71875 69.140625 
Q 20.953125 74.21875 31.78125 74.21875 
Q 42.671875 74.21875 48.875 69.140625 
Q 55.078125 64.0625 55.078125 55.328125 
Q 55.078125 49.078125 51.53125 44.71875 
Q 48 40.375 41.703125 38.8125 
Q 48.828125 37.15625 52.796875 32.3125 
Q 56.78125 27.484375 56.78125 20.515625 
Q 56.78125 9.90625 50.3125 4.234375 
Q 43.84375 -1.421875 31.78125 -1.421875 
Q 19.734375 -1.421875 13.25 4.234375 
Q 6.78125 9.90625 6.78125 20.515625 
Q 6.78125 27.484375 10.78125 32.3125 
Q 14.796875 37.15625 21.921875 38.8125 
M 18.3125 54.390625 
Q 18.3125 48.734375 21.84375 45.5625 
Q 25.390625 42.390625 31.78125 42.390625 
Q 38.140625 42.390625 41.71875 45.5625 
Q 45.3125 48.734375 45.3125 54.390625 
Q 45.3125 60.0625 41.71875 63.234375 
Q 38.140625 66.40625 31.78125 66.40625 
Q 25.390625 66.40625 21.84375 63.234375 
Q 18.3125 60.0625 18.3125 54.390625 
" id="BitstreamVeraSans-Roman-38"/>
      </defs>
      <g transform="translate(318.5507147216797 401.91812500000003)scale(0.12 -0.12)">
       <use xlink:href="#BitstreamVeraSans-Roman-38"/>
       <use x="63.623046875" xlink:href="#BitstreamVeraSans-Roman-30"/>
      </g>
     </g>
    </g>
    <g id="xtick_5">
     <g id="line2d_10">
      <g>
       <use style="stroke:#000000;stroke-width:0.5;" x="389.957142829895" xlink:href="#m38ba7e8040" y="388.8"/>
      </g>
     </g>
     <g id="line2d_11">
      <g>
       <use style="stroke:#000000;stroke-width:0.5;" x="389.957142829895" xlink:href="#mbb01d7505d" y="43.19999999999999"/>
      </g>
     </g>
     <g id="text_5">
      <!-- 100 -->
      <defs>
       <path d="M 12.40625 8.296875 
L 28.515625 8.296875 
L 28.515625 63.921875 
L 10.984375 60.40625 
L 10.984375 69.390625 
L 28.421875 72.90625 
L 38.28125 72.90625 
L 38.28125 8.296875 
L 54.390625 8.296875 
L 54.390625 0 
L 12.40625 0 
z
" id="BitstreamVeraSans-Roman-31"/>
      </defs>
      <g transform="translate(378.50464282989503 401.91812500000003)scale(0.12 -0.12)">
       <use xlink:href="#BitstreamVeraSans-Roman-31"/>
       <use x="63.623046875" xlink:href="#BitstreamVeraSans-Roman-30"/>
       <use x="127.24609375" xlink:href="#BitstreamVeraSans-Roman-30"/>
      </g>
     </g>
    </g>
    <g id="xtick_6">
     <g id="line2d_12">
      <g>
       <use style="stroke:#000000;stroke-width:0.5;" x="453.72857189178467" xlink:href="#m38ba7e8040" y="388.8"/>
      </g>
     </g>
     <g id="line2d_13">
      <g>
       <use style="stroke:#000000;stroke-width:0.5;" x="453.72857189178467" xlink:href="#mbb01d7505d" y="43.19999999999999"/>
      </g>
     </g>
     <g id="text_6">
      <!-- 120 -->
      <g transform="translate(442.2760718917847 401.91812500000003)scale(0.12 -0.12)">
       <use xlink:href="#BitstreamVeraSans-Roman-31"/>
       <use x="63.623046875" xlink:href="#BitstreamVeraSans-Roman-32"/>
       <use x="127.24609375" xlink:href="#BitstreamVeraSans-Roman-30"/>
      </g>
     </g>
    </g>
    <g id="xtick_7">
     <g id="line2d_14">
      <g>
       <use style="stroke:#000000;stroke-width:0.5;" x="517.5" xlink:href="#m38ba7e8040" y="388.8"/>
      </g>
     </g>
     <g id="line2d_15">
      <g>
       <use style="stroke:#000000;stroke-width:0.5;" x="517.5" xlink:href="#mbb01d7505d" y="43.19999999999999"/>
      </g>
     </g>
     <g id="text_7">
      <!-- 140 -->
      <g transform="translate(506.0475 401.91812500000003)scale(0.12 -0.12)">
       <use xlink:href="#BitstreamVeraSans-Roman-31"/>
       <use x="63.623046875" xlink:href="#BitstreamVeraSans-Roman-34"/>
       <use x="127.24609375" xlink:href="#BitstreamVeraSans-Roman-30"/>
      </g>
     </g>
    </g>
    <g id="text_8">
     <!-- Time -->
     <defs>
      <path d="M 56.203125 29.59375 
L 56.203125 25.203125 
L 14.890625 25.203125 
Q 15.484375 15.921875 20.484375 11.0625 
Q 25.484375 6.203125 34.421875 6.203125 
Q 39.59375 6.203125 44.453125 7.46875 
Q 49.3125 8.734375 54.109375 11.28125 
L 54.109375 2.78125 
Q 49.265625 0.734375 44.1875 -0.34375 
Q 39.109375 -1.421875 33.890625 -1.421875 
Q 20.796875 -1.421875 13.15625 6.1875 
Q 5.515625 13.8125 5.515625 26.8125 
Q 5.515625 40.234375 12.765625 48.109375 
Q 20.015625 56 32.328125 56 
Q 43.359375 56 49.78125 48.890625 
Q 56.203125 41.796875 56.203125 29.59375 
M 47.21875 32.234375 
Q 47.125 39.59375 43.09375 43.984375 
Q 39.0625 48.390625 32.421875 48.390625 
Q 24.90625 48.390625 20.390625 44.140625 
Q 15.875 39.890625 15.1875 32.171875 
z
" id="BitstreamVeraSans-Roman-65"/>
      <path d="M 9.421875 54.6875 
L 18.40625 54.6875 
L 18.40625 0 
L 9.421875 0 
z
M 9.421875 75.984375 
L 18.40625 75.984375 
L 18.40625 64.59375 
L 9.421875 64.59375 
z
" id="BitstreamVeraSans-Roman-69"/>
      <path d="M -0.296875 72.90625 
L 61.375 72.90625 
L 61.375 64.59375 
L 35.5 64.59375 
L 35.5 0 
L 25.59375 0 
L 25.59375 64.59375 
L -0.296875 64.59375 
z
" id="BitstreamVeraSans-Roman-54"/>
      <path d="M 52 44.1875 
Q 55.375 50.25 60.0625 53.125 
Q 64.75 56 71.09375 56 
Q 79.640625 56 84.28125 50.015625 
Q 88.921875 44.046875 88.921875 33.015625 
L 88.921875 0 
L 79.890625 0 
L 79.890625 32.71875 
Q 79.890625 40.578125 77.09375 44.375 
Q 74.3125 48.1875 68.609375 48.1875 
Q 61.625 48.1875 57.5625 43.546875 
Q 53.515625 38.921875 53.515625 30.90625 
L 53.515625 0 
L 44.484375 0 
L 44.484375 32.71875 
Q 44.484375 40.625 41.703125 44.40625 
Q 38.921875 48.1875 33.109375 48.1875 
Q 26.21875 48.1875 22.15625 43.53125 
Q 18.109375 38.875 18.109375 30.90625 
L 18.109375 0 
L 9.078125 0 
L 9.078125 54.6875 
L 18.109375 54.6875 
L 18.109375 46.1875 
Q 21.1875 51.21875 25.484375 53.609375 
Q 29.78125 56 35.6875 56 
Q 41.65625 56 45.828125 52.96875 
Q 50 49.953125 52 44.1875 
" id="BitstreamVeraSans-Roman-6d"/>
     </defs>
     <g transform="translate(280.335 418.531875)scale(0.12 -0.12)">
      <use xlink:href="#BitstreamVeraSans-Roman-54"/>
      <use x="61.037109375" xlink:href="#BitstreamVeraSans-Roman-69"/>
      <use x="88.8203125" xlink:href="#BitstreamVeraSans-Roman-6d"/>
      <use x="186.232421875" xlink:href="#BitstreamVeraSans-Roman-65"/>
     </g>
    </g>
    <g id="text_9">
     <!-- +1.5813508e9 -->
     <defs>
      <path d="M 40.578125 39.3125 
Q 47.65625 37.796875 51.625 33 
Q 55.609375 28.21875 55.609375 21.1875 
Q 55.609375 10.40625 48.1875 4.484375 
Q 40.765625 -1.421875 27.09375 -1.421875 
Q 22.515625 -1.421875 17.65625 -0.515625 
Q 12.796875 0.390625 7.625 2.203125 
L 7.625 11.71875 
Q 11.71875 9.328125 16.59375 8.109375 
Q 21.484375 6.890625 26.8125 6.890625 
Q 36.078125 6.890625 40.9375 10.546875 
Q 45.796875 14.203125 45.796875 21.1875 
Q 45.796875 27.640625 41.28125 31.265625 
Q 36.765625 34.90625 28.71875 34.90625 
L 20.21875 34.90625 
L 20.21875 43.015625 
L 29.109375 43.015625 
Q 36.375 43.015625 40.234375 45.921875 
Q 44.09375 48.828125 44.09375 54.296875 
Q 44.09375 59.90625 40.109375 62.90625 
Q 36.140625 65.921875 28.71875 65.921875 
Q 24.65625 65.921875 20.015625 65.03125 
Q 15.375 64.15625 9.8125 62.3125 
L 9.8125 71.09375 
Q 15.4375 72.65625 20.34375 73.4375 
Q 25.25 74.21875 29.59375 74.21875 
Q 40.828125 74.21875 47.359375 69.109375 
Q 53.90625 64.015625 53.90625 55.328125 
Q 53.90625 49.265625 50.4375 45.09375 
Q 46.96875 40.921875 40.578125 39.3125 
" id="BitstreamVeraSans-Roman-33"/>
      <path d="M 10.984375 1.515625 
L 10.984375 10.5 
Q 14.703125 8.734375 18.5 7.8125 
Q 22.3125 6.890625 25.984375 6.890625 
Q 35.75 6.890625 40.890625 13.453125 
Q 46.046875 20.015625 46.78125 33.40625 
Q 43.953125 29.203125 39.59375 26.953125 
Q 35.25 24.703125 29.984375 24.703125 
Q 19.046875 24.703125 12.671875 31.3125 
Q 6.296875 37.9375 6.296875 49.421875 
Q 6.296875 60.640625 12.9375 67.421875 
Q 19.578125 74.21875 30.609375 74.21875 
Q 43.265625 74.21875 49.921875 64.515625 
Q 56.59375 54.828125 56.59375 36.375 
Q 56.59375 19.140625 48.40625 8.859375 
Q 40.234375 -1.421875 26.421875 -1.421875 
Q 22.703125 -1.421875 18.890625 -0.6875 
Q 15.09375 0.046875 10.984375 1.515625 
M 30.609375 32.421875 
Q 37.25 32.421875 41.125 36.953125 
Q 45.015625 41.5 45.015625 49.421875 
Q 45.015625 57.28125 41.125 61.84375 
Q 37.25 66.40625 30.609375 66.40625 
Q 23.96875 66.40625 20.09375 61.84375 
Q 16.21875 57.28125 16.21875 49.421875 
Q 16.21875 41.5 20.09375 36.953125 
Q 23.96875 32.421875 30.609375 32.421875 
" id="BitstreamVeraSans-Roman-39"/>
      <path d="M 46 62.703125 
L 46 35.5 
L 73.1875 35.5 
L 73.1875 27.203125 
L 46 27.203125 
L 46 0 
L 37.796875 0 
L 37.796875 27.203125 
L 10.59375 27.203125 
L 10.59375 35.5 
L 37.796875 35.5 
L 37.796875 62.703125 
z
" id="BitstreamVeraSans-Roman-2b"/>
      <path d="M 10.6875 12.40625 
L 21 12.40625 
L 21 0 
L 10.6875 0 
z
" id="BitstreamVeraSans-Roman-2e"/>
      <path d="M 10.796875 72.90625 
L 49.515625 72.90625 
L 49.515625 64.59375 
L 19.828125 64.59375 
L 19.828125 46.734375 
Q 21.96875 47.46875 24.109375 47.828125 
Q 26.265625 48.1875 28.421875 48.1875 
Q 40.625 48.1875 47.75 41.5 
Q 54.890625 34.8125 54.890625 23.390625 
Q 54.890625 11.625 47.5625 5.09375 
Q 40.234375 -1.421875 26.90625 -1.421875 
Q 22.3125 -1.421875 17.546875 -0.640625 
Q 12.796875 0.140625 7.71875 1.703125 
L 7.71875 11.625 
Q 12.109375 9.234375 16.796875 8.0625 
Q 21.484375 6.890625 26.703125 6.890625 
Q 35.15625 6.890625 40.078125 11.328125 
Q 45.015625 15.765625 45.015625 23.390625 
Q 45.015625 31 40.078125 35.4375 
Q 35.15625 39.890625 26.703125 39.890625 
Q 22.75 39.890625 18.8125 39.015625 
Q 14.890625 38.140625 10.796875 36.28125 
z
" id="BitstreamVeraSans-Roman-35"/>
     </defs>
     <g transform="translate(428.431875 416.531875)scale(0.12 -0.12)">
      <use xlink:href="#BitstreamVeraSans-Roman-2b"/>
      <use x="83.7890625" xlink:href="#BitstreamVeraSans-Roman-31"/>
      <use x="147.412109375" xlink:href="#BitstreamVeraSans-Roman-2e"/>
      <use x="179.19921875" xlink:href="#BitstreamVeraSans-Roman-35"/>
      <use x="242.822265625" xlink:href="#BitstreamVeraSans-Roman-38"/>
      <use x="306.4453125" xlink:href="#BitstreamVeraSans-Roman-31"/>
      <use x="370.068359375" xlink:href="#BitstreamVeraSans-Roman-33"/>
      <use x="433.69140625" xlink:href="#BitstreamVeraSans-Roman-35"/>
      <use x="497.314453125" xlink:href="#BitstreamVeraSans-Roman-30"/>
      <use x="560.9375" xlink:href="#BitstreamVeraSans-Roman-38"/>
      <use x="624.560546875" xlink:href="#BitstreamVeraSans-Roman-65"/>
      <use x="686.083984375" xlink:href="#BitstreamVeraSans-Roman-39"/>
     </g>
    </g>
   </g>
   <g id="matplotlib.axis_2">
    <g id="ytick_1">
     <g id="line2d_16">
      <defs>
       <path d="M 0 0 
L 4 0 
" id="m87b320342a" style="stroke:#000000;stroke-width:0.5;"/>
      </defs>
      <g>
       <use style="stroke:#000000;stroke-width:0.5;" x="72.0" xlink:href="#m87b320342a" y="353.88"/>
      </g>
     </g>
     <g id="line2d_17">
      <defs>
       <path d="M 0 0 
L -4 0 
" id="mc2425b425e" style="stroke:#000000;stroke-width:0.5;"/>
      </defs>
      <g>
       <use style="stroke:#000000;stroke-width:0.5;" x="518.4" xlink:href="#mc2425b425e" y="353.88"/>
      </g>
     </g>
     <g id="text_10">
      <!-- 0.10 -->
      <defs>
       <path d="M 10.59375 35.5 
L 73.1875 35.5 
L 73.1875 27.203125 
L 10.59375 27.203125 
z
" id="BitstreamVeraSans-Roman-2212"/>
      </defs>
      <g transform="translate(31.225625 357.19124999999997)scale(0.12 -0.12)">
       <use xlink:href="#BitstreamVeraSans-Roman-2212"/>
       <use x="83.7890625" xlink:href="#BitstreamVeraSans-Roman-30"/>
       <use x="147.412109375" xlink:href="#BitstreamVeraSans-Roman-2e"/>
       <use x="179.19921875" xlink:href="#BitstreamVeraSans-Roman-31"/>
       <use x="242.822265625" xlink:href="#BitstreamVeraSans-Roman-30"/>
      </g>
     </g>
    </g>
    <g id="ytick_2">
     <g id="line2d_18">
      <g>
       <use style="stroke:#000000;stroke-width:0.5;" x="72.0" xlink:href="#m87b320342a" y="284.76"/>
      </g>
     </g>
     <g id="line2d_19">
      <g>
       <use style="stroke:#000000;stroke-width:0.5;" x="518.4" xlink:href="#mc2425b425e" y="284.76"/>
      </g>
     </g>
     <g id="text_11">
      <!-- 0.05 -->
      <g transform="translate(31.225625 288.07124999999996)scale(0.12 -0.12)">
       <use xlink:href="#BitstreamVeraSans-Roman-2212"/>
       <use x="83.7890625" xlink:href="#BitstreamVeraSans-Roman-30"/>
       <use x="147.412109375" xlink:href="#BitstreamVeraSans-Roman-2e"/>
       <use x="179.19921875" xlink:href="#BitstreamVeraSans-Roman-30"/>
       <use x="242.822265625" xlink:href="#BitstreamVeraSans-Roman-35"/>
      </g>
     </g>
    </g>
    <g id="ytick_3">
     <g id="line2d_20">
      <g>
       <use style="stroke:#000000;stroke-width:0.5;" x="72.0" xlink:href="#m87b320342a" y="215.63999999999993"/>
      </g>
     </g>
     <g id="line2d_21">
      <g>
       <use style="stroke:#000000;stroke-width:0.5;" x="518.4" xlink:href="#mc2425b425e" y="215.63999999999993"/>
      </g>
     </g>
     <g id="text_12">
      <!-- 0.00 -->
      <g transform="translate(41.28125 218.95124999999993)scale(0.12 -0.12)">
       <use xlink:href="#BitstreamVeraSans-Roman-30"/>
       <use x="63.623046875" xlink:href="#BitstreamVeraSans-Roman-2e"/>
       <use x="95.41015625" xlink:href="#BitstreamVeraSans-Roman-30"/>
       <use x="159.033203125" xlink:href="#BitstreamVeraSans-Roman-30"/>
      </g>
     </g>
    </g>
    <g id="ytick_4">
     <g id="line2d_22">
      <g>
       <use style="stroke:#000000;stroke-width:0.5;" x="72.0" xlink:href="#m87b320342a" y="146.51999999999992"/>
      </g>
     </g>
     <g id="line2d_23">
      <g>
       <use style="stroke:#000000;stroke-width:0.5;" x="518.4" xlink:href="#mc2425b425e" y="146.51999999999992"/>
      </g>
     </g>
     <g id="text_13">
      <!-- 0.05 -->
      <g transform="translate(41.28125 149.8312499999999)scale(0.12 -0.12)">
       <use xlink:href="#BitstreamVeraSans-Roman-30"/>
       <use x="63.623046875" xlink:href="#BitstreamVeraSans-Roman-2e"/>
       <use x="95.41015625" xlink:href="#BitstreamVeraSans-Roman-30"/>
       <use x="159.033203125" xlink:href="#BitstreamVeraSans-Roman-35"/>
      </g>
     </g>
    </g>
    <g id="ytick_5">
     <g id="line2d_24">
      <g>
       <use style="stroke:#000000;stroke-width:0.5;" x="72.0" xlink:href="#m87b320342a" y="77.39999999999995"/>
      </g>
     </g>
     <g id="line2d_25">
      <g>
       <use style="stroke:#000000;stroke-width:0.5;" x="518.4" xlink:href="#mc2425b425e" y="77.39999999999995"/>
      </g>
     </g>
     <g id="text_14">
      <!-- 0.10 -->
      <g transform="translate(41.28125 80.71124999999995)scale(0.12 -0.12)">
       <use xlink:href="#BitstreamVeraSans-Roman-30"/>
       <use x="63.623046875" xlink:href="#BitstreamVeraSans-Roman-2e"/>
       <use x="95.41015625" xlink:href="#BitstreamVeraSans-Roman-31"/>
       <use x="159.033203125" xlink:href="#BitstreamVeraSans-Roman-30"/>
      </g>
     </g>
    </g>
    <g id="text_15">
     <!-- Angle (radian) -->
     <defs>
      <path id="BitstreamVeraSans-Roman-20"/>
      <path d="M 54.890625 33.015625 
L 54.890625 0 
L 45.90625 0 
L 45.90625 32.71875 
Q 45.90625 40.484375 42.875 44.328125 
Q 39.84375 48.1875 33.796875 48.1875 
Q 26.515625 48.1875 22.3125 43.546875 
Q 18.109375 38.921875 18.109375 30.90625 
L 18.109375 0 
L 9.078125 0 
L 9.078125 54.6875 
L 18.109375 54.6875 
L 18.109375 46.1875 
Q 21.34375 51.125 25.703125 53.5625 
Q 30.078125 56 35.796875 56 
Q 45.21875 56 50.046875 50.171875 
Q 54.890625 44.34375 54.890625 33.015625 
" id="BitstreamVeraSans-Roman-6e"/>
      <path d="M 31 75.875 
Q 24.46875 64.65625 21.28125 53.65625 
Q 18.109375 42.671875 18.109375 31.390625 
Q 18.109375 20.125 21.3125 9.0625 
Q 24.515625 -2 31 -13.1875 
L 23.1875 -13.1875 
Q 15.875 -1.703125 12.234375 9.375 
Q 8.59375 20.453125 8.59375 31.390625 
Q 8.59375 42.28125 12.203125 53.3125 
Q 15.828125 64.359375 23.1875 75.875 
z
" id="BitstreamVeraSans-Roman-28"/>
      <path d="M 9.421875 75.984375 
L 18.40625 75.984375 
L 18.40625 0 
L 9.421875 0 
z
" id="BitstreamVeraSans-Roman-6c"/>
      <path d="M 34.28125 27.484375 
Q 23.390625 27.484375 19.1875 25 
Q 14.984375 22.515625 14.984375 16.5 
Q 14.984375 11.71875 18.140625 8.90625 
Q 21.296875 6.109375 26.703125 6.109375 
Q 34.1875 6.109375 38.703125 11.40625 
Q 43.21875 16.703125 43.21875 25.484375 
L 43.21875 27.484375 
z
M 52.203125 31.203125 
L 52.203125 0 
L 43.21875 0 
L 43.21875 8.296875 
Q 40.140625 3.328125 35.546875 0.953125 
Q 30.953125 -1.421875 24.3125 -1.421875 
Q 15.921875 -1.421875 10.953125 3.296875 
Q 6 8.015625 6 15.921875 
Q 6 25.140625 12.171875 29.828125 
Q 18.359375 34.515625 30.609375 34.515625 
L 43.21875 34.515625 
L 43.21875 35.40625 
Q 43.21875 41.609375 39.140625 45 
Q 35.0625 48.390625 27.6875 48.390625 
Q 23 48.390625 18.546875 47.265625 
Q 14.109375 46.140625 10.015625 43.890625 
L 10.015625 52.203125 
Q 14.9375 54.109375 19.578125 55.046875 
Q 24.21875 56 28.609375 56 
Q 40.484375 56 46.34375 49.84375 
Q 52.203125 43.703125 52.203125 31.203125 
" id="BitstreamVeraSans-Roman-61"/>
      <path d="M 34.1875 63.1875 
L 20.796875 26.90625 
L 47.609375 26.90625 
z
M 28.609375 72.90625 
L 39.796875 72.90625 
L 67.578125 0 
L 57.328125 0 
L 50.6875 18.703125 
L 17.828125 18.703125 
L 11.1875 0 
L 0.78125 0 
z
" id="BitstreamVeraSans-Roman-41"/>
      <path d="M 45.40625 46.390625 
L 45.40625 75.984375 
L 54.390625 75.984375 
L 54.390625 0 
L 45.40625 0 
L 45.40625 8.203125 
Q 42.578125 3.328125 38.25 0.953125 
Q 33.9375 -1.421875 27.875 -1.421875 
Q 17.96875 -1.421875 11.734375 6.484375 
Q 5.515625 14.40625 5.515625 27.296875 
Q 5.515625 40.1875 11.734375 48.09375 
Q 17.96875 56 27.875 56 
Q 33.9375 56 38.25 53.625 
Q 42.578125 51.265625 45.40625 46.390625 
M 14.796875 27.296875 
Q 14.796875 17.390625 18.875 11.75 
Q 22.953125 6.109375 30.078125 6.109375 
Q 37.203125 6.109375 41.296875 11.75 
Q 45.40625 17.390625 45.40625 27.296875 
Q 45.40625 37.203125 41.296875 42.84375 
Q 37.203125 48.484375 30.078125 48.484375 
Q 22.953125 48.484375 18.875 42.84375 
Q 14.796875 37.203125 14.796875 27.296875 
" id="BitstreamVeraSans-Roman-64"/>
      <path d="M 45.40625 27.984375 
Q 45.40625 37.75 41.375 43.109375 
Q 37.359375 48.484375 30.078125 48.484375 
Q 22.859375 48.484375 18.828125 43.109375 
Q 14.796875 37.75 14.796875 27.984375 
Q 14.796875 18.265625 18.828125 12.890625 
Q 22.859375 7.515625 30.078125 7.515625 
Q 37.359375 7.515625 41.375 12.890625 
Q 45.40625 18.265625 45.40625 27.984375 
M 54.390625 6.78125 
Q 54.390625 -7.171875 48.1875 -13.984375 
Q 42 -20.796875 29.203125 -20.796875 
Q 24.46875 -20.796875 20.265625 -20.09375 
Q 16.0625 -19.390625 12.109375 -17.921875 
L 12.109375 -9.1875 
Q 16.0625 -11.328125 19.921875 -12.34375 
Q 23.78125 -13.375 27.78125 -13.375 
Q 36.625 -13.375 41.015625 -8.765625 
Q 45.40625 -4.15625 45.40625 5.171875 
L 45.40625 9.625 
Q 42.625 4.78125 38.28125 2.390625 
Q 33.9375 0 27.875 0 
Q 17.828125 0 11.671875 7.65625 
Q 5.515625 15.328125 5.515625 27.984375 
Q 5.515625 40.671875 11.671875 48.328125 
Q 17.828125 56 27.875 56 
Q 33.9375 56 38.28125 53.609375 
Q 42.625 51.21875 45.40625 46.390625 
L 45.40625 54.6875 
L 54.390625 54.6875 
z
" id="BitstreamVeraSans-Roman-67"/>
      <path d="M 41.109375 46.296875 
Q 39.59375 47.171875 37.8125 47.578125 
Q 36.03125 48 33.890625 48 
Q 26.265625 48 22.1875 43.046875 
Q 18.109375 38.09375 18.109375 28.8125 
L 18.109375 0 
L 9.078125 0 
L 9.078125 54.6875 
L 18.109375 54.6875 
L 18.109375 46.1875 
Q 20.953125 51.171875 25.484375 53.578125 
Q 30.03125 56 36.53125 56 
Q 37.453125 56 38.578125 55.875 
Q 39.703125 55.765625 41.0625 55.515625 
z
" id="BitstreamVeraSans-Roman-72"/>
      <path d="M 8.015625 75.875 
L 15.828125 75.875 
Q 23.140625 64.359375 26.78125 53.3125 
Q 30.421875 42.28125 30.421875 31.390625 
Q 30.421875 20.453125 26.78125 9.375 
Q 23.140625 -1.703125 15.828125 -13.1875 
L 8.015625 -13.1875 
Q 14.5 -2 17.703125 9.0625 
Q 20.90625 20.125 20.90625 31.390625 
Q 20.90625 42.671875 17.703125 53.65625 
Q 14.5 64.65625 8.015625 75.875 
" id="BitstreamVeraSans-Roman-29"/>
     </defs>
     <g transform="translate(23.729999999999997 258.7621875)rotate(-90.0)scale(0.12 -0.12)">
      <use xlink:href="#BitstreamVeraSans-Roman-41"/>
      <use x="68.408203125" xlink:href="#BitstreamVeraSans-Roman-6e"/>
      <use x="131.787109375" xlink:href="#BitstreamVeraSans-Roman-67"/>
      <use x="195.263671875" xlink:href="#BitstreamVeraSans-Roman-6c"/>
      <use x="223.046875" xlink:href="#BitstreamVeraSans-Roman-65"/>
      <use x="284.5703125" xlink:href="#BitstreamVeraSans-Roman-20"/>
      <use x="316.357421875" xlink:href="#BitstreamVeraSans-Roman-28"/>
      <use x="355.37109375" xlink:href="#BitstreamVeraSans-Roman-72"/>
      <use x="396.484375" xlink:href="#BitstreamVeraSans-Roman-61"/>
      <use x="457.763671875" xlink:href="#BitstreamVeraSans-Roman-64"/>
      <use x="521.240234375" xlink:href="#BitstreamVeraSans-Roman-69"/>
      <use x="549.0234375" xlink:href="#BitstreamVeraSans-Roman-61"/>
      <use x="610.302734375" xlink:href="#BitstreamVeraSans-Roman-6e"/>
      <use x="673.681640625" xlink:href="#BitstreamVeraSans-Roman-29"/>
     </g>
    </g>
   </g>
   <g id="text_16">
    <!-- Roll Angle v/s Time -->
    <defs>
     <path d="M 2.984375 54.6875 
L 12.5 54.6875 
L 29.59375 8.796875 
L 46.6875 54.6875 
L 56.203125 54.6875 
L 35.6875 0 
L 23.484375 0 
z
" id="BitstreamVeraSans-Roman-76"/>
     <path d="M 44.390625 34.1875 
Q 47.5625 33.109375 50.5625 29.59375 
Q 53.5625 26.078125 56.59375 19.921875 
L 66.609375 0 
L 56 0 
L 46.6875 18.703125 
Q 43.0625 26.03125 39.671875 28.421875 
Q 36.28125 30.8125 30.421875 30.8125 
L 19.671875 30.8125 
L 19.671875 0 
L 9.8125 0 
L 9.8125 72.90625 
L 32.078125 72.90625 
Q 44.578125 72.90625 50.734375 67.671875 
Q 56.890625 62.453125 56.890625 51.90625 
Q 56.890625 45.015625 53.6875 40.46875 
Q 50.484375 35.9375 44.390625 34.1875 
M 19.671875 64.796875 
L 19.671875 38.921875 
L 32.078125 38.921875 
Q 39.203125 38.921875 42.84375 42.21875 
Q 46.484375 45.515625 46.484375 51.90625 
Q 46.484375 58.296875 42.84375 61.546875 
Q 39.203125 64.796875 32.078125 64.796875 
z
" id="BitstreamVeraSans-Roman-52"/>
     <path d="M 30.609375 48.390625 
Q 23.390625 48.390625 19.1875 42.75 
Q 14.984375 37.109375 14.984375 27.296875 
Q 14.984375 17.484375 19.15625 11.84375 
Q 23.34375 6.203125 30.609375 6.203125 
Q 37.796875 6.203125 41.984375 11.859375 
Q 46.1875 17.53125 46.1875 27.296875 
Q 46.1875 37.015625 41.984375 42.703125 
Q 37.796875 48.390625 30.609375 48.390625 
M 30.609375 56 
Q 42.328125 56 49.015625 48.375 
Q 55.71875 40.765625 55.71875 27.296875 
Q 55.71875 13.875 49.015625 6.21875 
Q 42.328125 -1.421875 30.609375 -1.421875 
Q 18.84375 -1.421875 12.171875 6.21875 
Q 5.515625 13.875 5.515625 27.296875 
Q 5.515625 40.765625 12.171875 48.375 
Q 18.84375 56 30.609375 56 
" id="BitstreamVeraSans-Roman-6f"/>
     <path d="M 44.28125 53.078125 
L 44.28125 44.578125 
Q 40.484375 46.53125 36.375 47.5 
Q 32.28125 48.484375 27.875 48.484375 
Q 21.1875 48.484375 17.84375 46.4375 
Q 14.5 44.390625 14.5 40.28125 
Q 14.5 37.15625 16.890625 35.375 
Q 19.28125 33.59375 26.515625 31.984375 
L 29.59375 31.296875 
Q 39.15625 29.25 43.1875 25.515625 
Q 47.21875 21.78125 47.21875 15.09375 
Q 47.21875 7.46875 41.1875 3.015625 
Q 35.15625 -1.421875 24.609375 -1.421875 
Q 20.21875 -1.421875 15.453125 -0.5625 
Q 10.6875 0.296875 5.421875 2 
L 5.421875 11.28125 
Q 10.40625 8.6875 15.234375 7.390625 
Q 20.0625 6.109375 24.8125 6.109375 
Q 31.15625 6.109375 34.5625 8.28125 
Q 37.984375 10.453125 37.984375 14.40625 
Q 37.984375 18.0625 35.515625 20.015625 
Q 33.0625 21.96875 24.703125 23.78125 
L 21.578125 24.515625 
Q 13.234375 26.265625 9.515625 29.90625 
Q 5.8125 33.546875 5.8125 39.890625 
Q 5.8125 47.609375 11.28125 51.796875 
Q 16.75 56 26.8125 56 
Q 31.78125 56 36.171875 55.265625 
Q 40.578125 54.546875 44.28125 53.078125 
" id="BitstreamVeraSans-Roman-73"/>
     <path d="M 25.390625 72.90625 
L 33.6875 72.90625 
L 8.296875 -9.28125 
L 0 -9.28125 
z
" id="BitstreamVeraSans-Roman-2f"/>
    </defs>
    <g transform="translate(226.1655 38.19999999999999)scale(0.144 -0.144)">
     <use xlink:href="#BitstreamVeraSans-Roman-52"/>
     <use x="69.419921875" xlink:href="#BitstreamVeraSans-Roman-6f"/>
     <use x="130.6015625" xlink:href="#BitstreamVeraSans-Roman-6c"/>
     <use x="158.384765625" xlink:href="#BitstreamVeraSans-Roman-6c"/>
     <use x="186.16796875" xlink:href="#BitstreamVeraSans-Roman-20"/>
     <use x="217.955078125" xlink:href="#BitstreamVeraSans-Roman-41"/>
     <use x="286.36328125" xlink:href="#BitstreamVeraSans-Roman-6e"/>
     <use x="349.7421875" xlink:href="#BitstreamVeraSans-Roman-67"/>
     <use x="413.21875" xlink:href="#BitstreamVeraSans-Roman-6c"/>
     <use x="441.001953125" xlink:href="#BitstreamVeraSans-Roman-65"/>
     <use x="502.525390625" xlink:href="#BitstreamVeraSans-Roman-20"/>
     <use x="534.3125" xlink:href="#BitstreamVeraSans-Roman-76"/>
     <use x="593.4921875" xlink:href="#BitstreamVeraSans-Roman-2f"/>
     <use x="627.18359375" xlink:href="#BitstreamVeraSans-Roman-73"/>
     <use x="679.283203125" xlink:href="#BitstreamVeraSans-Roman-20"/>
     <use x="711.0703125" xlink:href="#BitstreamVeraSans-Roman-54"/>
     <use x="772.107421875" xlink:href="#BitstreamVeraSans-Roman-69"/>
     <use x="799.890625" xlink:href="#BitstreamVeraSans-Roman-6d"/>
     <use x="897.302734375" xlink:href="#BitstreamVeraSans-Roman-65"/>
    </g>
   </g>
   <g id="legend_1">
    <g id="patch_7">
     <path d="M 79.2 75.8565 
L 157.84875 75.8565 
L 157.84875 50.4 
L 79.2 50.4 
z
" style="fill:#ffffff;stroke:#000000;stroke-linejoin:miter;"/>
    </g>
    <g id="line2d_26">
     <path d="M 89.28 62.06175 
L 109.44 62.06175 
" style="fill:none;stroke:#ffa500;stroke-linecap:square;"/>
    </g>
    <g id="line2d_27"/>
    <g id="text_17">
     <!-- Roll -->
     <g transform="translate(125.28 67.10174999999998)scale(0.144 -0.144)">
      <use xlink:href="#BitstreamVeraSans-Roman-52"/>
      <use x="69.419921875" xlink:href="#BitstreamVeraSans-Roman-6f"/>
      <use x="130.6015625" xlink:href="#BitstreamVeraSans-Roman-6c"/>
      <use x="158.384765625" xlink:href="#BitstreamVeraSans-Roman-6c"/>
     </g>
    </g>
   </g>
  </g>
 </g>
 <defs>
  <clipPath id="pd3e2831569">
   <rect height="345.6" width="446.4" x="72.0" y="43.19999999999999"/>
  </clipPath>
 </defs>
</svg>
