<?xml version="1.0" encoding="utf-8" standalone="no"?>
<!DOCTYPE svg PUBLIC "-//W3C//DTD SVG 1.1//EN"
  "http://www.w3.org/Graphics/SVG/1.1/DTD/svg11.dtd">
<!-- Created with matplotlib (http://matplotlib.org/) -->
<svg height="432pt" version="1.1" viewBox="0 0 576 432" width="576pt" xmlns="http://www.w3.org/2000/svg" xmlns:xlink="http://www.w3.org/1999/xlink">
 <defs>
  <style type="text/css">
*{stroke-linecap:butt;stroke-linejoin:round;stroke-miterlimit:100000;}
  </style>
 </defs>
 <g id="figure_1">
  <g id="patch_1">
   <path d="M 0 432 
L 576 432 
L 576 0 
L 0 0 
z
" style="fill:#ffffff;"/>
  </g>
  <g id="axes_1">
   <g id="patch_2">
    <path d="M 72 388.8 
L 518.4 388.8 
L 518.4 43.2 
L 72 43.2 
z
" style="fill:#ffffff;"/>
   </g>
   <g id="line2d_1">
    <path clip-path="url(#p31d203fb98)" d="M 138.651427 211.5 
L 141.839999 211.5 
L 141.839999 211.5 
L 141.839999 211.5 
L 145.02857 211.5 
L 145.02857 211.5 
L 145.02857 211.5 
L 148.217142 211.5 
L 148.217142 211.5 
L 148.217142 211.5 
L 151.405713 211.5 
L 151.405713 211.5 
L 151.405713 211.5 
L 154.594285 211.5 
L 154.594285 211.5 
L 154.594285 211.5 
L 157.782856 211.5 
L 157.782856 211.5 
L 157.782856 211.5 
L 160.971428 211.5 
L 160.971428 211.5 
L 160.971428 211.5 
L 164.159999 211.5 
L 164.159999 211.5 
L 164.159999 211.5 
L 167.34857 211.5 
L 167.34857 211.5 
L 167.34857 211.5 
L 170.537142 211.5 
L 170.537142 211.5 
L 170.537142 211.5 
L 173.725713 211.5 
L 173.725713 211.5 
L 173.725713 211.5 
L 176.914285 211.5 
L 176.914285 211.5 
L 176.914285 211.5 
L 180.102856 211.5 
L 180.102856 211.5 
L 180.102856 211.5 
L 183.291428 211.5 
L 183.291428 211.5 
L 183.291428 211.5 
L 186.479999 211.5 
L 186.479999 211.5 
L 186.479999 211.5 
L 189.668571 211.5 
L 189.668571 211.5 
L 189.668571 211.5 
L 192.857141 211.5 
L 192.857141 211.5 
L 192.857141 211.5 
L 196.045713 211.5 
L 196.045713 211.5 
L 196.045713 211.5 
L 199.234284 211.5 
L 199.234284 211.5 
L 199.234284 211.5 
L 199.234284 126.512613 
L 199.234284 126.512613 
L 199.234284 126.512613 
L 199.234284 147.961261 
L 202.422856 148.191892 
L 202.422856 171.024324 
L 205.611427 171.254955 
L 205.611427 194.087387 
L 208.799999 194.318018 
L 208.799999 217.15045 
L 211.98857 217.381081 
L 211.98857 240.213514 
L 215.177142 240.444144 
L 215.177142 263.276577 
L 218.365713 263.507207 
L 218.365713 286.33964 
L 221.554285 286.57027 
L 221.554285 309.402703 
L 224.742856 309.633333 
L 224.742856 326.7 
L 224.742856 321.164865 
L 227.931427 320.934234 
L 227.931427 298.101802 
L 231.119999 297.871171 
L 231.119999 275.038739 
L 234.30857 274.808108 
L 234.30857 251.975676 
L 237.497142 251.745045 
L 237.497142 228.912613 
L 240.685713 228.681982 
L 240.685713 205.84955 
L 243.874285 205.618919 
L 243.874285 182.786486 
L 247.062856 182.555856 
L 247.062856 159.723423 
L 250.251428 159.492793 
L 250.251428 136.66036 
L 253.439999 136.42973 
L 253.439999 113.597297 
L 256.628571 113.366667 
L 256.628571 96.3 
L 256.628571 101.835135 
L 259.817142 102.065766 
L 259.817142 124.898198 
L 263.005713 125.128829 
L 263.005713 147.961261 
L 266.194284 148.191892 
L 266.194284 171.024324 
L 269.382856 171.254955 
L 269.382856 194.087387 
L 272.571427 194.318018 
L 272.571427 217.15045 
L 275.759999 217.381081 
L 275.759999 240.213514 
L 278.94857 240.444144 
L 278.94857 263.276577 
L 282.137142 263.507207 
L 282.137142 286.33964 
L 285.325713 286.57027 
L 285.325713 309.402703 
L 288.514285 309.633333 
L 288.514285 326.7 
L 288.514285 321.164865 
L 291.702856 320.934234 
L 291.702856 298.101802 
L 294.891427 297.871171 
L 294.891427 275.038739 
L 298.079999 274.808108 
L 298.079999 251.975676 
L 301.26857 251.745045 
L 301.26857 228.912613 
L 304.457142 228.681982 
L 304.457142 205.84955 
L 307.645713 205.618919 
L 307.645713 182.786486 
L 310.834285 182.555856 
L 310.834285 159.723423 
L 314.022856 159.492793 
L 314.022856 136.66036 
L 317.211428 136.42973 
L 317.211428 113.597297 
L 320.399999 113.366667 
L 320.399999 96.3 
L 320.399999 101.835135 
L 323.588571 102.065766 
L 323.588571 124.898198 
L 326.777142 125.128829 
L 326.777142 308.260851 
L 326.777142 299.189827 
L 329.965714 298.954569 
L 329.965714 271.795999 
L 333.154284 271.487168 
L 333.154284 238.49412 
L 336.342856 238.141976 
L 336.342856 202.547247 
L 339.531427 202.186294 
L 339.531427 167.477601 
L 342.719999 167.143207 
L 342.719999 136.721451 
L 345.90857 136.446382 
L 345.90857 113.292411 
L 349.097142 113.103619 
L 349.097142 99.486156 
L 352.285713 99.31923 
L 352.285713 96.3 
L 352.285713 96.627622 
L 355.474284 96.745854 
L 355.474284 104.939634 
L 358.662856 105.07774 
L 358.662856 123.692869 
L 361.851427 123.927694 
L 361.851427 151.049809 
L 365.039999 151.358343 
L 365.039999 184.329908 
L 368.22857 184.681919 
L 368.22857 220.272244 
L 371.417142 220.633241 
L 371.417142 255.355039 
L 374.605713 255.689651 
L 374.605713 286.140738 
L 377.794285 286.416176 
L 377.794285 309.612829 
L 380.982856 309.802106 
L 380.982856 323.471421 
L 384.171428 323.639454 
L 384.171428 326.699858 
L 384.171428 326.358592 
L 387.359999 326.238092 
L 387.359999 317.991444 
L 390.548571 317.852812 
L 390.548571 299.189827 
L 393.737142 298.954569 
L 393.737142 271.795999 
L 396.925714 271.487168 
L 396.925714 238.49412 
L 400.114285 238.141976 
L 400.114285 202.547247 
L 403.302856 202.186294 
L 403.302856 167.477601 
L 406.491427 167.143207 
L 406.491427 136.721451 
L 409.679999 136.446382 
L 409.679999 113.292411 
L 412.86857 113.103619 
L 412.86857 99.486156 
L 416.057141 99.31923 
L 416.057141 96.3 
L 416.057141 96.627622 
L 419.245713 96.745854 
L 419.245713 104.939634 
L 422.434284 105.07774 
L 422.434284 123.692869 
L 425.622856 123.927694 
L 425.622856 151.049809 
L 428.811427 151.358343 
L 428.811427 184.329908 
L 431.999999 184.681919 
L 431.999999 220.272244 
L 435.18857 220.633241 
L 435.18857 255.355039 
L 438.377142 255.689651 
L 438.377142 286.140738 
L 441.565713 286.416176 
L 441.565713 309.612829 
L 444.754285 309.802106 
L 444.754285 323.471421 
L 447.942856 323.639454 
L 447.942856 326.699858 
L 447.942856 326.358592 
L 451.131428 326.238092 
L 451.131428 317.991444 
L 454.319999 317.852812 
L 454.319999 299.189827 
L 457.508571 298.954569 
L 457.508571 271.795999 
L 460.697142 271.487168 
L 460.697142 238.49412 
L 463.885714 238.141976 
L 463.885714 202.547247 
L 467.074285 202.186294 
L 467.074285 167.477601 
L 470.262856 167.143207 
L 470.262856 136.721451 
L 473.451427 136.446382 
L 473.451427 113.292411 
L 476.639998 113.103619 
L 476.639998 99.486156 
L 479.82857 99.31923 
L 479.82857 96.3 
L 479.82857 96.627622 
L 483.017141 96.745854 
L 483.017141 97.302362 
L 483.017141 97.302362 
" style="fill:none;stroke:#0000ff;stroke-linecap:square;"/>
   </g>
   <g id="line2d_2">
    <path clip-path="url(#p31d203fb98)" d="M 138.651427 210.855908 
L 138.651427 210.855371 
L 138.651427 210.855371 
L 138.651427 210.855371 
L 138.651427 210.856796 
L 138.651427 210.856558 
L 138.651427 210.856558 
L 138.651427 210.85178 
L 138.651427 210.855133 
L 138.651427 210.855133 
L 138.651427 210.856643 
L 138.651427 210.856643 
L 138.651427 210.856643 
L 138.651427 210.851182 
L 138.651427 210.852672 
L 192.857141 210.97029 
L 192.857141 211.52617 
L 196.045713 211.646066 
L 196.045713 223.231549 
L 199.234284 223.345633 
L 199.234284 247.710128 
L 202.422856 247.829847 
L 202.422856 251.233377 
L 205.611427 251.347864 
L 205.611427 252.867117 
L 205.611427 252.605288 
L 208.799999 252.502036 
L 208.799999 244.611053 
L 211.98857 244.453875 
L 211.98857 227.684481 
L 215.177142 227.584215 
L 215.177142 217.018921 
L 215.177142 217.086985 
L 218.365713 217.191824 
L 218.365713 240.21605 
L 221.554285 240.354298 
L 221.554285 284.678635 
L 224.742856 284.818441 
L 224.742856 325.323632 
L 227.931427 325.432983 
L 227.931427 334.157882 
L 227.931427 331.437736 
L 231.119999 331.330048 
L 231.119999 314.174884 
L 234.30857 313.977217 
L 234.30857 287.012624 
L 237.497142 286.881382 
L 237.497142 259.447705 
L 240.685713 259.300005 
L 240.685713 215.384184 
L 243.874285 215.230065 
L 243.874285 178.530654 
L 247.062856 178.344088 
L 247.062856 149.524471 
L 250.251428 149.327946 
L 250.251428 132.045849 
L 253.439999 131.915905 
L 253.439999 117.347642 
L 256.628571 117.226475 
L 256.628571 107.294828 
L 259.817142 107.155698 
L 259.817142 105.471988 
L 259.817142 107.153153 
L 259.817142 107.153153 
L 259.817142 115.01896 
L 263.005713 115.154905 
L 263.005713 132.38305 
L 266.194284 132.498104 
L 266.194284 150.392845 
L 269.382856 150.518435 
L 269.382856 172.315633 
L 272.571427 172.491577 
L 272.571427 197.341741 
L 275.759999 197.498598 
L 275.759999 222.880818 
L 278.94857 223.084459 
L 278.94857 250.711654 
L 282.137142 250.896348 
L 282.137142 281.295439 
L 285.325713 281.514225 
L 285.325713 312.517409 
L 288.514285 312.685218 
L 288.514285 334.137233 
L 291.702856 334.265046 
L 291.702856 338.788786 
L 291.702856 334.456542 
L 294.891427 334.365212 
L 294.891427 310.927847 
L 298.079999 310.751167 
L 298.079999 284.51508 
L 301.26857 284.321886 
L 301.26857 248.107565 
L 304.457142 247.956189 
L 304.457142 207.461305 
L 307.645713 207.22824 
L 307.645713 185.767461 
L 310.834285 185.626341 
L 310.834285 167.666061 
L 314.022856 167.48761 
L 314.022856 152.8861 
L 317.211428 152.727977 
L 317.211428 135.535881 
L 320.399999 135.388941 
L 320.399999 113.002372 
L 323.588571 112.882921 
L 323.588571 107.6658 
L 323.588571 108.186459 
L 326.777142 108.316905 
L 326.777142 115.682056 
L 329.965714 115.802838 
L 329.965714 151.663753 
L 333.154284 151.798344 
L 333.154284 178.683896 
L 336.342856 178.846518 
L 336.342856 188.772281 
L 336.342856 188.769044 
L 339.531427 188.816164 
L 339.531427 188.681677 
L 339.531427 184.669 
L 342.719999 184.553159 
L 342.719999 177.643057 
L 345.90857 177.502847 
L 345.90857 156.785472 
L 349.097142 156.637029 
L 349.097142 134.465279 
L 352.285713 134.345644 
L 352.285713 115.584475 
L 355.474284 115.465833 
L 355.474284 106.182924 
L 355.474284 106.399467 
L 358.662856 106.512721 
L 358.662856 116.633551 
L 361.851427 116.751182 
L 361.851427 128.639503 
L 365.039999 128.758483 
L 365.039999 147.081839 
L 368.22857 147.267261 
L 368.22857 189.123116 
L 371.417142 189.302122 
L 371.417142 232.147481 
L 374.605713 232.352031 
L 374.605713 254.062514 
L 377.794285 254.218915 
L 377.794285 259.77774 
L 377.794285 258.308307 
L 380.982856 258.188077 
L 380.982856 247.978903 
L 384.171428 247.857597 
L 384.171428 241.324888 
L 387.359999 241.209932 
L 387.359999 239.184662 
L 387.359999 239.29515 
L 390.548571 239.405237 
L 390.548571 250.318449 
L 393.737142 250.446377 
L 393.737142 251.639591 
L 393.737142 250.465961 
L 393.737142 250.465961 
L 393.737142 248.563183 
L 396.925714 248.443717 
L 396.925714 228.271976 
L 400.114285 228.121348 
L 400.114285 205.155769 
L 403.302856 204.993543 
L 403.302856 175.097572 
L 406.491427 174.977072 
L 406.491427 133.985334 
L 409.679999 133.864097 
L 409.679999 100.462412 
L 412.86857 100.30114 
L 412.86857 84.785273 
L 416.057141 84.648144 
L 416.057141 83.646271 
L 416.057141 84.638784 
L 416.057141 84.638784 
L 416.057141 90.830534 
L 419.245713 90.953382 
L 419.245713 103.690909 
L 422.434284 103.816932 
L 422.434284 115.470247 
L 425.622856 115.609 
L 425.622856 118.821367 
L 425.622856 118.664098 
L 428.811427 118.772763 
L 428.811427 140.124616 
L 431.999999 140.307556 
L 431.999999 169.257255 
L 435.18857 169.380459 
L 435.18857 203.256683 
L 438.377142 203.374211 
L 438.377142 235.844167 
L 441.565713 236.05491 
L 441.565713 265.860354 
L 444.754285 266.050789 
L 444.754285 294.662448 
L 447.942856 294.826911 
L 447.942856 309.372071 
L 447.942856 309.365047 
L 451.131428 309.485171 
L 451.131428 310.100696 
L 451.131428 309.494202 
L 451.131428 309.494202 
L 451.131428 308.11815 
L 454.319999 307.986012 
L 454.319999 302.215081 
L 457.508571 302.105849 
L 457.508571 270.915939 
L 460.697142 270.72253 
L 460.697142 241.282397 
L 463.885714 241.103224 
L 463.885714 216.005015 
L 467.074285 215.883638 
L 467.074285 213.699091 
L 467.074285 213.755566 
L 483.017141 213.760195 
L 483.017141 213.757972 
" style="fill:none;stroke:#ffa500;stroke-linecap:square;"/>
   </g>
   <g id="patch_3">
    <path d="M 71.999999 43.2 
L 518.4 43.2 
" style="fill:none;stroke:#000000;stroke-linecap:square;stroke-linejoin:miter;"/>
   </g>
   <g id="patch_4">
    <path d="M 518.4 388.8 
L 518.4 43.2 
" style="fill:none;stroke:#000000;stroke-linecap:square;stroke-linejoin:miter;"/>
   </g>
   <g id="patch_5">
    <path d="M 71.999999 388.8 
L 518.4 388.8 
" style="fill:none;stroke:#000000;stroke-linecap:square;stroke-linejoin:miter;"/>
   </g>
   <g id="patch_6">
    <path d="M 72 388.8 
L 72 43.2 
" style="fill:none;stroke:#000000;stroke-linecap:square;stroke-linejoin:miter;"/>
   </g>
   <g id="matplotlib.axis_1">
    <g id="xtick_1">
     <g id="line2d_3">
      <defs>
       <path d="M 0 0 
L 0 -4 
" id="m64e13b4e9d" style="stroke:#000000;stroke-width:0.5;"/>
      </defs>
      <g>
       <use style="stroke:#000000;stroke-width:0.5;" x="97.19999885559082" xlink:href="#m64e13b4e9d" y="388.8"/>
      </g>
     </g>
     <g id="line2d_4">
      <defs>
       <path d="M 0 0 
L 0 4 
" id="m473c95106d" style="stroke:#000000;stroke-width:0.5;"/>
      </defs>
      <g>
       <use style="stroke:#000000;stroke-width:0.5;" x="97.19999885559082" xlink:href="#m473c95106d" y="43.19999999999999"/>
      </g>
     </g>
     <g id="text_1">
      <!-- 100 -->
      <defs>
       <path d="M 31.78125 66.40625 
Q 24.171875 66.40625 20.328125 58.90625 
Q 16.5 51.421875 16.5 36.375 
Q 16.5 21.390625 20.328125 13.890625 
Q 24.171875 6.390625 31.78125 6.390625 
Q 39.453125 6.390625 43.28125 13.890625 
Q 47.125 21.390625 47.125 36.375 
Q 47.125 51.421875 43.28125 58.90625 
Q 39.453125 66.40625 31.78125 66.40625 
M 31.78125 74.21875 
Q 44.046875 74.21875 50.515625 64.515625 
Q 56.984375 54.828125 56.984375 36.375 
Q 56.984375 17.96875 50.515625 8.265625 
Q 44.046875 -1.421875 31.78125 -1.421875 
Q 19.53125 -1.421875 13.0625 8.265625 
Q 6.59375 17.96875 6.59375 36.375 
Q 6.59375 54.828125 13.0625 64.515625 
Q 19.53125 74.21875 31.78125 74.21875 
" id="BitstreamVeraSans-Roman-30"/>
       <path d="M 12.40625 8.296875 
L 28.515625 8.296875 
L 28.515625 63.921875 
L 10.984375 60.40625 
L 10.984375 69.390625 
L 28.421875 72.90625 
L 38.28125 72.90625 
L 38.28125 8.296875 
L 54.390625 8.296875 
L 54.390625 0 
L 12.40625 0 
z
" id="BitstreamVeraSans-Roman-31"/>
      </defs>
      <g transform="translate(85.74749885559082 401.91812500000003)scale(0.12 -0.12)">
       <use xlink:href="#BitstreamVeraSans-Roman-31"/>
       <use x="63.623046875" xlink:href="#BitstreamVeraSans-Roman-30"/>
       <use x="127.24609375" xlink:href="#BitstreamVeraSans-Roman-30"/>
      </g>
     </g>
    </g>
    <g id="xtick_2">
     <g id="line2d_5">
      <g>
       <use style="stroke:#000000;stroke-width:0.5;" x="160.97142791748047" xlink:href="#m64e13b4e9d" y="388.8"/>
      </g>
     </g>
     <g id="line2d_6">
      <g>
       <use style="stroke:#000000;stroke-width:0.5;" x="160.97142791748047" xlink:href="#m473c95106d" y="43.19999999999999"/>
      </g>
     </g>
     <g id="text_2">
      <!-- 120 -->
      <defs>
       <path d="M 19.1875 8.296875 
L 53.609375 8.296875 
L 53.609375 0 
L 7.328125 0 
L 7.328125 8.296875 
Q 12.9375 14.109375 22.625 23.890625 
Q 32.328125 33.6875 34.8125 36.53125 
Q 39.546875 41.84375 41.421875 45.53125 
Q 43.3125 49.21875 43.3125 52.78125 
Q 43.3125 58.59375 39.234375 62.25 
Q 35.15625 65.921875 28.609375 65.921875 
Q 23.96875 65.921875 18.8125 64.3125 
Q 13.671875 62.703125 7.8125 59.421875 
L 7.8125 69.390625 
Q 13.765625 71.78125 18.9375 73 
Q 24.125 74.21875 28.421875 74.21875 
Q 39.75 74.21875 46.484375 68.546875 
Q 53.21875 62.890625 53.21875 53.421875 
Q 53.21875 48.921875 51.53125 44.890625 
Q 49.859375 40.875 45.40625 35.40625 
Q 44.1875 33.984375 37.640625 27.21875 
Q 31.109375 20.453125 19.1875 8.296875 
" id="BitstreamVeraSans-Roman-32"/>
      </defs>
      <g transform="translate(149.51892791748048 401.91812500000003)scale(0.12 -0.12)">
       <use xlink:href="#BitstreamVeraSans-Roman-31"/>
       <use x="63.623046875" xlink:href="#BitstreamVeraSans-Roman-32"/>
       <use x="127.24609375" xlink:href="#BitstreamVeraSans-Roman-30"/>
      </g>
     </g>
    </g>
    <g id="xtick_3">
     <g id="line2d_7">
      <g>
       <use style="stroke:#000000;stroke-width:0.5;" x="224.7428560256958" xlink:href="#m64e13b4e9d" y="388.8"/>
      </g>
     </g>
     <g id="line2d_8">
      <g>
       <use style="stroke:#000000;stroke-width:0.5;" x="224.7428560256958" xlink:href="#m473c95106d" y="43.19999999999999"/>
      </g>
     </g>
     <g id="text_3">
      <!-- 140 -->
      <defs>
       <path d="M 37.796875 64.3125 
L 12.890625 25.390625 
L 37.796875 25.390625 
z
M 35.203125 72.90625 
L 47.609375 72.90625 
L 47.609375 25.390625 
L 58.015625 25.390625 
L 58.015625 17.1875 
L 47.609375 17.1875 
L 47.609375 0 
L 37.796875 0 
L 37.796875 17.1875 
L 4.890625 17.1875 
L 4.890625 26.703125 
z
" id="BitstreamVeraSans-Roman-34"/>
      </defs>
      <g transform="translate(213.29035602569581 401.91812500000003)scale(0.12 -0.12)">
       <use xlink:href="#BitstreamVeraSans-Roman-31"/>
       <use x="63.623046875" xlink:href="#BitstreamVeraSans-Roman-34"/>
       <use x="127.24609375" xlink:href="#BitstreamVeraSans-Roman-30"/>
      </g>
     </g>
    </g>
    <g id="xtick_4">
     <g id="line2d_9">
      <g>
       <use style="stroke:#000000;stroke-width:0.5;" x="288.51428508758545" xlink:href="#m64e13b4e9d" y="388.8"/>
      </g>
     </g>
     <g id="line2d_10">
      <g>
       <use style="stroke:#000000;stroke-width:0.5;" x="288.51428508758545" xlink:href="#m473c95106d" y="43.19999999999999"/>
      </g>
     </g>
     <g id="text_4">
      <!-- 160 -->
      <defs>
       <path d="M 33.015625 40.375 
Q 26.375 40.375 22.484375 35.828125 
Q 18.609375 31.296875 18.609375 23.390625 
Q 18.609375 15.53125 22.484375 10.953125 
Q 26.375 6.390625 33.015625 6.390625 
Q 39.65625 6.390625 43.53125 10.953125 
Q 47.40625 15.53125 47.40625 23.390625 
Q 47.40625 31.296875 43.53125 35.828125 
Q 39.65625 40.375 33.015625 40.375 
M 52.59375 71.296875 
L 52.59375 62.3125 
Q 48.875 64.0625 45.09375 64.984375 
Q 41.3125 65.921875 37.59375 65.921875 
Q 27.828125 65.921875 22.671875 59.328125 
Q 17.53125 52.734375 16.796875 39.40625 
Q 19.671875 43.65625 24.015625 45.921875 
Q 28.375 48.1875 33.59375 48.1875 
Q 44.578125 48.1875 50.953125 41.515625 
Q 57.328125 34.859375 57.328125 23.390625 
Q 57.328125 12.15625 50.6875 5.359375 
Q 44.046875 -1.421875 33.015625 -1.421875 
Q 20.359375 -1.421875 13.671875 8.265625 
Q 6.984375 17.96875 6.984375 36.375 
Q 6.984375 53.65625 15.1875 63.9375 
Q 23.390625 74.21875 37.203125 74.21875 
Q 40.921875 74.21875 44.703125 73.484375 
Q 48.484375 72.75 52.59375 71.296875 
" id="BitstreamVeraSans-Roman-36"/>
      </defs>
      <g transform="translate(277.06178508758546 401.91812500000003)scale(0.12 -0.12)">
       <use xlink:href="#BitstreamVeraSans-Roman-31"/>
       <use x="63.623046875" xlink:href="#BitstreamVeraSans-Roman-36"/>
       <use x="127.24609375" xlink:href="#BitstreamVeraSans-Roman-30"/>
      </g>
     </g>
    </g>
    <g id="xtick_5">
     <g id="line2d_11">
      <g>
       <use style="stroke:#000000;stroke-width:0.5;" x="352.2857131958008" xlink:href="#m64e13b4e9d" y="388.8"/>
      </g>
     </g>
     <g id="line2d_12">
      <g>
       <use style="stroke:#000000;stroke-width:0.5;" x="352.2857131958008" xlink:href="#m473c95106d" y="43.19999999999999"/>
      </g>
     </g>
     <g id="text_5">
      <!-- 180 -->
      <defs>
       <path d="M 31.78125 34.625 
Q 24.75 34.625 20.71875 30.859375 
Q 16.703125 27.09375 16.703125 20.515625 
Q 16.703125 13.921875 20.71875 10.15625 
Q 24.75 6.390625 31.78125 6.390625 
Q 38.8125 6.390625 42.859375 10.171875 
Q 46.921875 13.96875 46.921875 20.515625 
Q 46.921875 27.09375 42.890625 30.859375 
Q 38.875 34.625 31.78125 34.625 
M 21.921875 38.8125 
Q 15.578125 40.375 12.03125 44.71875 
Q 8.5 49.078125 8.5 55.328125 
Q 8.5 64.0625 14.71875 69.140625 
Q 20.953125 74.21875 31.78125 74.21875 
Q 42.671875 74.21875 48.875 69.140625 
Q 55.078125 64.0625 55.078125 55.328125 
Q 55.078125 49.078125 51.53125 44.71875 
Q 48 40.375 41.703125 38.8125 
Q 48.828125 37.15625 52.796875 32.3125 
Q 56.78125 27.484375 56.78125 20.515625 
Q 56.78125 9.90625 50.3125 4.234375 
Q 43.84375 -1.421875 31.78125 -1.421875 
Q 19.734375 -1.421875 13.25 4.234375 
Q 6.78125 9.90625 6.78125 20.515625 
Q 6.78125 27.484375 10.78125 32.3125 
Q 14.796875 37.15625 21.921875 38.8125 
M 18.3125 54.390625 
Q 18.3125 48.734375 21.84375 45.5625 
Q 25.390625 42.390625 31.78125 42.390625 
Q 38.140625 42.390625 41.71875 45.5625 
Q 45.3125 48.734375 45.3125 54.390625 
Q 45.3125 60.0625 41.71875 63.234375 
Q 38.140625 66.40625 31.78125 66.40625 
Q 25.390625 66.40625 21.84375 63.234375 
Q 18.3125 60.0625 18.3125 54.390625 
" id="BitstreamVeraSans-Roman-38"/>
      </defs>
      <g transform="translate(340.8332131958008 401.91812500000003)scale(0.12 -0.12)">
       <use xlink:href="#BitstreamVeraSans-Roman-31"/>
       <use x="63.623046875" xlink:href="#BitstreamVeraSans-Roman-38"/>
       <use x="127.24609375" xlink:href="#BitstreamVeraSans-Roman-30"/>
      </g>
     </g>
    </g>
    <g id="xtick_6">
     <g id="line2d_13">
      <g>
       <use style="stroke:#000000;stroke-width:0.5;" x="416.0571413040161" xlink:href="#m64e13b4e9d" y="388.8"/>
      </g>
     </g>
     <g id="line2d_14">
      <g>
       <use style="stroke:#000000;stroke-width:0.5;" x="416.0571413040161" xlink:href="#m473c95106d" y="43.19999999999999"/>
      </g>
     </g>
     <g id="text_6">
      <!-- 200 -->
      <g transform="translate(404.6046413040161 401.91812500000003)scale(0.12 -0.12)">
       <use xlink:href="#BitstreamVeraSans-Roman-32"/>
       <use x="63.623046875" xlink:href="#BitstreamVeraSans-Roman-30"/>
       <use x="127.24609375" xlink:href="#BitstreamVeraSans-Roman-30"/>
      </g>
     </g>
    </g>
    <g id="xtick_7">
     <g id="line2d_15">
      <g>
       <use style="stroke:#000000;stroke-width:0.5;" x="479.82857036590576" xlink:href="#m64e13b4e9d" y="388.8"/>
      </g>
     </g>
     <g id="line2d_16">
      <g>
       <use style="stroke:#000000;stroke-width:0.5;" x="479.82857036590576" xlink:href="#m473c95106d" y="43.19999999999999"/>
      </g>
     </g>
     <g id="text_7">
      <!-- 220 -->
      <g transform="translate(468.3760703659058 401.91812500000003)scale(0.12 -0.12)">
       <use xlink:href="#BitstreamVeraSans-Roman-32"/>
       <use x="63.623046875" xlink:href="#BitstreamVeraSans-Roman-32"/>
       <use x="127.24609375" xlink:href="#BitstreamVeraSans-Roman-30"/>
      </g>
     </g>
    </g>
    <g id="text_8">
     <!-- Time -->
     <defs>
      <path d="M 56.203125 29.59375 
L 56.203125 25.203125 
L 14.890625 25.203125 
Q 15.484375 15.921875 20.484375 11.0625 
Q 25.484375 6.203125 34.421875 6.203125 
Q 39.59375 6.203125 44.453125 7.46875 
Q 49.3125 8.734375 54.109375 11.28125 
L 54.109375 2.78125 
Q 49.265625 0.734375 44.1875 -0.34375 
Q 39.109375 -1.421875 33.890625 -1.421875 
Q 20.796875 -1.421875 13.15625 6.1875 
Q 5.515625 13.8125 5.515625 26.8125 
Q 5.515625 40.234375 12.765625 48.109375 
Q 20.015625 56 32.328125 56 
Q 43.359375 56 49.78125 48.890625 
Q 56.203125 41.796875 56.203125 29.59375 
M 47.21875 32.234375 
Q 47.125 39.59375 43.09375 43.984375 
Q 39.0625 48.390625 32.421875 48.390625 
Q 24.90625 48.390625 20.390625 44.140625 
Q 15.875 39.890625 15.1875 32.171875 
z
" id="BitstreamVeraSans-Roman-65"/>
      <path d="M 9.421875 54.6875 
L 18.40625 54.6875 
L 18.40625 0 
L 9.421875 0 
z
M 9.421875 75.984375 
L 18.40625 75.984375 
L 18.40625 64.59375 
L 9.421875 64.59375 
z
" id="BitstreamVeraSans-Roman-69"/>
      <path d="M -0.296875 72.90625 
L 61.375 72.90625 
L 61.375 64.59375 
L 35.5 64.59375 
L 35.5 0 
L 25.59375 0 
L 25.59375 64.59375 
L -0.296875 64.59375 
z
" id="BitstreamVeraSans-Roman-54"/>
      <path d="M 52 44.1875 
Q 55.375 50.25 60.0625 53.125 
Q 64.75 56 71.09375 56 
Q 79.640625 56 84.28125 50.015625 
Q 88.921875 44.046875 88.921875 33.015625 
L 88.921875 0 
L 79.890625 0 
L 79.890625 32.71875 
Q 79.890625 40.578125 77.09375 44.375 
Q 74.3125 48.1875 68.609375 48.1875 
Q 61.625 48.1875 57.5625 43.546875 
Q 53.515625 38.921875 53.515625 30.90625 
L 53.515625 0 
L 44.484375 0 
L 44.484375 32.71875 
Q 44.484375 40.625 41.703125 44.40625 
Q 38.921875 48.1875 33.109375 48.1875 
Q 26.21875 48.1875 22.15625 43.53125 
Q 18.109375 38.875 18.109375 30.90625 
L 18.109375 0 
L 9.078125 0 
L 9.078125 54.6875 
L 18.109375 54.6875 
L 18.109375 46.1875 
Q 21.1875 51.21875 25.484375 53.609375 
Q 29.78125 56 35.6875 56 
Q 41.65625 56 45.828125 52.96875 
Q 50 49.953125 52 44.1875 
" id="BitstreamVeraSans-Roman-6d"/>
     </defs>
     <g transform="translate(280.335 418.531875)scale(0.12 -0.12)">
      <use xlink:href="#BitstreamVeraSans-Roman-54"/>
      <use x="61.037109375" xlink:href="#BitstreamVeraSans-Roman-69"/>
      <use x="88.8203125" xlink:href="#BitstreamVeraSans-Roman-6d"/>
      <use x="186.232421875" xlink:href="#BitstreamVeraSans-Roman-65"/>
     </g>
    </g>
    <g id="text_9">
     <!-- +1.5813507e9 -->
     <defs>
      <path d="M 40.578125 39.3125 
Q 47.65625 37.796875 51.625 33 
Q 55.609375 28.21875 55.609375 21.1875 
Q 55.609375 10.40625 48.1875 4.484375 
Q 40.765625 -1.421875 27.09375 -1.421875 
Q 22.515625 -1.421875 17.65625 -0.515625 
Q 12.796875 0.390625 7.625 2.203125 
L 7.625 11.71875 
Q 11.71875 9.328125 16.59375 8.109375 
Q 21.484375 6.890625 26.8125 6.890625 
Q 36.078125 6.890625 40.9375 10.546875 
Q 45.796875 14.203125 45.796875 21.1875 
Q 45.796875 27.640625 41.28125 31.265625 
Q 36.765625 34.90625 28.71875 34.90625 
L 20.21875 34.90625 
L 20.21875 43.015625 
L 29.109375 43.015625 
Q 36.375 43.015625 40.234375 45.921875 
Q 44.09375 48.828125 44.09375 54.296875 
Q 44.09375 59.90625 40.109375 62.90625 
Q 36.140625 65.921875 28.71875 65.921875 
Q 24.65625 65.921875 20.015625 65.03125 
Q 15.375 64.15625 9.8125 62.3125 
L 9.8125 71.09375 
Q 15.4375 72.65625 20.34375 73.4375 
Q 25.25 74.21875 29.59375 74.21875 
Q 40.828125 74.21875 47.359375 69.109375 
Q 53.90625 64.015625 53.90625 55.328125 
Q 53.90625 49.265625 50.4375 45.09375 
Q 46.96875 40.921875 40.578125 39.3125 
" id="BitstreamVeraSans-Roman-33"/>
      <path d="M 8.203125 72.90625 
L 55.078125 72.90625 
L 55.078125 68.703125 
L 28.609375 0 
L 18.3125 0 
L 43.21875 64.59375 
L 8.203125 64.59375 
z
" id="BitstreamVeraSans-Roman-37"/>
      <path d="M 10.796875 72.90625 
L 49.515625 72.90625 
L 49.515625 64.59375 
L 19.828125 64.59375 
L 19.828125 46.734375 
Q 21.96875 47.46875 24.109375 47.828125 
Q 26.265625 48.1875 28.421875 48.1875 
Q 40.625 48.1875 47.75 41.5 
Q 54.890625 34.8125 54.890625 23.390625 
Q 54.890625 11.625 47.5625 5.09375 
Q 40.234375 -1.421875 26.90625 -1.421875 
Q 22.3125 -1.421875 17.546875 -0.640625 
Q 12.796875 0.140625 7.71875 1.703125 
L 7.71875 11.625 
Q 12.109375 9.234375 16.796875 8.0625 
Q 21.484375 6.890625 26.703125 6.890625 
Q 35.15625 6.890625 40.078125 11.328125 
Q 45.015625 15.765625 45.015625 23.390625 
Q 45.015625 31 40.078125 35.4375 
Q 35.15625 39.890625 26.703125 39.890625 
Q 22.75 39.890625 18.8125 39.015625 
Q 14.890625 38.140625 10.796875 36.28125 
z
" id="BitstreamVeraSans-Roman-35"/>
      <path d="M 10.984375 1.515625 
L 10.984375 10.5 
Q 14.703125 8.734375 18.5 7.8125 
Q 22.3125 6.890625 25.984375 6.890625 
Q 35.75 6.890625 40.890625 13.453125 
Q 46.046875 20.015625 46.78125 33.40625 
Q 43.953125 29.203125 39.59375 26.953125 
Q 35.25 24.703125 29.984375 24.703125 
Q 19.046875 24.703125 12.671875 31.3125 
Q 6.296875 37.9375 6.296875 49.421875 
Q 6.296875 60.640625 12.9375 67.421875 
Q 19.578125 74.21875 30.609375 74.21875 
Q 43.265625 74.21875 49.921875 64.515625 
Q 56.59375 54.828125 56.59375 36.375 
Q 56.59375 19.140625 48.40625 8.859375 
Q 40.234375 -1.421875 26.421875 -1.421875 
Q 22.703125 -1.421875 18.890625 -0.6875 
Q 15.09375 0.046875 10.984375 1.515625 
M 30.609375 32.421875 
Q 37.25 32.421875 41.125 36.953125 
Q 45.015625 41.5 45.015625 49.421875 
Q 45.015625 57.28125 41.125 61.84375 
Q 37.25 66.40625 30.609375 66.40625 
Q 23.96875 66.40625 20.09375 61.84375 
Q 16.21875 57.28125 16.21875 49.421875 
Q 16.21875 41.5 20.09375 36.953125 
Q 23.96875 32.421875 30.609375 32.421875 
" id="BitstreamVeraSans-Roman-39"/>
      <path d="M 46 62.703125 
L 46 35.5 
L 73.1875 35.5 
L 73.1875 27.203125 
L 46 27.203125 
L 46 0 
L 37.796875 0 
L 37.796875 27.203125 
L 10.59375 27.203125 
L 10.59375 35.5 
L 37.796875 35.5 
L 37.796875 62.703125 
z
" id="BitstreamVeraSans-Roman-2b"/>
      <path d="M 10.6875 12.40625 
L 21 12.40625 
L 21 0 
L 10.6875 0 
z
" id="BitstreamVeraSans-Roman-2e"/>
     </defs>
     <g transform="translate(428.431875 416.531875)scale(0.12 -0.12)">
      <use xlink:href="#BitstreamVeraSans-Roman-2b"/>
      <use x="83.7890625" xlink:href="#BitstreamVeraSans-Roman-31"/>
      <use x="147.412109375" xlink:href="#BitstreamVeraSans-Roman-2e"/>
      <use x="179.19921875" xlink:href="#BitstreamVeraSans-Roman-35"/>
      <use x="242.822265625" xlink:href="#BitstreamVeraSans-Roman-38"/>
      <use x="306.4453125" xlink:href="#BitstreamVeraSans-Roman-31"/>
      <use x="370.068359375" xlink:href="#BitstreamVeraSans-Roman-33"/>
      <use x="433.69140625" xlink:href="#BitstreamVeraSans-Roman-35"/>
      <use x="497.314453125" xlink:href="#BitstreamVeraSans-Roman-30"/>
      <use x="560.9375" xlink:href="#BitstreamVeraSans-Roman-37"/>
      <use x="624.560546875" xlink:href="#BitstreamVeraSans-Roman-65"/>
      <use x="686.083984375" xlink:href="#BitstreamVeraSans-Roman-39"/>
     </g>
    </g>
   </g>
   <g id="matplotlib.axis_2">
    <g id="ytick_1">
     <g id="line2d_17">
      <defs>
       <path d="M 0 0 
L 4 0 
" id="mf2d94c6895" style="stroke:#000000;stroke-width:0.5;"/>
      </defs>
      <g>
       <use style="stroke:#000000;stroke-width:0.5;" x="72.0" xlink:href="#mf2d94c6895" y="384.30000000000007"/>
      </g>
     </g>
     <g id="line2d_18">
      <defs>
       <path d="M 0 0 
L -4 0 
" id="me3d6c65107" style="stroke:#000000;stroke-width:0.5;"/>
      </defs>
      <g>
       <use style="stroke:#000000;stroke-width:0.5;" x="518.4" xlink:href="#me3d6c65107" y="384.30000000000007"/>
      </g>
     </g>
     <g id="text_10">
      <!-- −1.5 -->
      <defs>
       <path d="M 10.59375 35.5 
L 73.1875 35.5 
L 73.1875 27.203125 
L 10.59375 27.203125 
z
" id="BitstreamVeraSans-Roman-2212"/>
      </defs>
      <g transform="translate(38.860625 387.61125000000004)scale(0.12 -0.12)">
       <use xlink:href="#BitstreamVeraSans-Roman-2212"/>
       <use x="83.7890625" xlink:href="#BitstreamVeraSans-Roman-31"/>
       <use x="147.412109375" xlink:href="#BitstreamVeraSans-Roman-2e"/>
       <use x="179.19921875" xlink:href="#BitstreamVeraSans-Roman-35"/>
      </g>
     </g>
    </g>
    <g id="ytick_2">
     <g id="line2d_19">
      <g>
       <use style="stroke:#000000;stroke-width:0.5;" x="72.0" xlink:href="#mf2d94c6895" y="326.70000000000005"/>
      </g>
     </g>
     <g id="line2d_20">
      <g>
       <use style="stroke:#000000;stroke-width:0.5;" x="518.4" xlink:href="#me3d6c65107" y="326.70000000000005"/>
      </g>
     </g>
     <g id="text_11">
      <!-- −1.0 -->
      <g transform="translate(38.860625 330.01125)scale(0.12 -0.12)">
       <use xlink:href="#BitstreamVeraSans-Roman-2212"/>
       <use x="83.7890625" xlink:href="#BitstreamVeraSans-Roman-31"/>
       <use x="147.412109375" xlink:href="#BitstreamVeraSans-Roman-2e"/>
       <use x="179.19921875" xlink:href="#BitstreamVeraSans-Roman-30"/>
      </g>
     </g>
    </g>
    <g id="ytick_3">
     <g id="line2d_21">
      <g>
       <use style="stroke:#000000;stroke-width:0.5;" x="72.0" xlink:href="#mf2d94c6895" y="269.1"/>
      </g>
     </g>
     <g id="line2d_22">
      <g>
       <use style="stroke:#000000;stroke-width:0.5;" x="518.4" xlink:href="#me3d6c65107" y="269.1"/>
      </g>
     </g>
     <g id="text_12">
      <!-- −0.5 -->
      <g transform="translate(38.860625 272.41125)scale(0.12 -0.12)">
       <use xlink:href="#BitstreamVeraSans-Roman-2212"/>
       <use x="83.7890625" xlink:href="#BitstreamVeraSans-Roman-30"/>
       <use x="147.412109375" xlink:href="#BitstreamVeraSans-Roman-2e"/>
       <use x="179.19921875" xlink:href="#BitstreamVeraSans-Roman-35"/>
      </g>
     </g>
    </g>
    <g id="ytick_4">
     <g id="line2d_23">
      <g>
       <use style="stroke:#000000;stroke-width:0.5;" x="72.0" xlink:href="#mf2d94c6895" y="211.50000000000003"/>
      </g>
     </g>
     <g id="line2d_24">
      <g>
       <use style="stroke:#000000;stroke-width:0.5;" x="518.4" xlink:href="#me3d6c65107" y="211.50000000000003"/>
      </g>
     </g>
     <g id="text_13">
      <!-- 0.0 -->
      <g transform="translate(48.916250000000005 214.81125000000003)scale(0.12 -0.12)">
       <use xlink:href="#BitstreamVeraSans-Roman-30"/>
       <use x="63.623046875" xlink:href="#BitstreamVeraSans-Roman-2e"/>
       <use x="95.41015625" xlink:href="#BitstreamVeraSans-Roman-30"/>
      </g>
     </g>
    </g>
    <g id="ytick_5">
     <g id="line2d_25">
      <g>
       <use style="stroke:#000000;stroke-width:0.5;" x="72.0" xlink:href="#mf2d94c6895" y="153.90000000000003"/>
      </g>
     </g>
     <g id="line2d_26">
      <g>
       <use style="stroke:#000000;stroke-width:0.5;" x="518.4" xlink:href="#me3d6c65107" y="153.90000000000003"/>
      </g>
     </g>
     <g id="text_14">
      <!-- 0.5 -->
      <g transform="translate(48.916250000000005 157.21125)scale(0.12 -0.12)">
       <use xlink:href="#BitstreamVeraSans-Roman-30"/>
       <use x="63.623046875" xlink:href="#BitstreamVeraSans-Roman-2e"/>
       <use x="95.41015625" xlink:href="#BitstreamVeraSans-Roman-35"/>
      </g>
     </g>
    </g>
    <g id="ytick_6">
     <g id="line2d_27">
      <g>
       <use style="stroke:#000000;stroke-width:0.5;" x="72.0" xlink:href="#mf2d94c6895" y="96.30000000000003"/>
      </g>
     </g>
     <g id="line2d_28">
      <g>
       <use style="stroke:#000000;stroke-width:0.5;" x="518.4" xlink:href="#me3d6c65107" y="96.30000000000003"/>
      </g>
     </g>
     <g id="text_15">
      <!-- 1.0 -->
      <g transform="translate(48.916250000000005 99.61124999999998)scale(0.12 -0.12)">
       <use xlink:href="#BitstreamVeraSans-Roman-31"/>
       <use x="63.623046875" xlink:href="#BitstreamVeraSans-Roman-2e"/>
       <use x="95.41015625" xlink:href="#BitstreamVeraSans-Roman-30"/>
      </g>
     </g>
    </g>
    <g id="text_16">
     <!-- Position (m) -->
     <defs>
      <path id="BitstreamVeraSans-Roman-20"/>
      <path d="M 54.890625 33.015625 
L 54.890625 0 
L 45.90625 0 
L 45.90625 32.71875 
Q 45.90625 40.484375 42.875 44.328125 
Q 39.84375 48.1875 33.796875 48.1875 
Q 26.515625 48.1875 22.3125 43.546875 
Q 18.109375 38.921875 18.109375 30.90625 
L 18.109375 0 
L 9.078125 0 
L 9.078125 54.6875 
L 18.109375 54.6875 
L 18.109375 46.1875 
Q 21.34375 51.125 25.703125 53.5625 
Q 30.078125 56 35.796875 56 
Q 45.21875 56 50.046875 50.171875 
Q 54.890625 44.34375 54.890625 33.015625 
" id="BitstreamVeraSans-Roman-6e"/>
      <path d="M 31 75.875 
Q 24.46875 64.65625 21.28125 53.65625 
Q 18.109375 42.671875 18.109375 31.390625 
Q 18.109375 20.125 21.3125 9.0625 
Q 24.515625 -2 31 -13.1875 
L 23.1875 -13.1875 
Q 15.875 -1.703125 12.234375 9.375 
Q 8.59375 20.453125 8.59375 31.390625 
Q 8.59375 42.28125 12.203125 53.3125 
Q 15.828125 64.359375 23.1875 75.875 
z
" id="BitstreamVeraSans-Roman-28"/>
      <path d="M 30.609375 48.390625 
Q 23.390625 48.390625 19.1875 42.75 
Q 14.984375 37.109375 14.984375 27.296875 
Q 14.984375 17.484375 19.15625 11.84375 
Q 23.34375 6.203125 30.609375 6.203125 
Q 37.796875 6.203125 41.984375 11.859375 
Q 46.1875 17.53125 46.1875 27.296875 
Q 46.1875 37.015625 41.984375 42.703125 
Q 37.796875 48.390625 30.609375 48.390625 
M 30.609375 56 
Q 42.328125 56 49.015625 48.375 
Q 55.71875 40.765625 55.71875 27.296875 
Q 55.71875 13.875 49.015625 6.21875 
Q 42.328125 -1.421875 30.609375 -1.421875 
Q 18.84375 -1.421875 12.171875 6.21875 
Q 5.515625 13.875 5.515625 27.296875 
Q 5.515625 40.765625 12.171875 48.375 
Q 18.84375 56 30.609375 56 
" id="BitstreamVeraSans-Roman-6f"/>
      <path d="M 19.671875 64.796875 
L 19.671875 37.40625 
L 32.078125 37.40625 
Q 38.96875 37.40625 42.71875 40.96875 
Q 46.484375 44.53125 46.484375 51.125 
Q 46.484375 57.671875 42.71875 61.234375 
Q 38.96875 64.796875 32.078125 64.796875 
z
M 9.8125 72.90625 
L 32.078125 72.90625 
Q 44.34375 72.90625 50.609375 67.359375 
Q 56.890625 61.8125 56.890625 51.125 
Q 56.890625 40.328125 50.609375 34.8125 
Q 44.34375 29.296875 32.078125 29.296875 
L 19.671875 29.296875 
L 19.671875 0 
L 9.8125 0 
z
" id="BitstreamVeraSans-Roman-50"/>
      <path d="M 8.015625 75.875 
L 15.828125 75.875 
Q 23.140625 64.359375 26.78125 53.3125 
Q 30.421875 42.28125 30.421875 31.390625 
Q 30.421875 20.453125 26.78125 9.375 
Q 23.140625 -1.703125 15.828125 -13.1875 
L 8.015625 -13.1875 
Q 14.5 -2 17.703125 9.0625 
Q 20.90625 20.125 20.90625 31.390625 
Q 20.90625 42.671875 17.703125 53.65625 
Q 14.5 64.65625 8.015625 75.875 
" id="BitstreamVeraSans-Roman-29"/>
      <path d="M 18.3125 70.21875 
L 18.3125 54.6875 
L 36.8125 54.6875 
L 36.8125 47.703125 
L 18.3125 47.703125 
L 18.3125 18.015625 
Q 18.3125 11.328125 20.140625 9.421875 
Q 21.96875 7.515625 27.59375 7.515625 
L 36.8125 7.515625 
L 36.8125 0 
L 27.59375 0 
Q 17.1875 0 13.234375 3.875 
Q 9.28125 7.765625 9.28125 18.015625 
L 9.28125 47.703125 
L 2.6875 47.703125 
L 2.6875 54.6875 
L 9.28125 54.6875 
L 9.28125 70.21875 
z
" id="BitstreamVeraSans-Roman-74"/>
      <path d="M 44.28125 53.078125 
L 44.28125 44.578125 
Q 40.484375 46.53125 36.375 47.5 
Q 32.28125 48.484375 27.875 48.484375 
Q 21.1875 48.484375 17.84375 46.4375 
Q 14.5 44.390625 14.5 40.28125 
Q 14.5 37.15625 16.890625 35.375 
Q 19.28125 33.59375 26.515625 31.984375 
L 29.59375 31.296875 
Q 39.15625 29.25 43.1875 25.515625 
Q 47.21875 21.78125 47.21875 15.09375 
Q 47.21875 7.46875 41.1875 3.015625 
Q 35.15625 -1.421875 24.609375 -1.421875 
Q 20.21875 -1.421875 15.453125 -0.5625 
Q 10.6875 0.296875 5.421875 2 
L 5.421875 11.28125 
Q 10.40625 8.6875 15.234375 7.390625 
Q 20.0625 6.109375 24.8125 6.109375 
Q 31.15625 6.109375 34.5625 8.28125 
Q 37.984375 10.453125 37.984375 14.40625 
Q 37.984375 18.0625 35.515625 20.015625 
Q 33.0625 21.96875 24.703125 23.78125 
L 21.578125 24.515625 
Q 13.234375 26.265625 9.515625 29.90625 
Q 5.8125 33.546875 5.8125 39.890625 
Q 5.8125 47.609375 11.28125 51.796875 
Q 16.75 56 26.8125 56 
Q 31.78125 56 36.171875 55.265625 
Q 40.578125 54.546875 44.28125 53.078125 
" id="BitstreamVeraSans-Roman-73"/>
     </defs>
     <g transform="translate(31.364999999999995 252.0046875)rotate(-90.0)scale(0.12 -0.12)">
      <use xlink:href="#BitstreamVeraSans-Roman-50"/>
      <use x="60.255859375" xlink:href="#BitstreamVeraSans-Roman-6f"/>
      <use x="121.4375" xlink:href="#BitstreamVeraSans-Roman-73"/>
      <use x="173.537109375" xlink:href="#BitstreamVeraSans-Roman-69"/>
      <use x="201.3203125" xlink:href="#BitstreamVeraSans-Roman-74"/>
      <use x="240.529296875" xlink:href="#BitstreamVeraSans-Roman-69"/>
      <use x="268.3125" xlink:href="#BitstreamVeraSans-Roman-6f"/>
      <use x="329.494140625" xlink:href="#BitstreamVeraSans-Roman-6e"/>
      <use x="392.873046875" xlink:href="#BitstreamVeraSans-Roman-20"/>
      <use x="424.66015625" xlink:href="#BitstreamVeraSans-Roman-28"/>
      <use x="463.673828125" xlink:href="#BitstreamVeraSans-Roman-6d"/>
      <use x="561.0859375" xlink:href="#BitstreamVeraSans-Roman-29"/>
     </g>
    </g>
   </g>
   <g id="text_17">
    <!-- Position in X v/s Time -->
    <defs>
     <path d="M 6.296875 72.90625 
L 16.890625 72.90625 
L 35.015625 45.796875 
L 53.21875 72.90625 
L 63.8125 72.90625 
L 40.375 37.890625 
L 65.375 0 
L 54.78125 0 
L 34.28125 31 
L 13.625 0 
L 2.984375 0 
L 29 38.921875 
z
" id="BitstreamVeraSans-Roman-58"/>
     <path d="M 2.984375 54.6875 
L 12.5 54.6875 
L 29.59375 8.796875 
L 46.6875 54.6875 
L 56.203125 54.6875 
L 35.6875 0 
L 23.484375 0 
z
" id="BitstreamVeraSans-Roman-76"/>
     <path d="M 25.390625 72.90625 
L 33.6875 72.90625 
L 8.296875 -9.28125 
L 0 -9.28125 
z
" id="BitstreamVeraSans-Roman-2f"/>
    </defs>
    <g transform="translate(217.99012499999998 38.19999999999999)scale(0.144 -0.144)">
     <use xlink:href="#BitstreamVeraSans-Roman-50"/>
     <use x="60.255859375" xlink:href="#BitstreamVeraSans-Roman-6f"/>
     <use x="121.4375" xlink:href="#BitstreamVeraSans-Roman-73"/>
     <use x="173.537109375" xlink:href="#BitstreamVeraSans-Roman-69"/>
     <use x="201.3203125" xlink:href="#BitstreamVeraSans-Roman-74"/>
     <use x="240.529296875" xlink:href="#BitstreamVeraSans-Roman-69"/>
     <use x="268.3125" xlink:href="#BitstreamVeraSans-Roman-6f"/>
     <use x="329.494140625" xlink:href="#BitstreamVeraSans-Roman-6e"/>
     <use x="392.873046875" xlink:href="#BitstreamVeraSans-Roman-20"/>
     <use x="424.66015625" xlink:href="#BitstreamVeraSans-Roman-69"/>
     <use x="452.443359375" xlink:href="#BitstreamVeraSans-Roman-6e"/>
     <use x="515.822265625" xlink:href="#BitstreamVeraSans-Roman-20"/>
     <use x="547.609375" xlink:href="#BitstreamVeraSans-Roman-58"/>
     <use x="616.115234375" xlink:href="#BitstreamVeraSans-Roman-20"/>
     <use x="647.90234375" xlink:href="#BitstreamVeraSans-Roman-76"/>
     <use x="707.08203125" xlink:href="#BitstreamVeraSans-Roman-2f"/>
     <use x="740.7734375" xlink:href="#BitstreamVeraSans-Roman-73"/>
     <use x="792.873046875" xlink:href="#BitstreamVeraSans-Roman-20"/>
     <use x="824.66015625" xlink:href="#BitstreamVeraSans-Roman-54"/>
     <use x="885.697265625" xlink:href="#BitstreamVeraSans-Roman-69"/>
     <use x="913.48046875" xlink:href="#BitstreamVeraSans-Roman-6d"/>
     <use x="1010.89257812" xlink:href="#BitstreamVeraSans-Roman-65"/>
    </g>
   </g>
   <g id="legend_1">
    <g id="patch_7">
     <path d="M 79.2 96.993 
L 200.8485 96.993 
L 200.8485 50.4 
L 79.2 50.4 
z
" style="fill:#ffffff;stroke:#000000;stroke-linejoin:miter;"/>
    </g>
    <g id="line2d_29">
     <path d="M 89.28 62.06175 
L 109.44 62.06175 
" style="fill:none;stroke:#0000ff;stroke-linecap:square;"/>
    </g>
    <g id="line2d_30"/>
    <g id="text_18">
     <!-- Desired X -->
     <defs>
      <path d="M 45.40625 46.390625 
L 45.40625 75.984375 
L 54.390625 75.984375 
L 54.390625 0 
L 45.40625 0 
L 45.40625 8.203125 
Q 42.578125 3.328125 38.25 0.953125 
Q 33.9375 -1.421875 27.875 -1.421875 
Q 17.96875 -1.421875 11.734375 6.484375 
Q 5.515625 14.40625 5.515625 27.296875 
Q 5.515625 40.1875 11.734375 48.09375 
Q 17.96875 56 27.875 56 
Q 33.9375 56 38.25 53.625 
Q 42.578125 51.265625 45.40625 46.390625 
M 14.796875 27.296875 
Q 14.796875 17.390625 18.875 11.75 
Q 22.953125 6.109375 30.078125 6.109375 
Q 37.203125 6.109375 41.296875 11.75 
Q 45.40625 17.390625 45.40625 27.296875 
Q 45.40625 37.203125 41.296875 42.84375 
Q 37.203125 48.484375 30.078125 48.484375 
Q 22.953125 48.484375 18.875 42.84375 
Q 14.796875 37.203125 14.796875 27.296875 
" id="BitstreamVeraSans-Roman-64"/>
      <path d="M 19.671875 64.796875 
L 19.671875 8.109375 
L 31.59375 8.109375 
Q 46.6875 8.109375 53.6875 14.9375 
Q 60.6875 21.78125 60.6875 36.53125 
Q 60.6875 51.171875 53.6875 57.984375 
Q 46.6875 64.796875 31.59375 64.796875 
z
M 9.8125 72.90625 
L 30.078125 72.90625 
Q 51.265625 72.90625 61.171875 64.09375 
Q 71.09375 55.28125 71.09375 36.53125 
Q 71.09375 17.671875 61.125 8.828125 
Q 51.171875 0 30.078125 0 
L 9.8125 0 
z
" id="BitstreamVeraSans-Roman-44"/>
      <path d="M 41.109375 46.296875 
Q 39.59375 47.171875 37.8125 47.578125 
Q 36.03125 48 33.890625 48 
Q 26.265625 48 22.1875 43.046875 
Q 18.109375 38.09375 18.109375 28.8125 
L 18.109375 0 
L 9.078125 0 
L 9.078125 54.6875 
L 18.109375 54.6875 
L 18.109375 46.1875 
Q 20.953125 51.171875 25.484375 53.578125 
Q 30.03125 56 36.53125 56 
Q 37.453125 56 38.578125 55.875 
Q 39.703125 55.765625 41.0625 55.515625 
z
" id="BitstreamVeraSans-Roman-72"/>
     </defs>
     <g transform="translate(125.28 67.10174999999992)scale(0.144 -0.144)">
      <use xlink:href="#BitstreamVeraSans-Roman-44"/>
      <use x="77.001953125" xlink:href="#BitstreamVeraSans-Roman-65"/>
      <use x="138.525390625" xlink:href="#BitstreamVeraSans-Roman-73"/>
      <use x="190.625" xlink:href="#BitstreamVeraSans-Roman-69"/>
      <use x="218.408203125" xlink:href="#BitstreamVeraSans-Roman-72"/>
      <use x="259.490234375" xlink:href="#BitstreamVeraSans-Roman-65"/>
      <use x="321.013671875" xlink:href="#BitstreamVeraSans-Roman-64"/>
      <use x="384.490234375" xlink:href="#BitstreamVeraSans-Roman-20"/>
      <use x="416.27734375" xlink:href="#BitstreamVeraSans-Roman-58"/>
     </g>
    </g>
    <g id="line2d_31">
     <path d="M 89.28 83.19825 
L 109.44 83.19825 
" style="fill:none;stroke:#ffa500;stroke-linecap:square;"/>
    </g>
    <g id="line2d_32"/>
    <g id="text_19">
     <!-- Actual X -->
     <defs>
      <path d="M 9.421875 75.984375 
L 18.40625 75.984375 
L 18.40625 0 
L 9.421875 0 
z
" id="BitstreamVeraSans-Roman-6c"/>
      <path d="M 8.5 21.578125 
L 8.5 54.6875 
L 17.484375 54.6875 
L 17.484375 21.921875 
Q 17.484375 14.15625 20.5 10.265625 
Q 23.53125 6.390625 29.59375 6.390625 
Q 36.859375 6.390625 41.078125 11.03125 
Q 45.3125 15.671875 45.3125 23.6875 
L 45.3125 54.6875 
L 54.296875 54.6875 
L 54.296875 0 
L 45.3125 0 
L 45.3125 8.40625 
Q 42.046875 3.421875 37.71875 1 
Q 33.40625 -1.421875 27.6875 -1.421875 
Q 18.265625 -1.421875 13.375 4.4375 
Q 8.5 10.296875 8.5 21.578125 
" id="BitstreamVeraSans-Roman-75"/>
      <path d="M 34.28125 27.484375 
Q 23.390625 27.484375 19.1875 25 
Q 14.984375 22.515625 14.984375 16.5 
Q 14.984375 11.71875 18.140625 8.90625 
Q 21.296875 6.109375 26.703125 6.109375 
Q 34.1875 6.109375 38.703125 11.40625 
Q 43.21875 16.703125 43.21875 25.484375 
L 43.21875 27.484375 
z
M 52.203125 31.203125 
L 52.203125 0 
L 43.21875 0 
L 43.21875 8.296875 
Q 40.140625 3.328125 35.546875 0.953125 
Q 30.953125 -1.421875 24.3125 -1.421875 
Q 15.921875 -1.421875 10.953125 3.296875 
Q 6 8.015625 6 15.921875 
Q 6 25.140625 12.171875 29.828125 
Q 18.359375 34.515625 30.609375 34.515625 
L 43.21875 34.515625 
L 43.21875 35.40625 
Q 43.21875 41.609375 39.140625 45 
Q 35.0625 48.390625 27.6875 48.390625 
Q 23 48.390625 18.546875 47.265625 
Q 14.109375 46.140625 10.015625 43.890625 
L 10.015625 52.203125 
Q 14.9375 54.109375 19.578125 55.046875 
Q 24.21875 56 28.609375 56 
Q 40.484375 56 46.34375 49.84375 
Q 52.203125 43.703125 52.203125 31.203125 
" id="BitstreamVeraSans-Roman-61"/>
      <path d="M 48.78125 52.59375 
L 48.78125 44.1875 
Q 44.96875 46.296875 41.140625 47.34375 
Q 37.3125 48.390625 33.40625 48.390625 
Q 24.65625 48.390625 19.8125 42.84375 
Q 14.984375 37.3125 14.984375 27.296875 
Q 14.984375 17.28125 19.8125 11.734375 
Q 24.65625 6.203125 33.40625 6.203125 
Q 37.3125 6.203125 41.140625 7.25 
Q 44.96875 8.296875 48.78125 10.40625 
L 48.78125 2.09375 
Q 45.015625 0.34375 40.984375 -0.53125 
Q 36.96875 -1.421875 32.421875 -1.421875 
Q 20.0625 -1.421875 12.78125 6.34375 
Q 5.515625 14.109375 5.515625 27.296875 
Q 5.515625 40.671875 12.859375 48.328125 
Q 20.21875 56 33.015625 56 
Q 37.15625 56 41.109375 55.140625 
Q 45.0625 54.296875 48.78125 52.59375 
" id="BitstreamVeraSans-Roman-63"/>
      <path d="M 34.1875 63.1875 
L 20.796875 26.90625 
L 47.609375 26.90625 
z
M 28.609375 72.90625 
L 39.796875 72.90625 
L 67.578125 0 
L 57.328125 0 
L 50.6875 18.703125 
L 17.828125 18.703125 
L 11.1875 0 
L 0.78125 0 
z
" id="BitstreamVeraSans-Roman-41"/>
     </defs>
     <g transform="translate(125.28 88.23824999999994)scale(0.144 -0.144)">
      <use xlink:href="#BitstreamVeraSans-Roman-41"/>
      <use x="68.392578125" xlink:href="#BitstreamVeraSans-Roman-63"/>
      <use x="123.373046875" xlink:href="#BitstreamVeraSans-Roman-74"/>
      <use x="162.58203125" xlink:href="#BitstreamVeraSans-Roman-75"/>
      <use x="225.9609375" xlink:href="#BitstreamVeraSans-Roman-61"/>
      <use x="287.240234375" xlink:href="#BitstreamVeraSans-Roman-6c"/>
      <use x="315.0234375" xlink:href="#BitstreamVeraSans-Roman-20"/>
      <use x="346.810546875" xlink:href="#BitstreamVeraSans-Roman-58"/>
     </g>
    </g>
   </g>
  </g>
 </g>
 <defs>
  <clipPath id="p31d203fb98">
   <rect height="345.6" width="446.4" x="72.0" y="43.19999999999999"/>
  </clipPath>
 </defs>
</svg>
