<?xml version="1.0" encoding="utf-8" standalone="no"?>
<!DOCTYPE svg PUBLIC "-//W3C//DTD SVG 1.1//EN"
  "http://www.w3.org/Graphics/SVG/1.1/DTD/svg11.dtd">
<!-- Created with matplotlib (http://matplotlib.org/) -->
<svg height="432pt" version="1.1" viewBox="0 0 576 432" width="576pt" xmlns="http://www.w3.org/2000/svg" xmlns:xlink="http://www.w3.org/1999/xlink">
 <defs>
  <style type="text/css">
*{stroke-linecap:butt;stroke-linejoin:round;stroke-miterlimit:100000;}
  </style>
 </defs>
 <g id="figure_1">
  <g id="patch_1">
   <path d="M 0 432 
L 576 432 
L 576 0 
L 0 0 
z
" style="fill:#ffffff;"/>
  </g>
  <g id="axes_1">
   <g id="patch_2">
    <path d="M 72 388.8 
L 518.4 388.8 
L 518.4 43.2 
L 72 43.2 
z
" style="fill:#ffffff;"/>
   </g>
   <g id="line2d_1">
    <path clip-path="url(#p931ecf330b)" d="M 145.851427 341.28 
L 149.039999 341.28 
L 149.039999 341.28 
L 149.039999 341.28 
L 152.22857 341.28 
L 152.22857 341.28 
L 152.22857 341.28 
L 155.417142 341.28 
L 155.417142 341.28 
L 155.417142 341.28 
L 158.605713 341.28 
L 158.605713 341.28 
L 158.605713 341.28 
L 161.794285 341.28 
L 161.794285 341.28 
L 161.794285 341.28 
L 164.982856 341.28 
L 164.982856 341.28 
L 164.982856 341.28 
L 168.171428 341.28 
L 168.171428 341.28 
L 168.171428 341.28 
L 171.359999 341.28 
L 171.359999 341.28 
L 171.359999 341.28 
L 174.54857 341.28 
L 174.54857 341.28 
L 174.54857 341.28 
L 177.737142 341.28 
L 177.737142 341.28 
L 177.737142 341.28 
L 180.925713 341.28 
L 180.925713 341.28 
L 180.925713 341.28 
L 184.114285 341.28 
L 184.114285 341.28 
L 184.114285 341.28 
L 187.302855 341.28 
L 187.302855 341.28 
L 187.302855 341.28 
L 190.491427 341.28 
L 190.491427 341.28 
L 190.491427 341.28 
L 193.679998 341.28 
L 193.679998 341.28 
L 193.679998 341.28 
L 196.86857 341.28 
L 196.86857 341.28 
L 196.86857 341.28 
L 200.057141 341.28 
L 200.057141 341.28 
L 200.057141 341.28 
L 203.245713 341.28 
L 203.245713 341.28 
L 203.245713 341.28 
L 206.434284 341.28 
L 206.434284 341.28 
L 206.434284 341.28 
L 206.434284 305.024865 
L 206.434284 279.286486 
L 209.622856 279.00973 
L 209.622856 251.610811 
L 212.811427 251.334054 
L 212.811427 223.935135 
L 215.999999 223.658378 
L 215.999999 196.259459 
L 219.18857 195.982703 
L 219.18857 168.583784 
L 222.377142 168.307027 
L 222.377142 140.908108 
L 225.565713 140.631351 
L 225.565713 113.232432 
L 228.754285 112.955676 
L 228.754285 85.556757 
L 231.942856 85.28 
L 231.942856 64.8 
L 231.942856 71.442162 
L 235.131427 71.718919 
L 235.131427 99.117838 
L 238.319999 99.394595 
L 238.319999 126.793514 
L 241.50857 127.07027 
L 241.50857 154.469189 
L 244.697142 154.745946 
L 244.697142 182.144865 
L 247.885713 182.421622 
L 247.885713 209.820541 
L 251.074285 210.097297 
L 251.074285 237.496216 
L 254.262856 237.772973 
L 254.262856 265.171892 
L 257.451427 265.448649 
L 257.451427 292.847568 
L 260.639998 293.124324 
L 260.639998 320.523243 
L 263.82857 320.8 
L 263.82857 341.28 
L 263.82857 334.637838 
L 267.017141 334.361081 
L 267.017141 306.962162 
L 270.205713 306.685405 
L 270.205713 279.286486 
L 273.394284 279.00973 
L 273.394284 251.610811 
L 276.582856 251.334054 
L 276.582856 223.935135 
L 279.771427 223.658378 
L 279.771427 196.259459 
L 282.959999 195.982703 
L 282.959999 168.583784 
L 286.14857 168.307027 
L 286.14857 140.908108 
L 289.337142 140.631351 
L 289.337142 113.232432 
L 292.525713 112.955676 
L 292.525713 85.556757 
L 295.714285 85.28 
L 295.714285 64.8 
L 295.714285 71.442162 
L 298.902856 71.718919 
L 298.902856 99.117838 
L 302.091427 99.394595 
L 302.091427 126.793514 
L 305.279999 127.07027 
L 305.279999 154.469189 
L 308.46857 154.745946 
L 308.46857 182.144865 
L 311.657142 182.421622 
L 311.657142 209.820541 
L 314.845713 210.097297 
L 314.845713 237.496216 
L 318.034285 237.772973 
L 318.034285 265.171892 
L 321.222856 265.448649 
L 321.222856 292.847568 
L 324.411427 293.124324 
L 324.411427 320.523243 
L 327.599998 320.8 
L 327.599998 341.28 
L 327.599998 334.637838 
L 330.78857 334.361081 
L 330.78857 306.962162 
L 333.977141 306.685405 
L 333.977141 278.060424 
L 333.977141 292.6916 
L 337.165713 293.021905 
L 337.165713 320.832287 
L 340.354284 321.059129 
L 340.354284 337.4312 
L 343.542856 337.632176 
L 343.542856 341.279957 
L 343.542856 340.861911 
L 346.731427 340.754481 
L 346.731427 330.788262 
L 349.919999 330.621588 
L 349.919999 308.197312 
L 353.10857 307.914744 
L 353.10857 275.302616 
L 356.297142 274.931841 
L 356.297142 235.327331 
L 359.485713 234.904679 
L 359.485713 192.621623 
L 362.674284 192.1884 
L 362.674284 150.514418 
L 365.862856 150.112754 
L 365.862856 113.553885 
L 369.051427 113.223137 
L 369.051427 85.361571 
L 372.239999 85.134146 
L 372.239999 68.699874 
L 375.42857 68.497569 
L 375.42857 64.800043 
L 375.42857 65.201376 
L 378.617142 65.344615 
L 378.617142 75.208874 
L 381.805713 75.374918 
L 381.805713 97.741793 
L 384.994285 98.023842 
L 384.994285 130.592264 
L 388.182856 130.962683 
L 388.182856 170.541462 
L 391.371428 170.963956 
L 391.371428 213.675002 
L 394.559999 214.108172 
L 394.559999 255.76648 
L 397.74857 256.167883 
L 397.74857 292.6916 
L 400.937141 293.021905 
L 400.937141 320.832287 
L 404.125713 321.059129 
L 404.125713 337.4312 
L 407.314284 337.632176 
L 407.314284 341.279957 
L 407.314284 340.861911 
L 410.502856 340.754481 
L 410.502856 330.788262 
L 413.691427 330.621588 
L 413.691427 308.197312 
L 416.879999 307.914744 
L 416.879999 275.302616 
L 420.06857 274.931841 
L 420.06857 235.327331 
L 423.257141 234.904679 
L 423.257141 192.621623 
L 426.445713 192.1884 
L 426.445713 150.514418 
L 429.634284 150.112754 
L 429.634284 113.553885 
L 432.822856 113.223137 
L 432.822856 85.361571 
L 436.011427 85.134146 
L 436.011427 68.699874 
L 439.199999 68.497569 
L 439.199999 64.800043 
L 439.199999 65.201376 
L 442.38857 65.344615 
L 442.38857 75.208874 
L 445.577142 75.374918 
L 445.577142 97.741793 
L 448.765713 98.023842 
L 448.765713 130.592264 
L 451.954285 130.962683 
L 451.954285 170.541462 
L 455.142856 170.963956 
L 455.142856 213.675002 
L 458.331428 214.108172 
L 458.331428 255.76648 
L 461.519999 256.167883 
L 461.519999 292.6916 
L 464.70857 293.021905 
L 464.70857 320.832287 
L 467.897141 321.059129 
L 467.897141 337.4312 
L 471.085713 337.632176 
L 471.085713 341.279957 
L 471.085713 340.861911 
L 474.274284 340.754481 
L 474.274284 330.788262 
L 477.462856 330.621588 
L 477.462856 308.197312 
L 480.651427 307.914744 
L 480.651427 275.302616 
L 483.839998 274.931841 
L 483.839998 235.327331 
L 487.02857 234.904679 
L 487.02857 192.621623 
L 490.217141 192.1884 
L 490.217141 184.843498 
L 490.217141 184.843498 
" style="fill:none;stroke:#0000ff;stroke-linecap:square;"/>
   </g>
   <g id="line2d_2">
    <path clip-path="url(#p931ecf330b)" d="M 145.851427 343.183265 
L 145.851427 343.182861 
L 145.851427 343.182861 
L 145.851427 343.182861 
L 145.851427 343.188937 
L 145.851427 343.183343 
L 145.851427 343.183343 
L 145.851427 343.182396 
L 145.851427 343.182396 
L 145.851427 343.182396 
L 145.851427 343.189579 
L 145.851427 343.183186 
L 145.851427 343.183186 
L 145.851427 343.180322 
L 145.851427 343.180322 
L 145.851427 343.180322 
L 145.851427 343.189216 
L 145.851427 343.180974 
L 145.851427 343.180974 
L 145.851427 343.179303 
L 145.851427 343.179303 
L 145.851427 343.179303 
L 145.851427 343.182852 
L 145.851427 343.182852 
L 145.851427 343.182852 
L 145.851427 343.174233 
L 145.851427 343.174233 
L 145.851427 343.174233 
L 145.851427 343.189787 
L 145.851427 343.179796 
L 200.057141 343.147725 
L 200.057141 343.286554 
L 200.057141 343.673191 
L 200.057141 343.391822 
L 203.245713 343.269841 
L 203.245713 314.626548 
L 206.434284 314.458688 
L 206.434284 283.662714 
L 209.622856 283.513854 
L 209.622856 271.720584 
L 212.811427 271.590471 
L 212.811427 262.511848 
L 212.811427 262.52428 
L 215.999999 262.479345 
L 215.999999 262.588927 
L 215.999999 274.050161 
L 219.18857 274.213328 
L 219.18857 290.972444 
L 222.377142 291.092345 
L 222.377142 302.055312 
L 222.377142 296.768055 
L 225.565713 296.632854 
L 225.565713 236.746669 
L 228.754285 236.524497 
L 228.754285 180.151394 
L 231.942856 179.973579 
L 231.942856 132.326488 
L 235.131427 132.158204 
L 235.131427 112.815168 
L 238.319999 112.711701 
L 238.319999 111.007295 
L 238.319999 112.198921 
L 241.50857 112.318671 
L 241.50857 134.271994 
L 244.697142 134.373704 
L 244.697142 165.295798 
L 247.885713 165.484877 
L 247.885713 194.306935 
L 251.074285 194.427858 
L 251.074285 195.059985 
L 251.074285 194.435015 
L 251.074285 194.435015 
L 251.074285 192.387664 
L 251.074285 193.718379 
L 254.262856 193.851641 
L 254.262856 223.656307 
L 257.451427 223.767599 
L 257.451427 239.539402 
L 260.639998 239.696715 
L 260.639998 267.27664 
L 263.82857 267.467307 
L 263.82857 303.032725 
L 267.017141 303.263437 
L 267.017141 313.82679 
L 267.017141 310.213981 
L 270.205713 310.090492 
L 270.205713 289.958493 
L 273.394284 289.817833 
L 273.394284 271.195816 
L 276.582856 271.070158 
L 276.582856 252.585572 
L 279.771427 252.443899 
L 279.771427 230.642512 
L 282.959999 230.492622 
L 282.959999 208.413033 
L 286.14857 208.253696 
L 286.14857 175.668819 
L 289.337142 175.555262 
L 289.337142 143.892067 
L 292.525713 143.720541 
L 292.525713 123.938462 
L 295.714285 123.829411 
L 295.714285 104.373488 
L 298.902856 104.248063 
L 298.902856 98.657411 
L 298.902856 99.944949 
L 302.091427 100.055067 
L 302.091427 100.047698 
L 302.091427 103.518453 
L 305.279999 103.626663 
L 305.279999 114.802857 
L 308.46857 114.927819 
L 308.46857 127.756212 
L 311.657142 127.882349 
L 311.657142 149.76162 
L 314.845713 149.886524 
L 314.845713 204.353884 
L 318.034285 204.540514 
L 318.034285 249.082763 
L 321.222856 249.207556 
L 321.222856 273.352299 
L 324.411427 273.516001 
L 324.411427 292.22398 
L 327.599998 292.378407 
L 327.599998 309.752293 
L 330.78857 309.877495 
L 330.78857 311.519557 
L 330.78857 309.920024 
L 330.78857 309.920024 
L 330.78857 300.340378 
L 333.977141 300.196496 
L 333.977141 286.256181 
L 333.977141 286.257259 
L 337.165713 286.365088 
L 337.165713 286.364956 
L 337.165713 296.170468 
L 340.354284 296.301915 
L 340.354284 304.423258 
L 343.542856 304.55928 
L 343.542856 320.539412 
L 346.731427 320.678909 
L 346.731427 329.540594 
L 346.731427 329.532092 
L 349.919999 329.500612 
L 349.919999 329.627667 
L 349.919999 332.02224 
L 349.919999 331.660256 
L 353.10857 331.545124 
L 353.10857 331.530565 
L 353.10857 331.530565 
L 353.10857 331.530565 
L 353.10857 331.550174 
L 353.10857 331.550174 
L 353.10857 331.550174 
L 353.10857 322.460912 
L 356.297142 322.353149 
L 356.297142 287.298038 
L 359.485713 287.145669 
L 359.485713 242.475181 
L 362.674284 242.271022 
L 362.674284 221.256356 
L 365.862856 221.116424 
L 365.862856 191.067172 
L 369.051427 190.938616 
L 369.051427 148.953091 
L 372.239999 148.820854 
L 372.239999 114.327724 
L 375.42857 114.222109 
L 375.42857 84.570527 
L 378.617142 84.408856 
L 378.617142 72.61516 
L 378.617142 72.628221 
L 381.805713 72.740426 
L 381.805713 79.021244 
L 384.994285 79.178644 
L 384.994285 97.486856 
L 388.182856 97.588226 
L 388.182856 111.984444 
L 391.371428 112.123276 
L 391.371428 132.069919 
L 394.559999 132.179029 
L 394.559999 186.288913 
L 397.74857 186.491916 
L 397.74857 247.388815 
L 400.937141 247.560902 
L 400.937141 290.496554 
L 404.125713 290.616838 
L 404.125713 313.455252 
L 407.314284 313.588581 
L 407.314284 325.870467 
L 410.502856 325.99729 
L 410.502856 331.139245 
L 410.502856 328.895029 
L 413.691427 328.768506 
L 413.691427 309.384487 
L 416.879999 309.208558 
L 416.879999 275.529687 
L 420.06857 275.323158 
L 420.06857 252.245933 
L 423.257141 252.110299 
L 423.257141 231.462112 
L 426.445713 231.369078 
L 426.445713 208.611351 
L 426.445713 208.614261 
L 429.634284 208.492601 
L 429.634284 192.650953 
L 432.822856 192.494542 
L 432.822856 172.391402 
L 436.011427 172.247954 
L 436.011427 157.332339 
L 439.199999 157.179447 
L 439.199999 132.694919 
L 442.38857 132.581899 
L 442.38857 103.702109 
L 445.577142 103.605059 
L 445.577142 101.88283 
L 445.577142 102.843741 
L 448.765713 102.841937 
L 448.765713 102.946675 
L 448.765713 116.082055 
L 451.954285 116.266953 
L 451.954285 153.317707 
L 455.142856 153.461134 
L 455.142856 198.294342 
L 458.331428 198.46531 
L 458.331428 249.830345 
L 461.519999 250.0036 
L 461.519999 302.518913 
L 464.70857 302.718932 
L 464.70857 351.744887 
L 467.897141 351.882288 
L 467.897141 361.474741 
L 467.897141 358.23062 
L 471.085713 358.111918 
L 471.085713 349.968067 
L 474.274284 349.865434 
L 474.274284 349.090598 
L 474.274284 349.560819 
L 490.217141 349.54938 
L 490.217141 349.553911 
" style="fill:none;stroke:#ffa500;stroke-linecap:square;"/>
   </g>
   <g id="patch_3">
    <path d="M 71.999999 43.2 
L 518.4 43.2 
" style="fill:none;stroke:#000000;stroke-linecap:square;stroke-linejoin:miter;"/>
   </g>
   <g id="patch_4">
    <path d="M 518.4 388.8 
L 518.4 43.2 
" style="fill:none;stroke:#000000;stroke-linecap:square;stroke-linejoin:miter;"/>
   </g>
   <g id="patch_5">
    <path d="M 71.999999 388.8 
L 518.4 388.8 
" style="fill:none;stroke:#000000;stroke-linecap:square;stroke-linejoin:miter;"/>
   </g>
   <g id="patch_6">
    <path d="M 72 388.8 
L 72 43.2 
" style="fill:none;stroke:#000000;stroke-linecap:square;stroke-linejoin:miter;"/>
   </g>
   <g id="matplotlib.axis_1">
    <g id="xtick_1">
     <g id="line2d_3">
      <defs>
       <path d="M 0 0 
L 0 -4 
" id="m44b0a37ac4" style="stroke:#000000;stroke-width:0.5;"/>
      </defs>
      <g>
       <use style="stroke:#000000;stroke-width:0.5;" x="104.39999866485596" xlink:href="#m44b0a37ac4" y="388.8"/>
      </g>
     </g>
     <g id="line2d_4">
      <defs>
       <path d="M 0 0 
L 0 4 
" id="me014e8be23" style="stroke:#000000;stroke-width:0.5;"/>
      </defs>
      <g>
       <use style="stroke:#000000;stroke-width:0.5;" x="104.39999866485596" xlink:href="#me014e8be23" y="43.19999999999999"/>
      </g>
     </g>
     <g id="text_1">
      <!-- 100 -->
      <defs>
       <path d="M 31.78125 66.40625 
Q 24.171875 66.40625 20.328125 58.90625 
Q 16.5 51.421875 16.5 36.375 
Q 16.5 21.390625 20.328125 13.890625 
Q 24.171875 6.390625 31.78125 6.390625 
Q 39.453125 6.390625 43.28125 13.890625 
Q 47.125 21.390625 47.125 36.375 
Q 47.125 51.421875 43.28125 58.90625 
Q 39.453125 66.40625 31.78125 66.40625 
M 31.78125 74.21875 
Q 44.046875 74.21875 50.515625 64.515625 
Q 56.984375 54.828125 56.984375 36.375 
Q 56.984375 17.96875 50.515625 8.265625 
Q 44.046875 -1.421875 31.78125 -1.421875 
Q 19.53125 -1.421875 13.0625 8.265625 
Q 6.59375 17.96875 6.59375 36.375 
Q 6.59375 54.828125 13.0625 64.515625 
Q 19.53125 74.21875 31.78125 74.21875 
" id="BitstreamVeraSans-Roman-30"/>
       <path d="M 12.40625 8.296875 
L 28.515625 8.296875 
L 28.515625 63.921875 
L 10.984375 60.40625 
L 10.984375 69.390625 
L 28.421875 72.90625 
L 38.28125 72.90625 
L 38.28125 8.296875 
L 54.390625 8.296875 
L 54.390625 0 
L 12.40625 0 
z
" id="BitstreamVeraSans-Roman-31"/>
      </defs>
      <g transform="translate(92.94749866485596 401.91812500000003)scale(0.12 -0.12)">
       <use xlink:href="#BitstreamVeraSans-Roman-31"/>
       <use x="63.623046875" xlink:href="#BitstreamVeraSans-Roman-30"/>
       <use x="127.24609375" xlink:href="#BitstreamVeraSans-Roman-30"/>
      </g>
     </g>
    </g>
    <g id="xtick_2">
     <g id="line2d_5">
      <g>
       <use style="stroke:#000000;stroke-width:0.5;" x="168.1714277267456" xlink:href="#m44b0a37ac4" y="388.8"/>
      </g>
     </g>
     <g id="line2d_6">
      <g>
       <use style="stroke:#000000;stroke-width:0.5;" x="168.1714277267456" xlink:href="#me014e8be23" y="43.19999999999999"/>
      </g>
     </g>
     <g id="text_2">
      <!-- 120 -->
      <defs>
       <path d="M 19.1875 8.296875 
L 53.609375 8.296875 
L 53.609375 0 
L 7.328125 0 
L 7.328125 8.296875 
Q 12.9375 14.109375 22.625 23.890625 
Q 32.328125 33.6875 34.8125 36.53125 
Q 39.546875 41.84375 41.421875 45.53125 
Q 43.3125 49.21875 43.3125 52.78125 
Q 43.3125 58.59375 39.234375 62.25 
Q 35.15625 65.921875 28.609375 65.921875 
Q 23.96875 65.921875 18.8125 64.3125 
Q 13.671875 62.703125 7.8125 59.421875 
L 7.8125 69.390625 
Q 13.765625 71.78125 18.9375 73 
Q 24.125 74.21875 28.421875 74.21875 
Q 39.75 74.21875 46.484375 68.546875 
Q 53.21875 62.890625 53.21875 53.421875 
Q 53.21875 48.921875 51.53125 44.890625 
Q 49.859375 40.875 45.40625 35.40625 
Q 44.1875 33.984375 37.640625 27.21875 
Q 31.109375 20.453125 19.1875 8.296875 
" id="BitstreamVeraSans-Roman-32"/>
      </defs>
      <g transform="translate(156.71892772674562 401.91812500000003)scale(0.12 -0.12)">
       <use xlink:href="#BitstreamVeraSans-Roman-31"/>
       <use x="63.623046875" xlink:href="#BitstreamVeraSans-Roman-32"/>
       <use x="127.24609375" xlink:href="#BitstreamVeraSans-Roman-30"/>
      </g>
     </g>
    </g>
    <g id="xtick_3">
     <g id="line2d_7">
      <g>
       <use style="stroke:#000000;stroke-width:0.5;" x="231.94285583496094" xlink:href="#m44b0a37ac4" y="388.8"/>
      </g>
     </g>
     <g id="line2d_8">
      <g>
       <use style="stroke:#000000;stroke-width:0.5;" x="231.94285583496094" xlink:href="#me014e8be23" y="43.19999999999999"/>
      </g>
     </g>
     <g id="text_3">
      <!-- 140 -->
      <defs>
       <path d="M 37.796875 64.3125 
L 12.890625 25.390625 
L 37.796875 25.390625 
z
M 35.203125 72.90625 
L 47.609375 72.90625 
L 47.609375 25.390625 
L 58.015625 25.390625 
L 58.015625 17.1875 
L 47.609375 17.1875 
L 47.609375 0 
L 37.796875 0 
L 37.796875 17.1875 
L 4.890625 17.1875 
L 4.890625 26.703125 
z
" id="BitstreamVeraSans-Roman-34"/>
      </defs>
      <g transform="translate(220.49035583496095 401.91812500000003)scale(0.12 -0.12)">
       <use xlink:href="#BitstreamVeraSans-Roman-31"/>
       <use x="63.623046875" xlink:href="#BitstreamVeraSans-Roman-34"/>
       <use x="127.24609375" xlink:href="#BitstreamVeraSans-Roman-30"/>
      </g>
     </g>
    </g>
    <g id="xtick_4">
     <g id="line2d_9">
      <g>
       <use style="stroke:#000000;stroke-width:0.5;" x="295.7142848968506" xlink:href="#m44b0a37ac4" y="388.8"/>
      </g>
     </g>
     <g id="line2d_10">
      <g>
       <use style="stroke:#000000;stroke-width:0.5;" x="295.7142848968506" xlink:href="#me014e8be23" y="43.19999999999999"/>
      </g>
     </g>
     <g id="text_4">
      <!-- 160 -->
      <defs>
       <path d="M 33.015625 40.375 
Q 26.375 40.375 22.484375 35.828125 
Q 18.609375 31.296875 18.609375 23.390625 
Q 18.609375 15.53125 22.484375 10.953125 
Q 26.375 6.390625 33.015625 6.390625 
Q 39.65625 6.390625 43.53125 10.953125 
Q 47.40625 15.53125 47.40625 23.390625 
Q 47.40625 31.296875 43.53125 35.828125 
Q 39.65625 40.375 33.015625 40.375 
M 52.59375 71.296875 
L 52.59375 62.3125 
Q 48.875 64.0625 45.09375 64.984375 
Q 41.3125 65.921875 37.59375 65.921875 
Q 27.828125 65.921875 22.671875 59.328125 
Q 17.53125 52.734375 16.796875 39.40625 
Q 19.671875 43.65625 24.015625 45.921875 
Q 28.375 48.1875 33.59375 48.1875 
Q 44.578125 48.1875 50.953125 41.515625 
Q 57.328125 34.859375 57.328125 23.390625 
Q 57.328125 12.15625 50.6875 5.359375 
Q 44.046875 -1.421875 33.015625 -1.421875 
Q 20.359375 -1.421875 13.671875 8.265625 
Q 6.984375 17.96875 6.984375 36.375 
Q 6.984375 53.65625 15.1875 63.9375 
Q 23.390625 74.21875 37.203125 74.21875 
Q 40.921875 74.21875 44.703125 73.484375 
Q 48.484375 72.75 52.59375 71.296875 
" id="BitstreamVeraSans-Roman-36"/>
      </defs>
      <g transform="translate(284.2617848968506 401.91812500000003)scale(0.12 -0.12)">
       <use xlink:href="#BitstreamVeraSans-Roman-31"/>
       <use x="63.623046875" xlink:href="#BitstreamVeraSans-Roman-36"/>
       <use x="127.24609375" xlink:href="#BitstreamVeraSans-Roman-30"/>
      </g>
     </g>
    </g>
    <g id="xtick_5">
     <g id="line2d_11">
      <g>
       <use style="stroke:#000000;stroke-width:0.5;" x="359.4857130050659" xlink:href="#m44b0a37ac4" y="388.8"/>
      </g>
     </g>
     <g id="line2d_12">
      <g>
       <use style="stroke:#000000;stroke-width:0.5;" x="359.4857130050659" xlink:href="#me014e8be23" y="43.19999999999999"/>
      </g>
     </g>
     <g id="text_5">
      <!-- 180 -->
      <defs>
       <path d="M 31.78125 34.625 
Q 24.75 34.625 20.71875 30.859375 
Q 16.703125 27.09375 16.703125 20.515625 
Q 16.703125 13.921875 20.71875 10.15625 
Q 24.75 6.390625 31.78125 6.390625 
Q 38.8125 6.390625 42.859375 10.171875 
Q 46.921875 13.96875 46.921875 20.515625 
Q 46.921875 27.09375 42.890625 30.859375 
Q 38.875 34.625 31.78125 34.625 
M 21.921875 38.8125 
Q 15.578125 40.375 12.03125 44.71875 
Q 8.5 49.078125 8.5 55.328125 
Q 8.5 64.0625 14.71875 69.140625 
Q 20.953125 74.21875 31.78125 74.21875 
Q 42.671875 74.21875 48.875 69.140625 
Q 55.078125 64.0625 55.078125 55.328125 
Q 55.078125 49.078125 51.53125 44.71875 
Q 48 40.375 41.703125 38.8125 
Q 48.828125 37.15625 52.796875 32.3125 
Q 56.78125 27.484375 56.78125 20.515625 
Q 56.78125 9.90625 50.3125 4.234375 
Q 43.84375 -1.421875 31.78125 -1.421875 
Q 19.734375 -1.421875 13.25 4.234375 
Q 6.78125 9.90625 6.78125 20.515625 
Q 6.78125 27.484375 10.78125 32.3125 
Q 14.796875 37.15625 21.921875 38.8125 
M 18.3125 54.390625 
Q 18.3125 48.734375 21.84375 45.5625 
Q 25.390625 42.390625 31.78125 42.390625 
Q 38.140625 42.390625 41.71875 45.5625 
Q 45.3125 48.734375 45.3125 54.390625 
Q 45.3125 60.0625 41.71875 63.234375 
Q 38.140625 66.40625 31.78125 66.40625 
Q 25.390625 66.40625 21.84375 63.234375 
Q 18.3125 60.0625 18.3125 54.390625 
" id="BitstreamVeraSans-Roman-38"/>
      </defs>
      <g transform="translate(348.03321300506593 401.91812500000003)scale(0.12 -0.12)">
       <use xlink:href="#BitstreamVeraSans-Roman-31"/>
       <use x="63.623046875" xlink:href="#BitstreamVeraSans-Roman-38"/>
       <use x="127.24609375" xlink:href="#BitstreamVeraSans-Roman-30"/>
      </g>
     </g>
    </g>
    <g id="xtick_6">
     <g id="line2d_13">
      <g>
       <use style="stroke:#000000;stroke-width:0.5;" x="423.25714111328125" xlink:href="#m44b0a37ac4" y="388.8"/>
      </g>
     </g>
     <g id="line2d_14">
      <g>
       <use style="stroke:#000000;stroke-width:0.5;" x="423.25714111328125" xlink:href="#me014e8be23" y="43.19999999999999"/>
      </g>
     </g>
     <g id="text_6">
      <!-- 200 -->
      <g transform="translate(411.80464111328126 401.91812500000003)scale(0.12 -0.12)">
       <use xlink:href="#BitstreamVeraSans-Roman-32"/>
       <use x="63.623046875" xlink:href="#BitstreamVeraSans-Roman-30"/>
       <use x="127.24609375" xlink:href="#BitstreamVeraSans-Roman-30"/>
      </g>
     </g>
    </g>
    <g id="xtick_7">
     <g id="line2d_15">
      <g>
       <use style="stroke:#000000;stroke-width:0.5;" x="487.0285701751709" xlink:href="#m44b0a37ac4" y="388.8"/>
      </g>
     </g>
     <g id="line2d_16">
      <g>
       <use style="stroke:#000000;stroke-width:0.5;" x="487.0285701751709" xlink:href="#me014e8be23" y="43.19999999999999"/>
      </g>
     </g>
     <g id="text_7">
      <!-- 220 -->
      <g transform="translate(475.5760701751709 401.91812500000003)scale(0.12 -0.12)">
       <use xlink:href="#BitstreamVeraSans-Roman-32"/>
       <use x="63.623046875" xlink:href="#BitstreamVeraSans-Roman-32"/>
       <use x="127.24609375" xlink:href="#BitstreamVeraSans-Roman-30"/>
      </g>
     </g>
    </g>
    <g id="text_8">
     <!-- Time -->
     <defs>
      <path d="M 56.203125 29.59375 
L 56.203125 25.203125 
L 14.890625 25.203125 
Q 15.484375 15.921875 20.484375 11.0625 
Q 25.484375 6.203125 34.421875 6.203125 
Q 39.59375 6.203125 44.453125 7.46875 
Q 49.3125 8.734375 54.109375 11.28125 
L 54.109375 2.78125 
Q 49.265625 0.734375 44.1875 -0.34375 
Q 39.109375 -1.421875 33.890625 -1.421875 
Q 20.796875 -1.421875 13.15625 6.1875 
Q 5.515625 13.8125 5.515625 26.8125 
Q 5.515625 40.234375 12.765625 48.109375 
Q 20.015625 56 32.328125 56 
Q 43.359375 56 49.78125 48.890625 
Q 56.203125 41.796875 56.203125 29.59375 
M 47.21875 32.234375 
Q 47.125 39.59375 43.09375 43.984375 
Q 39.0625 48.390625 32.421875 48.390625 
Q 24.90625 48.390625 20.390625 44.140625 
Q 15.875 39.890625 15.1875 32.171875 
z
" id="BitstreamVeraSans-Roman-65"/>
      <path d="M 9.421875 54.6875 
L 18.40625 54.6875 
L 18.40625 0 
L 9.421875 0 
z
M 9.421875 75.984375 
L 18.40625 75.984375 
L 18.40625 64.59375 
L 9.421875 64.59375 
z
" id="BitstreamVeraSans-Roman-69"/>
      <path d="M -0.296875 72.90625 
L 61.375 72.90625 
L 61.375 64.59375 
L 35.5 64.59375 
L 35.5 0 
L 25.59375 0 
L 25.59375 64.59375 
L -0.296875 64.59375 
z
" id="BitstreamVeraSans-Roman-54"/>
      <path d="M 52 44.1875 
Q 55.375 50.25 60.0625 53.125 
Q 64.75 56 71.09375 56 
Q 79.640625 56 84.28125 50.015625 
Q 88.921875 44.046875 88.921875 33.015625 
L 88.921875 0 
L 79.890625 0 
L 79.890625 32.71875 
Q 79.890625 40.578125 77.09375 44.375 
Q 74.3125 48.1875 68.609375 48.1875 
Q 61.625 48.1875 57.5625 43.546875 
Q 53.515625 38.921875 53.515625 30.90625 
L 53.515625 0 
L 44.484375 0 
L 44.484375 32.71875 
Q 44.484375 40.625 41.703125 44.40625 
Q 38.921875 48.1875 33.109375 48.1875 
Q 26.21875 48.1875 22.15625 43.53125 
Q 18.109375 38.875 18.109375 30.90625 
L 18.109375 0 
L 9.078125 0 
L 9.078125 54.6875 
L 18.109375 54.6875 
L 18.109375 46.1875 
Q 21.1875 51.21875 25.484375 53.609375 
Q 29.78125 56 35.6875 56 
Q 41.65625 56 45.828125 52.96875 
Q 50 49.953125 52 44.1875 
" id="BitstreamVeraSans-Roman-6d"/>
     </defs>
     <g transform="translate(280.335 418.531875)scale(0.12 -0.12)">
      <use xlink:href="#BitstreamVeraSans-Roman-54"/>
      <use x="61.037109375" xlink:href="#BitstreamVeraSans-Roman-69"/>
      <use x="88.8203125" xlink:href="#BitstreamVeraSans-Roman-6d"/>
      <use x="186.232421875" xlink:href="#BitstreamVeraSans-Roman-65"/>
     </g>
    </g>
    <g id="text_9">
     <!-- +1.5813507e9 -->
     <defs>
      <path d="M 40.578125 39.3125 
Q 47.65625 37.796875 51.625 33 
Q 55.609375 28.21875 55.609375 21.1875 
Q 55.609375 10.40625 48.1875 4.484375 
Q 40.765625 -1.421875 27.09375 -1.421875 
Q 22.515625 -1.421875 17.65625 -0.515625 
Q 12.796875 0.390625 7.625 2.203125 
L 7.625 11.71875 
Q 11.71875 9.328125 16.59375 8.109375 
Q 21.484375 6.890625 26.8125 6.890625 
Q 36.078125 6.890625 40.9375 10.546875 
Q 45.796875 14.203125 45.796875 21.1875 
Q 45.796875 27.640625 41.28125 31.265625 
Q 36.765625 34.90625 28.71875 34.90625 
L 20.21875 34.90625 
L 20.21875 43.015625 
L 29.109375 43.015625 
Q 36.375 43.015625 40.234375 45.921875 
Q 44.09375 48.828125 44.09375 54.296875 
Q 44.09375 59.90625 40.109375 62.90625 
Q 36.140625 65.921875 28.71875 65.921875 
Q 24.65625 65.921875 20.015625 65.03125 
Q 15.375 64.15625 9.8125 62.3125 
L 9.8125 71.09375 
Q 15.4375 72.65625 20.34375 73.4375 
Q 25.25 74.21875 29.59375 74.21875 
Q 40.828125 74.21875 47.359375 69.109375 
Q 53.90625 64.015625 53.90625 55.328125 
Q 53.90625 49.265625 50.4375 45.09375 
Q 46.96875 40.921875 40.578125 39.3125 
" id="BitstreamVeraSans-Roman-33"/>
      <path d="M 8.203125 72.90625 
L 55.078125 72.90625 
L 55.078125 68.703125 
L 28.609375 0 
L 18.3125 0 
L 43.21875 64.59375 
L 8.203125 64.59375 
z
" id="BitstreamVeraSans-Roman-37"/>
      <path d="M 10.796875 72.90625 
L 49.515625 72.90625 
L 49.515625 64.59375 
L 19.828125 64.59375 
L 19.828125 46.734375 
Q 21.96875 47.46875 24.109375 47.828125 
Q 26.265625 48.1875 28.421875 48.1875 
Q 40.625 48.1875 47.75 41.5 
Q 54.890625 34.8125 54.890625 23.390625 
Q 54.890625 11.625 47.5625 5.09375 
Q 40.234375 -1.421875 26.90625 -1.421875 
Q 22.3125 -1.421875 17.546875 -0.640625 
Q 12.796875 0.140625 7.71875 1.703125 
L 7.71875 11.625 
Q 12.109375 9.234375 16.796875 8.0625 
Q 21.484375 6.890625 26.703125 6.890625 
Q 35.15625 6.890625 40.078125 11.328125 
Q 45.015625 15.765625 45.015625 23.390625 
Q 45.015625 31 40.078125 35.4375 
Q 35.15625 39.890625 26.703125 39.890625 
Q 22.75 39.890625 18.8125 39.015625 
Q 14.890625 38.140625 10.796875 36.28125 
z
" id="BitstreamVeraSans-Roman-35"/>
      <path d="M 10.984375 1.515625 
L 10.984375 10.5 
Q 14.703125 8.734375 18.5 7.8125 
Q 22.3125 6.890625 25.984375 6.890625 
Q 35.75 6.890625 40.890625 13.453125 
Q 46.046875 20.015625 46.78125 33.40625 
Q 43.953125 29.203125 39.59375 26.953125 
Q 35.25 24.703125 29.984375 24.703125 
Q 19.046875 24.703125 12.671875 31.3125 
Q 6.296875 37.9375 6.296875 49.421875 
Q 6.296875 60.640625 12.9375 67.421875 
Q 19.578125 74.21875 30.609375 74.21875 
Q 43.265625 74.21875 49.921875 64.515625 
Q 56.59375 54.828125 56.59375 36.375 
Q 56.59375 19.140625 48.40625 8.859375 
Q 40.234375 -1.421875 26.421875 -1.421875 
Q 22.703125 -1.421875 18.890625 -0.6875 
Q 15.09375 0.046875 10.984375 1.515625 
M 30.609375 32.421875 
Q 37.25 32.421875 41.125 36.953125 
Q 45.015625 41.5 45.015625 49.421875 
Q 45.015625 57.28125 41.125 61.84375 
Q 37.25 66.40625 30.609375 66.40625 
Q 23.96875 66.40625 20.09375 61.84375 
Q 16.21875 57.28125 16.21875 49.421875 
Q 16.21875 41.5 20.09375 36.953125 
Q 23.96875 32.421875 30.609375 32.421875 
" id="BitstreamVeraSans-Roman-39"/>
      <path d="M 46 62.703125 
L 46 35.5 
L 73.1875 35.5 
L 73.1875 27.203125 
L 46 27.203125 
L 46 0 
L 37.796875 0 
L 37.796875 27.203125 
L 10.59375 27.203125 
L 10.59375 35.5 
L 37.796875 35.5 
L 37.796875 62.703125 
z
" id="BitstreamVeraSans-Roman-2b"/>
      <path d="M 10.6875 12.40625 
L 21 12.40625 
L 21 0 
L 10.6875 0 
z
" id="BitstreamVeraSans-Roman-2e"/>
     </defs>
     <g transform="translate(428.431875 416.531875)scale(0.12 -0.12)">
      <use xlink:href="#BitstreamVeraSans-Roman-2b"/>
      <use x="83.7890625" xlink:href="#BitstreamVeraSans-Roman-31"/>
      <use x="147.412109375" xlink:href="#BitstreamVeraSans-Roman-2e"/>
      <use x="179.19921875" xlink:href="#BitstreamVeraSans-Roman-35"/>
      <use x="242.822265625" xlink:href="#BitstreamVeraSans-Roman-38"/>
      <use x="306.4453125" xlink:href="#BitstreamVeraSans-Roman-31"/>
      <use x="370.068359375" xlink:href="#BitstreamVeraSans-Roman-33"/>
      <use x="433.69140625" xlink:href="#BitstreamVeraSans-Roman-35"/>
      <use x="497.314453125" xlink:href="#BitstreamVeraSans-Roman-30"/>
      <use x="560.9375" xlink:href="#BitstreamVeraSans-Roman-37"/>
      <use x="624.560546875" xlink:href="#BitstreamVeraSans-Roman-65"/>
      <use x="686.083984375" xlink:href="#BitstreamVeraSans-Roman-39"/>
     </g>
    </g>
   </g>
   <g id="matplotlib.axis_2">
    <g id="ytick_1">
     <g id="line2d_17">
      <defs>
       <path d="M 0 0 
L 4 0 
" id="m642baf5169" style="stroke:#000000;stroke-width:0.5;"/>
      </defs>
      <g>
       <use style="stroke:#000000;stroke-width:0.5;" x="72.0" xlink:href="#m642baf5169" y="341.28"/>
      </g>
     </g>
     <g id="line2d_18">
      <defs>
       <path d="M 0 0 
L -4 0 
" id="mcbde51ff93" style="stroke:#000000;stroke-width:0.5;"/>
      </defs>
      <g>
       <use style="stroke:#000000;stroke-width:0.5;" x="518.4" xlink:href="#mcbde51ff93" y="341.28"/>
      </g>
     </g>
     <g id="text_10">
      <!-- 0.0 -->
      <g transform="translate(48.916250000000005 344.59125)scale(0.12 -0.12)">
       <use xlink:href="#BitstreamVeraSans-Roman-30"/>
       <use x="63.623046875" xlink:href="#BitstreamVeraSans-Roman-2e"/>
       <use x="95.41015625" xlink:href="#BitstreamVeraSans-Roman-30"/>
      </g>
     </g>
    </g>
    <g id="ytick_2">
     <g id="line2d_19">
      <g>
       <use style="stroke:#000000;stroke-width:0.5;" x="72.0" xlink:href="#m642baf5169" y="272.15999999999997"/>
      </g>
     </g>
     <g id="line2d_20">
      <g>
       <use style="stroke:#000000;stroke-width:0.5;" x="518.4" xlink:href="#mcbde51ff93" y="272.15999999999997"/>
      </g>
     </g>
     <g id="text_11">
      <!-- 0.5 -->
      <g transform="translate(48.916250000000005 275.47124999999994)scale(0.12 -0.12)">
       <use xlink:href="#BitstreamVeraSans-Roman-30"/>
       <use x="63.623046875" xlink:href="#BitstreamVeraSans-Roman-2e"/>
       <use x="95.41015625" xlink:href="#BitstreamVeraSans-Roman-35"/>
      </g>
     </g>
    </g>
    <g id="ytick_3">
     <g id="line2d_21">
      <g>
       <use style="stroke:#000000;stroke-width:0.5;" x="72.0" xlink:href="#m642baf5169" y="203.03999999999994"/>
      </g>
     </g>
     <g id="line2d_22">
      <g>
       <use style="stroke:#000000;stroke-width:0.5;" x="518.4" xlink:href="#mcbde51ff93" y="203.03999999999994"/>
      </g>
     </g>
     <g id="text_12">
      <!-- 1.0 -->
      <g transform="translate(48.916250000000005 206.35124999999996)scale(0.12 -0.12)">
       <use xlink:href="#BitstreamVeraSans-Roman-31"/>
       <use x="63.623046875" xlink:href="#BitstreamVeraSans-Roman-2e"/>
       <use x="95.41015625" xlink:href="#BitstreamVeraSans-Roman-30"/>
      </g>
     </g>
    </g>
    <g id="ytick_4">
     <g id="line2d_23">
      <g>
       <use style="stroke:#000000;stroke-width:0.5;" x="72.0" xlink:href="#m642baf5169" y="133.9199999999999"/>
      </g>
     </g>
     <g id="line2d_24">
      <g>
       <use style="stroke:#000000;stroke-width:0.5;" x="518.4" xlink:href="#mcbde51ff93" y="133.9199999999999"/>
      </g>
     </g>
     <g id="text_13">
      <!-- 1.5 -->
      <g transform="translate(48.916250000000005 137.23124999999993)scale(0.12 -0.12)">
       <use xlink:href="#BitstreamVeraSans-Roman-31"/>
       <use x="63.623046875" xlink:href="#BitstreamVeraSans-Roman-2e"/>
       <use x="95.41015625" xlink:href="#BitstreamVeraSans-Roman-35"/>
      </g>
     </g>
    </g>
    <g id="ytick_5">
     <g id="line2d_25">
      <g>
       <use style="stroke:#000000;stroke-width:0.5;" x="72.0" xlink:href="#m642baf5169" y="64.7999999999999"/>
      </g>
     </g>
     <g id="line2d_26">
      <g>
       <use style="stroke:#000000;stroke-width:0.5;" x="518.4" xlink:href="#mcbde51ff93" y="64.7999999999999"/>
      </g>
     </g>
     <g id="text_14">
      <!-- 2.0 -->
      <g transform="translate(48.916250000000005 68.11124999999993)scale(0.12 -0.12)">
       <use xlink:href="#BitstreamVeraSans-Roman-32"/>
       <use x="63.623046875" xlink:href="#BitstreamVeraSans-Roman-2e"/>
       <use x="95.41015625" xlink:href="#BitstreamVeraSans-Roman-30"/>
      </g>
     </g>
    </g>
    <g id="text_15">
     <!-- Position (m) -->
     <defs>
      <path id="BitstreamVeraSans-Roman-20"/>
      <path d="M 54.890625 33.015625 
L 54.890625 0 
L 45.90625 0 
L 45.90625 32.71875 
Q 45.90625 40.484375 42.875 44.328125 
Q 39.84375 48.1875 33.796875 48.1875 
Q 26.515625 48.1875 22.3125 43.546875 
Q 18.109375 38.921875 18.109375 30.90625 
L 18.109375 0 
L 9.078125 0 
L 9.078125 54.6875 
L 18.109375 54.6875 
L 18.109375 46.1875 
Q 21.34375 51.125 25.703125 53.5625 
Q 30.078125 56 35.796875 56 
Q 45.21875 56 50.046875 50.171875 
Q 54.890625 44.34375 54.890625 33.015625 
" id="BitstreamVeraSans-Roman-6e"/>
      <path d="M 31 75.875 
Q 24.46875 64.65625 21.28125 53.65625 
Q 18.109375 42.671875 18.109375 31.390625 
Q 18.109375 20.125 21.3125 9.0625 
Q 24.515625 -2 31 -13.1875 
L 23.1875 -13.1875 
Q 15.875 -1.703125 12.234375 9.375 
Q 8.59375 20.453125 8.59375 31.390625 
Q 8.59375 42.28125 12.203125 53.3125 
Q 15.828125 64.359375 23.1875 75.875 
z
" id="BitstreamVeraSans-Roman-28"/>
      <path d="M 30.609375 48.390625 
Q 23.390625 48.390625 19.1875 42.75 
Q 14.984375 37.109375 14.984375 27.296875 
Q 14.984375 17.484375 19.15625 11.84375 
Q 23.34375 6.203125 30.609375 6.203125 
Q 37.796875 6.203125 41.984375 11.859375 
Q 46.1875 17.53125 46.1875 27.296875 
Q 46.1875 37.015625 41.984375 42.703125 
Q 37.796875 48.390625 30.609375 48.390625 
M 30.609375 56 
Q 42.328125 56 49.015625 48.375 
Q 55.71875 40.765625 55.71875 27.296875 
Q 55.71875 13.875 49.015625 6.21875 
Q 42.328125 -1.421875 30.609375 -1.421875 
Q 18.84375 -1.421875 12.171875 6.21875 
Q 5.515625 13.875 5.515625 27.296875 
Q 5.515625 40.765625 12.171875 48.375 
Q 18.84375 56 30.609375 56 
" id="BitstreamVeraSans-Roman-6f"/>
      <path d="M 19.671875 64.796875 
L 19.671875 37.40625 
L 32.078125 37.40625 
Q 38.96875 37.40625 42.71875 40.96875 
Q 46.484375 44.53125 46.484375 51.125 
Q 46.484375 57.671875 42.71875 61.234375 
Q 38.96875 64.796875 32.078125 64.796875 
z
M 9.8125 72.90625 
L 32.078125 72.90625 
Q 44.34375 72.90625 50.609375 67.359375 
Q 56.890625 61.8125 56.890625 51.125 
Q 56.890625 40.328125 50.609375 34.8125 
Q 44.34375 29.296875 32.078125 29.296875 
L 19.671875 29.296875 
L 19.671875 0 
L 9.8125 0 
z
" id="BitstreamVeraSans-Roman-50"/>
      <path d="M 8.015625 75.875 
L 15.828125 75.875 
Q 23.140625 64.359375 26.78125 53.3125 
Q 30.421875 42.28125 30.421875 31.390625 
Q 30.421875 20.453125 26.78125 9.375 
Q 23.140625 -1.703125 15.828125 -13.1875 
L 8.015625 -13.1875 
Q 14.5 -2 17.703125 9.0625 
Q 20.90625 20.125 20.90625 31.390625 
Q 20.90625 42.671875 17.703125 53.65625 
Q 14.5 64.65625 8.015625 75.875 
" id="BitstreamVeraSans-Roman-29"/>
      <path d="M 18.3125 70.21875 
L 18.3125 54.6875 
L 36.8125 54.6875 
L 36.8125 47.703125 
L 18.3125 47.703125 
L 18.3125 18.015625 
Q 18.3125 11.328125 20.140625 9.421875 
Q 21.96875 7.515625 27.59375 7.515625 
L 36.8125 7.515625 
L 36.8125 0 
L 27.59375 0 
Q 17.1875 0 13.234375 3.875 
Q 9.28125 7.765625 9.28125 18.015625 
L 9.28125 47.703125 
L 2.6875 47.703125 
L 2.6875 54.6875 
L 9.28125 54.6875 
L 9.28125 70.21875 
z
" id="BitstreamVeraSans-Roman-74"/>
      <path d="M 44.28125 53.078125 
L 44.28125 44.578125 
Q 40.484375 46.53125 36.375 47.5 
Q 32.28125 48.484375 27.875 48.484375 
Q 21.1875 48.484375 17.84375 46.4375 
Q 14.5 44.390625 14.5 40.28125 
Q 14.5 37.15625 16.890625 35.375 
Q 19.28125 33.59375 26.515625 31.984375 
L 29.59375 31.296875 
Q 39.15625 29.25 43.1875 25.515625 
Q 47.21875 21.78125 47.21875 15.09375 
Q 47.21875 7.46875 41.1875 3.015625 
Q 35.15625 -1.421875 24.609375 -1.421875 
Q 20.21875 -1.421875 15.453125 -0.5625 
Q 10.6875 0.296875 5.421875 2 
L 5.421875 11.28125 
Q 10.40625 8.6875 15.234375 7.390625 
Q 20.0625 6.109375 24.8125 6.109375 
Q 31.15625 6.109375 34.5625 8.28125 
Q 37.984375 10.453125 37.984375 14.40625 
Q 37.984375 18.0625 35.515625 20.015625 
Q 33.0625 21.96875 24.703125 23.78125 
L 21.578125 24.515625 
Q 13.234375 26.265625 9.515625 29.90625 
Q 5.8125 33.546875 5.8125 39.890625 
Q 5.8125 47.609375 11.28125 51.796875 
Q 16.75 56 26.8125 56 
Q 31.78125 56 36.171875 55.265625 
Q 40.578125 54.546875 44.28125 53.078125 
" id="BitstreamVeraSans-Roman-73"/>
     </defs>
     <g transform="translate(41.420625 252.0046875)rotate(-90.0)scale(0.12 -0.12)">
      <use xlink:href="#BitstreamVeraSans-Roman-50"/>
      <use x="60.255859375" xlink:href="#BitstreamVeraSans-Roman-6f"/>
      <use x="121.4375" xlink:href="#BitstreamVeraSans-Roman-73"/>
      <use x="173.537109375" xlink:href="#BitstreamVeraSans-Roman-69"/>
      <use x="201.3203125" xlink:href="#BitstreamVeraSans-Roman-74"/>
      <use x="240.529296875" xlink:href="#BitstreamVeraSans-Roman-69"/>
      <use x="268.3125" xlink:href="#BitstreamVeraSans-Roman-6f"/>
      <use x="329.494140625" xlink:href="#BitstreamVeraSans-Roman-6e"/>
      <use x="392.873046875" xlink:href="#BitstreamVeraSans-Roman-20"/>
      <use x="424.66015625" xlink:href="#BitstreamVeraSans-Roman-28"/>
      <use x="463.673828125" xlink:href="#BitstreamVeraSans-Roman-6d"/>
      <use x="561.0859375" xlink:href="#BitstreamVeraSans-Roman-29"/>
     </g>
    </g>
   </g>
   <g id="text_16">
    <!-- Position in Y v/s Time -->
    <defs>
     <path d="M 2.984375 54.6875 
L 12.5 54.6875 
L 29.59375 8.796875 
L 46.6875 54.6875 
L 56.203125 54.6875 
L 35.6875 0 
L 23.484375 0 
z
" id="BitstreamVeraSans-Roman-76"/>
     <path d="M -0.203125 72.90625 
L 10.40625 72.90625 
L 30.609375 42.921875 
L 50.6875 72.90625 
L 61.28125 72.90625 
L 35.5 34.71875 
L 35.5 0 
L 25.59375 0 
L 25.59375 34.71875 
z
" id="BitstreamVeraSans-Roman-59"/>
     <path d="M 25.390625 72.90625 
L 33.6875 72.90625 
L 8.296875 -9.28125 
L 0 -9.28125 
z
" id="BitstreamVeraSans-Roman-2f"/>
    </defs>
    <g transform="translate(218.5245 38.19999999999999)scale(0.144 -0.144)">
     <use xlink:href="#BitstreamVeraSans-Roman-50"/>
     <use x="60.255859375" xlink:href="#BitstreamVeraSans-Roman-6f"/>
     <use x="121.4375" xlink:href="#BitstreamVeraSans-Roman-73"/>
     <use x="173.537109375" xlink:href="#BitstreamVeraSans-Roman-69"/>
     <use x="201.3203125" xlink:href="#BitstreamVeraSans-Roman-74"/>
     <use x="240.529296875" xlink:href="#BitstreamVeraSans-Roman-69"/>
     <use x="268.3125" xlink:href="#BitstreamVeraSans-Roman-6f"/>
     <use x="329.494140625" xlink:href="#BitstreamVeraSans-Roman-6e"/>
     <use x="392.873046875" xlink:href="#BitstreamVeraSans-Roman-20"/>
     <use x="424.66015625" xlink:href="#BitstreamVeraSans-Roman-69"/>
     <use x="452.443359375" xlink:href="#BitstreamVeraSans-Roman-6e"/>
     <use x="515.822265625" xlink:href="#BitstreamVeraSans-Roman-20"/>
     <use x="547.609375" xlink:href="#BitstreamVeraSans-Roman-59"/>
     <use x="608.693359375" xlink:href="#BitstreamVeraSans-Roman-20"/>
     <use x="640.48046875" xlink:href="#BitstreamVeraSans-Roman-76"/>
     <use x="699.66015625" xlink:href="#BitstreamVeraSans-Roman-2f"/>
     <use x="733.3515625" xlink:href="#BitstreamVeraSans-Roman-73"/>
     <use x="785.451171875" xlink:href="#BitstreamVeraSans-Roman-20"/>
     <use x="817.23828125" xlink:href="#BitstreamVeraSans-Roman-54"/>
     <use x="878.275390625" xlink:href="#BitstreamVeraSans-Roman-69"/>
     <use x="906.05859375" xlink:href="#BitstreamVeraSans-Roman-6d"/>
     <use x="1003.47070312" xlink:href="#BitstreamVeraSans-Roman-65"/>
    </g>
   </g>
   <g id="legend_1">
    <g id="patch_7">
     <path d="M 79.2 96.993 
L 199.77975 96.993 
L 199.77975 50.4 
L 79.2 50.4 
z
" style="fill:#ffffff;stroke:#000000;stroke-linejoin:miter;"/>
    </g>
    <g id="line2d_27">
     <path d="M 89.28 62.06175 
L 109.44 62.06175 
" style="fill:none;stroke:#0000ff;stroke-linecap:square;"/>
    </g>
    <g id="line2d_28"/>
    <g id="text_17">
     <!-- Desired Y -->
     <defs>
      <path d="M 45.40625 46.390625 
L 45.40625 75.984375 
L 54.390625 75.984375 
L 54.390625 0 
L 45.40625 0 
L 45.40625 8.203125 
Q 42.578125 3.328125 38.25 0.953125 
Q 33.9375 -1.421875 27.875 -1.421875 
Q 17.96875 -1.421875 11.734375 6.484375 
Q 5.515625 14.40625 5.515625 27.296875 
Q 5.515625 40.1875 11.734375 48.09375 
Q 17.96875 56 27.875 56 
Q 33.9375 56 38.25 53.625 
Q 42.578125 51.265625 45.40625 46.390625 
M 14.796875 27.296875 
Q 14.796875 17.390625 18.875 11.75 
Q 22.953125 6.109375 30.078125 6.109375 
Q 37.203125 6.109375 41.296875 11.75 
Q 45.40625 17.390625 45.40625 27.296875 
Q 45.40625 37.203125 41.296875 42.84375 
Q 37.203125 48.484375 30.078125 48.484375 
Q 22.953125 48.484375 18.875 42.84375 
Q 14.796875 37.203125 14.796875 27.296875 
" id="BitstreamVeraSans-Roman-64"/>
      <path d="M 19.671875 64.796875 
L 19.671875 8.109375 
L 31.59375 8.109375 
Q 46.6875 8.109375 53.6875 14.9375 
Q 60.6875 21.78125 60.6875 36.53125 
Q 60.6875 51.171875 53.6875 57.984375 
Q 46.6875 64.796875 31.59375 64.796875 
z
M 9.8125 72.90625 
L 30.078125 72.90625 
Q 51.265625 72.90625 61.171875 64.09375 
Q 71.09375 55.28125 71.09375 36.53125 
Q 71.09375 17.671875 61.125 8.828125 
Q 51.171875 0 30.078125 0 
L 9.8125 0 
z
" id="BitstreamVeraSans-Roman-44"/>
      <path d="M 41.109375 46.296875 
Q 39.59375 47.171875 37.8125 47.578125 
Q 36.03125 48 33.890625 48 
Q 26.265625 48 22.1875 43.046875 
Q 18.109375 38.09375 18.109375 28.8125 
L 18.109375 0 
L 9.078125 0 
L 9.078125 54.6875 
L 18.109375 54.6875 
L 18.109375 46.1875 
Q 20.953125 51.171875 25.484375 53.578125 
Q 30.03125 56 36.53125 56 
Q 37.453125 56 38.578125 55.875 
Q 39.703125 55.765625 41.0625 55.515625 
z
" id="BitstreamVeraSans-Roman-72"/>
     </defs>
     <g transform="translate(125.28 67.10174999999992)scale(0.144 -0.144)">
      <use xlink:href="#BitstreamVeraSans-Roman-44"/>
      <use x="77.001953125" xlink:href="#BitstreamVeraSans-Roman-65"/>
      <use x="138.525390625" xlink:href="#BitstreamVeraSans-Roman-73"/>
      <use x="190.625" xlink:href="#BitstreamVeraSans-Roman-69"/>
      <use x="218.408203125" xlink:href="#BitstreamVeraSans-Roman-72"/>
      <use x="259.490234375" xlink:href="#BitstreamVeraSans-Roman-65"/>
      <use x="321.013671875" xlink:href="#BitstreamVeraSans-Roman-64"/>
      <use x="384.490234375" xlink:href="#BitstreamVeraSans-Roman-20"/>
      <use x="416.27734375" xlink:href="#BitstreamVeraSans-Roman-59"/>
     </g>
    </g>
    <g id="line2d_29">
     <path d="M 89.28 83.19825 
L 109.44 83.19825 
" style="fill:none;stroke:#ffa500;stroke-linecap:square;"/>
    </g>
    <g id="line2d_30"/>
    <g id="text_18">
     <!-- Actual Y -->
     <defs>
      <path d="M 9.421875 75.984375 
L 18.40625 75.984375 
L 18.40625 0 
L 9.421875 0 
z
" id="BitstreamVeraSans-Roman-6c"/>
      <path d="M 8.5 21.578125 
L 8.5 54.6875 
L 17.484375 54.6875 
L 17.484375 21.921875 
Q 17.484375 14.15625 20.5 10.265625 
Q 23.53125 6.390625 29.59375 6.390625 
Q 36.859375 6.390625 41.078125 11.03125 
Q 45.3125 15.671875 45.3125 23.6875 
L 45.3125 54.6875 
L 54.296875 54.6875 
L 54.296875 0 
L 45.3125 0 
L 45.3125 8.40625 
Q 42.046875 3.421875 37.71875 1 
Q 33.40625 -1.421875 27.6875 -1.421875 
Q 18.265625 -1.421875 13.375 4.4375 
Q 8.5 10.296875 8.5 21.578125 
" id="BitstreamVeraSans-Roman-75"/>
      <path d="M 34.28125 27.484375 
Q 23.390625 27.484375 19.1875 25 
Q 14.984375 22.515625 14.984375 16.5 
Q 14.984375 11.71875 18.140625 8.90625 
Q 21.296875 6.109375 26.703125 6.109375 
Q 34.1875 6.109375 38.703125 11.40625 
Q 43.21875 16.703125 43.21875 25.484375 
L 43.21875 27.484375 
z
M 52.203125 31.203125 
L 52.203125 0 
L 43.21875 0 
L 43.21875 8.296875 
Q 40.140625 3.328125 35.546875 0.953125 
Q 30.953125 -1.421875 24.3125 -1.421875 
Q 15.921875 -1.421875 10.953125 3.296875 
Q 6 8.015625 6 15.921875 
Q 6 25.140625 12.171875 29.828125 
Q 18.359375 34.515625 30.609375 34.515625 
L 43.21875 34.515625 
L 43.21875 35.40625 
Q 43.21875 41.609375 39.140625 45 
Q 35.0625 48.390625 27.6875 48.390625 
Q 23 48.390625 18.546875 47.265625 
Q 14.109375 46.140625 10.015625 43.890625 
L 10.015625 52.203125 
Q 14.9375 54.109375 19.578125 55.046875 
Q 24.21875 56 28.609375 56 
Q 40.484375 56 46.34375 49.84375 
Q 52.203125 43.703125 52.203125 31.203125 
" id="BitstreamVeraSans-Roman-61"/>
      <path d="M 48.78125 52.59375 
L 48.78125 44.1875 
Q 44.96875 46.296875 41.140625 47.34375 
Q 37.3125 48.390625 33.40625 48.390625 
Q 24.65625 48.390625 19.8125 42.84375 
Q 14.984375 37.3125 14.984375 27.296875 
Q 14.984375 17.28125 19.8125 11.734375 
Q 24.65625 6.203125 33.40625 6.203125 
Q 37.3125 6.203125 41.140625 7.25 
Q 44.96875 8.296875 48.78125 10.40625 
L 48.78125 2.09375 
Q 45.015625 0.34375 40.984375 -0.53125 
Q 36.96875 -1.421875 32.421875 -1.421875 
Q 20.0625 -1.421875 12.78125 6.34375 
Q 5.515625 14.109375 5.515625 27.296875 
Q 5.515625 40.671875 12.859375 48.328125 
Q 20.21875 56 33.015625 56 
Q 37.15625 56 41.109375 55.140625 
Q 45.0625 54.296875 48.78125 52.59375 
" id="BitstreamVeraSans-Roman-63"/>
      <path d="M 34.1875 63.1875 
L 20.796875 26.90625 
L 47.609375 26.90625 
z
M 28.609375 72.90625 
L 39.796875 72.90625 
L 67.578125 0 
L 57.328125 0 
L 50.6875 18.703125 
L 17.828125 18.703125 
L 11.1875 0 
L 0.78125 0 
z
" id="BitstreamVeraSans-Roman-41"/>
     </defs>
     <g transform="translate(125.28 88.23824999999994)scale(0.144 -0.144)">
      <use xlink:href="#BitstreamVeraSans-Roman-41"/>
      <use x="68.392578125" xlink:href="#BitstreamVeraSans-Roman-63"/>
      <use x="123.373046875" xlink:href="#BitstreamVeraSans-Roman-74"/>
      <use x="162.58203125" xlink:href="#BitstreamVeraSans-Roman-75"/>
      <use x="225.9609375" xlink:href="#BitstreamVeraSans-Roman-61"/>
      <use x="287.240234375" xlink:href="#BitstreamVeraSans-Roman-6c"/>
      <use x="315.0234375" xlink:href="#BitstreamVeraSans-Roman-20"/>
      <use x="346.810546875" xlink:href="#BitstreamVeraSans-Roman-59"/>
     </g>
    </g>
   </g>
  </g>
 </g>
 <defs>
  <clipPath id="p931ecf330b">
   <rect height="345.6" width="446.4" x="72.0" y="43.19999999999999"/>
  </clipPath>
 </defs>
</svg>
