<?xml version="1.0" encoding="utf-8" standalone="no"?>
<!DOCTYPE svg PUBLIC "-//W3C//DTD SVG 1.1//EN"
  "http://www.w3.org/Graphics/SVG/1.1/DTD/svg11.dtd">
<!-- Created with matplotlib (http://matplotlib.org/) -->
<svg height="432pt" version="1.1" viewBox="0 0 576 432" width="576pt" xmlns="http://www.w3.org/2000/svg" xmlns:xlink="http://www.w3.org/1999/xlink">
 <defs>
  <style type="text/css">
*{stroke-linecap:butt;stroke-linejoin:round;stroke-miterlimit:100000;}
  </style>
 </defs>
 <g id="figure_1">
  <g id="patch_1">
   <path d="M 0 432 
L 576 432 
L 576 0 
L 0 0 
z
" style="fill:#ffffff;"/>
  </g>
  <g id="axes_1">
   <g id="patch_2">
    <path d="M 72 388.8 
L 518.4 388.8 
L 518.4 43.2 
L 72 43.2 
z
" style="fill:#ffffff;"/>
   </g>
   <g id="line2d_1">
    <path clip-path="url(#p465d0bf431)" d="M 113.451428 216 
L 116.64 216 
L 116.64 216 
L 116.64 216 
L 119.828571 216 
L 119.828571 216 
L 119.828571 216 
L 123.017143 216 
L 123.017143 216 
L 123.017143 216 
L 126.205714 216 
L 126.205714 216 
L 126.205714 216 
L 129.394286 216 
L 129.394286 216 
L 129.394286 216 
L 132.582857 216 
L 132.582857 216 
L 132.582857 216 
L 135.771429 216 
L 135.771429 216 
L 135.771429 216 
L 138.96 216 
L 138.96 216 
L 138.96 216 
L 142.148571 216 
L 142.148571 216 
L 142.148571 216 
L 145.337143 216 
L 145.337143 216 
L 145.337143 216 
L 148.525714 216 
L 148.525714 216 
L 148.525714 216 
L 151.714286 216 
L 151.714286 216 
L 151.714286 216 
L 154.902857 216 
L 154.902857 216 
L 154.902857 216 
L 158.091429 216 
L 158.091429 216 
L 158.091429 216 
L 161.28 216 
L 161.28 216 
L 161.28 216 
L 164.468572 216 
L 164.468572 216 
L 164.468572 216 
L 167.657143 216 
L 167.657143 216 
L 167.657143 216 
L 170.845715 216 
L 170.845715 216 
L 170.845715 216 
L 174.034286 216 
L 174.034286 216 
L 174.034286 216 
L 177.222857 216 
L 177.222857 216 
L 177.222857 216 
L 180.411428 216 
L 180.411428 216 
L 180.411428 216 
L 183.6 216 
L 183.6 216 
L 183.6 216 
L 186.788571 216 
L 186.788571 216 
L 186.788571 216 
L 189.977143 216 
L 189.977143 216 
L 189.977143 216 
L 193.165714 216 
L 193.165714 216 
L 193.165714 216 
L 196.354286 216 
L 196.354286 216 
L 196.354286 216 
L 199.542857 216 
L 199.542857 216 
L 199.542857 216 
L 202.731428 216 
L 202.731428 216 
L 202.731428 216 
L 205.92 216 
L 205.92 216 
L 205.92 216 
L 209.108571 216 
L 209.108571 216 
L 209.108571 216 
L 212.297143 216 
L 212.297143 216 
L 212.297143 216 
L 215.485714 216 
L 215.485714 216 
L 215.485714 216 
L 218.674286 216 
L 218.674286 216 
L 218.674286 216 
L 221.862857 216 
L 221.862857 216 
L 221.862857 216 
L 225.051429 216 
L 225.051429 216 
L 225.051429 216 
L 228.24 216 
L 228.24 216 
L 228.24 216 
L 231.428572 216 
L 231.428572 216 
L 231.428572 216 
L 234.617143 216 
L 234.617143 216 
L 234.617143 216 
L 237.805715 216 
L 237.805715 216 
L 237.805715 216 
L 240.994286 216 
L 240.994286 216 
L 240.994286 216 
L 244.182858 216 
L 244.182858 216 
L 244.182858 216 
L 247.371428 216 
L 247.371428 216 
L 247.371428 216 
L 250.56 216 
L 250.56 216 
L 250.56 216 
L 253.748571 216 
L 253.748571 216 
L 253.748571 216 
L 256.937143 216 
L 256.937143 216 
L 256.937143 216 
L 260.125714 216 
L 260.125714 216 
L 260.125714 216 
L 263.314286 216 
L 263.314286 216 
L 263.314286 216 
L 266.502857 216 
L 266.502857 216 
L 266.502857 216 
L 269.691428 216 
L 269.691428 216 
L 269.691428 216 
L 272.88 216 
L 272.88 216 
L 272.88 216 
L 276.068571 216 
L 276.068571 216 
L 276.068571 216 
L 279.257143 216 
L 279.257143 216 
L 279.257143 216 
L 282.445714 216 
L 282.445714 216 
L 282.445714 216 
L 285.634286 216 
L 285.634286 216 
L 285.634286 216 
L 288.822857 216 
L 288.822857 216 
L 288.822857 216 
L 292.011429 216 
L 292.011429 216 
L 292.011429 216 
L 295.2 216 
L 295.2 216 
L 295.2 216 
L 298.388572 216 
L 298.388572 216 
L 298.388572 216 
L 301.577143 216 
L 301.577143 216 
L 301.577143 216 
L 301.577143 191.219293 
L 301.577143 185.516336 
L 304.765715 185.380551 
L 304.765715 171.937866 
L 307.954286 171.802082 
L 307.954286 158.359397 
L 311.142858 158.223612 
L 311.142858 144.780927 
L 314.331429 144.645143 
L 314.331429 131.202458 
L 317.52 131.066673 
L 317.52 117.623988 
L 320.708571 117.488204 
L 320.708571 104.045519 
L 323.897143 103.909734 
L 323.897143 90.467049 
L 327.085714 90.331265 
L 327.085714 80.283197 
L 327.085714 80.283197 
L 327.085714 80.283197 
L 327.085714 351.716803 
L 327.085714 348.45797 
L 330.274285 348.322185 
L 330.274285 334.8795 
L 333.462857 334.743716 
L 333.462857 321.301031 
L 336.651428 321.165246 
L 336.651428 307.722561 
L 339.84 307.586777 
L 339.84 294.144092 
L 343.028571 294.008307 
L 343.028571 280.565622 
L 346.217143 280.429838 
L 346.217143 266.987153 
L 349.405714 266.851368 
L 349.405714 253.408683 
L 352.594286 253.272899 
L 352.594286 239.830214 
L 355.782857 239.694429 
L 355.782857 226.251744 
L 358.971429 226.11596 
L 358.971429 212.673275 
L 362.16 212.53749 
L 362.16 199.094805 
L 365.348572 198.959021 
L 365.348572 185.516336 
L 368.537143 185.380551 
L 368.537143 171.937866 
L 371.725715 171.802082 
L 371.725715 158.359397 
L 374.914286 158.223612 
L 374.914286 144.780927 
L 378.102858 144.645143 
L 378.102858 131.202458 
L 381.291429 131.066673 
L 381.291429 117.623988 
L 384.48 117.488204 
L 384.48 104.045519 
L 387.668571 103.909734 
L 387.668571 90.467049 
L 390.857142 90.331265 
L 390.857142 80.283197 
L 390.857142 80.283197 
L 390.857142 80.283197 
L 390.857142 351.716803 
L 390.857142 348.45797 
L 394.045714 348.322185 
L 394.045714 334.8795 
L 397.234285 334.743716 
L 397.234285 321.301031 
L 400.422857 321.165246 
L 400.422857 307.722561 
L 403.611428 307.586777 
L 403.611428 294.144092 
L 406.8 294.008307 
L 406.8 280.565622 
L 409.988571 280.429838 
L 409.988571 266.987153 
L 413.177143 266.851368 
L 413.177143 253.408683 
L 416.365714 253.272899 
L 416.365714 239.830214 
L 419.554286 239.694429 
L 419.554286 226.251744 
L 422.742857 226.11596 
L 422.742857 212.673275 
L 425.931429 212.53749 
L 425.931429 199.094805 
L 429.12 198.959021 
L 429.12 185.516336 
L 432.308572 185.380551 
L 432.308572 171.937866 
L 435.497143 171.802082 
L 435.497143 158.359397 
L 438.685715 158.223612 
L 438.685715 144.780927 
L 441.874286 144.645143 
L 441.874286 131.202458 
L 445.062858 131.066673 
L 445.062858 117.623988 
L 448.251429 117.488204 
L 448.251429 104.045519 
L 451.44 103.909734 
L 451.44 90.467049 
L 454.628572 90.331265 
L 454.628572 80.283197 
L 454.628572 80.283197 
L 454.628572 80.283197 
L 454.628572 351.716803 
L 454.628572 348.45797 
L 457.817142 348.322185 
L 457.817142 346.013845 
L 457.817142 346.013845 
" style="fill:none;stroke:#0000ff;stroke-linecap:square;"/>
   </g>
   <g id="line2d_2">
    <path clip-path="url(#p465d0bf431)" d="M 113.451428 213.045816 
L 113.451428 213.044972 
L 113.451428 213.044207 
L 113.451428 213.044207 
L 113.451428 213.047168 
L 113.451428 213.044959 
L 113.451428 213.044959 
L 113.451428 213.043655 
L 113.451428 213.043655 
L 113.451428 213.043655 
L 113.451428 213.046902 
L 113.451428 213.04577 
L 113.451428 213.04577 
L 113.451428 213.043588 
L 113.451428 213.045025 
L 113.451428 213.045025 
L 113.451428 213.046683 
L 113.451428 213.046683 
L 113.451428 213.046683 
L 113.451428 213.044732 
L 113.451428 213.044732 
L 113.451428 213.044732 
L 113.451428 213.046899 
L 113.451428 213.046899 
L 113.451428 213.046899 
L 113.451428 213.044236 
L 113.451428 213.044236 
L 113.451428 213.044236 
L 113.451428 213.047536 
L 113.451428 213.047536 
L 113.451428 213.047536 
L 113.451428 213.043146 
L 113.451428 213.046036 
L 113.451428 213.046036 
L 113.451428 213.047548 
L 113.451428 213.047548 
L 113.451428 213.047548 
L 113.451428 213.041888 
L 113.451428 213.04576 
L 113.451428 213.04576 
L 113.451428 213.047776 
L 113.451428 213.047776 
L 113.451428 213.047776 
L 113.451428 213.041875 
L 113.451428 213.045587 
L 113.451428 213.045587 
L 113.451428 213.048166 
L 113.451428 213.048166 
L 113.451428 213.048166 
L 113.451428 213.043197 
L 113.451428 213.045678 
L 113.451428 213.045678 
L 113.451428 213.049404 
L 113.451428 213.045746 
L 113.451428 213.045746 
L 113.451428 213.043181 
L 113.451428 213.044743 
L 113.451428 213.044743 
L 113.451428 213.048357 
L 113.451428 213.047465 
L 113.451428 213.047465 
L 113.451428 213.042307 
L 113.451428 213.044498 
L 113.451428 213.044498 
L 113.451428 213.047665 
L 113.451428 213.045169 
L 113.451428 213.045169 
L 113.451428 213.044345 
L 113.451428 213.045136 
L 113.451428 213.045136 
L 113.451428 213.04709 
L 113.451428 213.04709 
L 113.451428 213.04709 
L 113.451428 213.043105 
L 113.451428 213.043465 
L 167.657143 213.073407 
L 167.657143 212.951265 
L 167.657143 212.934739 
L 167.657143 212.94379 
L 167.657143 212.94379 
L 167.657143 212.953535 
L 167.657143 212.946757 
L 167.657143 212.946757 
L 167.657143 212.727212 
L 167.657143 212.933057 
L 167.657143 212.933057 
L 167.657143 214.259804 
L 167.657143 213.957503 
L 170.845715 213.919436 
L 170.845715 214.032488 
L 170.845715 214.793496 
L 170.845715 214.056046 
L 170.845715 214.056046 
L 170.845715 212.775443 
L 170.845715 212.78055 
L 174.034286 212.671064 
L 174.034286 212.660369 
L 174.034286 212.660369 
L 174.034286 212.660369 
L 174.034286 212.708919 
L 174.034286 212.667298 
L 174.034286 212.667298 
L 174.034286 212.197756 
L 174.034286 212.255987 
L 180.411428 212.151422 
L 180.411428 211.716725 
L 180.411428 211.72291 
L 183.6 211.607394 
L 183.6 211.200332 
L 183.6 211.256245 
L 186.788571 211.356581 
L 186.788571 211.40939 
L 186.788571 211.400302 
L 186.788571 211.400302 
L 186.788571 211.34961 
L 186.788571 211.34961 
L 186.788571 211.34961 
L 186.788571 211.871439 
L 186.788571 211.696398 
L 189.977143 211.745503 
L 189.977143 211.603564 
L 189.977143 211.573766 
L 189.977143 211.573766 
L 189.977143 211.573766 
L 189.977143 211.641746 
L 189.977143 211.574275 
L 189.977143 211.574275 
L 189.977143 211.558463 
L 189.977143 211.558463 
L 189.977143 211.558463 
L 189.977143 211.646949 
L 189.977143 211.564823 
L 189.977143 211.564823 
L 189.977143 211.545943 
L 189.977143 211.546983 
L 189.977143 211.546983 
L 189.977143 211.596042 
L 189.977143 211.562094 
L 189.977143 211.562094 
L 189.977143 211.447564 
L 189.977143 211.528555 
L 189.977143 211.528555 
L 189.977143 217.625796 
L 189.977143 215.523295 
L 193.165714 215.364719 
L 193.165714 214.896342 
L 193.165714 215.325448 
L 193.165714 215.325448 
L 193.165714 216.977511 
L 193.165714 215.328241 
L 193.165714 215.328241 
L 193.165714 214.643048 
L 193.165714 215.325848 
L 193.165714 215.325848 
L 193.165714 217.084079 
L 193.165714 215.338416 
L 193.165714 215.338416 
L 193.165714 215.120675 
L 193.165714 215.32688 
L 193.165714 215.32688 
L 193.165714 216.825292 
L 193.165714 215.36175 
L 196.354286 215.178179 
L 196.354286 214.017393 
L 196.354286 215.175617 
L 196.354286 215.175617 
L 196.354286 216.898425 
L 196.354286 215.245176 
L 196.354286 215.245176 
L 196.354286 214.748861 
L 196.354286 215.235627 
L 196.354286 215.235627 
L 196.354286 216.801224 
L 196.354286 215.277367 
L 196.354286 215.277367 
L 196.354286 214.846779 
L 196.354286 214.858053 
L 199.542857 214.961372 
L 199.542857 216.918985 
L 199.542857 214.981252 
L 199.542857 214.981252 
L 199.542857 214.853249 
L 199.542857 214.970936 
L 199.542857 214.970936 
L 199.542857 216.845789 
L 199.542857 216.828753 
L 202.731428 216.846557 
L 202.731428 216.768761 
L 202.731428 215.072096 
L 202.731428 216.750954 
L 202.731428 216.750954 
L 202.731428 217.072713 
L 202.731428 216.772264 
L 202.731428 216.772264 
L 202.731428 214.899624 
L 202.731428 216.763947 
L 202.731428 216.763947 
L 202.731428 216.826015 
L 202.731428 216.765544 
L 202.731428 216.765544 
L 202.731428 214.994615 
L 202.731428 216.759517 
L 202.731428 216.759517 
L 202.731428 216.83955 
L 202.731428 216.772449 
L 202.731428 216.772449 
L 202.731428 216.261526 
L 205.92 216.132118 
L 205.92 215.052123 
L 205.92 216.128988 
L 205.92 216.128988 
L 205.92 216.551964 
L 205.92 216.161201 
L 205.92 216.161201 
L 205.92 215.083366 
L 205.92 216.126585 
L 205.92 216.126585 
L 205.92 216.670515 
L 205.92 216.162045 
L 205.92 216.162045 
L 205.92 214.960266 
L 205.92 216.131815 
L 205.92 216.131815 
L 205.92 216.853862 
L 205.92 216.195789 
L 205.92 216.195789 
L 205.92 216.059154 
L 209.108571 215.934888 
L 209.108571 215.280629 
L 209.108571 215.909874 
L 209.108571 215.909874 
L 209.108571 216.706853 
L 209.108571 215.96435 
L 209.108571 215.96435 
L 209.108571 214.943564 
L 209.108571 215.934856 
L 209.108571 215.934856 
L 209.108571 216.892006 
L 209.108571 215.956622 
L 209.108571 215.956622 
L 209.108571 215.168292 
L 209.108571 215.956262 
L 209.108571 215.956262 
L 209.108571 216.502377 
L 209.108571 215.983666 
L 209.108571 215.983666 
L 209.108571 215.169886 
L 212.297143 215.16857 
L 212.297143 215.249825 
L 212.297143 216.610335 
L 212.297143 215.288921 
L 212.297143 215.288921 
L 212.297143 214.877575 
L 212.297143 215.285004 
L 212.297143 215.285004 
L 212.297143 216.835118 
L 212.297143 215.335944 
L 212.297143 215.335944 
L 212.297143 214.916427 
L 212.297143 215.328262 
L 212.297143 215.328262 
L 212.297143 216.931825 
L 212.297143 215.755194 
L 215.485714 215.614009 
L 215.485714 215.133532 
L 215.485714 215.588365 
L 215.485714 215.588365 
L 215.485714 216.815143 
L 215.485714 215.621297 
L 215.485714 215.621297 
L 215.485714 215.115777 
L 215.485714 215.58985 
L 215.485714 215.58985 
L 215.485714 216.757727 
L 215.485714 215.628093 
L 215.485714 215.628093 
L 215.485714 215.133617 
L 215.485714 215.609697 
L 215.485714 215.609697 
L 215.485714 216.727416 
L 215.485714 215.667603 
L 215.485714 215.667603 
L 215.485714 214.902541 
L 218.674286 214.833424 
L 218.674286 214.978782 
L 218.674286 217.595129 
L 218.674286 214.986869 
L 218.674286 214.986869 
L 218.674286 214.450559 
L 218.674286 214.984464 
L 218.674286 214.984464 
L 218.674286 219.065554 
L 221.862857 218.959895 
L 221.862857 213.725784 
L 221.862857 218.868539 
L 221.862857 218.868539 
L 221.862857 224.459386 
L 225.051429 224.552645 
L 225.051429 226.041641 
L 225.051429 224.576919 
L 225.051429 224.576919 
L 225.051429 213.302301 
L 225.051429 213.354969 
L 228.24 213.445712 
L 228.24 217.413747 
L 228.24 216.174975 
L 231.428572 216.340081 
L 231.428572 217.027348 
L 231.428572 216.385278 
L 231.428572 216.385278 
L 231.428572 215.053575 
L 231.428572 216.343672 
L 231.428572 216.343672 
L 231.428572 216.82255 
L 231.428572 216.346369 
L 231.428572 216.346369 
L 231.428572 214.846365 
L 231.428572 216.326674 
L 231.428572 216.326674 
L 231.428572 216.966949 
L 231.428572 216.347498 
L 231.428572 216.347498 
L 231.428572 214.909311 
L 231.428572 215.332719 
L 234.617143 215.461969 
L 234.617143 216.843626 
L 234.617143 215.515699 
L 234.617143 215.515699 
L 234.617143 215.080729 
L 234.617143 215.514707 
L 234.617143 215.514707 
L 234.617143 217.027474 
L 234.617143 215.532136 
L 234.617143 215.532136 
L 234.617143 214.94502 
L 234.617143 215.517571 
L 234.617143 215.517571 
L 234.617143 216.963269 
L 234.617143 215.553088 
L 234.617143 215.553088 
L 234.617143 215.040088 
L 234.617143 215.239345 
L 237.805715 215.368451 
L 237.805715 216.753314 
L 237.805715 215.371966 
L 237.805715 215.371966 
L 237.805715 215.208778 
L 237.805715 215.364443 
L 237.805715 215.364443 
L 237.805715 216.964367 
L 237.805715 215.374953 
L 237.805715 215.374953 
L 237.805715 215.205212 
L 237.805715 215.37404 
L 237.805715 215.37404 
L 237.805715 216.973423 
L 237.805715 215.386569 
L 237.805715 215.386569 
L 237.805715 215.152117 
L 237.805715 215.365757 
L 237.805715 215.365757 
L 237.805715 216.989521 
L 240.994286 217.051422 
L 240.994286 216.896117 
L 240.994286 215.099124 
L 240.994286 216.852468 
L 240.994286 216.852468 
L 240.994286 217.045316 
L 240.994286 216.893254 
L 240.994286 216.893254 
L 240.994286 215.087523 
L 240.994286 216.890631 
L 240.994286 216.890631 
L 240.994286 217.145571 
L 240.994286 216.923366 
L 240.994286 216.923366 
L 240.994286 214.921665 
L 240.994286 216.917808 
L 240.994286 216.917808 
L 240.994286 216.995505 
L 240.994286 216.932069 
L 240.994286 216.932069 
L 240.994286 216.831367 
L 244.182858 216.708479 
L 244.182858 215.183235 
L 244.182858 216.678512 
L 244.182858 216.678512 
L 244.182858 216.929842 
L 244.182858 216.696411 
L 244.182858 216.696411 
L 244.182858 214.931678 
L 244.182858 216.685398 
L 244.182858 216.685398 
L 244.182858 217.153569 
L 244.182858 216.688188 
L 244.182858 216.688188 
L 244.182858 215.032624 
L 244.182858 216.672813 
L 244.182858 216.672813 
L 244.182858 217.148962 
L 244.182858 216.722874 
L 244.182858 216.722874 
L 244.182858 216.356963 
L 247.371428 216.189852 
L 247.371428 214.887494 
L 247.371428 216.144045 
L 247.371428 216.144045 
L 247.371428 217.044063 
L 247.371428 216.168027 
L 247.371428 216.168027 
L 247.371428 215.133945 
L 247.371428 216.138939 
L 247.371428 216.138939 
L 247.371428 216.929741 
L 247.371428 216.181734 
L 247.371428 216.181734 
L 247.371428 215.09191 
L 247.371428 216.166987 
L 247.371428 216.166987 
L 247.371428 216.901511 
L 247.371428 216.229816 
L 247.371428 216.229816 
L 247.371428 215.110928 
L 247.371428 215.131286 
L 250.56 215.229597 
L 250.56 216.875411 
L 250.56 215.242869 
L 250.56 215.242869 
L 250.56 214.628341 
L 250.56 215.198034 
L 250.56 215.198034 
L 250.56 216.750838 
L 250.56 215.206348 
L 250.56 215.206348 
L 250.56 214.997327 
L 250.56 215.199397 
L 250.56 215.199397 
L 250.56 216.655962 
L 250.56 215.260052 
L 250.56 215.260052 
L 250.56 214.998368 
L 250.56 215.227132 
L 250.56 215.227132 
L 250.56 215.914211 
L 253.748571 216.070125 
L 253.748571 216.995754 
L 253.748571 216.073663 
L 253.748571 216.073663 
L 253.748571 214.95916 
L 253.748571 216.045967 
L 253.748571 216.045967 
L 253.748571 216.77928 
L 253.748571 216.072232 
L 253.748571 216.072232 
L 253.748571 215.010324 
L 253.748571 216.052057 
L 253.748571 216.052057 
L 253.748571 216.93292 
L 253.748571 216.090176 
L 253.748571 216.090176 
L 253.748571 214.878051 
L 253.748571 216.030699 
L 253.748571 216.030699 
L 253.748571 216.741904 
L 256.937143 216.796722 
L 256.937143 216.668789 
L 256.937143 214.570102 
L 256.937143 216.635693 
L 256.937143 216.635693 
L 256.937143 216.734591 
L 256.937143 216.654907 
L 256.937143 216.654907 
L 256.937143 214.467993 
L 256.937143 216.650985 
L 256.937143 216.650985 
L 256.937143 216.701665 
L 256.937143 216.660171 
L 256.937143 216.660171 
L 256.937143 214.888248 
L 256.937143 215.006957 
L 260.125714 215.121107 
L 260.125714 216.598743 
L 260.125714 215.140369 
L 260.125714 215.140369 
L 260.125714 214.654546 
L 260.125714 215.129277 
L 260.125714 215.129277 
L 260.125714 216.536716 
L 260.125714 215.169894 
L 260.125714 215.169894 
L 260.125714 215.037283 
L 260.125714 215.161533 
L 260.125714 215.161533 
L 260.125714 216.578463 
L 260.125714 215.17234 
L 260.125714 215.17234 
L 260.125714 214.961209 
L 260.125714 215.027592 
L 263.314286 215.151483 
L 263.314286 216.612737 
L 263.314286 215.181607 
L 263.314286 215.181607 
L 263.314286 214.885951 
L 263.314286 215.175475 
L 263.314286 215.175475 
L 263.314286 216.752756 
L 263.314286 215.208323 
L 263.314286 215.208323 
L 263.314286 214.927153 
L 263.314286 215.186327 
L 263.314286 215.186327 
L 263.314286 216.50812 
L 263.314286 215.204037 
L 263.314286 215.204037 
L 263.314286 215.100412 
L 263.314286 215.200944 
L 263.314286 215.200944 
L 263.314286 215.235047 
L 266.502857 215.35508 
L 266.502857 216.595181 
L 266.502857 215.377833 
L 266.502857 215.377833 
L 266.502857 214.909675 
L 266.502857 215.372884 
L 266.502857 215.372884 
L 266.502857 216.79446 
L 266.502857 215.413061 
L 266.502857 215.413061 
L 266.502857 214.9782 
L 266.502857 215.411459 
L 266.502857 215.411459 
L 266.502857 216.485028 
L 266.502857 215.411764 
L 266.502857 215.411764 
L 266.502857 215.140449 
L 269.691428 215.041037 
L 269.691428 215.213109 
L 269.691428 216.567652 
L 269.691428 215.264649 
L 269.691428 215.264649 
L 269.691428 214.766898 
L 269.691428 215.241774 
L 269.691428 215.241774 
L 269.691428 216.789363 
L 269.691428 215.2985 
L 269.691428 215.2985 
L 269.691428 214.4532 
L 269.691428 214.856592 
L 272.88 214.977763 
L 272.88 216.844008 
L 272.88 215.019724 
L 272.88 215.019724 
L 272.88 214.754971 
L 272.88 215.002018 
L 272.88 215.002018 
L 272.88 216.685395 
L 272.88 215.089767 
L 272.88 215.089767 
L 272.88 214.462979 
L 272.88 214.998879 
L 276.068571 215.148159 
L 276.068571 216.891815 
L 276.068571 215.151907 
L 276.068571 215.151907 
L 276.068571 215.029692 
L 276.068571 215.147743 
L 276.068571 215.147743 
L 276.068571 216.78704 
L 276.068571 215.149967 
L 276.068571 215.149967 
L 276.068571 215.099607 
L 276.068571 215.1392 
L 276.068571 215.1392 
L 276.068571 216.837965 
L 276.068571 216.251565 
L 279.257143 216.14426 
L 279.257143 215.1539 
L 279.257143 216.132972 
L 279.257143 216.132972 
L 279.257143 216.808416 
L 279.257143 216.185133 
L 279.257143 216.185133 
L 279.257143 215.065824 
L 279.257143 216.142767 
L 279.257143 216.142767 
L 279.257143 216.996125 
L 279.257143 216.148501 
L 279.257143 216.148501 
L 279.257143 215.068904 
L 279.257143 216.138507 
L 279.257143 216.138507 
L 279.257143 216.690744 
L 279.257143 216.254106 
L 282.445714 216.102418 
L 282.445714 215.09671 
L 282.445714 216.049898 
L 282.445714 216.049898 
L 282.445714 216.810966 
L 282.445714 216.079533 
L 282.445714 216.079533 
L 282.445714 214.751005 
L 282.445714 216.068388 
L 282.445714 216.068388 
L 282.445714 216.869902 
L 282.445714 216.115895 
L 282.445714 216.115895 
L 282.445714 214.84297 
L 282.445714 216.083331 
L 282.445714 216.083331 
L 282.445714 216.290012 
L 285.634286 216.429867 
L 285.634286 216.665426 
L 285.634286 216.45597 
L 285.634286 216.45597 
L 285.634286 214.992791 
L 285.634286 216.428887 
L 285.634286 216.428887 
L 285.634286 216.796696 
L 285.634286 216.448141 
L 285.634286 216.448141 
L 285.634286 214.998539 
L 285.634286 216.410098 
L 285.634286 216.410098 
L 285.634286 216.771358 
L 285.634286 216.431188 
L 285.634286 216.431188 
L 285.634286 215.068119 
L 285.634286 215.203911 
L 288.822857 215.308328 
L 288.822857 216.704039 
L 288.822857 215.321361 
L 288.822857 215.321361 
L 288.822857 214.697706 
L 288.822857 215.306559 
L 288.822857 215.306559 
L 288.822857 217.033459 
L 288.822857 215.348739 
L 288.822857 215.348739 
L 288.822857 214.968774 
L 288.822857 215.337586 
L 288.822857 215.337586 
L 288.822857 216.894559 
L 288.822857 216.713875 
L 292.011429 216.596819 
L 292.011429 215.212083 
L 292.011429 216.59475 
L 292.011429 216.59475 
L 292.011429 216.696146 
L 292.011429 216.634475 
L 292.011429 216.634475 
L 292.011429 215.179217 
L 292.011429 216.621423 
L 292.011429 216.621423 
L 292.011429 216.690645 
L 292.011429 216.624346 
L 292.011429 216.624346 
L 292.011429 215.057192 
L 292.011429 216.606817 
L 292.011429 216.606817 
L 292.011429 216.749818 
L 292.011429 216.624989 
L 292.011429 216.624989 
L 292.011429 216.136695 
L 295.2 215.977734 
L 295.2 214.84816 
L 295.2 215.9501 
L 295.2 215.9501 
L 295.2 216.824341 
L 295.2 216.002942 
L 295.2 216.002942 
L 295.2 214.976899 
L 295.2 215.963144 
L 295.2 215.963144 
L 295.2 216.836403 
L 295.2 215.967543 
L 295.2 215.967543 
L 295.2 215.123302 
L 295.2 215.950819 
L 295.2 215.950819 
L 295.2 216.64376 
L 298.388572 216.719116 
L 298.388572 216.557624 
L 298.388572 215.137923 
L 298.388572 216.52197 
L 298.388572 216.52197 
L 298.388572 216.849765 
L 298.388572 216.522256 
L 298.388572 216.522256 
L 298.388572 215.160313 
L 298.388572 216.506271 
L 298.388572 216.506271 
L 298.388572 216.894601 
L 298.388572 216.535912 
L 298.388572 216.535912 
L 298.388572 214.994262 
L 298.388572 216.531016 
L 298.388572 216.531016 
L 298.388572 216.786448 
L 301.577143 216.916955 
L 301.577143 217.11441 
L 301.577143 216.922839 
L 301.577143 216.922839 
L 301.577143 214.919576 
L 301.577143 216.916134 
L 301.577143 216.916134 
L 301.577143 216.934178 
L 301.577143 216.922775 
L 301.577143 216.922775 
L 301.577143 208.127012 
L 304.765715 207.951457 
L 304.765715 180.32801 
L 307.954286 180.23166 
L 307.954286 158.628694 
L 311.142858 158.452703 
L 311.142858 145.612055 
L 314.331429 145.4417 
L 314.331429 131.118899 
L 317.52 130.99901 
L 317.52 117.351187 
L 317.52 117.363736 
L 320.708571 117.266045 
L 320.708571 104.755079 
L 323.897143 104.582084 
L 323.897143 90.754253 
L 327.085714 90.605121 
L 327.085714 80.302366 
L 327.085714 80.302366 
L 327.085714 80.302366 
L 327.085714 351.712239 
L 327.085714 348.088228 
L 330.274285 347.950548 
L 330.274285 335.01319 
L 330.274285 335.014757 
L 333.462857 335.065314 
L 333.462857 334.924848 
L 333.462857 322.049262 
L 336.651428 321.933026 
L 336.651428 308.573338 
L 339.84 308.442767 
L 339.84 294.611083 
L 343.028571 294.459015 
L 343.028571 280.473384 
L 346.217143 280.340567 
L 346.217143 266.396258 
L 349.405714 266.259363 
L 349.405714 253.80555 
L 349.405714 253.808807 
L 352.594286 253.841737 
L 352.594286 253.794548 
L 352.594286 239.825278 
L 355.782857 239.648887 
L 355.782857 226.18181 
L 358.971429 226.060619 
L 358.971429 226.069199 
L 358.971429 226.017706 
L 358.971429 226.017706 
L 358.971429 226.017706 
L 358.971429 226.0758 
L 358.971429 226.057528 
L 358.971429 226.057528 
L 358.971429 212.800118 
L 358.971429 212.806063 
L 362.16 212.888569 
L 362.16 212.748917 
L 362.16 199.597329 
L 365.348572 199.462139 
L 365.348572 185.227244 
L 368.537143 185.121866 
L 368.537143 172.646725 
L 371.725715 172.465514 
L 371.725715 158.416223 
L 374.914286 158.271841 
L 374.914286 144.412482 
L 378.102858 144.266357 
L 378.102858 131.870692 
L 378.102858 131.973714 
L 381.291429 131.853986 
L 381.291429 118.551262 
L 384.48 118.436841 
L 384.48 104.336389 
L 387.668571 104.220708 
L 387.668571 90.543204 
L 390.857142 90.375323 
L 390.857142 80.344616 
L 390.857142 80.344616 
L 390.857142 80.344616 
L 390.857142 351.693965 
L 390.857142 349.093277 
L 394.045714 349.130102 
L 394.045714 349.003718 
L 394.045714 335.180931 
L 397.234285 335.018207 
L 397.234285 320.966352 
L 400.422857 320.830883 
L 400.422857 307.69388 
L 400.422857 307.710849 
L 403.611428 307.824274 
L 403.611428 307.823253 
L 403.611428 307.835551 
L 403.611428 307.835551 
L 403.611428 307.835551 
L 403.611428 294.073419 
L 406.8 293.949622 
L 406.8 293.947222 
L 406.8 293.947222 
L 406.8 293.947222 
L 406.8 293.971404 
L 406.8 293.956176 
L 406.8 293.956176 
L 406.8 280.828801 
L 406.8 280.834753 
L 409.988571 280.842036 
L 409.988571 280.759575 
L 409.988571 266.687306 
L 413.177143 266.566698 
L 413.177143 266.545157 
L 413.177143 266.557823 
L 413.177143 266.557823 
L 413.177143 266.596307 
L 413.177143 266.56783 
L 413.177143 266.56783 
L 413.177143 254.026975 
L 416.365714 253.888159 
L 416.365714 239.387818 
L 419.554286 239.234753 
L 419.554286 226.493061 
L 422.742857 226.437545 
L 422.742857 212.920312 
L 425.931429 212.740857 
L 425.931429 198.563346 
L 429.12 198.433558 
L 429.12 198.308198 
L 429.12 198.429362 
L 429.12 198.429362 
L 429.12 198.470981 
L 429.12 198.434837 
L 429.12 198.434837 
L 429.12 186.313799 
L 432.308572 186.227329 
L 432.308572 171.466227 
L 435.497143 171.31017 
L 435.497143 157.896192 
L 438.685715 157.749689 
L 438.685715 144.877958 
L 441.874286 144.755321 
L 441.874286 143.131082 
L 441.874286 143.646812 
L 457.817142 143.636195 
L 457.817142 143.636323 
" style="fill:none;stroke:#ffa500;stroke-linecap:square;"/>
   </g>
   <g id="patch_3">
    <path d="M 72 43.2 
L 518.4 43.2 
" style="fill:none;stroke:#000000;stroke-linecap:square;stroke-linejoin:miter;"/>
   </g>
   <g id="patch_4">
    <path d="M 518.4 388.8 
L 518.4 43.2 
" style="fill:none;stroke:#000000;stroke-linecap:square;stroke-linejoin:miter;"/>
   </g>
   <g id="patch_5">
    <path d="M 72 388.8 
L 518.4 388.8 
" style="fill:none;stroke:#000000;stroke-linecap:square;stroke-linejoin:miter;"/>
   </g>
   <g id="patch_6">
    <path d="M 72 388.8 
L 72 43.2 
" style="fill:none;stroke:#000000;stroke-linecap:square;stroke-linejoin:miter;"/>
   </g>
   <g id="matplotlib.axis_1">
    <g id="xtick_1">
     <g id="line2d_3">
      <defs>
       <path d="M 0 0 
L 0 -4 
" id="maad72d20bf" style="stroke:#000000;stroke-width:0.5;"/>
      </defs>
      <g>
       <use style="stroke:#000000;stroke-width:0.5;" x="72.0" xlink:href="#maad72d20bf" y="388.8"/>
      </g>
     </g>
     <g id="line2d_4">
      <defs>
       <path d="M 0 0 
L 0 4 
" id="m84ea734e26" style="stroke:#000000;stroke-width:0.5;"/>
      </defs>
      <g>
       <use style="stroke:#000000;stroke-width:0.5;" x="72.0" xlink:href="#m84ea734e26" y="43.19999999999999"/>
      </g>
     </g>
     <g id="text_1">
      <!-- 0 -->
      <defs>
       <path d="M 31.78125 66.40625 
Q 24.171875 66.40625 20.328125 58.90625 
Q 16.5 51.421875 16.5 36.375 
Q 16.5 21.390625 20.328125 13.890625 
Q 24.171875 6.390625 31.78125 6.390625 
Q 39.453125 6.390625 43.28125 13.890625 
Q 47.125 21.390625 47.125 36.375 
Q 47.125 51.421875 43.28125 58.90625 
Q 39.453125 66.40625 31.78125 66.40625 
M 31.78125 74.21875 
Q 44.046875 74.21875 50.515625 64.515625 
Q 56.984375 54.828125 56.984375 36.375 
Q 56.984375 17.96875 50.515625 8.265625 
Q 44.046875 -1.421875 31.78125 -1.421875 
Q 19.53125 -1.421875 13.0625 8.265625 
Q 6.59375 17.96875 6.59375 36.375 
Q 6.59375 54.828125 13.0625 64.515625 
Q 19.53125 74.21875 31.78125 74.21875 
" id="BitstreamVeraSans-Roman-30"/>
      </defs>
      <g transform="translate(68.1825 401.91812500000003)scale(0.12 -0.12)">
       <use xlink:href="#BitstreamVeraSans-Roman-30"/>
      </g>
     </g>
    </g>
    <g id="xtick_2">
     <g id="line2d_5">
      <g>
       <use style="stroke:#000000;stroke-width:0.5;" x="135.77142906188965" xlink:href="#maad72d20bf" y="388.8"/>
      </g>
     </g>
     <g id="line2d_6">
      <g>
       <use style="stroke:#000000;stroke-width:0.5;" x="135.77142906188965" xlink:href="#m84ea734e26" y="43.19999999999999"/>
      </g>
     </g>
     <g id="text_2">
      <!-- 20 -->
      <defs>
       <path d="M 19.1875 8.296875 
L 53.609375 8.296875 
L 53.609375 0 
L 7.328125 0 
L 7.328125 8.296875 
Q 12.9375 14.109375 22.625 23.890625 
Q 32.328125 33.6875 34.8125 36.53125 
Q 39.546875 41.84375 41.421875 45.53125 
Q 43.3125 49.21875 43.3125 52.78125 
Q 43.3125 58.59375 39.234375 62.25 
Q 35.15625 65.921875 28.609375 65.921875 
Q 23.96875 65.921875 18.8125 64.3125 
Q 13.671875 62.703125 7.8125 59.421875 
L 7.8125 69.390625 
Q 13.765625 71.78125 18.9375 73 
Q 24.125 74.21875 28.421875 74.21875 
Q 39.75 74.21875 46.484375 68.546875 
Q 53.21875 62.890625 53.21875 53.421875 
Q 53.21875 48.921875 51.53125 44.890625 
Q 49.859375 40.875 45.40625 35.40625 
Q 44.1875 33.984375 37.640625 27.21875 
Q 31.109375 20.453125 19.1875 8.296875 
" id="BitstreamVeraSans-Roman-32"/>
      </defs>
      <g transform="translate(128.13642906188966 401.91812500000003)scale(0.12 -0.12)">
       <use xlink:href="#BitstreamVeraSans-Roman-32"/>
       <use x="63.623046875" xlink:href="#BitstreamVeraSans-Roman-30"/>
      </g>
     </g>
    </g>
    <g id="xtick_3">
     <g id="line2d_7">
      <g>
       <use style="stroke:#000000;stroke-width:0.5;" x="199.54285717010498" xlink:href="#maad72d20bf" y="388.8"/>
      </g>
     </g>
     <g id="line2d_8">
      <g>
       <use style="stroke:#000000;stroke-width:0.5;" x="199.54285717010498" xlink:href="#m84ea734e26" y="43.19999999999999"/>
      </g>
     </g>
     <g id="text_3">
      <!-- 40 -->
      <defs>
       <path d="M 37.796875 64.3125 
L 12.890625 25.390625 
L 37.796875 25.390625 
z
M 35.203125 72.90625 
L 47.609375 72.90625 
L 47.609375 25.390625 
L 58.015625 25.390625 
L 58.015625 17.1875 
L 47.609375 17.1875 
L 47.609375 0 
L 37.796875 0 
L 37.796875 17.1875 
L 4.890625 17.1875 
L 4.890625 26.703125 
z
" id="BitstreamVeraSans-Roman-34"/>
      </defs>
      <g transform="translate(191.907857170105 401.91812500000003)scale(0.12 -0.12)">
       <use xlink:href="#BitstreamVeraSans-Roman-34"/>
       <use x="63.623046875" xlink:href="#BitstreamVeraSans-Roman-30"/>
      </g>
     </g>
    </g>
    <g id="xtick_4">
     <g id="line2d_9">
      <g>
       <use style="stroke:#000000;stroke-width:0.5;" x="263.31428623199463" xlink:href="#maad72d20bf" y="388.8"/>
      </g>
     </g>
     <g id="line2d_10">
      <g>
       <use style="stroke:#000000;stroke-width:0.5;" x="263.31428623199463" xlink:href="#m84ea734e26" y="43.19999999999999"/>
      </g>
     </g>
     <g id="text_4">
      <!-- 60 -->
      <defs>
       <path d="M 33.015625 40.375 
Q 26.375 40.375 22.484375 35.828125 
Q 18.609375 31.296875 18.609375 23.390625 
Q 18.609375 15.53125 22.484375 10.953125 
Q 26.375 6.390625 33.015625 6.390625 
Q 39.65625 6.390625 43.53125 10.953125 
Q 47.40625 15.53125 47.40625 23.390625 
Q 47.40625 31.296875 43.53125 35.828125 
Q 39.65625 40.375 33.015625 40.375 
M 52.59375 71.296875 
L 52.59375 62.3125 
Q 48.875 64.0625 45.09375 64.984375 
Q 41.3125 65.921875 37.59375 65.921875 
Q 27.828125 65.921875 22.671875 59.328125 
Q 17.53125 52.734375 16.796875 39.40625 
Q 19.671875 43.65625 24.015625 45.921875 
Q 28.375 48.1875 33.59375 48.1875 
Q 44.578125 48.1875 50.953125 41.515625 
Q 57.328125 34.859375 57.328125 23.390625 
Q 57.328125 12.15625 50.6875 5.359375 
Q 44.046875 -1.421875 33.015625 -1.421875 
Q 20.359375 -1.421875 13.671875 8.265625 
Q 6.984375 17.96875 6.984375 36.375 
Q 6.984375 53.65625 15.1875 63.9375 
Q 23.390625 74.21875 37.203125 74.21875 
Q 40.921875 74.21875 44.703125 73.484375 
Q 48.484375 72.75 52.59375 71.296875 
" id="BitstreamVeraSans-Roman-36"/>
      </defs>
      <g transform="translate(255.67928623199464 401.91812500000003)scale(0.12 -0.12)">
       <use xlink:href="#BitstreamVeraSans-Roman-36"/>
       <use x="63.623046875" xlink:href="#BitstreamVeraSans-Roman-30"/>
      </g>
     </g>
    </g>
    <g id="xtick_5">
     <g id="line2d_11">
      <g>
       <use style="stroke:#000000;stroke-width:0.5;" x="327.08571434020996" xlink:href="#maad72d20bf" y="388.8"/>
      </g>
     </g>
     <g id="line2d_12">
      <g>
       <use style="stroke:#000000;stroke-width:0.5;" x="327.08571434020996" xlink:href="#m84ea734e26" y="43.19999999999999"/>
      </g>
     </g>
     <g id="text_5">
      <!-- 80 -->
      <defs>
       <path d="M 31.78125 34.625 
Q 24.75 34.625 20.71875 30.859375 
Q 16.703125 27.09375 16.703125 20.515625 
Q 16.703125 13.921875 20.71875 10.15625 
Q 24.75 6.390625 31.78125 6.390625 
Q 38.8125 6.390625 42.859375 10.171875 
Q 46.921875 13.96875 46.921875 20.515625 
Q 46.921875 27.09375 42.890625 30.859375 
Q 38.875 34.625 31.78125 34.625 
M 21.921875 38.8125 
Q 15.578125 40.375 12.03125 44.71875 
Q 8.5 49.078125 8.5 55.328125 
Q 8.5 64.0625 14.71875 69.140625 
Q 20.953125 74.21875 31.78125 74.21875 
Q 42.671875 74.21875 48.875 69.140625 
Q 55.078125 64.0625 55.078125 55.328125 
Q 55.078125 49.078125 51.53125 44.71875 
Q 48 40.375 41.703125 38.8125 
Q 48.828125 37.15625 52.796875 32.3125 
Q 56.78125 27.484375 56.78125 20.515625 
Q 56.78125 9.90625 50.3125 4.234375 
Q 43.84375 -1.421875 31.78125 -1.421875 
Q 19.734375 -1.421875 13.25 4.234375 
Q 6.78125 9.90625 6.78125 20.515625 
Q 6.78125 27.484375 10.78125 32.3125 
Q 14.796875 37.15625 21.921875 38.8125 
M 18.3125 54.390625 
Q 18.3125 48.734375 21.84375 45.5625 
Q 25.390625 42.390625 31.78125 42.390625 
Q 38.140625 42.390625 41.71875 45.5625 
Q 45.3125 48.734375 45.3125 54.390625 
Q 45.3125 60.0625 41.71875 63.234375 
Q 38.140625 66.40625 31.78125 66.40625 
Q 25.390625 66.40625 21.84375 63.234375 
Q 18.3125 60.0625 18.3125 54.390625 
" id="BitstreamVeraSans-Roman-38"/>
      </defs>
      <g transform="translate(319.45071434020997 401.91812500000003)scale(0.12 -0.12)">
       <use xlink:href="#BitstreamVeraSans-Roman-38"/>
       <use x="63.623046875" xlink:href="#BitstreamVeraSans-Roman-30"/>
      </g>
     </g>
    </g>
    <g id="xtick_6">
     <g id="line2d_13">
      <g>
       <use style="stroke:#000000;stroke-width:0.5;" x="390.8571424484253" xlink:href="#maad72d20bf" y="388.8"/>
      </g>
     </g>
     <g id="line2d_14">
      <g>
       <use style="stroke:#000000;stroke-width:0.5;" x="390.8571424484253" xlink:href="#m84ea734e26" y="43.19999999999999"/>
      </g>
     </g>
     <g id="text_6">
      <!-- 100 -->
      <defs>
       <path d="M 12.40625 8.296875 
L 28.515625 8.296875 
L 28.515625 63.921875 
L 10.984375 60.40625 
L 10.984375 69.390625 
L 28.421875 72.90625 
L 38.28125 72.90625 
L 38.28125 8.296875 
L 54.390625 8.296875 
L 54.390625 0 
L 12.40625 0 
z
" id="BitstreamVeraSans-Roman-31"/>
      </defs>
      <g transform="translate(379.4046424484253 401.91812500000003)scale(0.12 -0.12)">
       <use xlink:href="#BitstreamVeraSans-Roman-31"/>
       <use x="63.623046875" xlink:href="#BitstreamVeraSans-Roman-30"/>
       <use x="127.24609375" xlink:href="#BitstreamVeraSans-Roman-30"/>
      </g>
     </g>
    </g>
    <g id="xtick_7">
     <g id="line2d_15">
      <g>
       <use style="stroke:#000000;stroke-width:0.5;" x="454.62857151031494" xlink:href="#maad72d20bf" y="388.8"/>
      </g>
     </g>
     <g id="line2d_16">
      <g>
       <use style="stroke:#000000;stroke-width:0.5;" x="454.62857151031494" xlink:href="#m84ea734e26" y="43.19999999999999"/>
      </g>
     </g>
     <g id="text_7">
      <!-- 120 -->
      <g transform="translate(443.17607151031496 401.91812500000003)scale(0.12 -0.12)">
       <use xlink:href="#BitstreamVeraSans-Roman-31"/>
       <use x="63.623046875" xlink:href="#BitstreamVeraSans-Roman-32"/>
       <use x="127.24609375" xlink:href="#BitstreamVeraSans-Roman-30"/>
      </g>
     </g>
    </g>
    <g id="xtick_8">
     <g id="line2d_17">
      <g>
       <use style="stroke:#000000;stroke-width:0.5;" x="518.3999996185303" xlink:href="#maad72d20bf" y="388.8"/>
      </g>
     </g>
     <g id="line2d_18">
      <g>
       <use style="stroke:#000000;stroke-width:0.5;" x="518.3999996185303" xlink:href="#m84ea734e26" y="43.19999999999999"/>
      </g>
     </g>
     <g id="text_8">
      <!-- 140 -->
      <g transform="translate(506.9474996185303 401.91812500000003)scale(0.12 -0.12)">
       <use xlink:href="#BitstreamVeraSans-Roman-31"/>
       <use x="63.623046875" xlink:href="#BitstreamVeraSans-Roman-34"/>
       <use x="127.24609375" xlink:href="#BitstreamVeraSans-Roman-30"/>
      </g>
     </g>
    </g>
    <g id="text_9">
     <!-- Time -->
     <defs>
      <path d="M 56.203125 29.59375 
L 56.203125 25.203125 
L 14.890625 25.203125 
Q 15.484375 15.921875 20.484375 11.0625 
Q 25.484375 6.203125 34.421875 6.203125 
Q 39.59375 6.203125 44.453125 7.46875 
Q 49.3125 8.734375 54.109375 11.28125 
L 54.109375 2.78125 
Q 49.265625 0.734375 44.1875 -0.34375 
Q 39.109375 -1.421875 33.890625 -1.421875 
Q 20.796875 -1.421875 13.15625 6.1875 
Q 5.515625 13.8125 5.515625 26.8125 
Q 5.515625 40.234375 12.765625 48.109375 
Q 20.015625 56 32.328125 56 
Q 43.359375 56 49.78125 48.890625 
Q 56.203125 41.796875 56.203125 29.59375 
M 47.21875 32.234375 
Q 47.125 39.59375 43.09375 43.984375 
Q 39.0625 48.390625 32.421875 48.390625 
Q 24.90625 48.390625 20.390625 44.140625 
Q 15.875 39.890625 15.1875 32.171875 
z
" id="BitstreamVeraSans-Roman-65"/>
      <path d="M 9.421875 54.6875 
L 18.40625 54.6875 
L 18.40625 0 
L 9.421875 0 
z
M 9.421875 75.984375 
L 18.40625 75.984375 
L 18.40625 64.59375 
L 9.421875 64.59375 
z
" id="BitstreamVeraSans-Roman-69"/>
      <path d="M -0.296875 72.90625 
L 61.375 72.90625 
L 61.375 64.59375 
L 35.5 64.59375 
L 35.5 0 
L 25.59375 0 
L 25.59375 64.59375 
L -0.296875 64.59375 
z
" id="BitstreamVeraSans-Roman-54"/>
      <path d="M 52 44.1875 
Q 55.375 50.25 60.0625 53.125 
Q 64.75 56 71.09375 56 
Q 79.640625 56 84.28125 50.015625 
Q 88.921875 44.046875 88.921875 33.015625 
L 88.921875 0 
L 79.890625 0 
L 79.890625 32.71875 
Q 79.890625 40.578125 77.09375 44.375 
Q 74.3125 48.1875 68.609375 48.1875 
Q 61.625 48.1875 57.5625 43.546875 
Q 53.515625 38.921875 53.515625 30.90625 
L 53.515625 0 
L 44.484375 0 
L 44.484375 32.71875 
Q 44.484375 40.625 41.703125 44.40625 
Q 38.921875 48.1875 33.109375 48.1875 
Q 26.21875 48.1875 22.15625 43.53125 
Q 18.109375 38.875 18.109375 30.90625 
L 18.109375 0 
L 9.078125 0 
L 9.078125 54.6875 
L 18.109375 54.6875 
L 18.109375 46.1875 
Q 21.1875 51.21875 25.484375 53.609375 
Q 29.78125 56 35.6875 56 
Q 41.65625 56 45.828125 52.96875 
Q 50 49.953125 52 44.1875 
" id="BitstreamVeraSans-Roman-6d"/>
     </defs>
     <g transform="translate(280.335 418.531875)scale(0.12 -0.12)">
      <use xlink:href="#BitstreamVeraSans-Roman-54"/>
      <use x="61.037109375" xlink:href="#BitstreamVeraSans-Roman-69"/>
      <use x="88.8203125" xlink:href="#BitstreamVeraSans-Roman-6d"/>
      <use x="186.232421875" xlink:href="#BitstreamVeraSans-Roman-65"/>
     </g>
    </g>
    <g id="text_10">
     <!-- +1.5813508e9 -->
     <defs>
      <path d="M 40.578125 39.3125 
Q 47.65625 37.796875 51.625 33 
Q 55.609375 28.21875 55.609375 21.1875 
Q 55.609375 10.40625 48.1875 4.484375 
Q 40.765625 -1.421875 27.09375 -1.421875 
Q 22.515625 -1.421875 17.65625 -0.515625 
Q 12.796875 0.390625 7.625 2.203125 
L 7.625 11.71875 
Q 11.71875 9.328125 16.59375 8.109375 
Q 21.484375 6.890625 26.8125 6.890625 
Q 36.078125 6.890625 40.9375 10.546875 
Q 45.796875 14.203125 45.796875 21.1875 
Q 45.796875 27.640625 41.28125 31.265625 
Q 36.765625 34.90625 28.71875 34.90625 
L 20.21875 34.90625 
L 20.21875 43.015625 
L 29.109375 43.015625 
Q 36.375 43.015625 40.234375 45.921875 
Q 44.09375 48.828125 44.09375 54.296875 
Q 44.09375 59.90625 40.109375 62.90625 
Q 36.140625 65.921875 28.71875 65.921875 
Q 24.65625 65.921875 20.015625 65.03125 
Q 15.375 64.15625 9.8125 62.3125 
L 9.8125 71.09375 
Q 15.4375 72.65625 20.34375 73.4375 
Q 25.25 74.21875 29.59375 74.21875 
Q 40.828125 74.21875 47.359375 69.109375 
Q 53.90625 64.015625 53.90625 55.328125 
Q 53.90625 49.265625 50.4375 45.09375 
Q 46.96875 40.921875 40.578125 39.3125 
" id="BitstreamVeraSans-Roman-33"/>
      <path d="M 10.984375 1.515625 
L 10.984375 10.5 
Q 14.703125 8.734375 18.5 7.8125 
Q 22.3125 6.890625 25.984375 6.890625 
Q 35.75 6.890625 40.890625 13.453125 
Q 46.046875 20.015625 46.78125 33.40625 
Q 43.953125 29.203125 39.59375 26.953125 
Q 35.25 24.703125 29.984375 24.703125 
Q 19.046875 24.703125 12.671875 31.3125 
Q 6.296875 37.9375 6.296875 49.421875 
Q 6.296875 60.640625 12.9375 67.421875 
Q 19.578125 74.21875 30.609375 74.21875 
Q 43.265625 74.21875 49.921875 64.515625 
Q 56.59375 54.828125 56.59375 36.375 
Q 56.59375 19.140625 48.40625 8.859375 
Q 40.234375 -1.421875 26.421875 -1.421875 
Q 22.703125 -1.421875 18.890625 -0.6875 
Q 15.09375 0.046875 10.984375 1.515625 
M 30.609375 32.421875 
Q 37.25 32.421875 41.125 36.953125 
Q 45.015625 41.5 45.015625 49.421875 
Q 45.015625 57.28125 41.125 61.84375 
Q 37.25 66.40625 30.609375 66.40625 
Q 23.96875 66.40625 20.09375 61.84375 
Q 16.21875 57.28125 16.21875 49.421875 
Q 16.21875 41.5 20.09375 36.953125 
Q 23.96875 32.421875 30.609375 32.421875 
" id="BitstreamVeraSans-Roman-39"/>
      <path d="M 46 62.703125 
L 46 35.5 
L 73.1875 35.5 
L 73.1875 27.203125 
L 46 27.203125 
L 46 0 
L 37.796875 0 
L 37.796875 27.203125 
L 10.59375 27.203125 
L 10.59375 35.5 
L 37.796875 35.5 
L 37.796875 62.703125 
z
" id="BitstreamVeraSans-Roman-2b"/>
      <path d="M 10.6875 12.40625 
L 21 12.40625 
L 21 0 
L 10.6875 0 
z
" id="BitstreamVeraSans-Roman-2e"/>
      <path d="M 10.796875 72.90625 
L 49.515625 72.90625 
L 49.515625 64.59375 
L 19.828125 64.59375 
L 19.828125 46.734375 
Q 21.96875 47.46875 24.109375 47.828125 
Q 26.265625 48.1875 28.421875 48.1875 
Q 40.625 48.1875 47.75 41.5 
Q 54.890625 34.8125 54.890625 23.390625 
Q 54.890625 11.625 47.5625 5.09375 
Q 40.234375 -1.421875 26.90625 -1.421875 
Q 22.3125 -1.421875 17.546875 -0.640625 
Q 12.796875 0.140625 7.71875 1.703125 
L 7.71875 11.625 
Q 12.109375 9.234375 16.796875 8.0625 
Q 21.484375 6.890625 26.703125 6.890625 
Q 35.15625 6.890625 40.078125 11.328125 
Q 45.015625 15.765625 45.015625 23.390625 
Q 45.015625 31 40.078125 35.4375 
Q 35.15625 39.890625 26.703125 39.890625 
Q 22.75 39.890625 18.8125 39.015625 
Q 14.890625 38.140625 10.796875 36.28125 
z
" id="BitstreamVeraSans-Roman-35"/>
     </defs>
     <g transform="translate(428.431875 416.531875)scale(0.12 -0.12)">
      <use xlink:href="#BitstreamVeraSans-Roman-2b"/>
      <use x="83.7890625" xlink:href="#BitstreamVeraSans-Roman-31"/>
      <use x="147.412109375" xlink:href="#BitstreamVeraSans-Roman-2e"/>
      <use x="179.19921875" xlink:href="#BitstreamVeraSans-Roman-35"/>
      <use x="242.822265625" xlink:href="#BitstreamVeraSans-Roman-38"/>
      <use x="306.4453125" xlink:href="#BitstreamVeraSans-Roman-31"/>
      <use x="370.068359375" xlink:href="#BitstreamVeraSans-Roman-33"/>
      <use x="433.69140625" xlink:href="#BitstreamVeraSans-Roman-35"/>
      <use x="497.314453125" xlink:href="#BitstreamVeraSans-Roman-30"/>
      <use x="560.9375" xlink:href="#BitstreamVeraSans-Roman-38"/>
      <use x="624.560546875" xlink:href="#BitstreamVeraSans-Roman-65"/>
      <use x="686.083984375" xlink:href="#BitstreamVeraSans-Roman-39"/>
     </g>
    </g>
   </g>
   <g id="matplotlib.axis_2">
    <g id="ytick_1">
     <g id="line2d_19">
      <defs>
       <path d="M 0 0 
L 4 0 
" id="mfeb24512c4" style="stroke:#000000;stroke-width:0.5;"/>
      </defs>
      <g>
       <use style="stroke:#000000;stroke-width:0.5;" x="72.0" xlink:href="#mfeb24512c4" y="388.8"/>
      </g>
     </g>
     <g id="line2d_20">
      <defs>
       <path d="M 0 0 
L -4 0 
" id="m971fe526b3" style="stroke:#000000;stroke-width:0.5;"/>
      </defs>
      <g>
       <use style="stroke:#000000;stroke-width:0.5;" x="518.4" xlink:href="#m971fe526b3" y="388.8"/>
      </g>
     </g>
     <g id="text_11">
      <!-- −4 -->
      <defs>
       <path d="M 10.59375 35.5 
L 73.1875 35.5 
L 73.1875 27.203125 
L 10.59375 27.203125 
z
" id="BitstreamVeraSans-Roman-2212"/>
      </defs>
      <g transform="translate(50.309375 392.11125000000004)scale(0.12 -0.12)">
       <use xlink:href="#BitstreamVeraSans-Roman-2212"/>
       <use x="83.7890625" xlink:href="#BitstreamVeraSans-Roman-34"/>
      </g>
     </g>
    </g>
    <g id="ytick_2">
     <g id="line2d_21">
      <g>
       <use style="stroke:#000000;stroke-width:0.5;" x="72.0" xlink:href="#mfeb24512c4" y="345.6"/>
      </g>
     </g>
     <g id="line2d_22">
      <g>
       <use style="stroke:#000000;stroke-width:0.5;" x="518.4" xlink:href="#m971fe526b3" y="345.6"/>
      </g>
     </g>
     <g id="text_12">
      <!-- −3 -->
      <g transform="translate(50.309375 348.91125)scale(0.12 -0.12)">
       <use xlink:href="#BitstreamVeraSans-Roman-2212"/>
       <use x="83.7890625" xlink:href="#BitstreamVeraSans-Roman-33"/>
      </g>
     </g>
    </g>
    <g id="ytick_3">
     <g id="line2d_23">
      <g>
       <use style="stroke:#000000;stroke-width:0.5;" x="72.0" xlink:href="#mfeb24512c4" y="302.4"/>
      </g>
     </g>
     <g id="line2d_24">
      <g>
       <use style="stroke:#000000;stroke-width:0.5;" x="518.4" xlink:href="#m971fe526b3" y="302.4"/>
      </g>
     </g>
     <g id="text_13">
      <!-- −2 -->
      <g transform="translate(50.309375 305.71125)scale(0.12 -0.12)">
       <use xlink:href="#BitstreamVeraSans-Roman-2212"/>
       <use x="83.7890625" xlink:href="#BitstreamVeraSans-Roman-32"/>
      </g>
     </g>
    </g>
    <g id="ytick_4">
     <g id="line2d_25">
      <g>
       <use style="stroke:#000000;stroke-width:0.5;" x="72.0" xlink:href="#mfeb24512c4" y="259.2"/>
      </g>
     </g>
     <g id="line2d_26">
      <g>
       <use style="stroke:#000000;stroke-width:0.5;" x="518.4" xlink:href="#m971fe526b3" y="259.2"/>
      </g>
     </g>
     <g id="text_14">
      <!-- −1 -->
      <g transform="translate(50.309375 262.51125)scale(0.12 -0.12)">
       <use xlink:href="#BitstreamVeraSans-Roman-2212"/>
       <use x="83.7890625" xlink:href="#BitstreamVeraSans-Roman-31"/>
      </g>
     </g>
    </g>
    <g id="ytick_5">
     <g id="line2d_27">
      <g>
       <use style="stroke:#000000;stroke-width:0.5;" x="72.0" xlink:href="#mfeb24512c4" y="216.0"/>
      </g>
     </g>
     <g id="line2d_28">
      <g>
       <use style="stroke:#000000;stroke-width:0.5;" x="518.4" xlink:href="#m971fe526b3" y="216.0"/>
      </g>
     </g>
     <g id="text_15">
      <!-- 0 -->
      <g transform="translate(60.365 219.31125)scale(0.12 -0.12)">
       <use xlink:href="#BitstreamVeraSans-Roman-30"/>
      </g>
     </g>
    </g>
    <g id="ytick_6">
     <g id="line2d_29">
      <g>
       <use style="stroke:#000000;stroke-width:0.5;" x="72.0" xlink:href="#mfeb24512c4" y="172.8"/>
      </g>
     </g>
     <g id="line2d_30">
      <g>
       <use style="stroke:#000000;stroke-width:0.5;" x="518.4" xlink:href="#m971fe526b3" y="172.8"/>
      </g>
     </g>
     <g id="text_16">
      <!-- 1 -->
      <g transform="translate(60.365 176.11125)scale(0.12 -0.12)">
       <use xlink:href="#BitstreamVeraSans-Roman-31"/>
      </g>
     </g>
    </g>
    <g id="ytick_7">
     <g id="line2d_31">
      <g>
       <use style="stroke:#000000;stroke-width:0.5;" x="72.0" xlink:href="#mfeb24512c4" y="129.6"/>
      </g>
     </g>
     <g id="line2d_32">
      <g>
       <use style="stroke:#000000;stroke-width:0.5;" x="518.4" xlink:href="#m971fe526b3" y="129.6"/>
      </g>
     </g>
     <g id="text_17">
      <!-- 2 -->
      <g transform="translate(60.365 132.91125)scale(0.12 -0.12)">
       <use xlink:href="#BitstreamVeraSans-Roman-32"/>
      </g>
     </g>
    </g>
    <g id="ytick_8">
     <g id="line2d_33">
      <g>
       <use style="stroke:#000000;stroke-width:0.5;" x="72.0" xlink:href="#mfeb24512c4" y="86.39999999999998"/>
      </g>
     </g>
     <g id="line2d_34">
      <g>
       <use style="stroke:#000000;stroke-width:0.5;" x="518.4" xlink:href="#m971fe526b3" y="86.39999999999998"/>
      </g>
     </g>
     <g id="text_18">
      <!-- 3 -->
      <g transform="translate(60.365 89.71124999999995)scale(0.12 -0.12)">
       <use xlink:href="#BitstreamVeraSans-Roman-33"/>
      </g>
     </g>
    </g>
    <g id="ytick_9">
     <g id="line2d_35">
      <g>
       <use style="stroke:#000000;stroke-width:0.5;" x="72.0" xlink:href="#mfeb24512c4" y="43.19999999999999"/>
      </g>
     </g>
     <g id="line2d_36">
      <g>
       <use style="stroke:#000000;stroke-width:0.5;" x="518.4" xlink:href="#m971fe526b3" y="43.19999999999999"/>
      </g>
     </g>
     <g id="text_19">
      <!-- 4 -->
      <g transform="translate(60.365 46.51124999999996)scale(0.12 -0.12)">
       <use xlink:href="#BitstreamVeraSans-Roman-34"/>
      </g>
     </g>
    </g>
    <g id="text_20">
     <!-- Angle (radian) -->
     <defs>
      <path id="BitstreamVeraSans-Roman-20"/>
      <path d="M 54.890625 33.015625 
L 54.890625 0 
L 45.90625 0 
L 45.90625 32.71875 
Q 45.90625 40.484375 42.875 44.328125 
Q 39.84375 48.1875 33.796875 48.1875 
Q 26.515625 48.1875 22.3125 43.546875 
Q 18.109375 38.921875 18.109375 30.90625 
L 18.109375 0 
L 9.078125 0 
L 9.078125 54.6875 
L 18.109375 54.6875 
L 18.109375 46.1875 
Q 21.34375 51.125 25.703125 53.5625 
Q 30.078125 56 35.796875 56 
Q 45.21875 56 50.046875 50.171875 
Q 54.890625 44.34375 54.890625 33.015625 
" id="BitstreamVeraSans-Roman-6e"/>
      <path d="M 31 75.875 
Q 24.46875 64.65625 21.28125 53.65625 
Q 18.109375 42.671875 18.109375 31.390625 
Q 18.109375 20.125 21.3125 9.0625 
Q 24.515625 -2 31 -13.1875 
L 23.1875 -13.1875 
Q 15.875 -1.703125 12.234375 9.375 
Q 8.59375 20.453125 8.59375 31.390625 
Q 8.59375 42.28125 12.203125 53.3125 
Q 15.828125 64.359375 23.1875 75.875 
z
" id="BitstreamVeraSans-Roman-28"/>
      <path d="M 9.421875 75.984375 
L 18.40625 75.984375 
L 18.40625 0 
L 9.421875 0 
z
" id="BitstreamVeraSans-Roman-6c"/>
      <path d="M 34.28125 27.484375 
Q 23.390625 27.484375 19.1875 25 
Q 14.984375 22.515625 14.984375 16.5 
Q 14.984375 11.71875 18.140625 8.90625 
Q 21.296875 6.109375 26.703125 6.109375 
Q 34.1875 6.109375 38.703125 11.40625 
Q 43.21875 16.703125 43.21875 25.484375 
L 43.21875 27.484375 
z
M 52.203125 31.203125 
L 52.203125 0 
L 43.21875 0 
L 43.21875 8.296875 
Q 40.140625 3.328125 35.546875 0.953125 
Q 30.953125 -1.421875 24.3125 -1.421875 
Q 15.921875 -1.421875 10.953125 3.296875 
Q 6 8.015625 6 15.921875 
Q 6 25.140625 12.171875 29.828125 
Q 18.359375 34.515625 30.609375 34.515625 
L 43.21875 34.515625 
L 43.21875 35.40625 
Q 43.21875 41.609375 39.140625 45 
Q 35.0625 48.390625 27.6875 48.390625 
Q 23 48.390625 18.546875 47.265625 
Q 14.109375 46.140625 10.015625 43.890625 
L 10.015625 52.203125 
Q 14.9375 54.109375 19.578125 55.046875 
Q 24.21875 56 28.609375 56 
Q 40.484375 56 46.34375 49.84375 
Q 52.203125 43.703125 52.203125 31.203125 
" id="BitstreamVeraSans-Roman-61"/>
      <path d="M 34.1875 63.1875 
L 20.796875 26.90625 
L 47.609375 26.90625 
z
M 28.609375 72.90625 
L 39.796875 72.90625 
L 67.578125 0 
L 57.328125 0 
L 50.6875 18.703125 
L 17.828125 18.703125 
L 11.1875 0 
L 0.78125 0 
z
" id="BitstreamVeraSans-Roman-41"/>
      <path d="M 45.40625 46.390625 
L 45.40625 75.984375 
L 54.390625 75.984375 
L 54.390625 0 
L 45.40625 0 
L 45.40625 8.203125 
Q 42.578125 3.328125 38.25 0.953125 
Q 33.9375 -1.421875 27.875 -1.421875 
Q 17.96875 -1.421875 11.734375 6.484375 
Q 5.515625 14.40625 5.515625 27.296875 
Q 5.515625 40.1875 11.734375 48.09375 
Q 17.96875 56 27.875 56 
Q 33.9375 56 38.25 53.625 
Q 42.578125 51.265625 45.40625 46.390625 
M 14.796875 27.296875 
Q 14.796875 17.390625 18.875 11.75 
Q 22.953125 6.109375 30.078125 6.109375 
Q 37.203125 6.109375 41.296875 11.75 
Q 45.40625 17.390625 45.40625 27.296875 
Q 45.40625 37.203125 41.296875 42.84375 
Q 37.203125 48.484375 30.078125 48.484375 
Q 22.953125 48.484375 18.875 42.84375 
Q 14.796875 37.203125 14.796875 27.296875 
" id="BitstreamVeraSans-Roman-64"/>
      <path d="M 45.40625 27.984375 
Q 45.40625 37.75 41.375 43.109375 
Q 37.359375 48.484375 30.078125 48.484375 
Q 22.859375 48.484375 18.828125 43.109375 
Q 14.796875 37.75 14.796875 27.984375 
Q 14.796875 18.265625 18.828125 12.890625 
Q 22.859375 7.515625 30.078125 7.515625 
Q 37.359375 7.515625 41.375 12.890625 
Q 45.40625 18.265625 45.40625 27.984375 
M 54.390625 6.78125 
Q 54.390625 -7.171875 48.1875 -13.984375 
Q 42 -20.796875 29.203125 -20.796875 
Q 24.46875 -20.796875 20.265625 -20.09375 
Q 16.0625 -19.390625 12.109375 -17.921875 
L 12.109375 -9.1875 
Q 16.0625 -11.328125 19.921875 -12.34375 
Q 23.78125 -13.375 27.78125 -13.375 
Q 36.625 -13.375 41.015625 -8.765625 
Q 45.40625 -4.15625 45.40625 5.171875 
L 45.40625 9.625 
Q 42.625 4.78125 38.28125 2.390625 
Q 33.9375 0 27.875 0 
Q 17.828125 0 11.671875 7.65625 
Q 5.515625 15.328125 5.515625 27.984375 
Q 5.515625 40.671875 11.671875 48.328125 
Q 17.828125 56 27.875 56 
Q 33.9375 56 38.28125 53.609375 
Q 42.625 51.21875 45.40625 46.390625 
L 45.40625 54.6875 
L 54.390625 54.6875 
z
" id="BitstreamVeraSans-Roman-67"/>
      <path d="M 41.109375 46.296875 
Q 39.59375 47.171875 37.8125 47.578125 
Q 36.03125 48 33.890625 48 
Q 26.265625 48 22.1875 43.046875 
Q 18.109375 38.09375 18.109375 28.8125 
L 18.109375 0 
L 9.078125 0 
L 9.078125 54.6875 
L 18.109375 54.6875 
L 18.109375 46.1875 
Q 20.953125 51.171875 25.484375 53.578125 
Q 30.03125 56 36.53125 56 
Q 37.453125 56 38.578125 55.875 
Q 39.703125 55.765625 41.0625 55.515625 
z
" id="BitstreamVeraSans-Roman-72"/>
      <path d="M 8.015625 75.875 
L 15.828125 75.875 
Q 23.140625 64.359375 26.78125 53.3125 
Q 30.421875 42.28125 30.421875 31.390625 
Q 30.421875 20.453125 26.78125 9.375 
Q 23.140625 -1.703125 15.828125 -13.1875 
L 8.015625 -13.1875 
Q 14.5 -2 17.703125 9.0625 
Q 20.90625 20.125 20.90625 31.390625 
Q 20.90625 42.671875 17.703125 53.65625 
Q 14.5 64.65625 8.015625 75.875 
" id="BitstreamVeraSans-Roman-29"/>
     </defs>
     <g transform="translate(42.81375 258.7621875)rotate(-90.0)scale(0.12 -0.12)">
      <use xlink:href="#BitstreamVeraSans-Roman-41"/>
      <use x="68.408203125" xlink:href="#BitstreamVeraSans-Roman-6e"/>
      <use x="131.787109375" xlink:href="#BitstreamVeraSans-Roman-67"/>
      <use x="195.263671875" xlink:href="#BitstreamVeraSans-Roman-6c"/>
      <use x="223.046875" xlink:href="#BitstreamVeraSans-Roman-65"/>
      <use x="284.5703125" xlink:href="#BitstreamVeraSans-Roman-20"/>
      <use x="316.357421875" xlink:href="#BitstreamVeraSans-Roman-28"/>
      <use x="355.37109375" xlink:href="#BitstreamVeraSans-Roman-72"/>
      <use x="396.484375" xlink:href="#BitstreamVeraSans-Roman-61"/>
      <use x="457.763671875" xlink:href="#BitstreamVeraSans-Roman-64"/>
      <use x="521.240234375" xlink:href="#BitstreamVeraSans-Roman-69"/>
      <use x="549.0234375" xlink:href="#BitstreamVeraSans-Roman-61"/>
      <use x="610.302734375" xlink:href="#BitstreamVeraSans-Roman-6e"/>
      <use x="673.681640625" xlink:href="#BitstreamVeraSans-Roman-29"/>
     </g>
    </g>
   </g>
   <g id="text_21">
    <!-- Yaw v/s Time -->
    <defs>
     <path d="M 2.984375 54.6875 
L 12.5 54.6875 
L 29.59375 8.796875 
L 46.6875 54.6875 
L 56.203125 54.6875 
L 35.6875 0 
L 23.484375 0 
z
" id="BitstreamVeraSans-Roman-76"/>
     <path d="M -0.203125 72.90625 
L 10.40625 72.90625 
L 30.609375 42.921875 
L 50.6875 72.90625 
L 61.28125 72.90625 
L 35.5 34.71875 
L 35.5 0 
L 25.59375 0 
L 25.59375 34.71875 
z
" id="BitstreamVeraSans-Roman-59"/>
     <path d="M 25.390625 72.90625 
L 33.6875 72.90625 
L 8.296875 -9.28125 
L 0 -9.28125 
z
" id="BitstreamVeraSans-Roman-2f"/>
     <path d="M 44.28125 53.078125 
L 44.28125 44.578125 
Q 40.484375 46.53125 36.375 47.5 
Q 32.28125 48.484375 27.875 48.484375 
Q 21.1875 48.484375 17.84375 46.4375 
Q 14.5 44.390625 14.5 40.28125 
Q 14.5 37.15625 16.890625 35.375 
Q 19.28125 33.59375 26.515625 31.984375 
L 29.59375 31.296875 
Q 39.15625 29.25 43.1875 25.515625 
Q 47.21875 21.78125 47.21875 15.09375 
Q 47.21875 7.46875 41.1875 3.015625 
Q 35.15625 -1.421875 24.609375 -1.421875 
Q 20.21875 -1.421875 15.453125 -0.5625 
Q 10.6875 0.296875 5.421875 2 
L 5.421875 11.28125 
Q 10.40625 8.6875 15.234375 7.390625 
Q 20.0625 6.109375 24.8125 6.109375 
Q 31.15625 6.109375 34.5625 8.28125 
Q 37.984375 10.453125 37.984375 14.40625 
Q 37.984375 18.0625 35.515625 20.015625 
Q 33.0625 21.96875 24.703125 23.78125 
L 21.578125 24.515625 
Q 13.234375 26.265625 9.515625 29.90625 
Q 5.8125 33.546875 5.8125 39.890625 
Q 5.8125 47.609375 11.28125 51.796875 
Q 16.75 56 26.8125 56 
Q 31.78125 56 36.171875 55.265625 
Q 40.578125 54.546875 44.28125 53.078125 
" id="BitstreamVeraSans-Roman-73"/>
     <path d="M 4.203125 54.6875 
L 13.1875 54.6875 
L 24.421875 12.015625 
L 35.59375 54.6875 
L 46.1875 54.6875 
L 57.421875 12.015625 
L 68.609375 54.6875 
L 77.59375 54.6875 
L 63.28125 0 
L 52.6875 0 
L 40.921875 44.828125 
L 29.109375 0 
L 18.5 0 
z
" id="BitstreamVeraSans-Roman-77"/>
    </defs>
    <g transform="translate(247.66424999999998 38.19999999999999)scale(0.144 -0.144)">
     <use xlink:href="#BitstreamVeraSans-Roman-59"/>
     <use x="60.880859375" xlink:href="#BitstreamVeraSans-Roman-61"/>
     <use x="122.16015625" xlink:href="#BitstreamVeraSans-Roman-77"/>
     <use x="203.947265625" xlink:href="#BitstreamVeraSans-Roman-20"/>
     <use x="235.734375" xlink:href="#BitstreamVeraSans-Roman-76"/>
     <use x="294.9140625" xlink:href="#BitstreamVeraSans-Roman-2f"/>
     <use x="328.60546875" xlink:href="#BitstreamVeraSans-Roman-73"/>
     <use x="380.705078125" xlink:href="#BitstreamVeraSans-Roman-20"/>
     <use x="412.4921875" xlink:href="#BitstreamVeraSans-Roman-54"/>
     <use x="473.529296875" xlink:href="#BitstreamVeraSans-Roman-69"/>
     <use x="501.3125" xlink:href="#BitstreamVeraSans-Roman-6d"/>
     <use x="598.724609375" xlink:href="#BitstreamVeraSans-Roman-65"/>
    </g>
   </g>
   <g id="legend_1">
    <g id="patch_7">
     <path d="M 79.2 96.993 
L 220.3515 96.993 
L 220.3515 50.4 
L 79.2 50.4 
z
" style="fill:#ffffff;stroke:#000000;stroke-linejoin:miter;"/>
    </g>
    <g id="line2d_37">
     <path d="M 89.28 62.06175 
L 109.44 62.06175 
" style="fill:none;stroke:#0000ff;stroke-linecap:square;"/>
    </g>
    <g id="line2d_38"/>
    <g id="text_22">
     <!-- Desired Yaw -->
     <defs>
      <path d="M 19.671875 64.796875 
L 19.671875 8.109375 
L 31.59375 8.109375 
Q 46.6875 8.109375 53.6875 14.9375 
Q 60.6875 21.78125 60.6875 36.53125 
Q 60.6875 51.171875 53.6875 57.984375 
Q 46.6875 64.796875 31.59375 64.796875 
z
M 9.8125 72.90625 
L 30.078125 72.90625 
Q 51.265625 72.90625 61.171875 64.09375 
Q 71.09375 55.28125 71.09375 36.53125 
Q 71.09375 17.671875 61.125 8.828125 
Q 51.171875 0 30.078125 0 
L 9.8125 0 
z
" id="BitstreamVeraSans-Roman-44"/>
     </defs>
     <g transform="translate(125.28 67.10174999999992)scale(0.144 -0.144)">
      <use xlink:href="#BitstreamVeraSans-Roman-44"/>
      <use x="77.001953125" xlink:href="#BitstreamVeraSans-Roman-65"/>
      <use x="138.525390625" xlink:href="#BitstreamVeraSans-Roman-73"/>
      <use x="190.625" xlink:href="#BitstreamVeraSans-Roman-69"/>
      <use x="218.408203125" xlink:href="#BitstreamVeraSans-Roman-72"/>
      <use x="259.490234375" xlink:href="#BitstreamVeraSans-Roman-65"/>
      <use x="321.013671875" xlink:href="#BitstreamVeraSans-Roman-64"/>
      <use x="384.490234375" xlink:href="#BitstreamVeraSans-Roman-20"/>
      <use x="416.27734375" xlink:href="#BitstreamVeraSans-Roman-59"/>
      <use x="477.158203125" xlink:href="#BitstreamVeraSans-Roman-61"/>
      <use x="538.4375" xlink:href="#BitstreamVeraSans-Roman-77"/>
     </g>
    </g>
    <g id="line2d_39">
     <path d="M 89.28 83.19825 
L 109.44 83.19825 
" style="fill:none;stroke:#ffa500;stroke-linecap:square;"/>
    </g>
    <g id="line2d_40"/>
    <g id="text_23">
     <!-- Actual Yaw -->
     <defs>
      <path d="M 18.3125 70.21875 
L 18.3125 54.6875 
L 36.8125 54.6875 
L 36.8125 47.703125 
L 18.3125 47.703125 
L 18.3125 18.015625 
Q 18.3125 11.328125 20.140625 9.421875 
Q 21.96875 7.515625 27.59375 7.515625 
L 36.8125 7.515625 
L 36.8125 0 
L 27.59375 0 
Q 17.1875 0 13.234375 3.875 
Q 9.28125 7.765625 9.28125 18.015625 
L 9.28125 47.703125 
L 2.6875 47.703125 
L 2.6875 54.6875 
L 9.28125 54.6875 
L 9.28125 70.21875 
z
" id="BitstreamVeraSans-Roman-74"/>
      <path d="M 8.5 21.578125 
L 8.5 54.6875 
L 17.484375 54.6875 
L 17.484375 21.921875 
Q 17.484375 14.15625 20.5 10.265625 
Q 23.53125 6.390625 29.59375 6.390625 
Q 36.859375 6.390625 41.078125 11.03125 
Q 45.3125 15.671875 45.3125 23.6875 
L 45.3125 54.6875 
L 54.296875 54.6875 
L 54.296875 0 
L 45.3125 0 
L 45.3125 8.40625 
Q 42.046875 3.421875 37.71875 1 
Q 33.40625 -1.421875 27.6875 -1.421875 
Q 18.265625 -1.421875 13.375 4.4375 
Q 8.5 10.296875 8.5 21.578125 
" id="BitstreamVeraSans-Roman-75"/>
      <path d="M 48.78125 52.59375 
L 48.78125 44.1875 
Q 44.96875 46.296875 41.140625 47.34375 
Q 37.3125 48.390625 33.40625 48.390625 
Q 24.65625 48.390625 19.8125 42.84375 
Q 14.984375 37.3125 14.984375 27.296875 
Q 14.984375 17.28125 19.8125 11.734375 
Q 24.65625 6.203125 33.40625 6.203125 
Q 37.3125 6.203125 41.140625 7.25 
Q 44.96875 8.296875 48.78125 10.40625 
L 48.78125 2.09375 
Q 45.015625 0.34375 40.984375 -0.53125 
Q 36.96875 -1.421875 32.421875 -1.421875 
Q 20.0625 -1.421875 12.78125 6.34375 
Q 5.515625 14.109375 5.515625 27.296875 
Q 5.515625 40.671875 12.859375 48.328125 
Q 20.21875 56 33.015625 56 
Q 37.15625 56 41.109375 55.140625 
Q 45.0625 54.296875 48.78125 52.59375 
" id="BitstreamVeraSans-Roman-63"/>
     </defs>
     <g transform="translate(125.28 88.23824999999994)scale(0.144 -0.144)">
      <use xlink:href="#BitstreamVeraSans-Roman-41"/>
      <use x="68.392578125" xlink:href="#BitstreamVeraSans-Roman-63"/>
      <use x="123.373046875" xlink:href="#BitstreamVeraSans-Roman-74"/>
      <use x="162.58203125" xlink:href="#BitstreamVeraSans-Roman-75"/>
      <use x="225.9609375" xlink:href="#BitstreamVeraSans-Roman-61"/>
      <use x="287.240234375" xlink:href="#BitstreamVeraSans-Roman-6c"/>
      <use x="315.0234375" xlink:href="#BitstreamVeraSans-Roman-20"/>
      <use x="346.810546875" xlink:href="#BitstreamVeraSans-Roman-59"/>
      <use x="407.69140625" xlink:href="#BitstreamVeraSans-Roman-61"/>
      <use x="468.970703125" xlink:href="#BitstreamVeraSans-Roman-77"/>
     </g>
    </g>
   </g>
  </g>
 </g>
 <defs>
  <clipPath id="p465d0bf431">
   <rect height="345.6" width="446.4" x="72.0" y="43.19999999999999"/>
  </clipPath>
 </defs>
</svg>
