<?xml version="1.0" encoding="utf-8" standalone="no"?>
<!DOCTYPE svg PUBLIC "-//W3C//DTD SVG 1.1//EN"
  "http://www.w3.org/Graphics/SVG/1.1/DTD/svg11.dtd">
<!-- Created with matplotlib (http://matplotlib.org/) -->
<svg height="432pt" version="1.1" viewBox="0 0 576 432" width="576pt" xmlns="http://www.w3.org/2000/svg" xmlns:xlink="http://www.w3.org/1999/xlink">
 <defs>
  <style type="text/css">
*{stroke-linecap:butt;stroke-linejoin:round;stroke-miterlimit:100000;}
  </style>
 </defs>
 <g id="figure_1">
  <g id="patch_1">
   <path d="M 0 432 
L 576 432 
L 576 0 
L 0 0 
z
" style="fill:#ffffff;"/>
  </g>
  <g id="axes_1">
   <g id="patch_2">
    <path d="M 72 388.8 
L 518.4 388.8 
L 518.4 43.2 
L 72 43.2 
z
" style="fill:#ffffff;"/>
   </g>
   <g id="line2d_1">
    <path clip-path="url(#pfbef1f7656)" d="M 151.367099 374.312724 
L 154.467381 374.312724 
L 154.467381 374.312724 
L 154.467381 374.312724 
L 157.567663 374.312724 
L 157.567663 374.312724 
L 157.567663 374.312724 
L 160.667946 374.312724 
L 160.667946 374.312724 
L 160.667946 374.312724 
L 163.768228 374.312724 
L 163.768228 374.312724 
L 163.768228 374.312724 
L 166.868509 374.312724 
L 166.868509 374.312724 
L 166.868509 374.312724 
L 169.968792 374.312724 
L 169.968792 374.312724 
L 169.968792 374.312724 
L 173.069074 374.312724 
L 173.069074 374.312724 
L 173.069074 374.312724 
L 176.169356 374.312724 
L 176.169356 374.312724 
L 176.169356 374.312724 
L 179.269638 374.312724 
L 179.269638 374.312724 
L 179.269638 374.312724 
L 182.369921 374.312724 
L 182.369921 374.312724 
L 182.369921 374.312724 
L 185.470202 374.312724 
L 185.470202 374.312724 
L 185.470202 374.312724 
L 188.570484 374.312724 
L 188.570484 374.312724 
L 188.570484 374.312724 
L 191.670767 374.312724 
L 191.670767 374.312724 
L 191.670767 374.312724 
L 194.771049 374.312724 
L 194.771049 374.312724 
L 194.771049 374.312724 
L 197.871331 374.312724 
L 197.871331 374.312724 
L 197.871331 374.312724 
L 200.971613 374.312724 
L 200.971613 374.312724 
L 200.971613 374.312724 
L 204.071896 374.312724 
L 204.071896 374.312724 
L 204.071896 374.312724 
L 207.172177 374.312724 
L 207.172177 374.312724 
L 207.172177 374.312724 
L 210.27246 374.312724 
L 210.27246 374.312724 
L 210.27246 374.312724 
L 210.27246 69.118255 
L 210.27246 69.118255 
L 210.27246 69.118255 
L 210.27246 84.320765 
L 213.372742 84.484233 
L 213.372742 100.667549 
L 216.473023 100.831017 
L 216.473023 117.014334 
L 219.573306 117.177802 
L 219.573306 133.361119 
L 222.673588 133.524586 
L 222.673588 149.707903 
L 225.77387 149.871371 
L 225.77387 166.054688 
L 228.874152 166.218156 
L 228.874152 182.401472 
L 231.974435 182.56494 
L 231.974435 198.748257 
L 235.074717 198.911725 
L 235.074717 211.008346 
L 235.074717 207.085117 
L 238.174999 206.921649 
L 238.174999 190.738333 
L 241.275281 190.574865 
L 241.275281 174.391548 
L 244.375563 174.22808 
L 244.375563 158.044763 
L 247.475845 157.881296 
L 247.475845 141.697979 
L 250.576127 141.534511 
L 250.576127 125.351194 
L 253.67641 125.187726 
L 253.67641 109.004409 
L 256.776691 108.840942 
L 256.776691 92.657625 
L 259.876974 92.494157 
L 259.876974 76.31084 
L 262.977256 76.147372 
L 262.977256 59.964056 
L 266.077538 59.800588 
L 266.077538 47.703967 
L 266.077538 51.627195 
L 269.17782 51.790663 
L 269.17782 67.97398 
L 272.278102 68.137448 
L 272.278102 84.320765 
L 275.378385 84.484233 
L 275.378385 100.667549 
L 278.478666 100.831017 
L 278.478666 117.014334 
L 281.578949 117.177802 
L 281.578949 133.361119 
L 284.679231 133.524586 
L 284.679231 149.707903 
L 287.779513 149.871371 
L 287.779513 166.054688 
L 290.879795 166.218156 
L 290.879795 182.401472 
L 293.980077 182.56494 
L 293.980077 198.748257 
L 297.080359 198.911725 
L 297.080359 211.008346 
L 297.080359 207.085117 
L 300.180641 206.921649 
L 300.180641 190.738333 
L 303.280924 190.574865 
L 303.280924 174.391548 
L 306.381206 174.22808 
L 306.381206 158.044763 
L 309.481488 157.881296 
L 309.481488 141.697979 
L 312.58177 141.534511 
L 312.58177 125.351194 
L 315.682053 125.187726 
L 315.682053 109.004409 
L 318.782334 108.840942 
L 318.782334 92.657625 
L 321.882616 92.494157 
L 321.882616 76.31084 
L 324.982899 76.147372 
L 324.982899 59.964056 
L 328.08318 59.800588 
L 328.08318 47.703967 
L 328.08318 51.627195 
L 331.183463 51.790663 
L 331.183463 67.97398 
L 334.283745 68.137448 
L 334.283745 129.356156 
L 334.283745 129.356156 
L 486.19757 129.356156 
L 486.19757 129.356156 
" style="fill:none;stroke:#0000ff;stroke-linecap:square;"/>
   </g>
   <g id="line2d_2">
    <path clip-path="url(#pfbef1f7656)" d="M 151.367099 359.21049 
L 151.367099 359.223161 
L 151.367099 359.211581 
L 151.367099 359.211581 
L 151.367099 359.208015 
L 151.367099 359.210745 
L 151.367099 359.210745 
L 151.367099 359.218323 
L 151.367099 359.211359 
L 151.367099 359.211359 
L 151.367099 359.20555 
L 151.367099 359.211297 
L 151.367099 359.211297 
L 151.367099 359.222644 
L 151.367099 359.211582 
L 151.367099 359.211582 
L 151.367099 359.20776 
L 151.367099 359.211424 
L 151.367099 359.211424 
L 151.367099 359.220269 
L 151.367099 359.218516 
L 151.367099 359.218516 
L 151.367099 359.207613 
L 151.367099 359.217993 
L 151.367099 359.217993 
L 151.367099 359.221409 
L 151.367099 359.218568 
L 151.367099 359.218568 
L 151.367099 359.209735 
L 151.367099 359.218373 
L 151.367099 359.218373 
L 151.367099 359.220754 
L 151.367099 359.219808 
L 151.367099 359.219808 
L 151.367099 359.206967 
L 151.367099 359.219301 
L 151.367099 359.219301 
L 151.367099 359.224128 
L 151.367099 359.220662 
L 151.367099 359.220662 
L 151.367099 359.210815 
L 151.367099 359.220533 
L 151.367099 359.220533 
L 151.367099 359.22249 
L 151.367099 359.22249 
L 151.367099 359.22249 
L 151.367099 359.211087 
L 151.367099 359.213355 
L 204.071896 359.21891 
L 204.071896 359.114404 
L 204.071896 358.831845 
L 207.172177 358.732875 
L 207.172177 297.981694 
L 210.27246 297.513287 
L 210.27246 262.570042 
L 213.372742 262.42051 
L 213.372742 250.214239 
L 216.473023 250.088202 
L 216.473023 247.79486 
L 216.473023 250.018708 
L 216.473023 250.018708 
L 216.473023 258.116605 
L 219.573306 258.261272 
L 219.573306 260.044823 
L 219.573306 258.27562 
L 219.573306 258.27562 
L 219.573306 238.644766 
L 222.673588 238.506574 
L 222.673588 219.513751 
L 222.673588 220.099707 
L 225.77387 220.196138 
L 225.77387 226.504864 
L 225.77387 223.894869 
L 228.874152 223.729725 
L 228.874152 216.233282 
L 228.874152 222.056597 
L 231.974435 221.934132 
L 231.974435 192.840623 
L 235.074717 192.692467 
L 235.074717 182.935037 
L 235.074717 185.755131 
L 238.174999 185.890869 
L 238.174999 192.410716 
L 241.275281 192.432917 
L 241.275281 192.307415 
L 241.275281 181.974916 
L 244.375563 181.84766 
L 244.375563 178.240955 
L 244.375563 181.830499 
L 244.375563 181.830499 
L 244.375563 182.16608 
L 244.375563 182.154485 
L 247.475845 182.107313 
L 247.475845 182.253471 
L 247.475845 182.278256 
L 247.475845 182.25937 
L 247.475845 182.25937 
L 247.475845 175.667833 
L 250.576127 175.553249 
L 250.576127 172.181783 
L 250.576127 175.518583 
L 250.576127 175.518583 
L 250.576127 175.896056 
L 253.67641 176.021643 
L 253.67641 181.888779 
L 253.67641 181.878681 
L 256.776691 181.910956 
L 256.776691 181.777504 
L 256.776691 173.924203 
L 259.876974 173.802828 
L 259.876974 164.924729 
L 262.977256 164.795545 
L 262.977256 149.239736 
L 266.077538 149.102845 
L 266.077538 135.270955 
L 269.17782 135.160141 
L 269.17782 132.656171 
L 269.17782 135.144603 
L 269.17782 135.144603 
L 269.17782 135.659667 
L 269.17782 135.553337 
L 272.278102 135.442081 
L 272.278102 132.116306 
L 275.378385 132.005187 
L 275.378385 130.25822 
L 275.378385 131.592707 
L 278.478666 131.591732 
L 278.478666 131.695567 
L 278.478666 135.059763 
L 281.578949 135.176506 
L 281.578949 135.665743 
L 281.578949 135.43669 
L 284.679231 135.43481 
L 284.679231 135.533639 
L 284.679231 137.936532 
L 284.679231 137.661564 
L 287.779513 137.660966 
L 287.779513 137.756009 
L 287.779513 143.670019 
L 290.879795 143.794648 
L 290.879795 151.3987 
L 293.980077 151.512934 
L 293.980077 159.186023 
L 297.080359 159.30655 
L 297.080359 169.110347 
L 300.180641 169.22503 
L 300.180641 170.444691 
L 300.180641 169.230493 
L 300.180641 169.230493 
L 300.180641 168.484706 
L 303.280924 168.34905 
L 303.280924 158.946931 
L 306.381206 158.82587 
L 306.381206 158.467674 
L 306.381206 158.810878 
L 306.381206 158.810878 
L 306.381206 159.616047 
L 309.481488 159.730819 
L 309.481488 159.724828 
L 309.481488 159.876085 
L 309.481488 159.728186 
L 309.481488 159.728186 
L 309.481488 154.54932 
L 312.58177 154.446883 
L 312.58177 148.594305 
L 315.682053 148.457632 
L 315.682053 148.459416 
L 315.682053 145.480664 
L 315.682053 145.489558 
L 318.782334 145.377029 
L 318.782334 139.097325 
L 321.882616 138.97981 
L 321.882616 130.376924 
L 324.982899 130.253025 
L 324.982899 124.360144 
L 328.08318 124.217832 
L 328.08318 119.055309 
L 328.08318 119.063504 
L 331.183463 118.958588 
L 331.183463 118.94811 
L 331.183463 118.94811 
L 331.183463 118.94811 
L 331.183463 118.9645 
L 331.183463 118.953208 
L 331.183463 118.953208 
L 331.183463 115.192309 
L 334.283745 115.066338 
L 334.283745 109.670205 
L 337.384027 109.602017 
L 337.384027 109.771731 
L 337.384027 112.111649 
L 337.384027 112.106302 
L 340.484309 112.228492 
L 340.484309 116.51883 
L 343.584591 116.637907 
L 343.584591 117.873806 
L 343.584591 117.831678 
L 346.684874 117.833391 
L 346.684874 117.75001 
L 346.684874 116.739038 
L 349.785155 116.628368 
L 349.785155 116.276447 
L 349.785155 116.617149 
L 349.785155 116.617149 
L 349.785155 116.653353 
L 349.785155 116.653353 
L 349.785155 116.653353 
L 349.785155 116.593136 
L 349.785155 116.637979 
L 349.785155 116.637979 
L 349.785155 117.926879 
L 349.785155 117.924398 
L 352.885438 118.037047 
L 352.885438 124.686474 
L 355.98572 124.798564 
L 355.98572 128.330564 
L 355.98572 125.653852 
L 359.086002 125.527204 
L 359.086002 118.986538 
L 359.086002 119.233199 
L 362.186284 119.345913 
L 362.186284 127.721214 
L 362.186284 127.716215 
L 365.286567 127.833248 
L 365.286567 127.981808 
L 365.286567 127.84008 
L 365.286567 127.84008 
L 365.286567 124.934918 
L 368.386848 124.834254 
L 368.386848 124.278481 
L 368.386848 124.823581 
L 368.386848 124.823581 
L 368.386848 126.152876 
L 371.48713 126.262499 
L 371.48713 127.300018 
L 371.48713 127.023772 
L 374.587413 127.026671 
L 374.587413 126.923824 
L 374.587413 124.79565 
L 374.587413 124.805576 
L 377.687695 124.686327 
L 377.687695 124.577153 
L 377.687695 124.684419 
L 377.687695 124.684419 
L 377.687695 125.167081 
L 377.687695 125.077659 
L 380.787977 125.173685 
L 380.787977 156.138638 
L 383.888259 156.341353 
L 383.888259 213.831105 
L 386.988542 214.025386 
L 386.988542 270.687665 
L 390.088823 270.878444 
L 390.088823 317.169949 
L 393.189106 317.288993 
L 393.189106 339.125956 
L 393.189106 339.117051 
L 396.289388 339.215505 
L 396.289388 339.026825 
L 396.289388 326.21389 
L 399.389669 326.090206 
L 399.389669 317.546644 
L 399.389669 317.782135 
L 402.489952 317.891714 
L 402.489952 319.278109 
L 402.489952 317.892575 
L 405.590234 317.777084 
L 405.590234 308.763614 
L 408.690516 308.62668 
L 408.690516 291.637216 
L 411.790798 291.512979 
L 411.790798 288.434537 
L 411.790798 291.490154 
L 411.790798 291.490154 
L 411.790798 294.264284 
L 411.790798 291.579228 
L 411.790798 291.579228 
L 411.790798 279.977654 
L 414.891081 279.845454 
L 414.891081 268.486285 
L 414.891081 271.304767 
L 417.991363 271.334228 
L 417.991363 271.195299 
L 417.991363 264.267298 
L 421.091644 264.140925 
L 421.091644 264.332253 
L 421.091644 276.728804 
L 424.191927 276.923481 
L 424.191927 291.186501 
L 424.191927 291.057539 
L 427.292209 290.932014 
L 427.292209 279.257343 
L 430.392491 279.091149 
L 430.392491 258.814609 
L 433.492773 258.680395 
L 433.492773 257.993979 
L 433.492773 258.668788 
L 433.492773 258.668788 
L 433.492773 261.970175 
L 433.492773 261.845862 
L 436.593056 261.915121 
L 436.593056 261.77807 
L 436.593056 256.88606 
L 439.693337 256.764593 
L 439.693337 250.601791 
L 442.79362 250.476316 
L 442.79362 249.370834 
L 445.893902 249.234679 
L 445.893902 239.656729 
L 448.994184 239.549567 
L 448.994184 228.167574 
L 452.094466 228.040314 
L 452.094466 220.100116 
L 452.094466 228.007764 
L 452.094466 228.007764 
L 452.094466 229.410171 
L 455.194748 229.53359 
L 455.194748 278.333205 
L 458.295031 278.500565 
L 458.295031 320.181636 
L 461.395312 320.363416 
L 461.395312 340.57829 
L 464.495595 340.705074 
L 464.495595 341.628629 
L 464.495595 340.714891 
L 464.495595 340.714891 
L 464.495595 337.05155 
L 467.595877 336.928912 
L 467.595877 329.469796 
L 467.595877 336.871019 
L 467.595877 336.871019 
L 467.595877 347.174491 
L 470.696159 347.469261 
L 470.696159 360.461885 
L 470.696159 359.192359 
L 486.19757 359.180128 
L 486.19757 359.189141 
" style="fill:none;stroke:#ffa500;stroke-linecap:square;"/>
   </g>
   <g id="patch_3">
    <path d="M 72.000001 43.2 
L 518.400001 43.2 
" style="fill:none;stroke:#000000;stroke-linecap:square;stroke-linejoin:miter;"/>
   </g>
   <g id="patch_4">
    <path d="M 518.4 388.8 
L 518.4 43.2 
" style="fill:none;stroke:#000000;stroke-linecap:square;stroke-linejoin:miter;"/>
   </g>
   <g id="patch_5">
    <path d="M 72.000001 388.8 
L 518.400001 388.8 
" style="fill:none;stroke:#000000;stroke-linecap:square;stroke-linejoin:miter;"/>
   </g>
   <g id="patch_6">
    <path d="M 72 388.8 
L 72 43.2 
" style="fill:none;stroke:#000000;stroke-linecap:square;stroke-linejoin:miter;"/>
   </g>
   <g id="matplotlib.axis_1">
    <g id="xtick_1">
     <g id="line2d_3">
      <defs>
       <path d="M 0 0 
L 0 -4 
" id="m2c081e4915" style="stroke:#000000;stroke-width:0.5;"/>
      </defs>
      <g>
       <use style="stroke:#000000;stroke-width:0.5;" x="111.06343078613281" xlink:href="#m2c081e4915" y="388.8"/>
      </g>
     </g>
     <g id="line2d_4">
      <defs>
       <path d="M 0 0 
L 0 4 
" id="m7a988513a5" style="stroke:#000000;stroke-width:0.5;"/>
      </defs>
      <g>
       <use style="stroke:#000000;stroke-width:0.5;" x="111.06343078613281" xlink:href="#m7a988513a5" y="43.19999999999999"/>
      </g>
     </g>
     <g id="text_1">
      <!-- 100 -->
      <defs>
       <path d="M 31.78125 66.40625 
Q 24.171875 66.40625 20.328125 58.90625 
Q 16.5 51.421875 16.5 36.375 
Q 16.5 21.390625 20.328125 13.890625 
Q 24.171875 6.390625 31.78125 6.390625 
Q 39.453125 6.390625 43.28125 13.890625 
Q 47.125 21.390625 47.125 36.375 
Q 47.125 51.421875 43.28125 58.90625 
Q 39.453125 66.40625 31.78125 66.40625 
M 31.78125 74.21875 
Q 44.046875 74.21875 50.515625 64.515625 
Q 56.984375 54.828125 56.984375 36.375 
Q 56.984375 17.96875 50.515625 8.265625 
Q 44.046875 -1.421875 31.78125 -1.421875 
Q 19.53125 -1.421875 13.0625 8.265625 
Q 6.59375 17.96875 6.59375 36.375 
Q 6.59375 54.828125 13.0625 64.515625 
Q 19.53125 74.21875 31.78125 74.21875 
" id="BitstreamVeraSans-Roman-30"/>
       <path d="M 12.40625 8.296875 
L 28.515625 8.296875 
L 28.515625 63.921875 
L 10.984375 60.40625 
L 10.984375 69.390625 
L 28.421875 72.90625 
L 38.28125 72.90625 
L 38.28125 8.296875 
L 54.390625 8.296875 
L 54.390625 0 
L 12.40625 0 
z
" id="BitstreamVeraSans-Roman-31"/>
      </defs>
      <g transform="translate(99.61093078613281 401.91812500000003)scale(0.12 -0.12)">
       <use xlink:href="#BitstreamVeraSans-Roman-31"/>
       <use x="63.623046875" xlink:href="#BitstreamVeraSans-Roman-30"/>
       <use x="127.24609375" xlink:href="#BitstreamVeraSans-Roman-30"/>
      </g>
     </g>
    </g>
    <g id="xtick_2">
     <g id="line2d_5">
      <g>
       <use style="stroke:#000000;stroke-width:0.5;" x="173.069073677063" xlink:href="#m2c081e4915" y="388.8"/>
      </g>
     </g>
     <g id="line2d_6">
      <g>
       <use style="stroke:#000000;stroke-width:0.5;" x="173.069073677063" xlink:href="#m7a988513a5" y="43.19999999999999"/>
      </g>
     </g>
     <g id="text_2">
      <!-- 120 -->
      <defs>
       <path d="M 19.1875 8.296875 
L 53.609375 8.296875 
L 53.609375 0 
L 7.328125 0 
L 7.328125 8.296875 
Q 12.9375 14.109375 22.625 23.890625 
Q 32.328125 33.6875 34.8125 36.53125 
Q 39.546875 41.84375 41.421875 45.53125 
Q 43.3125 49.21875 43.3125 52.78125 
Q 43.3125 58.59375 39.234375 62.25 
Q 35.15625 65.921875 28.609375 65.921875 
Q 23.96875 65.921875 18.8125 64.3125 
Q 13.671875 62.703125 7.8125 59.421875 
L 7.8125 69.390625 
Q 13.765625 71.78125 18.9375 73 
Q 24.125 74.21875 28.421875 74.21875 
Q 39.75 74.21875 46.484375 68.546875 
Q 53.21875 62.890625 53.21875 53.421875 
Q 53.21875 48.921875 51.53125 44.890625 
Q 49.859375 40.875 45.40625 35.40625 
Q 44.1875 33.984375 37.640625 27.21875 
Q 31.109375 20.453125 19.1875 8.296875 
" id="BitstreamVeraSans-Roman-32"/>
      </defs>
      <g transform="translate(161.616573677063 401.91812500000003)scale(0.12 -0.12)">
       <use xlink:href="#BitstreamVeraSans-Roman-31"/>
       <use x="63.623046875" xlink:href="#BitstreamVeraSans-Roman-32"/>
       <use x="127.24609375" xlink:href="#BitstreamVeraSans-Roman-30"/>
      </g>
     </g>
    </g>
    <g id="xtick_3">
     <g id="line2d_7">
      <g>
       <use style="stroke:#000000;stroke-width:0.5;" x="235.07471656799316" xlink:href="#m2c081e4915" y="388.8"/>
      </g>
     </g>
     <g id="line2d_8">
      <g>
       <use style="stroke:#000000;stroke-width:0.5;" x="235.07471656799316" xlink:href="#m7a988513a5" y="43.19999999999999"/>
      </g>
     </g>
     <g id="text_3">
      <!-- 140 -->
      <defs>
       <path d="M 37.796875 64.3125 
L 12.890625 25.390625 
L 37.796875 25.390625 
z
M 35.203125 72.90625 
L 47.609375 72.90625 
L 47.609375 25.390625 
L 58.015625 25.390625 
L 58.015625 17.1875 
L 47.609375 17.1875 
L 47.609375 0 
L 37.796875 0 
L 37.796875 17.1875 
L 4.890625 17.1875 
L 4.890625 26.703125 
z
" id="BitstreamVeraSans-Roman-34"/>
      </defs>
      <g transform="translate(223.62221656799318 401.91812500000003)scale(0.12 -0.12)">
       <use xlink:href="#BitstreamVeraSans-Roman-31"/>
       <use x="63.623046875" xlink:href="#BitstreamVeraSans-Roman-34"/>
       <use x="127.24609375" xlink:href="#BitstreamVeraSans-Roman-30"/>
      </g>
     </g>
    </g>
    <g id="xtick_4">
     <g id="line2d_9">
      <g>
       <use style="stroke:#000000;stroke-width:0.5;" x="297.08035945892334" xlink:href="#m2c081e4915" y="388.8"/>
      </g>
     </g>
     <g id="line2d_10">
      <g>
       <use style="stroke:#000000;stroke-width:0.5;" x="297.08035945892334" xlink:href="#m7a988513a5" y="43.19999999999999"/>
      </g>
     </g>
     <g id="text_4">
      <!-- 160 -->
      <defs>
       <path d="M 33.015625 40.375 
Q 26.375 40.375 22.484375 35.828125 
Q 18.609375 31.296875 18.609375 23.390625 
Q 18.609375 15.53125 22.484375 10.953125 
Q 26.375 6.390625 33.015625 6.390625 
Q 39.65625 6.390625 43.53125 10.953125 
Q 47.40625 15.53125 47.40625 23.390625 
Q 47.40625 31.296875 43.53125 35.828125 
Q 39.65625 40.375 33.015625 40.375 
M 52.59375 71.296875 
L 52.59375 62.3125 
Q 48.875 64.0625 45.09375 64.984375 
Q 41.3125 65.921875 37.59375 65.921875 
Q 27.828125 65.921875 22.671875 59.328125 
Q 17.53125 52.734375 16.796875 39.40625 
Q 19.671875 43.65625 24.015625 45.921875 
Q 28.375 48.1875 33.59375 48.1875 
Q 44.578125 48.1875 50.953125 41.515625 
Q 57.328125 34.859375 57.328125 23.390625 
Q 57.328125 12.15625 50.6875 5.359375 
Q 44.046875 -1.421875 33.015625 -1.421875 
Q 20.359375 -1.421875 13.671875 8.265625 
Q 6.984375 17.96875 6.984375 36.375 
Q 6.984375 53.65625 15.1875 63.9375 
Q 23.390625 74.21875 37.203125 74.21875 
Q 40.921875 74.21875 44.703125 73.484375 
Q 48.484375 72.75 52.59375 71.296875 
" id="BitstreamVeraSans-Roman-36"/>
      </defs>
      <g transform="translate(285.62785945892335 401.91812500000003)scale(0.12 -0.12)">
       <use xlink:href="#BitstreamVeraSans-Roman-31"/>
       <use x="63.623046875" xlink:href="#BitstreamVeraSans-Roman-36"/>
       <use x="127.24609375" xlink:href="#BitstreamVeraSans-Roman-30"/>
      </g>
     </g>
    </g>
    <g id="xtick_5">
     <g id="line2d_11">
      <g>
       <use style="stroke:#000000;stroke-width:0.5;" x="359.0860023498535" xlink:href="#m2c081e4915" y="388.8"/>
      </g>
     </g>
     <g id="line2d_12">
      <g>
       <use style="stroke:#000000;stroke-width:0.5;" x="359.0860023498535" xlink:href="#m7a988513a5" y="43.19999999999999"/>
      </g>
     </g>
     <g id="text_5">
      <!-- 180 -->
      <defs>
       <path d="M 31.78125 34.625 
Q 24.75 34.625 20.71875 30.859375 
Q 16.703125 27.09375 16.703125 20.515625 
Q 16.703125 13.921875 20.71875 10.15625 
Q 24.75 6.390625 31.78125 6.390625 
Q 38.8125 6.390625 42.859375 10.171875 
Q 46.921875 13.96875 46.921875 20.515625 
Q 46.921875 27.09375 42.890625 30.859375 
Q 38.875 34.625 31.78125 34.625 
M 21.921875 38.8125 
Q 15.578125 40.375 12.03125 44.71875 
Q 8.5 49.078125 8.5 55.328125 
Q 8.5 64.0625 14.71875 69.140625 
Q 20.953125 74.21875 31.78125 74.21875 
Q 42.671875 74.21875 48.875 69.140625 
Q 55.078125 64.0625 55.078125 55.328125 
Q 55.078125 49.078125 51.53125 44.71875 
Q 48 40.375 41.703125 38.8125 
Q 48.828125 37.15625 52.796875 32.3125 
Q 56.78125 27.484375 56.78125 20.515625 
Q 56.78125 9.90625 50.3125 4.234375 
Q 43.84375 -1.421875 31.78125 -1.421875 
Q 19.734375 -1.421875 13.25 4.234375 
Q 6.78125 9.90625 6.78125 20.515625 
Q 6.78125 27.484375 10.78125 32.3125 
Q 14.796875 37.15625 21.921875 38.8125 
M 18.3125 54.390625 
Q 18.3125 48.734375 21.84375 45.5625 
Q 25.390625 42.390625 31.78125 42.390625 
Q 38.140625 42.390625 41.71875 45.5625 
Q 45.3125 48.734375 45.3125 54.390625 
Q 45.3125 60.0625 41.71875 63.234375 
Q 38.140625 66.40625 31.78125 66.40625 
Q 25.390625 66.40625 21.84375 63.234375 
Q 18.3125 60.0625 18.3125 54.390625 
" id="BitstreamVeraSans-Roman-38"/>
      </defs>
      <g transform="translate(347.63350234985353 401.91812500000003)scale(0.12 -0.12)">
       <use xlink:href="#BitstreamVeraSans-Roman-31"/>
       <use x="63.623046875" xlink:href="#BitstreamVeraSans-Roman-38"/>
       <use x="127.24609375" xlink:href="#BitstreamVeraSans-Roman-30"/>
      </g>
     </g>
    </g>
    <g id="xtick_6">
     <g id="line2d_13">
      <g>
       <use style="stroke:#000000;stroke-width:0.5;" x="421.0916442871094" xlink:href="#m2c081e4915" y="388.8"/>
      </g>
     </g>
     <g id="line2d_14">
      <g>
       <use style="stroke:#000000;stroke-width:0.5;" x="421.0916442871094" xlink:href="#m7a988513a5" y="43.19999999999999"/>
      </g>
     </g>
     <g id="text_6">
      <!-- 200 -->
      <g transform="translate(409.6391442871094 401.91812500000003)scale(0.12 -0.12)">
       <use xlink:href="#BitstreamVeraSans-Roman-32"/>
       <use x="63.623046875" xlink:href="#BitstreamVeraSans-Roman-30"/>
       <use x="127.24609375" xlink:href="#BitstreamVeraSans-Roman-30"/>
      </g>
     </g>
    </g>
    <g id="xtick_7">
     <g id="line2d_15">
      <g>
       <use style="stroke:#000000;stroke-width:0.5;" x="483.09728717803955" xlink:href="#m2c081e4915" y="388.8"/>
      </g>
     </g>
     <g id="line2d_16">
      <g>
       <use style="stroke:#000000;stroke-width:0.5;" x="483.09728717803955" xlink:href="#m7a988513a5" y="43.19999999999999"/>
      </g>
     </g>
     <g id="text_7">
      <!-- 220 -->
      <g transform="translate(471.64478717803956 401.91812500000003)scale(0.12 -0.12)">
       <use xlink:href="#BitstreamVeraSans-Roman-32"/>
       <use x="63.623046875" xlink:href="#BitstreamVeraSans-Roman-32"/>
       <use x="127.24609375" xlink:href="#BitstreamVeraSans-Roman-30"/>
      </g>
     </g>
    </g>
    <g id="text_8">
     <!-- Time -->
     <defs>
      <path d="M 56.203125 29.59375 
L 56.203125 25.203125 
L 14.890625 25.203125 
Q 15.484375 15.921875 20.484375 11.0625 
Q 25.484375 6.203125 34.421875 6.203125 
Q 39.59375 6.203125 44.453125 7.46875 
Q 49.3125 8.734375 54.109375 11.28125 
L 54.109375 2.78125 
Q 49.265625 0.734375 44.1875 -0.34375 
Q 39.109375 -1.421875 33.890625 -1.421875 
Q 20.796875 -1.421875 13.15625 6.1875 
Q 5.515625 13.8125 5.515625 26.8125 
Q 5.515625 40.234375 12.765625 48.109375 
Q 20.015625 56 32.328125 56 
Q 43.359375 56 49.78125 48.890625 
Q 56.203125 41.796875 56.203125 29.59375 
M 47.21875 32.234375 
Q 47.125 39.59375 43.09375 43.984375 
Q 39.0625 48.390625 32.421875 48.390625 
Q 24.90625 48.390625 20.390625 44.140625 
Q 15.875 39.890625 15.1875 32.171875 
z
" id="BitstreamVeraSans-Roman-65"/>
      <path d="M 9.421875 54.6875 
L 18.40625 54.6875 
L 18.40625 0 
L 9.421875 0 
z
M 9.421875 75.984375 
L 18.40625 75.984375 
L 18.40625 64.59375 
L 9.421875 64.59375 
z
" id="BitstreamVeraSans-Roman-69"/>
      <path d="M -0.296875 72.90625 
L 61.375 72.90625 
L 61.375 64.59375 
L 35.5 64.59375 
L 35.5 0 
L 25.59375 0 
L 25.59375 64.59375 
L -0.296875 64.59375 
z
" id="BitstreamVeraSans-Roman-54"/>
      <path d="M 52 44.1875 
Q 55.375 50.25 60.0625 53.125 
Q 64.75 56 71.09375 56 
Q 79.640625 56 84.28125 50.015625 
Q 88.921875 44.046875 88.921875 33.015625 
L 88.921875 0 
L 79.890625 0 
L 79.890625 32.71875 
Q 79.890625 40.578125 77.09375 44.375 
Q 74.3125 48.1875 68.609375 48.1875 
Q 61.625 48.1875 57.5625 43.546875 
Q 53.515625 38.921875 53.515625 30.90625 
L 53.515625 0 
L 44.484375 0 
L 44.484375 32.71875 
Q 44.484375 40.625 41.703125 44.40625 
Q 38.921875 48.1875 33.109375 48.1875 
Q 26.21875 48.1875 22.15625 43.53125 
Q 18.109375 38.875 18.109375 30.90625 
L 18.109375 0 
L 9.078125 0 
L 9.078125 54.6875 
L 18.109375 54.6875 
L 18.109375 46.1875 
Q 21.1875 51.21875 25.484375 53.609375 
Q 29.78125 56 35.6875 56 
Q 41.65625 56 45.828125 52.96875 
Q 50 49.953125 52 44.1875 
" id="BitstreamVeraSans-Roman-6d"/>
     </defs>
     <g transform="translate(280.335 418.531875)scale(0.12 -0.12)">
      <use xlink:href="#BitstreamVeraSans-Roman-54"/>
      <use x="61.037109375" xlink:href="#BitstreamVeraSans-Roman-69"/>
      <use x="88.8203125" xlink:href="#BitstreamVeraSans-Roman-6d"/>
      <use x="186.232421875" xlink:href="#BitstreamVeraSans-Roman-65"/>
     </g>
    </g>
    <g id="text_9">
     <!-- +1.5813507e9 -->
     <defs>
      <path d="M 40.578125 39.3125 
Q 47.65625 37.796875 51.625 33 
Q 55.609375 28.21875 55.609375 21.1875 
Q 55.609375 10.40625 48.1875 4.484375 
Q 40.765625 -1.421875 27.09375 -1.421875 
Q 22.515625 -1.421875 17.65625 -0.515625 
Q 12.796875 0.390625 7.625 2.203125 
L 7.625 11.71875 
Q 11.71875 9.328125 16.59375 8.109375 
Q 21.484375 6.890625 26.8125 6.890625 
Q 36.078125 6.890625 40.9375 10.546875 
Q 45.796875 14.203125 45.796875 21.1875 
Q 45.796875 27.640625 41.28125 31.265625 
Q 36.765625 34.90625 28.71875 34.90625 
L 20.21875 34.90625 
L 20.21875 43.015625 
L 29.109375 43.015625 
Q 36.375 43.015625 40.234375 45.921875 
Q 44.09375 48.828125 44.09375 54.296875 
Q 44.09375 59.90625 40.109375 62.90625 
Q 36.140625 65.921875 28.71875 65.921875 
Q 24.65625 65.921875 20.015625 65.03125 
Q 15.375 64.15625 9.8125 62.3125 
L 9.8125 71.09375 
Q 15.4375 72.65625 20.34375 73.4375 
Q 25.25 74.21875 29.59375 74.21875 
Q 40.828125 74.21875 47.359375 69.109375 
Q 53.90625 64.015625 53.90625 55.328125 
Q 53.90625 49.265625 50.4375 45.09375 
Q 46.96875 40.921875 40.578125 39.3125 
" id="BitstreamVeraSans-Roman-33"/>
      <path d="M 8.203125 72.90625 
L 55.078125 72.90625 
L 55.078125 68.703125 
L 28.609375 0 
L 18.3125 0 
L 43.21875 64.59375 
L 8.203125 64.59375 
z
" id="BitstreamVeraSans-Roman-37"/>
      <path d="M 10.796875 72.90625 
L 49.515625 72.90625 
L 49.515625 64.59375 
L 19.828125 64.59375 
L 19.828125 46.734375 
Q 21.96875 47.46875 24.109375 47.828125 
Q 26.265625 48.1875 28.421875 48.1875 
Q 40.625 48.1875 47.75 41.5 
Q 54.890625 34.8125 54.890625 23.390625 
Q 54.890625 11.625 47.5625 5.09375 
Q 40.234375 -1.421875 26.90625 -1.421875 
Q 22.3125 -1.421875 17.546875 -0.640625 
Q 12.796875 0.140625 7.71875 1.703125 
L 7.71875 11.625 
Q 12.109375 9.234375 16.796875 8.0625 
Q 21.484375 6.890625 26.703125 6.890625 
Q 35.15625 6.890625 40.078125 11.328125 
Q 45.015625 15.765625 45.015625 23.390625 
Q 45.015625 31 40.078125 35.4375 
Q 35.15625 39.890625 26.703125 39.890625 
Q 22.75 39.890625 18.8125 39.015625 
Q 14.890625 38.140625 10.796875 36.28125 
z
" id="BitstreamVeraSans-Roman-35"/>
      <path d="M 10.984375 1.515625 
L 10.984375 10.5 
Q 14.703125 8.734375 18.5 7.8125 
Q 22.3125 6.890625 25.984375 6.890625 
Q 35.75 6.890625 40.890625 13.453125 
Q 46.046875 20.015625 46.78125 33.40625 
Q 43.953125 29.203125 39.59375 26.953125 
Q 35.25 24.703125 29.984375 24.703125 
Q 19.046875 24.703125 12.671875 31.3125 
Q 6.296875 37.9375 6.296875 49.421875 
Q 6.296875 60.640625 12.9375 67.421875 
Q 19.578125 74.21875 30.609375 74.21875 
Q 43.265625 74.21875 49.921875 64.515625 
Q 56.59375 54.828125 56.59375 36.375 
Q 56.59375 19.140625 48.40625 8.859375 
Q 40.234375 -1.421875 26.421875 -1.421875 
Q 22.703125 -1.421875 18.890625 -0.6875 
Q 15.09375 0.046875 10.984375 1.515625 
M 30.609375 32.421875 
Q 37.25 32.421875 41.125 36.953125 
Q 45.015625 41.5 45.015625 49.421875 
Q 45.015625 57.28125 41.125 61.84375 
Q 37.25 66.40625 30.609375 66.40625 
Q 23.96875 66.40625 20.09375 61.84375 
Q 16.21875 57.28125 16.21875 49.421875 
Q 16.21875 41.5 20.09375 36.953125 
Q 23.96875 32.421875 30.609375 32.421875 
" id="BitstreamVeraSans-Roman-39"/>
      <path d="M 46 62.703125 
L 46 35.5 
L 73.1875 35.5 
L 73.1875 27.203125 
L 46 27.203125 
L 46 0 
L 37.796875 0 
L 37.796875 27.203125 
L 10.59375 27.203125 
L 10.59375 35.5 
L 37.796875 35.5 
L 37.796875 62.703125 
z
" id="BitstreamVeraSans-Roman-2b"/>
      <path d="M 10.6875 12.40625 
L 21 12.40625 
L 21 0 
L 10.6875 0 
z
" id="BitstreamVeraSans-Roman-2e"/>
     </defs>
     <g transform="translate(428.431875 416.531875)scale(0.12 -0.12)">
      <use xlink:href="#BitstreamVeraSans-Roman-2b"/>
      <use x="83.7890625" xlink:href="#BitstreamVeraSans-Roman-31"/>
      <use x="147.412109375" xlink:href="#BitstreamVeraSans-Roman-2e"/>
      <use x="179.19921875" xlink:href="#BitstreamVeraSans-Roman-35"/>
      <use x="242.822265625" xlink:href="#BitstreamVeraSans-Roman-38"/>
      <use x="306.4453125" xlink:href="#BitstreamVeraSans-Roman-31"/>
      <use x="370.068359375" xlink:href="#BitstreamVeraSans-Roman-33"/>
      <use x="433.69140625" xlink:href="#BitstreamVeraSans-Roman-35"/>
      <use x="497.314453125" xlink:href="#BitstreamVeraSans-Roman-30"/>
      <use x="560.9375" xlink:href="#BitstreamVeraSans-Roman-37"/>
      <use x="624.560546875" xlink:href="#BitstreamVeraSans-Roman-65"/>
      <use x="686.083984375" xlink:href="#BitstreamVeraSans-Roman-39"/>
     </g>
    </g>
   </g>
   <g id="matplotlib.axis_2">
    <g id="ytick_1">
     <g id="line2d_17">
      <defs>
       <path d="M 0 0 
L 4 0 
" id="ma9d6629614" style="stroke:#000000;stroke-width:0.5;"/>
      </defs>
      <g>
       <use style="stroke:#000000;stroke-width:0.5;" x="72.0" xlink:href="#ma9d6629614" y="374.312724067"/>
      </g>
     </g>
     <g id="line2d_18">
      <defs>
       <path d="M 0 0 
L -4 0 
" id="m9597534293" style="stroke:#000000;stroke-width:0.5;"/>
      </defs>
      <g>
       <use style="stroke:#000000;stroke-width:0.5;" x="518.4" xlink:href="#m9597534293" y="374.312724067"/>
      </g>
     </g>
     <g id="text_10">
      <!-- 0.0 -->
      <g transform="translate(48.916250000000005 377.62397406699995)scale(0.12 -0.12)">
       <use xlink:href="#BitstreamVeraSans-Roman-30"/>
       <use x="63.623046875" xlink:href="#BitstreamVeraSans-Roman-2e"/>
       <use x="95.41015625" xlink:href="#BitstreamVeraSans-Roman-30"/>
      </g>
     </g>
    </g>
    <g id="ytick_2">
     <g id="line2d_19">
      <g>
       <use style="stroke:#000000;stroke-width:0.5;" x="72.0" xlink:href="#ma9d6629614" y="292.660534822216"/>
      </g>
     </g>
     <g id="line2d_20">
      <g>
       <use style="stroke:#000000;stroke-width:0.5;" x="518.4" xlink:href="#m9597534293" y="292.660534822216"/>
      </g>
     </g>
     <g id="text_11">
      <!-- 0.5 -->
      <g transform="translate(48.916250000000005 295.97178482221597)scale(0.12 -0.12)">
       <use xlink:href="#BitstreamVeraSans-Roman-30"/>
       <use x="63.623046875" xlink:href="#BitstreamVeraSans-Roman-2e"/>
       <use x="95.41015625" xlink:href="#BitstreamVeraSans-Roman-35"/>
      </g>
     </g>
    </g>
    <g id="ytick_3">
     <g id="line2d_21">
      <g>
       <use style="stroke:#000000;stroke-width:0.5;" x="72.0" xlink:href="#ma9d6629614" y="211.00834557743198"/>
      </g>
     </g>
     <g id="line2d_22">
      <g>
       <use style="stroke:#000000;stroke-width:0.5;" x="518.4" xlink:href="#m9597534293" y="211.00834557743198"/>
      </g>
     </g>
     <g id="text_12">
      <!-- 1.0 -->
      <g transform="translate(48.916250000000005 214.31959557743195)scale(0.12 -0.12)">
       <use xlink:href="#BitstreamVeraSans-Roman-31"/>
       <use x="63.623046875" xlink:href="#BitstreamVeraSans-Roman-2e"/>
       <use x="95.41015625" xlink:href="#BitstreamVeraSans-Roman-30"/>
      </g>
     </g>
    </g>
    <g id="ytick_4">
     <g id="line2d_23">
      <g>
       <use style="stroke:#000000;stroke-width:0.5;" x="72.0" xlink:href="#ma9d6629614" y="129.35615633264797"/>
      </g>
     </g>
     <g id="line2d_24">
      <g>
       <use style="stroke:#000000;stroke-width:0.5;" x="518.4" xlink:href="#m9597534293" y="129.35615633264797"/>
      </g>
     </g>
     <g id="text_13">
      <!-- 1.5 -->
      <g transform="translate(48.916250000000005 132.66740633264794)scale(0.12 -0.12)">
       <use xlink:href="#BitstreamVeraSans-Roman-31"/>
       <use x="63.623046875" xlink:href="#BitstreamVeraSans-Roman-2e"/>
       <use x="95.41015625" xlink:href="#BitstreamVeraSans-Roman-35"/>
      </g>
     </g>
    </g>
    <g id="ytick_5">
     <g id="line2d_25">
      <g>
       <use style="stroke:#000000;stroke-width:0.5;" x="72.0" xlink:href="#ma9d6629614" y="47.70396708786399"/>
      </g>
     </g>
     <g id="line2d_26">
      <g>
       <use style="stroke:#000000;stroke-width:0.5;" x="518.4" xlink:href="#m9597534293" y="47.70396708786399"/>
      </g>
     </g>
     <g id="text_14">
      <!-- 2.0 -->
      <g transform="translate(48.916250000000005 51.01521708786396)scale(0.12 -0.12)">
       <use xlink:href="#BitstreamVeraSans-Roman-32"/>
       <use x="63.623046875" xlink:href="#BitstreamVeraSans-Roman-2e"/>
       <use x="95.41015625" xlink:href="#BitstreamVeraSans-Roman-30"/>
      </g>
     </g>
    </g>
    <g id="text_15">
     <!-- Position (m) -->
     <defs>
      <path id="BitstreamVeraSans-Roman-20"/>
      <path d="M 54.890625 33.015625 
L 54.890625 0 
L 45.90625 0 
L 45.90625 32.71875 
Q 45.90625 40.484375 42.875 44.328125 
Q 39.84375 48.1875 33.796875 48.1875 
Q 26.515625 48.1875 22.3125 43.546875 
Q 18.109375 38.921875 18.109375 30.90625 
L 18.109375 0 
L 9.078125 0 
L 9.078125 54.6875 
L 18.109375 54.6875 
L 18.109375 46.1875 
Q 21.34375 51.125 25.703125 53.5625 
Q 30.078125 56 35.796875 56 
Q 45.21875 56 50.046875 50.171875 
Q 54.890625 44.34375 54.890625 33.015625 
" id="BitstreamVeraSans-Roman-6e"/>
      <path d="M 31 75.875 
Q 24.46875 64.65625 21.28125 53.65625 
Q 18.109375 42.671875 18.109375 31.390625 
Q 18.109375 20.125 21.3125 9.0625 
Q 24.515625 -2 31 -13.1875 
L 23.1875 -13.1875 
Q 15.875 -1.703125 12.234375 9.375 
Q 8.59375 20.453125 8.59375 31.390625 
Q 8.59375 42.28125 12.203125 53.3125 
Q 15.828125 64.359375 23.1875 75.875 
z
" id="BitstreamVeraSans-Roman-28"/>
      <path d="M 30.609375 48.390625 
Q 23.390625 48.390625 19.1875 42.75 
Q 14.984375 37.109375 14.984375 27.296875 
Q 14.984375 17.484375 19.15625 11.84375 
Q 23.34375 6.203125 30.609375 6.203125 
Q 37.796875 6.203125 41.984375 11.859375 
Q 46.1875 17.53125 46.1875 27.296875 
Q 46.1875 37.015625 41.984375 42.703125 
Q 37.796875 48.390625 30.609375 48.390625 
M 30.609375 56 
Q 42.328125 56 49.015625 48.375 
Q 55.71875 40.765625 55.71875 27.296875 
Q 55.71875 13.875 49.015625 6.21875 
Q 42.328125 -1.421875 30.609375 -1.421875 
Q 18.84375 -1.421875 12.171875 6.21875 
Q 5.515625 13.875 5.515625 27.296875 
Q 5.515625 40.765625 12.171875 48.375 
Q 18.84375 56 30.609375 56 
" id="BitstreamVeraSans-Roman-6f"/>
      <path d="M 19.671875 64.796875 
L 19.671875 37.40625 
L 32.078125 37.40625 
Q 38.96875 37.40625 42.71875 40.96875 
Q 46.484375 44.53125 46.484375 51.125 
Q 46.484375 57.671875 42.71875 61.234375 
Q 38.96875 64.796875 32.078125 64.796875 
z
M 9.8125 72.90625 
L 32.078125 72.90625 
Q 44.34375 72.90625 50.609375 67.359375 
Q 56.890625 61.8125 56.890625 51.125 
Q 56.890625 40.328125 50.609375 34.8125 
Q 44.34375 29.296875 32.078125 29.296875 
L 19.671875 29.296875 
L 19.671875 0 
L 9.8125 0 
z
" id="BitstreamVeraSans-Roman-50"/>
      <path d="M 8.015625 75.875 
L 15.828125 75.875 
Q 23.140625 64.359375 26.78125 53.3125 
Q 30.421875 42.28125 30.421875 31.390625 
Q 30.421875 20.453125 26.78125 9.375 
Q 23.140625 -1.703125 15.828125 -13.1875 
L 8.015625 -13.1875 
Q 14.5 -2 17.703125 9.0625 
Q 20.90625 20.125 20.90625 31.390625 
Q 20.90625 42.671875 17.703125 53.65625 
Q 14.5 64.65625 8.015625 75.875 
" id="BitstreamVeraSans-Roman-29"/>
      <path d="M 18.3125 70.21875 
L 18.3125 54.6875 
L 36.8125 54.6875 
L 36.8125 47.703125 
L 18.3125 47.703125 
L 18.3125 18.015625 
Q 18.3125 11.328125 20.140625 9.421875 
Q 21.96875 7.515625 27.59375 7.515625 
L 36.8125 7.515625 
L 36.8125 0 
L 27.59375 0 
Q 17.1875 0 13.234375 3.875 
Q 9.28125 7.765625 9.28125 18.015625 
L 9.28125 47.703125 
L 2.6875 47.703125 
L 2.6875 54.6875 
L 9.28125 54.6875 
L 9.28125 70.21875 
z
" id="BitstreamVeraSans-Roman-74"/>
      <path d="M 44.28125 53.078125 
L 44.28125 44.578125 
Q 40.484375 46.53125 36.375 47.5 
Q 32.28125 48.484375 27.875 48.484375 
Q 21.1875 48.484375 17.84375 46.4375 
Q 14.5 44.390625 14.5 40.28125 
Q 14.5 37.15625 16.890625 35.375 
Q 19.28125 33.59375 26.515625 31.984375 
L 29.59375 31.296875 
Q 39.15625 29.25 43.1875 25.515625 
Q 47.21875 21.78125 47.21875 15.09375 
Q 47.21875 7.46875 41.1875 3.015625 
Q 35.15625 -1.421875 24.609375 -1.421875 
Q 20.21875 -1.421875 15.453125 -0.5625 
Q 10.6875 0.296875 5.421875 2 
L 5.421875 11.28125 
Q 10.40625 8.6875 15.234375 7.390625 
Q 20.0625 6.109375 24.8125 6.109375 
Q 31.15625 6.109375 34.5625 8.28125 
Q 37.984375 10.453125 37.984375 14.40625 
Q 37.984375 18.0625 35.515625 20.015625 
Q 33.0625 21.96875 24.703125 23.78125 
L 21.578125 24.515625 
Q 13.234375 26.265625 9.515625 29.90625 
Q 5.8125 33.546875 5.8125 39.890625 
Q 5.8125 47.609375 11.28125 51.796875 
Q 16.75 56 26.8125 56 
Q 31.78125 56 36.171875 55.265625 
Q 40.578125 54.546875 44.28125 53.078125 
" id="BitstreamVeraSans-Roman-73"/>
     </defs>
     <g transform="translate(41.420625 252.0046875)rotate(-90.0)scale(0.12 -0.12)">
      <use xlink:href="#BitstreamVeraSans-Roman-50"/>
      <use x="60.255859375" xlink:href="#BitstreamVeraSans-Roman-6f"/>
      <use x="121.4375" xlink:href="#BitstreamVeraSans-Roman-73"/>
      <use x="173.537109375" xlink:href="#BitstreamVeraSans-Roman-69"/>
      <use x="201.3203125" xlink:href="#BitstreamVeraSans-Roman-74"/>
      <use x="240.529296875" xlink:href="#BitstreamVeraSans-Roman-69"/>
      <use x="268.3125" xlink:href="#BitstreamVeraSans-Roman-6f"/>
      <use x="329.494140625" xlink:href="#BitstreamVeraSans-Roman-6e"/>
      <use x="392.873046875" xlink:href="#BitstreamVeraSans-Roman-20"/>
      <use x="424.66015625" xlink:href="#BitstreamVeraSans-Roman-28"/>
      <use x="463.673828125" xlink:href="#BitstreamVeraSans-Roman-6d"/>
      <use x="561.0859375" xlink:href="#BitstreamVeraSans-Roman-29"/>
     </g>
    </g>
   </g>
   <g id="text_16">
    <!-- Position in Z v/s Time -->
    <defs>
     <path d="M 2.984375 54.6875 
L 12.5 54.6875 
L 29.59375 8.796875 
L 46.6875 54.6875 
L 56.203125 54.6875 
L 35.6875 0 
L 23.484375 0 
z
" id="BitstreamVeraSans-Roman-76"/>
     <path d="M 5.609375 72.90625 
L 62.890625 72.90625 
L 62.890625 65.375 
L 16.796875 8.296875 
L 64.015625 8.296875 
L 64.015625 0 
L 4.5 0 
L 4.5 7.515625 
L 50.59375 64.59375 
L 5.609375 64.59375 
z
" id="BitstreamVeraSans-Roman-5a"/>
     <path d="M 25.390625 72.90625 
L 33.6875 72.90625 
L 8.296875 -9.28125 
L 0 -9.28125 
z
" id="BitstreamVeraSans-Roman-2f"/>
    </defs>
    <g transform="translate(217.99012499999998 38.19999999999999)scale(0.144 -0.144)">
     <use xlink:href="#BitstreamVeraSans-Roman-50"/>
     <use x="60.255859375" xlink:href="#BitstreamVeraSans-Roman-6f"/>
     <use x="121.4375" xlink:href="#BitstreamVeraSans-Roman-73"/>
     <use x="173.537109375" xlink:href="#BitstreamVeraSans-Roman-69"/>
     <use x="201.3203125" xlink:href="#BitstreamVeraSans-Roman-74"/>
     <use x="240.529296875" xlink:href="#BitstreamVeraSans-Roman-69"/>
     <use x="268.3125" xlink:href="#BitstreamVeraSans-Roman-6f"/>
     <use x="329.494140625" xlink:href="#BitstreamVeraSans-Roman-6e"/>
     <use x="392.873046875" xlink:href="#BitstreamVeraSans-Roman-20"/>
     <use x="424.66015625" xlink:href="#BitstreamVeraSans-Roman-69"/>
     <use x="452.443359375" xlink:href="#BitstreamVeraSans-Roman-6e"/>
     <use x="515.822265625" xlink:href="#BitstreamVeraSans-Roman-20"/>
     <use x="547.609375" xlink:href="#BitstreamVeraSans-Roman-5a"/>
     <use x="616.115234375" xlink:href="#BitstreamVeraSans-Roman-20"/>
     <use x="647.90234375" xlink:href="#BitstreamVeraSans-Roman-76"/>
     <use x="707.08203125" xlink:href="#BitstreamVeraSans-Roman-2f"/>
     <use x="740.7734375" xlink:href="#BitstreamVeraSans-Roman-73"/>
     <use x="792.873046875" xlink:href="#BitstreamVeraSans-Roman-20"/>
     <use x="824.66015625" xlink:href="#BitstreamVeraSans-Roman-54"/>
     <use x="885.697265625" xlink:href="#BitstreamVeraSans-Roman-69"/>
     <use x="913.48046875" xlink:href="#BitstreamVeraSans-Roman-6d"/>
     <use x="1010.89257812" xlink:href="#BitstreamVeraSans-Roman-65"/>
    </g>
   </g>
   <g id="legend_1">
    <g id="patch_7">
     <path d="M 79.2 96.993 
L 200.8485 96.993 
L 200.8485 50.4 
L 79.2 50.4 
z
" style="fill:#ffffff;stroke:#000000;stroke-linejoin:miter;"/>
    </g>
    <g id="line2d_27">
     <path d="M 89.28 62.06175 
L 109.44 62.06175 
" style="fill:none;stroke:#0000ff;stroke-linecap:square;"/>
    </g>
    <g id="line2d_28"/>
    <g id="text_17">
     <!-- Desired Z -->
     <defs>
      <path d="M 45.40625 46.390625 
L 45.40625 75.984375 
L 54.390625 75.984375 
L 54.390625 0 
L 45.40625 0 
L 45.40625 8.203125 
Q 42.578125 3.328125 38.25 0.953125 
Q 33.9375 -1.421875 27.875 -1.421875 
Q 17.96875 -1.421875 11.734375 6.484375 
Q 5.515625 14.40625 5.515625 27.296875 
Q 5.515625 40.1875 11.734375 48.09375 
Q 17.96875 56 27.875 56 
Q 33.9375 56 38.25 53.625 
Q 42.578125 51.265625 45.40625 46.390625 
M 14.796875 27.296875 
Q 14.796875 17.390625 18.875 11.75 
Q 22.953125 6.109375 30.078125 6.109375 
Q 37.203125 6.109375 41.296875 11.75 
Q 45.40625 17.390625 45.40625 27.296875 
Q 45.40625 37.203125 41.296875 42.84375 
Q 37.203125 48.484375 30.078125 48.484375 
Q 22.953125 48.484375 18.875 42.84375 
Q 14.796875 37.203125 14.796875 27.296875 
" id="BitstreamVeraSans-Roman-64"/>
      <path d="M 19.671875 64.796875 
L 19.671875 8.109375 
L 31.59375 8.109375 
Q 46.6875 8.109375 53.6875 14.9375 
Q 60.6875 21.78125 60.6875 36.53125 
Q 60.6875 51.171875 53.6875 57.984375 
Q 46.6875 64.796875 31.59375 64.796875 
z
M 9.8125 72.90625 
L 30.078125 72.90625 
Q 51.265625 72.90625 61.171875 64.09375 
Q 71.09375 55.28125 71.09375 36.53125 
Q 71.09375 17.671875 61.125 8.828125 
Q 51.171875 0 30.078125 0 
L 9.8125 0 
z
" id="BitstreamVeraSans-Roman-44"/>
      <path d="M 41.109375 46.296875 
Q 39.59375 47.171875 37.8125 47.578125 
Q 36.03125 48 33.890625 48 
Q 26.265625 48 22.1875 43.046875 
Q 18.109375 38.09375 18.109375 28.8125 
L 18.109375 0 
L 9.078125 0 
L 9.078125 54.6875 
L 18.109375 54.6875 
L 18.109375 46.1875 
Q 20.953125 51.171875 25.484375 53.578125 
Q 30.03125 56 36.53125 56 
Q 37.453125 56 38.578125 55.875 
Q 39.703125 55.765625 41.0625 55.515625 
z
" id="BitstreamVeraSans-Roman-72"/>
     </defs>
     <g transform="translate(125.28 67.10174999999992)scale(0.144 -0.144)">
      <use xlink:href="#BitstreamVeraSans-Roman-44"/>
      <use x="77.001953125" xlink:href="#BitstreamVeraSans-Roman-65"/>
      <use x="138.525390625" xlink:href="#BitstreamVeraSans-Roman-73"/>
      <use x="190.625" xlink:href="#BitstreamVeraSans-Roman-69"/>
      <use x="218.408203125" xlink:href="#BitstreamVeraSans-Roman-72"/>
      <use x="259.490234375" xlink:href="#BitstreamVeraSans-Roman-65"/>
      <use x="321.013671875" xlink:href="#BitstreamVeraSans-Roman-64"/>
      <use x="384.490234375" xlink:href="#BitstreamVeraSans-Roman-20"/>
      <use x="416.27734375" xlink:href="#BitstreamVeraSans-Roman-5a"/>
     </g>
    </g>
    <g id="line2d_29">
     <path d="M 89.28 83.19825 
L 109.44 83.19825 
" style="fill:none;stroke:#ffa500;stroke-linecap:square;"/>
    </g>
    <g id="line2d_30"/>
    <g id="text_18">
     <!-- Actual Z -->
     <defs>
      <path d="M 9.421875 75.984375 
L 18.40625 75.984375 
L 18.40625 0 
L 9.421875 0 
z
" id="BitstreamVeraSans-Roman-6c"/>
      <path d="M 8.5 21.578125 
L 8.5 54.6875 
L 17.484375 54.6875 
L 17.484375 21.921875 
Q 17.484375 14.15625 20.5 10.265625 
Q 23.53125 6.390625 29.59375 6.390625 
Q 36.859375 6.390625 41.078125 11.03125 
Q 45.3125 15.671875 45.3125 23.6875 
L 45.3125 54.6875 
L 54.296875 54.6875 
L 54.296875 0 
L 45.3125 0 
L 45.3125 8.40625 
Q 42.046875 3.421875 37.71875 1 
Q 33.40625 -1.421875 27.6875 -1.421875 
Q 18.265625 -1.421875 13.375 4.4375 
Q 8.5 10.296875 8.5 21.578125 
" id="BitstreamVeraSans-Roman-75"/>
      <path d="M 34.28125 27.484375 
Q 23.390625 27.484375 19.1875 25 
Q 14.984375 22.515625 14.984375 16.5 
Q 14.984375 11.71875 18.140625 8.90625 
Q 21.296875 6.109375 26.703125 6.109375 
Q 34.1875 6.109375 38.703125 11.40625 
Q 43.21875 16.703125 43.21875 25.484375 
L 43.21875 27.484375 
z
M 52.203125 31.203125 
L 52.203125 0 
L 43.21875 0 
L 43.21875 8.296875 
Q 40.140625 3.328125 35.546875 0.953125 
Q 30.953125 -1.421875 24.3125 -1.421875 
Q 15.921875 -1.421875 10.953125 3.296875 
Q 6 8.015625 6 15.921875 
Q 6 25.140625 12.171875 29.828125 
Q 18.359375 34.515625 30.609375 34.515625 
L 43.21875 34.515625 
L 43.21875 35.40625 
Q 43.21875 41.609375 39.140625 45 
Q 35.0625 48.390625 27.6875 48.390625 
Q 23 48.390625 18.546875 47.265625 
Q 14.109375 46.140625 10.015625 43.890625 
L 10.015625 52.203125 
Q 14.9375 54.109375 19.578125 55.046875 
Q 24.21875 56 28.609375 56 
Q 40.484375 56 46.34375 49.84375 
Q 52.203125 43.703125 52.203125 31.203125 
" id="BitstreamVeraSans-Roman-61"/>
      <path d="M 48.78125 52.59375 
L 48.78125 44.1875 
Q 44.96875 46.296875 41.140625 47.34375 
Q 37.3125 48.390625 33.40625 48.390625 
Q 24.65625 48.390625 19.8125 42.84375 
Q 14.984375 37.3125 14.984375 27.296875 
Q 14.984375 17.28125 19.8125 11.734375 
Q 24.65625 6.203125 33.40625 6.203125 
Q 37.3125 6.203125 41.140625 7.25 
Q 44.96875 8.296875 48.78125 10.40625 
L 48.78125 2.09375 
Q 45.015625 0.34375 40.984375 -0.53125 
Q 36.96875 -1.421875 32.421875 -1.421875 
Q 20.0625 -1.421875 12.78125 6.34375 
Q 5.515625 14.109375 5.515625 27.296875 
Q 5.515625 40.671875 12.859375 48.328125 
Q 20.21875 56 33.015625 56 
Q 37.15625 56 41.109375 55.140625 
Q 45.0625 54.296875 48.78125 52.59375 
" id="BitstreamVeraSans-Roman-63"/>
      <path d="M 34.1875 63.1875 
L 20.796875 26.90625 
L 47.609375 26.90625 
z
M 28.609375 72.90625 
L 39.796875 72.90625 
L 67.578125 0 
L 57.328125 0 
L 50.6875 18.703125 
L 17.828125 18.703125 
L 11.1875 0 
L 0.78125 0 
z
" id="BitstreamVeraSans-Roman-41"/>
     </defs>
     <g transform="translate(125.28 88.23824999999994)scale(0.144 -0.144)">
      <use xlink:href="#BitstreamVeraSans-Roman-41"/>
      <use x="68.392578125" xlink:href="#BitstreamVeraSans-Roman-63"/>
      <use x="123.373046875" xlink:href="#BitstreamVeraSans-Roman-74"/>
      <use x="162.58203125" xlink:href="#BitstreamVeraSans-Roman-75"/>
      <use x="225.9609375" xlink:href="#BitstreamVeraSans-Roman-61"/>
      <use x="287.240234375" xlink:href="#BitstreamVeraSans-Roman-6c"/>
      <use x="315.0234375" xlink:href="#BitstreamVeraSans-Roman-20"/>
      <use x="346.810546875" xlink:href="#BitstreamVeraSans-Roman-5a"/>
     </g>
    </g>
   </g>
  </g>
 </g>
 <defs>
  <clipPath id="pfbef1f7656">
   <rect height="345.6" width="446.4" x="72.0" y="43.19999999999999"/>
  </clipPath>
 </defs>
</svg>
