<?xml version="1.0" encoding="utf-8" standalone="no"?>
<!DOCTYPE svg PUBLIC "-//W3C//DTD SVG 1.1//EN"
  "http://www.w3.org/Graphics/SVG/1.1/DTD/svg11.dtd">
<!-- Created with matplotlib (https://matplotlib.org/) -->
<svg height="345.6pt" version="1.1" viewBox="0 0 460.8 345.6" width="460.8pt" xmlns="http://www.w3.org/2000/svg" xmlns:xlink="http://www.w3.org/1999/xlink">
 <defs>
  <style type="text/css">
*{stroke-linecap:butt;stroke-linejoin:round;}
  </style>
 </defs>
 <g id="figure_1">
  <g id="patch_1">
   <path d="M 0 345.6 
L 460.8 345.6 
L 460.8 0 
L 0 0 
z
" style="fill:#ffffff;"/>
  </g>
  <g id="axes_1">
   <g id="patch_2">
    <path d="M 57.6 307.584 
L 414.72 307.584 
L 414.72 41.472 
L 57.6 41.472 
z
" style="fill:#ffffff;"/>
   </g>
   <g id="matplotlib.axis_1">
    <g id="xtick_1">
     <g id="line2d_1">
      <defs>
       <path d="M 0 0 
L 0 3.5 
" id="m0ecd0d4aef" style="stroke:#000000;stroke-width:0.8;"/>
      </defs>
      <g>
       <use style="stroke:#000000;stroke-width:0.8;" x="94.875152" xlink:href="#m0ecd0d4aef" y="307.584"/>
      </g>
     </g>
     <g id="text_1">
      <!-- 820 -->
      <defs>
       <path d="M 31.78125 34.625 
Q 24.75 34.625 20.71875 30.859375 
Q 16.703125 27.09375 16.703125 20.515625 
Q 16.703125 13.921875 20.71875 10.15625 
Q 24.75 6.390625 31.78125 6.390625 
Q 38.8125 6.390625 42.859375 10.171875 
Q 46.921875 13.96875 46.921875 20.515625 
Q 46.921875 27.09375 42.890625 30.859375 
Q 38.875 34.625 31.78125 34.625 
z
M 21.921875 38.8125 
Q 15.578125 40.375 12.03125 44.71875 
Q 8.5 49.078125 8.5 55.328125 
Q 8.5 64.0625 14.71875 69.140625 
Q 20.953125 74.21875 31.78125 74.21875 
Q 42.671875 74.21875 48.875 69.140625 
Q 55.078125 64.0625 55.078125 55.328125 
Q 55.078125 49.078125 51.53125 44.71875 
Q 48 40.375 41.703125 38.8125 
Q 48.828125 37.15625 52.796875 32.3125 
Q 56.78125 27.484375 56.78125 20.515625 
Q 56.78125 9.90625 50.3125 4.234375 
Q 43.84375 -1.421875 31.78125 -1.421875 
Q 19.734375 -1.421875 13.25 4.234375 
Q 6.78125 9.90625 6.78125 20.515625 
Q 6.78125 27.484375 10.78125 32.3125 
Q 14.796875 37.15625 21.921875 38.8125 
z
M 18.3125 54.390625 
Q 18.3125 48.734375 21.84375 45.5625 
Q 25.390625 42.390625 31.78125 42.390625 
Q 38.140625 42.390625 41.71875 45.5625 
Q 45.3125 48.734375 45.3125 54.390625 
Q 45.3125 60.0625 41.71875 63.234375 
Q 38.140625 66.40625 31.78125 66.40625 
Q 25.390625 66.40625 21.84375 63.234375 
Q 18.3125 60.0625 18.3125 54.390625 
z
" id="DejaVuSans-56"/>
       <path d="M 19.1875 8.296875 
L 53.609375 8.296875 
L 53.609375 0 
L 7.328125 0 
L 7.328125 8.296875 
Q 12.9375 14.109375 22.625 23.890625 
Q 32.328125 33.6875 34.8125 36.53125 
Q 39.546875 41.84375 41.421875 45.53125 
Q 43.3125 49.21875 43.3125 52.78125 
Q 43.3125 58.59375 39.234375 62.25 
Q 35.15625 65.921875 28.609375 65.921875 
Q 23.96875 65.921875 18.8125 64.3125 
Q 13.671875 62.703125 7.8125 59.421875 
L 7.8125 69.390625 
Q 13.765625 71.78125 18.9375 73 
Q 24.125 74.21875 28.421875 74.21875 
Q 39.75 74.21875 46.484375 68.546875 
Q 53.21875 62.890625 53.21875 53.421875 
Q 53.21875 48.921875 51.53125 44.890625 
Q 49.859375 40.875 45.40625 35.40625 
Q 44.1875 33.984375 37.640625 27.21875 
Q 31.109375 20.453125 19.1875 8.296875 
z
" id="DejaVuSans-50"/>
       <path d="M 31.78125 66.40625 
Q 24.171875 66.40625 20.328125 58.90625 
Q 16.5 51.421875 16.5 36.375 
Q 16.5 21.390625 20.328125 13.890625 
Q 24.171875 6.390625 31.78125 6.390625 
Q 39.453125 6.390625 43.28125 13.890625 
Q 47.125 21.390625 47.125 36.375 
Q 47.125 51.421875 43.28125 58.90625 
Q 39.453125 66.40625 31.78125 66.40625 
z
M 31.78125 74.21875 
Q 44.046875 74.21875 50.515625 64.515625 
Q 56.984375 54.828125 56.984375 36.375 
Q 56.984375 17.96875 50.515625 8.265625 
Q 44.046875 -1.421875 31.78125 -1.421875 
Q 19.53125 -1.421875 13.0625 8.265625 
Q 6.59375 17.96875 6.59375 36.375 
Q 6.59375 54.828125 13.0625 64.515625 
Q 19.53125 74.21875 31.78125 74.21875 
z
" id="DejaVuSans-48"/>
      </defs>
      <g transform="translate(85.331402 322.182437)scale(0.1 -0.1)">
       <use xlink:href="#DejaVuSans-56"/>
       <use x="63.623047" xlink:href="#DejaVuSans-50"/>
       <use x="127.246094" xlink:href="#DejaVuSans-48"/>
      </g>
     </g>
    </g>
    <g id="xtick_2">
     <g id="line2d_2">
      <g>
       <use style="stroke:#000000;stroke-width:0.8;" x="154.996364" xlink:href="#m0ecd0d4aef" y="307.584"/>
      </g>
     </g>
     <g id="text_2">
      <!-- 840 -->
      <defs>
       <path d="M 37.796875 64.3125 
L 12.890625 25.390625 
L 37.796875 25.390625 
z
M 35.203125 72.90625 
L 47.609375 72.90625 
L 47.609375 25.390625 
L 58.015625 25.390625 
L 58.015625 17.1875 
L 47.609375 17.1875 
L 47.609375 0 
L 37.796875 0 
L 37.796875 17.1875 
L 4.890625 17.1875 
L 4.890625 26.703125 
z
" id="DejaVuSans-52"/>
      </defs>
      <g transform="translate(145.452614 322.182437)scale(0.1 -0.1)">
       <use xlink:href="#DejaVuSans-56"/>
       <use x="63.623047" xlink:href="#DejaVuSans-52"/>
       <use x="127.246094" xlink:href="#DejaVuSans-48"/>
      </g>
     </g>
    </g>
    <g id="xtick_3">
     <g id="line2d_3">
      <g>
       <use style="stroke:#000000;stroke-width:0.8;" x="215.117576" xlink:href="#m0ecd0d4aef" y="307.584"/>
      </g>
     </g>
     <g id="text_3">
      <!-- 860 -->
      <defs>
       <path d="M 33.015625 40.375 
Q 26.375 40.375 22.484375 35.828125 
Q 18.609375 31.296875 18.609375 23.390625 
Q 18.609375 15.53125 22.484375 10.953125 
Q 26.375 6.390625 33.015625 6.390625 
Q 39.65625 6.390625 43.53125 10.953125 
Q 47.40625 15.53125 47.40625 23.390625 
Q 47.40625 31.296875 43.53125 35.828125 
Q 39.65625 40.375 33.015625 40.375 
z
M 52.59375 71.296875 
L 52.59375 62.3125 
Q 48.875 64.0625 45.09375 64.984375 
Q 41.3125 65.921875 37.59375 65.921875 
Q 27.828125 65.921875 22.671875 59.328125 
Q 17.53125 52.734375 16.796875 39.40625 
Q 19.671875 43.65625 24.015625 45.921875 
Q 28.375 48.1875 33.59375 48.1875 
Q 44.578125 48.1875 50.953125 41.515625 
Q 57.328125 34.859375 57.328125 23.390625 
Q 57.328125 12.15625 50.6875 5.359375 
Q 44.046875 -1.421875 33.015625 -1.421875 
Q 20.359375 -1.421875 13.671875 8.265625 
Q 6.984375 17.96875 6.984375 36.375 
Q 6.984375 53.65625 15.1875 63.9375 
Q 23.390625 74.21875 37.203125 74.21875 
Q 40.921875 74.21875 44.703125 73.484375 
Q 48.484375 72.75 52.59375 71.296875 
z
" id="DejaVuSans-54"/>
      </defs>
      <g transform="translate(205.573826 322.182437)scale(0.1 -0.1)">
       <use xlink:href="#DejaVuSans-56"/>
       <use x="63.623047" xlink:href="#DejaVuSans-54"/>
       <use x="127.246094" xlink:href="#DejaVuSans-48"/>
      </g>
     </g>
    </g>
    <g id="xtick_4">
     <g id="line2d_4">
      <g>
       <use style="stroke:#000000;stroke-width:0.8;" x="275.238788" xlink:href="#m0ecd0d4aef" y="307.584"/>
      </g>
     </g>
     <g id="text_4">
      <!-- 880 -->
      <g transform="translate(265.695038 322.182437)scale(0.1 -0.1)">
       <use xlink:href="#DejaVuSans-56"/>
       <use x="63.623047" xlink:href="#DejaVuSans-56"/>
       <use x="127.246094" xlink:href="#DejaVuSans-48"/>
      </g>
     </g>
    </g>
    <g id="xtick_5">
     <g id="line2d_5">
      <g>
       <use style="stroke:#000000;stroke-width:0.8;" x="335.36" xlink:href="#m0ecd0d4aef" y="307.584"/>
      </g>
     </g>
     <g id="text_5">
      <!-- 900 -->
      <defs>
       <path d="M 10.984375 1.515625 
L 10.984375 10.5 
Q 14.703125 8.734375 18.5 7.8125 
Q 22.3125 6.890625 25.984375 6.890625 
Q 35.75 6.890625 40.890625 13.453125 
Q 46.046875 20.015625 46.78125 33.40625 
Q 43.953125 29.203125 39.59375 26.953125 
Q 35.25 24.703125 29.984375 24.703125 
Q 19.046875 24.703125 12.671875 31.3125 
Q 6.296875 37.9375 6.296875 49.421875 
Q 6.296875 60.640625 12.9375 67.421875 
Q 19.578125 74.21875 30.609375 74.21875 
Q 43.265625 74.21875 49.921875 64.515625 
Q 56.59375 54.828125 56.59375 36.375 
Q 56.59375 19.140625 48.40625 8.859375 
Q 40.234375 -1.421875 26.421875 -1.421875 
Q 22.703125 -1.421875 18.890625 -0.6875 
Q 15.09375 0.046875 10.984375 1.515625 
z
M 30.609375 32.421875 
Q 37.25 32.421875 41.125 36.953125 
Q 45.015625 41.5 45.015625 49.421875 
Q 45.015625 57.28125 41.125 61.84375 
Q 37.25 66.40625 30.609375 66.40625 
Q 23.96875 66.40625 20.09375 61.84375 
Q 16.21875 57.28125 16.21875 49.421875 
Q 16.21875 41.5 20.09375 36.953125 
Q 23.96875 32.421875 30.609375 32.421875 
z
" id="DejaVuSans-57"/>
      </defs>
      <g transform="translate(325.81625 322.182437)scale(0.1 -0.1)">
       <use xlink:href="#DejaVuSans-57"/>
       <use x="63.623047" xlink:href="#DejaVuSans-48"/>
       <use x="127.246094" xlink:href="#DejaVuSans-48"/>
      </g>
     </g>
    </g>
    <g id="xtick_6">
     <g id="line2d_6">
      <g>
       <use style="stroke:#000000;stroke-width:0.8;" x="395.481212" xlink:href="#m0ecd0d4aef" y="307.584"/>
      </g>
     </g>
     <g id="text_6">
      <!-- 920 -->
      <g transform="translate(385.937462 322.182437)scale(0.1 -0.1)">
       <use xlink:href="#DejaVuSans-57"/>
       <use x="63.623047" xlink:href="#DejaVuSans-50"/>
       <use x="127.246094" xlink:href="#DejaVuSans-48"/>
      </g>
     </g>
    </g>
    <g id="text_7">
     <!-- Time -->
     <defs>
      <path d="M -0.296875 72.90625 
L 61.375 72.90625 
L 61.375 64.59375 
L 35.5 64.59375 
L 35.5 0 
L 25.59375 0 
L 25.59375 64.59375 
L -0.296875 64.59375 
z
" id="DejaVuSans-84"/>
      <path d="M 9.421875 54.6875 
L 18.40625 54.6875 
L 18.40625 0 
L 9.421875 0 
z
M 9.421875 75.984375 
L 18.40625 75.984375 
L 18.40625 64.59375 
L 9.421875 64.59375 
z
" id="DejaVuSans-105"/>
      <path d="M 52 44.1875 
Q 55.375 50.25 60.0625 53.125 
Q 64.75 56 71.09375 56 
Q 79.640625 56 84.28125 50.015625 
Q 88.921875 44.046875 88.921875 33.015625 
L 88.921875 0 
L 79.890625 0 
L 79.890625 32.71875 
Q 79.890625 40.578125 77.09375 44.375 
Q 74.3125 48.1875 68.609375 48.1875 
Q 61.625 48.1875 57.5625 43.546875 
Q 53.515625 38.921875 53.515625 30.90625 
L 53.515625 0 
L 44.484375 0 
L 44.484375 32.71875 
Q 44.484375 40.625 41.703125 44.40625 
Q 38.921875 48.1875 33.109375 48.1875 
Q 26.21875 48.1875 22.15625 43.53125 
Q 18.109375 38.875 18.109375 30.90625 
L 18.109375 0 
L 9.078125 0 
L 9.078125 54.6875 
L 18.109375 54.6875 
L 18.109375 46.1875 
Q 21.1875 51.21875 25.484375 53.609375 
Q 29.78125 56 35.6875 56 
Q 41.65625 56 45.828125 52.96875 
Q 50 49.953125 52 44.1875 
z
" id="DejaVuSans-109"/>
      <path d="M 56.203125 29.59375 
L 56.203125 25.203125 
L 14.890625 25.203125 
Q 15.484375 15.921875 20.484375 11.0625 
Q 25.484375 6.203125 34.421875 6.203125 
Q 39.59375 6.203125 44.453125 7.46875 
Q 49.3125 8.734375 54.109375 11.28125 
L 54.109375 2.78125 
Q 49.265625 0.734375 44.1875 -0.34375 
Q 39.109375 -1.421875 33.890625 -1.421875 
Q 20.796875 -1.421875 13.15625 6.1875 
Q 5.515625 13.8125 5.515625 26.8125 
Q 5.515625 40.234375 12.765625 48.109375 
Q 20.015625 56 32.328125 56 
Q 43.359375 56 49.78125 48.890625 
Q 56.203125 41.796875 56.203125 29.59375 
z
M 47.21875 32.234375 
Q 47.125 39.59375 43.09375 43.984375 
Q 39.0625 48.390625 32.421875 48.390625 
Q 24.90625 48.390625 20.390625 44.140625 
Q 15.875 39.890625 15.1875 32.171875 
z
" id="DejaVuSans-101"/>
     </defs>
     <g transform="translate(223.7725 335.860562)scale(0.1 -0.1)">
      <use xlink:href="#DejaVuSans-84"/>
      <use x="61.037109" xlink:href="#DejaVuSans-105"/>
      <use x="88.820312" xlink:href="#DejaVuSans-109"/>
      <use x="186.232422" xlink:href="#DejaVuSans-101"/>
     </g>
    </g>
    <g id="text_8">
     <!-- +1.58135e9 -->
     <defs>
      <path d="M 46 62.703125 
L 46 35.5 
L 73.1875 35.5 
L 73.1875 27.203125 
L 46 27.203125 
L 46 0 
L 37.796875 0 
L 37.796875 27.203125 
L 10.59375 27.203125 
L 10.59375 35.5 
L 37.796875 35.5 
L 37.796875 62.703125 
z
" id="DejaVuSans-43"/>
      <path d="M 12.40625 8.296875 
L 28.515625 8.296875 
L 28.515625 63.921875 
L 10.984375 60.40625 
L 10.984375 69.390625 
L 28.421875 72.90625 
L 38.28125 72.90625 
L 38.28125 8.296875 
L 54.390625 8.296875 
L 54.390625 0 
L 12.40625 0 
z
" id="DejaVuSans-49"/>
      <path d="M 10.6875 12.40625 
L 21 12.40625 
L 21 0 
L 10.6875 0 
z
" id="DejaVuSans-46"/>
      <path d="M 10.796875 72.90625 
L 49.515625 72.90625 
L 49.515625 64.59375 
L 19.828125 64.59375 
L 19.828125 46.734375 
Q 21.96875 47.46875 24.109375 47.828125 
Q 26.265625 48.1875 28.421875 48.1875 
Q 40.625 48.1875 47.75 41.5 
Q 54.890625 34.8125 54.890625 23.390625 
Q 54.890625 11.625 47.5625 5.09375 
Q 40.234375 -1.421875 26.90625 -1.421875 
Q 22.3125 -1.421875 17.546875 -0.640625 
Q 12.796875 0.140625 7.71875 1.703125 
L 7.71875 11.625 
Q 12.109375 9.234375 16.796875 8.0625 
Q 21.484375 6.890625 26.703125 6.890625 
Q 35.15625 6.890625 40.078125 11.328125 
Q 45.015625 15.765625 45.015625 23.390625 
Q 45.015625 31 40.078125 35.4375 
Q 35.15625 39.890625 26.703125 39.890625 
Q 22.75 39.890625 18.8125 39.015625 
Q 14.890625 38.140625 10.796875 36.28125 
z
" id="DejaVuSans-53"/>
      <path d="M 40.578125 39.3125 
Q 47.65625 37.796875 51.625 33 
Q 55.609375 28.21875 55.609375 21.1875 
Q 55.609375 10.40625 48.1875 4.484375 
Q 40.765625 -1.421875 27.09375 -1.421875 
Q 22.515625 -1.421875 17.65625 -0.515625 
Q 12.796875 0.390625 7.625 2.203125 
L 7.625 11.71875 
Q 11.71875 9.328125 16.59375 8.109375 
Q 21.484375 6.890625 26.8125 6.890625 
Q 36.078125 6.890625 40.9375 10.546875 
Q 45.796875 14.203125 45.796875 21.1875 
Q 45.796875 27.640625 41.28125 31.265625 
Q 36.765625 34.90625 28.71875 34.90625 
L 20.21875 34.90625 
L 20.21875 43.015625 
L 29.109375 43.015625 
Q 36.375 43.015625 40.234375 45.921875 
Q 44.09375 48.828125 44.09375 54.296875 
Q 44.09375 59.90625 40.109375 62.90625 
Q 36.140625 65.921875 28.71875 65.921875 
Q 24.65625 65.921875 20.015625 65.03125 
Q 15.375 64.15625 9.8125 62.3125 
L 9.8125 71.09375 
Q 15.4375 72.65625 20.34375 73.4375 
Q 25.25 74.21875 29.59375 74.21875 
Q 40.828125 74.21875 47.359375 69.109375 
Q 53.90625 64.015625 53.90625 55.328125 
Q 53.90625 49.265625 50.4375 45.09375 
Q 46.96875 40.921875 40.578125 39.3125 
z
" id="DejaVuSans-51"/>
     </defs>
     <g transform="translate(352.471563 334.860562)scale(0.1 -0.1)">
      <use xlink:href="#DejaVuSans-43"/>
      <use x="83.789062" xlink:href="#DejaVuSans-49"/>
      <use x="147.412109" xlink:href="#DejaVuSans-46"/>
      <use x="179.199219" xlink:href="#DejaVuSans-53"/>
      <use x="242.822266" xlink:href="#DejaVuSans-56"/>
      <use x="306.445312" xlink:href="#DejaVuSans-49"/>
      <use x="370.068359" xlink:href="#DejaVuSans-51"/>
      <use x="433.691406" xlink:href="#DejaVuSans-53"/>
      <use x="497.314453" xlink:href="#DejaVuSans-101"/>
      <use x="558.837891" xlink:href="#DejaVuSans-57"/>
     </g>
    </g>
   </g>
   <g id="matplotlib.axis_2">
    <g id="ytick_1">
     <g id="line2d_7">
      <defs>
       <path d="M 0 0 
L -3.5 0 
" id="m9a1eed66fd" style="stroke:#000000;stroke-width:0.8;"/>
      </defs>
      <g>
       <use style="stroke:#000000;stroke-width:0.8;" x="57.6" xlink:href="#m9a1eed66fd" y="279.015422"/>
      </g>
     </g>
     <g id="text_9">
      <!-- −0.04 -->
      <defs>
       <path d="M 10.59375 35.5 
L 73.1875 35.5 
L 73.1875 27.203125 
L 10.59375 27.203125 
z
" id="DejaVuSans-8722"/>
      </defs>
      <g transform="translate(19.954687 282.814641)scale(0.1 -0.1)">
       <use xlink:href="#DejaVuSans-8722"/>
       <use x="83.789062" xlink:href="#DejaVuSans-48"/>
       <use x="147.412109" xlink:href="#DejaVuSans-46"/>
       <use x="179.199219" xlink:href="#DejaVuSans-48"/>
       <use x="242.822266" xlink:href="#DejaVuSans-52"/>
      </g>
     </g>
    </g>
    <g id="ytick_2">
     <g id="line2d_8">
      <g>
       <use style="stroke:#000000;stroke-width:0.8;" x="57.6" xlink:href="#m9a1eed66fd" y="220.080249"/>
      </g>
     </g>
     <g id="text_10">
      <!-- −0.02 -->
      <g transform="translate(19.954687 223.879468)scale(0.1 -0.1)">
       <use xlink:href="#DejaVuSans-8722"/>
       <use x="83.789062" xlink:href="#DejaVuSans-48"/>
       <use x="147.412109" xlink:href="#DejaVuSans-46"/>
       <use x="179.199219" xlink:href="#DejaVuSans-48"/>
       <use x="242.822266" xlink:href="#DejaVuSans-50"/>
      </g>
     </g>
    </g>
    <g id="ytick_3">
     <g id="line2d_9">
      <g>
       <use style="stroke:#000000;stroke-width:0.8;" x="57.6" xlink:href="#m9a1eed66fd" y="161.145076"/>
      </g>
     </g>
     <g id="text_11">
      <!-- 0.00 -->
      <g transform="translate(28.334375 164.944295)scale(0.1 -0.1)">
       <use xlink:href="#DejaVuSans-48"/>
       <use x="63.623047" xlink:href="#DejaVuSans-46"/>
       <use x="95.410156" xlink:href="#DejaVuSans-48"/>
       <use x="159.033203" xlink:href="#DejaVuSans-48"/>
      </g>
     </g>
    </g>
    <g id="ytick_4">
     <g id="line2d_10">
      <g>
       <use style="stroke:#000000;stroke-width:0.8;" x="57.6" xlink:href="#m9a1eed66fd" y="102.209903"/>
      </g>
     </g>
     <g id="text_12">
      <!-- 0.02 -->
      <g transform="translate(28.334375 106.009122)scale(0.1 -0.1)">
       <use xlink:href="#DejaVuSans-48"/>
       <use x="63.623047" xlink:href="#DejaVuSans-46"/>
       <use x="95.410156" xlink:href="#DejaVuSans-48"/>
       <use x="159.033203" xlink:href="#DejaVuSans-50"/>
      </g>
     </g>
    </g>
    <g id="ytick_5">
     <g id="line2d_11">
      <g>
       <use style="stroke:#000000;stroke-width:0.8;" x="57.6" xlink:href="#m9a1eed66fd" y="43.27473"/>
      </g>
     </g>
     <g id="text_13">
      <!-- 0.04 -->
      <g transform="translate(28.334375 47.073949)scale(0.1 -0.1)">
       <use xlink:href="#DejaVuSans-48"/>
       <use x="63.623047" xlink:href="#DejaVuSans-46"/>
       <use x="95.410156" xlink:href="#DejaVuSans-48"/>
       <use x="159.033203" xlink:href="#DejaVuSans-52"/>
      </g>
     </g>
    </g>
    <g id="text_14">
     <!-- Pitch -->
     <defs>
      <path d="M 19.671875 64.796875 
L 19.671875 37.40625 
L 32.078125 37.40625 
Q 38.96875 37.40625 42.71875 40.96875 
Q 46.484375 44.53125 46.484375 51.125 
Q 46.484375 57.671875 42.71875 61.234375 
Q 38.96875 64.796875 32.078125 64.796875 
z
M 9.8125 72.90625 
L 32.078125 72.90625 
Q 44.34375 72.90625 50.609375 67.359375 
Q 56.890625 61.8125 56.890625 51.125 
Q 56.890625 40.328125 50.609375 34.8125 
Q 44.34375 29.296875 32.078125 29.296875 
L 19.671875 29.296875 
L 19.671875 0 
L 9.8125 0 
z
" id="DejaVuSans-80"/>
      <path d="M 18.3125 70.21875 
L 18.3125 54.6875 
L 36.8125 54.6875 
L 36.8125 47.703125 
L 18.3125 47.703125 
L 18.3125 18.015625 
Q 18.3125 11.328125 20.140625 9.421875 
Q 21.96875 7.515625 27.59375 7.515625 
L 36.8125 7.515625 
L 36.8125 0 
L 27.59375 0 
Q 17.1875 0 13.234375 3.875 
Q 9.28125 7.765625 9.28125 18.015625 
L 9.28125 47.703125 
L 2.6875 47.703125 
L 2.6875 54.6875 
L 9.28125 54.6875 
L 9.28125 70.21875 
z
" id="DejaVuSans-116"/>
      <path d="M 48.78125 52.59375 
L 48.78125 44.1875 
Q 44.96875 46.296875 41.140625 47.34375 
Q 37.3125 48.390625 33.40625 48.390625 
Q 24.65625 48.390625 19.8125 42.84375 
Q 14.984375 37.3125 14.984375 27.296875 
Q 14.984375 17.28125 19.8125 11.734375 
Q 24.65625 6.203125 33.40625 6.203125 
Q 37.3125 6.203125 41.140625 7.25 
Q 44.96875 8.296875 48.78125 10.40625 
L 48.78125 2.09375 
Q 45.015625 0.34375 40.984375 -0.53125 
Q 36.96875 -1.421875 32.421875 -1.421875 
Q 20.0625 -1.421875 12.78125 6.34375 
Q 5.515625 14.109375 5.515625 27.296875 
Q 5.515625 40.671875 12.859375 48.328125 
Q 20.21875 56 33.015625 56 
Q 37.15625 56 41.109375 55.140625 
Q 45.0625 54.296875 48.78125 52.59375 
z
" id="DejaVuSans-99"/>
      <path d="M 54.890625 33.015625 
L 54.890625 0 
L 45.90625 0 
L 45.90625 32.71875 
Q 45.90625 40.484375 42.875 44.328125 
Q 39.84375 48.1875 33.796875 48.1875 
Q 26.515625 48.1875 22.3125 43.546875 
Q 18.109375 38.921875 18.109375 30.90625 
L 18.109375 0 
L 9.078125 0 
L 9.078125 75.984375 
L 18.109375 75.984375 
L 18.109375 46.1875 
Q 21.34375 51.125 25.703125 53.5625 
Q 30.078125 56 35.796875 56 
Q 45.21875 56 50.046875 50.171875 
Q 54.890625 44.34375 54.890625 33.015625 
z
" id="DejaVuSans-104"/>
     </defs>
     <g transform="translate(13.875 186.808469)rotate(-90)scale(0.1 -0.1)">
      <use xlink:href="#DejaVuSans-80"/>
      <use x="60.271484" xlink:href="#DejaVuSans-105"/>
      <use x="88.054688" xlink:href="#DejaVuSans-116"/>
      <use x="127.263672" xlink:href="#DejaVuSans-99"/>
      <use x="182.244141" xlink:href="#DejaVuSans-104"/>
     </g>
    </g>
   </g>
   <g id="line2d_12">
    <path clip-path="url(#p222d59b4ca)" d="M 73.832727 161.145076 
L 398.487272 161.145076 
L 398.487272 161.145076 
" style="fill:none;stroke:#1f77b4;stroke-linecap:square;stroke-width:1.5;"/>
   </g>
   <g id="line2d_13">
    <path clip-path="url(#p222d59b4ca)" d="M 73.832727 157.3741 
L 73.832727 156.448222 
L 73.832727 157.730811 
L 73.832727 157.381325 
L 76.838788 157.308392 
L 76.838788 157.740525 
L 76.838788 157.173292 
L 76.838788 157.485771 
L 79.844849 157.579138 
L 79.844849 157.536179 
L 79.844849 157.061716 
L 79.844849 157.743281 
L 79.844849 157.615605 
L 82.850909 157.565095 
L 82.850909 157.246175 
L 82.850909 157.831787 
L 82.850909 157.490707 
L 85.85697 157.319653 
L 85.85697 157.731765 
L 85.85697 157.072921 
L 85.85697 157.585189 
L 88.86303 157.4762 
L 88.86303 157.205875 
L 88.86303 157.718217 
L 88.86303 157.32502 
L 91.869091 157.138355 
L 91.869091 157.770189 
L 91.869091 157.431809 
L 94.875152 157.552086 
L 94.875152 157.384442 
L 94.875152 157.161443 
L 94.875152 157.754305 
L 94.875152 157.384197 
L 97.881212 157.358579 
L 97.881212 157.413708 
L 97.881212 157.854401 
L 97.881212 157.099033 
L 97.881212 157.448052 
L 100.887273 157.338047 
L 100.887273 157.754426 
L 100.887273 157.147301 
L 100.887273 157.369149 
L 103.893333 157.453322 
L 103.893333 157.159197 
L 103.893333 157.790979 
L 103.893333 157.276637 
L 106.899394 157.351149 
L 106.899394 157.727567 
L 106.899394 157.162176 
L 106.899394 157.30248 
L 109.905455 157.64995 
L 109.905455 157.127143 
L 109.905455 157.689198 
L 109.905455 157.410217 
L 112.911515 157.222159 
L 112.911515 157.730929 
L 112.911515 157.202291 
L 112.911515 157.507976 
L 115.917576 157.268633 
L 115.917576 157.76146 
L 115.917576 157.182931 
L 115.917576 157.270718 
L 118.923636 157.521594 
L 118.923636 156.843486 
L 118.923636 158.325884 
L 118.923636 157.469645 
L 121.929697 157.31734 
L 121.929697 158.9665 
L 121.929697 155.933628 
L 121.929697 156.585347 
L 124.935758 158.044362 
L 124.935758 155.219523 
L 124.935758 175.285659 
L 124.935758 175.254859 
L 127.941818 174.122387 
L 127.941818 295.488 
L 127.941818 144.133039 
L 127.941818 267.25655 
L 130.947879 265.734199 
L 130.947879 70.02152 
L 130.947879 166.327085 
L 133.953939 166.762798 
L 133.953939 156.207075 
L 133.953939 171.341229 
L 133.953939 163.108472 
L 136.96 162.12374 
L 136.96 170.544043 
L 136.96 142.661463 
L 136.96 144.308214 
L 139.966061 142.798162 
L 139.966061 162.475859 
L 139.966061 128.092682 
L 139.966061 142.341835 
L 142.972121 142.000719 
L 142.972121 141.069444 
L 142.972121 169.982476 
L 142.972121 163.108776 
L 145.978182 163.018584 
L 145.978182 242.507975 
L 145.978182 155.596185 
L 145.978182 199.115779 
L 148.984242 198.369404 
L 148.984242 193.638296 
L 148.984242 258.945646 
L 148.984242 218.716723 
L 151.990303 217.316409 
L 151.990303 131.294797 
L 151.990303 151.079578 
L 154.996364 149.425915 
L 154.996364 218.292633 
L 154.996364 122.811902 
L 154.996364 127.547577 
L 158.002424 126.296171 
L 158.002424 59.929134 
L 158.002424 141.544294 
L 158.002424 135.725255 
L 161.008485 135.542151 
L 161.008485 135.573256 
L 161.008485 89.416526 
L 161.008485 136.344086 
L 161.008485 101.38884 
L 164.014545 100.760617 
L 164.014545 89.600464 
L 164.014545 176.243058 
L 164.014545 147.665453 
L 167.020606 147.43368 
L 167.020606 149.225127 
L 167.020606 86.678346 
L 167.020606 100.544753 
L 170.026667 101.419994 
L 170.026667 100.019973 
L 170.026667 173.392731 
L 170.026667 120.731316 
L 173.032727 121.603996 
L 173.032727 117.500036 
L 173.032727 191.661095 
L 173.032727 187.124514 
L 176.038788 187.39677 
L 176.038788 188.733564 
L 176.038788 136.350026 
L 176.038788 172.386782 
L 179.044848 172.172593 
L 179.044848 234.463377 
L 179.044848 140.181258 
L 179.044848 155.409172 
L 182.050909 156.322705 
L 182.050909 136.394751 
L 182.050909 202.484031 
L 182.050909 201.516023 
L 185.05697 201.452444 
L 185.05697 145.88535 
L 185.05697 201.568726 
L 185.05697 184.220383 
L 188.06303 186.242224 
L 188.06303 256.06175 
L 188.06303 165.278627 
L 188.06303 172.980794 
L 191.069091 173.063703 
L 191.069091 161.731827 
L 191.069091 195.728925 
L 191.069091 194.82349 
L 194.075151 195.315417 
L 194.075151 168.121958 
L 194.075151 210.236457 
L 194.075151 199.323599 
L 197.081212 199.645935 
L 197.081212 168.950784 
L 197.081212 226.276298 
L 197.081212 206.033328 
L 200.087273 205.213741 
L 200.087273 152.741151 
L 200.087273 208.72046 
L 200.087273 174.634395 
L 203.093333 173.48765 
L 203.093333 172.920923 
L 203.093333 218.339276 
L 203.093333 191.694274 
L 206.099394 191.623061 
L 206.099394 210.962117 
L 206.099394 165.700728 
L 206.099394 210.09413 
L 209.105454 211.344835 
L 209.105454 150.615336 
L 209.105454 214.158247 
L 209.105454 175.544198 
L 212.111515 177.0437 
L 212.111515 210.569909 
L 212.111515 143.055445 
L 212.111515 145.20479 
L 215.117576 145.949532 
L 215.117576 178.642132 
L 215.117576 139.073295 
L 215.117576 139.566423 
L 218.123636 138.780903 
L 218.123636 92.37856 
L 218.123636 138.967542 
L 218.123636 103.576473 
L 221.129697 103.288557 
L 221.129697 100.977308 
L 221.129697 150.897604 
L 224.135757 150.589869 
L 224.135757 125.172653 
L 224.135757 160.150863 
L 224.135757 140.010729 
L 227.141818 138.451677 
L 227.141818 152.404617 
L 227.141818 113.743352 
L 227.141818 142.051713 
L 230.147879 141.627193 
L 230.147879 129.494671 
L 230.147879 195.163072 
L 230.147879 191.568316 
L 233.153939 191.768483 
L 233.153939 151.349453 
L 233.153939 204.165306 
L 233.153939 161.714923 
L 236.16 160.777098 
L 236.16 140.571398 
L 236.16 171.43655 
L 236.16 169.386303 
L 239.16606 171.236256 
L 239.16606 190.376781 
L 239.16606 134.3726 
L 239.16606 171.972378 
L 242.172121 171.656916 
L 242.172121 136.731046 
L 242.172121 142.711255 
L 245.178182 144.302054 
L 245.178182 125.304995 
L 245.178182 187.781533 
L 245.178182 187.150649 
L 248.184242 188.547697 
L 248.184242 225.241914 
L 248.184242 161.434897 
L 248.184242 200.58215 
L 251.190303 200.435891 
L 251.190303 162.118277 
L 251.190303 256.401163 
L 254.196363 257.214556 
L 254.196363 268.736642 
L 254.196363 165.479191 
L 257.202424 164.736822 
L 257.202424 153.997555 
L 257.202424 203.340237 
L 257.202424 165.188939 
L 260.208485 164.613061 
L 260.208485 146.081624 
L 260.208485 191.979725 
L 260.208485 166.877056 
L 263.214545 166.3128 
L 263.214545 123.475792 
L 263.214545 182.320654 
L 263.214545 147.679181 
L 266.220606 149.325939 
L 266.220606 210.135666 
L 266.220606 122.174387 
L 266.220606 127.667876 
L 269.226666 128.11532 
L 269.226666 145.231076 
L 269.226666 119.84906 
L 269.226666 123.639941 
L 272.232727 123.67851 
L 272.232727 82.615446 
L 272.232727 126.200281 
L 272.232727 114.465303 
L 275.238788 114.398346 
L 275.238788 105.19719 
L 275.238788 169.492143 
L 275.238788 157.321932 
L 278.244848 157.80662 
L 278.244848 116.068858 
L 278.244848 183.332499 
L 278.244848 118.711054 
L 281.250909 118.71519 
L 281.250909 125.156834 
L 281.250909 101.314914 
L 281.250909 110.352687 
L 284.256969 110.998903 
L 284.256969 148.56458 
L 287.26303 148.580614 
L 287.26303 228.770385 
L 287.26303 143.20072 
L 287.26303 225.983246 
L 290.269091 227.442716 
L 290.269091 230.633348 
L 290.269091 182.911546 
L 293.275151 185.108368 
L 293.275151 132.413484 
L 293.275151 186.564817 
L 293.275151 134.584455 
L 296.281212 135.133234 
L 296.281212 128.0658 
L 296.281212 158.660203 
L 296.281212 140.732284 
L 299.287272 137.86989 
L 299.287272 207.100383 
L 299.287272 83.376212 
L 299.287272 169.38627 
L 302.293333 166.960368 
L 302.293333 94.930778 
L 302.293333 201.551789 
L 302.293333 153.405753 
L 305.299394 150.30055 
L 305.299394 138.720695 
L 305.299394 214.792114 
L 305.299394 143.34847 
L 308.305454 142.514767 
L 308.305454 98.81355 
L 308.305454 257.611062 
L 311.311515 258.772925 
L 311.311515 116.292428 
L 311.311515 261.03801 
L 311.311515 128.543353 
L 314.317575 130.399164 
L 314.317575 156.657588 
L 314.317575 116.48964 
L 314.317575 135.49784 
L 317.323636 134.758357 
L 317.323636 101.913837 
L 317.323636 155.925017 
L 317.323636 154.064649 
L 320.329697 154.410529 
L 320.329697 183.02462 
L 320.329697 130.688331 
L 323.335757 129.925248 
L 323.335757 102.94801 
L 323.335757 148.623107 
L 323.335757 126.384023 
L 326.341818 127.380706 
L 326.341818 169.449097 
L 326.341818 101.016292 
L 326.341818 143.986044 
L 329.347878 143.07315 
L 329.347878 117.986479 
L 329.347878 172.870085 
L 329.347878 171.970748 
L 332.353939 172.076085 
L 332.353939 169.821532 
L 332.353939 215.25339 
L 332.353939 195.364854 
L 335.36 192.844587 
L 335.36 93.086416 
L 335.36 146.843598 
L 338.36606 146.020744 
L 338.36606 244.893323 
L 338.36606 170.156864 
L 341.372121 169.732843 
L 341.372121 108.381161 
L 341.372121 109.613781 
L 344.378181 109.669209 
L 344.378181 211.383207 
L 344.378181 107.305663 
L 347.384242 108.168548 
L 347.384242 91.036206 
L 347.384242 232.714489 
L 347.384242 198.838657 
L 350.390303 202.491598 
L 350.390303 191.457628 
L 350.390303 235.885666 
L 350.390303 217.084554 
L 353.396363 216.644627 
L 353.396363 147.153902 
L 353.396363 216.805397 
L 353.396363 155.933935 
L 356.402424 155.774648 
L 356.402424 186.06665 
L 356.402424 155.495812 
L 356.402424 179.710532 
L 359.408484 176.401276 
L 359.408484 187.423195 
L 359.408484 155.148866 
L 359.408484 165.830968 
L 362.414545 167.90619 
L 362.414545 198.337769 
L 362.414545 155.52639 
L 362.414545 160.206612 
L 365.420606 161.640037 
L 365.420606 128.096432 
L 365.420606 172.039764 
L 365.420606 149.49082 
L 368.426666 148.730656 
L 368.426666 168.851116 
L 368.426666 139.785804 
L 368.426666 144.694561 
L 371.432727 146.483269 
L 371.432727 213.039904 
L 371.432727 89.521781 
L 374.438787 89.039533 
L 374.438787 59.940284 
L 374.438787 169.956895 
L 374.438787 159.455121 
L 377.444848 158.195106 
L 377.444848 53.568 
L 377.444848 177.871458 
L 377.444848 170.438978 
L 380.450909 170.285455 
L 380.450909 116.100158 
L 380.450909 193.228771 
L 380.450909 137.239289 
L 383.456969 136.270244 
L 383.456969 99.614275 
L 383.456969 245.047274 
L 383.456969 139.489805 
L 386.46303 139.841267 
L 386.46303 139.372964 
L 386.46303 139.474684 
L 389.46909 139.460363 
L 389.46909 139.519834 
L 389.46909 139.727666 
L 389.46909 138.633583 
L 389.46909 139.482624 
L 392.475151 139.571945 
L 392.475151 139.48665 
L 392.475151 139.456915 
L 392.475151 139.838955 
L 392.475151 139.58233 
L 395.481212 139.666948 
L 395.481212 139.598416 
L 395.481212 139.473102 
L 395.481212 139.768941 
L 395.481212 139.626451 
L 398.487272 139.522702 
L 398.487272 139.618172 
L 398.487272 139.466153 
L 398.487272 139.687379 
L 398.487272 139.633907 
" style="fill:none;stroke:#ff7f0e;stroke-linecap:square;stroke-width:1.5;"/>
   </g>
   <g id="patch_3">
    <path d="M 57.6 307.584 
L 57.6 41.472 
" style="fill:none;stroke:#000000;stroke-linecap:square;stroke-linejoin:miter;stroke-width:0.8;"/>
   </g>
   <g id="patch_4">
    <path d="M 414.72 307.584 
L 414.72 41.472 
" style="fill:none;stroke:#000000;stroke-linecap:square;stroke-linejoin:miter;stroke-width:0.8;"/>
   </g>
   <g id="patch_5">
    <path d="M 57.6 307.584 
L 414.72 307.584 
" style="fill:none;stroke:#000000;stroke-linecap:square;stroke-linejoin:miter;stroke-width:0.8;"/>
   </g>
   <g id="patch_6">
    <path d="M 57.6 41.472 
L 414.72 41.472 
" style="fill:none;stroke:#000000;stroke-linecap:square;stroke-linejoin:miter;stroke-width:0.8;"/>
   </g>
   <g id="text_15">
    <!-- Pitch v/s Time -->
    <defs>
     <path id="DejaVuSans-32"/>
     <path d="M 2.984375 54.6875 
L 12.5 54.6875 
L 29.59375 8.796875 
L 46.6875 54.6875 
L 56.203125 54.6875 
L 35.6875 0 
L 23.484375 0 
z
" id="DejaVuSans-118"/>
     <path d="M 25.390625 72.90625 
L 33.6875 72.90625 
L 8.296875 -9.28125 
L 0 -9.28125 
z
" id="DejaVuSans-47"/>
     <path d="M 44.28125 53.078125 
L 44.28125 44.578125 
Q 40.484375 46.53125 36.375 47.5 
Q 32.28125 48.484375 27.875 48.484375 
Q 21.1875 48.484375 17.84375 46.4375 
Q 14.5 44.390625 14.5 40.28125 
Q 14.5 37.15625 16.890625 35.375 
Q 19.28125 33.59375 26.515625 31.984375 
L 29.59375 31.296875 
Q 39.15625 29.25 43.1875 25.515625 
Q 47.21875 21.78125 47.21875 15.09375 
Q 47.21875 7.46875 41.1875 3.015625 
Q 35.15625 -1.421875 24.609375 -1.421875 
Q 20.21875 -1.421875 15.453125 -0.5625 
Q 10.6875 0.296875 5.421875 2 
L 5.421875 11.28125 
Q 10.40625 8.6875 15.234375 7.390625 
Q 20.0625 6.109375 24.8125 6.109375 
Q 31.15625 6.109375 34.5625 8.28125 
Q 37.984375 10.453125 37.984375 14.40625 
Q 37.984375 18.0625 35.515625 20.015625 
Q 33.0625 21.96875 24.703125 23.78125 
L 21.578125 24.515625 
Q 13.234375 26.265625 9.515625 29.90625 
Q 5.8125 33.546875 5.8125 39.890625 
Q 5.8125 47.609375 11.28125 51.796875 
Q 16.75 56 26.8125 56 
Q 31.78125 56 36.171875 55.265625 
Q 40.578125 54.546875 44.28125 53.078125 
z
" id="DejaVuSans-115"/>
    </defs>
    <g transform="translate(194.046562 35.472)scale(0.12 -0.12)">
     <use xlink:href="#DejaVuSans-80"/>
     <use x="60.271484" xlink:href="#DejaVuSans-105"/>
     <use x="88.054688" xlink:href="#DejaVuSans-116"/>
     <use x="127.263672" xlink:href="#DejaVuSans-99"/>
     <use x="182.244141" xlink:href="#DejaVuSans-104"/>
     <use x="245.623047" xlink:href="#DejaVuSans-32"/>
     <use x="277.410156" xlink:href="#DejaVuSans-118"/>
     <use x="336.589844" xlink:href="#DejaVuSans-47"/>
     <use x="370.28125" xlink:href="#DejaVuSans-115"/>
     <use x="422.380859" xlink:href="#DejaVuSans-32"/>
     <use x="454.167969" xlink:href="#DejaVuSans-84"/>
     <use x="515.205078" xlink:href="#DejaVuSans-105"/>
     <use x="542.988281" xlink:href="#DejaVuSans-109"/>
     <use x="640.400391" xlink:href="#DejaVuSans-101"/>
    </g>
   </g>
   <g id="legend_1">
    <g id="patch_7">
     <path d="M 309.209063 302.584 
L 407.72 302.584 
Q 409.72 302.584 409.72 300.584 
L 409.72 272.22775 
Q 409.72 270.22775 407.72 270.22775 
L 309.209063 270.22775 
Q 307.209063 270.22775 307.209063 272.22775 
L 307.209063 300.584 
Q 307.209063 302.584 309.209063 302.584 
z
" style="fill:#ffffff;opacity:0.8;stroke:#cccccc;stroke-linejoin:miter;"/>
    </g>
    <g id="line2d_14">
     <path d="M 311.209063 278.326187 
L 331.209063 278.326187 
" style="fill:none;stroke:#1f77b4;stroke-linecap:square;stroke-width:1.5;"/>
    </g>
    <g id="line2d_15"/>
    <g id="text_16">
     <!-- Desired pitch -->
     <defs>
      <path d="M 19.671875 64.796875 
L 19.671875 8.109375 
L 31.59375 8.109375 
Q 46.6875 8.109375 53.6875 14.9375 
Q 60.6875 21.78125 60.6875 36.53125 
Q 60.6875 51.171875 53.6875 57.984375 
Q 46.6875 64.796875 31.59375 64.796875 
z
M 9.8125 72.90625 
L 30.078125 72.90625 
Q 51.265625 72.90625 61.171875 64.09375 
Q 71.09375 55.28125 71.09375 36.53125 
Q 71.09375 17.671875 61.125 8.828125 
Q 51.171875 0 30.078125 0 
L 9.8125 0 
z
" id="DejaVuSans-68"/>
      <path d="M 41.109375 46.296875 
Q 39.59375 47.171875 37.8125 47.578125 
Q 36.03125 48 33.890625 48 
Q 26.265625 48 22.1875 43.046875 
Q 18.109375 38.09375 18.109375 28.8125 
L 18.109375 0 
L 9.078125 0 
L 9.078125 54.6875 
L 18.109375 54.6875 
L 18.109375 46.1875 
Q 20.953125 51.171875 25.484375 53.578125 
Q 30.03125 56 36.53125 56 
Q 37.453125 56 38.578125 55.875 
Q 39.703125 55.765625 41.0625 55.515625 
z
" id="DejaVuSans-114"/>
      <path d="M 45.40625 46.390625 
L 45.40625 75.984375 
L 54.390625 75.984375 
L 54.390625 0 
L 45.40625 0 
L 45.40625 8.203125 
Q 42.578125 3.328125 38.25 0.953125 
Q 33.9375 -1.421875 27.875 -1.421875 
Q 17.96875 -1.421875 11.734375 6.484375 
Q 5.515625 14.40625 5.515625 27.296875 
Q 5.515625 40.1875 11.734375 48.09375 
Q 17.96875 56 27.875 56 
Q 33.9375 56 38.25 53.625 
Q 42.578125 51.265625 45.40625 46.390625 
z
M 14.796875 27.296875 
Q 14.796875 17.390625 18.875 11.75 
Q 22.953125 6.109375 30.078125 6.109375 
Q 37.203125 6.109375 41.296875 11.75 
Q 45.40625 17.390625 45.40625 27.296875 
Q 45.40625 37.203125 41.296875 42.84375 
Q 37.203125 48.484375 30.078125 48.484375 
Q 22.953125 48.484375 18.875 42.84375 
Q 14.796875 37.203125 14.796875 27.296875 
z
" id="DejaVuSans-100"/>
      <path d="M 18.109375 8.203125 
L 18.109375 -20.796875 
L 9.078125 -20.796875 
L 9.078125 54.6875 
L 18.109375 54.6875 
L 18.109375 46.390625 
Q 20.953125 51.265625 25.265625 53.625 
Q 29.59375 56 35.59375 56 
Q 45.5625 56 51.78125 48.09375 
Q 58.015625 40.1875 58.015625 27.296875 
Q 58.015625 14.40625 51.78125 6.484375 
Q 45.5625 -1.421875 35.59375 -1.421875 
Q 29.59375 -1.421875 25.265625 0.953125 
Q 20.953125 3.328125 18.109375 8.203125 
z
M 48.6875 27.296875 
Q 48.6875 37.203125 44.609375 42.84375 
Q 40.53125 48.484375 33.40625 48.484375 
Q 26.265625 48.484375 22.1875 42.84375 
Q 18.109375 37.203125 18.109375 27.296875 
Q 18.109375 17.390625 22.1875 11.75 
Q 26.265625 6.109375 33.40625 6.109375 
Q 40.53125 6.109375 44.609375 11.75 
Q 48.6875 17.390625 48.6875 27.296875 
z
" id="DejaVuSans-112"/>
     </defs>
     <g transform="translate(339.209063 281.826187)scale(0.1 -0.1)">
      <use xlink:href="#DejaVuSans-68"/>
      <use x="77.001953" xlink:href="#DejaVuSans-101"/>
      <use x="138.525391" xlink:href="#DejaVuSans-115"/>
      <use x="190.625" xlink:href="#DejaVuSans-105"/>
      <use x="218.408203" xlink:href="#DejaVuSans-114"/>
      <use x="259.490234" xlink:href="#DejaVuSans-101"/>
      <use x="321.013672" xlink:href="#DejaVuSans-100"/>
      <use x="384.490234" xlink:href="#DejaVuSans-32"/>
      <use x="416.277344" xlink:href="#DejaVuSans-112"/>
      <use x="479.753906" xlink:href="#DejaVuSans-105"/>
      <use x="507.537109" xlink:href="#DejaVuSans-116"/>
      <use x="546.746094" xlink:href="#DejaVuSans-99"/>
      <use x="601.726562" xlink:href="#DejaVuSans-104"/>
     </g>
    </g>
    <g id="line2d_16">
     <path d="M 311.209063 293.004312 
L 331.209063 293.004312 
" style="fill:none;stroke:#ff7f0e;stroke-linecap:square;stroke-width:1.5;"/>
    </g>
    <g id="line2d_17"/>
    <g id="text_17">
     <!-- Actual pitch -->
     <defs>
      <path d="M 34.1875 63.1875 
L 20.796875 26.90625 
L 47.609375 26.90625 
z
M 28.609375 72.90625 
L 39.796875 72.90625 
L 67.578125 0 
L 57.328125 0 
L 50.6875 18.703125 
L 17.828125 18.703125 
L 11.1875 0 
L 0.78125 0 
z
" id="DejaVuSans-65"/>
      <path d="M 8.5 21.578125 
L 8.5 54.6875 
L 17.484375 54.6875 
L 17.484375 21.921875 
Q 17.484375 14.15625 20.5 10.265625 
Q 23.53125 6.390625 29.59375 6.390625 
Q 36.859375 6.390625 41.078125 11.03125 
Q 45.3125 15.671875 45.3125 23.6875 
L 45.3125 54.6875 
L 54.296875 54.6875 
L 54.296875 0 
L 45.3125 0 
L 45.3125 8.40625 
Q 42.046875 3.421875 37.71875 1 
Q 33.40625 -1.421875 27.6875 -1.421875 
Q 18.265625 -1.421875 13.375 4.4375 
Q 8.5 10.296875 8.5 21.578125 
z
M 31.109375 56 
z
" id="DejaVuSans-117"/>
      <path d="M 34.28125 27.484375 
Q 23.390625 27.484375 19.1875 25 
Q 14.984375 22.515625 14.984375 16.5 
Q 14.984375 11.71875 18.140625 8.90625 
Q 21.296875 6.109375 26.703125 6.109375 
Q 34.1875 6.109375 38.703125 11.40625 
Q 43.21875 16.703125 43.21875 25.484375 
L 43.21875 27.484375 
z
M 52.203125 31.203125 
L 52.203125 0 
L 43.21875 0 
L 43.21875 8.296875 
Q 40.140625 3.328125 35.546875 0.953125 
Q 30.953125 -1.421875 24.3125 -1.421875 
Q 15.921875 -1.421875 10.953125 3.296875 
Q 6 8.015625 6 15.921875 
Q 6 25.140625 12.171875 29.828125 
Q 18.359375 34.515625 30.609375 34.515625 
L 43.21875 34.515625 
L 43.21875 35.40625 
Q 43.21875 41.609375 39.140625 45 
Q 35.0625 48.390625 27.6875 48.390625 
Q 23 48.390625 18.546875 47.265625 
Q 14.109375 46.140625 10.015625 43.890625 
L 10.015625 52.203125 
Q 14.9375 54.109375 19.578125 55.046875 
Q 24.21875 56 28.609375 56 
Q 40.484375 56 46.34375 49.84375 
Q 52.203125 43.703125 52.203125 31.203125 
z
" id="DejaVuSans-97"/>
      <path d="M 9.421875 75.984375 
L 18.40625 75.984375 
L 18.40625 0 
L 9.421875 0 
z
" id="DejaVuSans-108"/>
     </defs>
     <g transform="translate(339.209063 296.504312)scale(0.1 -0.1)">
      <use xlink:href="#DejaVuSans-65"/>
      <use x="68.392578" xlink:href="#DejaVuSans-99"/>
      <use x="123.373047" xlink:href="#DejaVuSans-116"/>
      <use x="162.582031" xlink:href="#DejaVuSans-117"/>
      <use x="225.960938" xlink:href="#DejaVuSans-97"/>
      <use x="287.240234" xlink:href="#DejaVuSans-108"/>
      <use x="315.023438" xlink:href="#DejaVuSans-32"/>
      <use x="346.810547" xlink:href="#DejaVuSans-112"/>
      <use x="410.287109" xlink:href="#DejaVuSans-105"/>
      <use x="438.070312" xlink:href="#DejaVuSans-116"/>
      <use x="477.279297" xlink:href="#DejaVuSans-99"/>
      <use x="532.259766" xlink:href="#DejaVuSans-104"/>
     </g>
    </g>
   </g>
  </g>
 </g>
 <defs>
  <clipPath id="p222d59b4ca">
   <rect height="266.112" width="357.12" x="57.6" y="41.472"/>
  </clipPath>
 </defs>
</svg>
