<?xml version="1.0" encoding="utf-8" standalone="no"?>
<!DOCTYPE svg PUBLIC "-//W3C//DTD SVG 1.1//EN"
  "http://www.w3.org/Graphics/SVG/1.1/DTD/svg11.dtd">
<!-- Created with matplotlib (https://matplotlib.org/) -->
<svg height="345.6pt" version="1.1" viewBox="0 0 460.8 345.6" width="460.8pt" xmlns="http://www.w3.org/2000/svg" xmlns:xlink="http://www.w3.org/1999/xlink">
 <defs>
  <style type="text/css">
*{stroke-linecap:butt;stroke-linejoin:round;}
  </style>
 </defs>
 <g id="figure_1">
  <g id="patch_1">
   <path d="M 0 345.6 
L 460.8 345.6 
L 460.8 0 
L 0 0 
z
" style="fill:#ffffff;"/>
  </g>
  <g id="axes_1">
   <g id="patch_2">
    <path d="M 57.6 307.584 
L 414.72 307.584 
L 414.72 41.472 
L 57.6 41.472 
z
" style="fill:#ffffff;"/>
   </g>
   <g id="matplotlib.axis_1">
    <g id="xtick_1">
     <g id="line2d_1">
      <defs>
       <path d="M 0 0 
L 0 3.5 
" id="mf222f312dd" style="stroke:#000000;stroke-width:0.8;"/>
      </defs>
      <g>
       <use style="stroke:#000000;stroke-width:0.8;" x="94.875152" xlink:href="#mf222f312dd" y="307.584"/>
      </g>
     </g>
     <g id="text_1">
      <!-- 820 -->
      <defs>
       <path d="M 31.78125 34.625 
Q 24.75 34.625 20.71875 30.859375 
Q 16.703125 27.09375 16.703125 20.515625 
Q 16.703125 13.921875 20.71875 10.15625 
Q 24.75 6.390625 31.78125 6.390625 
Q 38.8125 6.390625 42.859375 10.171875 
Q 46.921875 13.96875 46.921875 20.515625 
Q 46.921875 27.09375 42.890625 30.859375 
Q 38.875 34.625 31.78125 34.625 
z
M 21.921875 38.8125 
Q 15.578125 40.375 12.03125 44.71875 
Q 8.5 49.078125 8.5 55.328125 
Q 8.5 64.0625 14.71875 69.140625 
Q 20.953125 74.21875 31.78125 74.21875 
Q 42.671875 74.21875 48.875 69.140625 
Q 55.078125 64.0625 55.078125 55.328125 
Q 55.078125 49.078125 51.53125 44.71875 
Q 48 40.375 41.703125 38.8125 
Q 48.828125 37.15625 52.796875 32.3125 
Q 56.78125 27.484375 56.78125 20.515625 
Q 56.78125 9.90625 50.3125 4.234375 
Q 43.84375 -1.421875 31.78125 -1.421875 
Q 19.734375 -1.421875 13.25 4.234375 
Q 6.78125 9.90625 6.78125 20.515625 
Q 6.78125 27.484375 10.78125 32.3125 
Q 14.796875 37.15625 21.921875 38.8125 
z
M 18.3125 54.390625 
Q 18.3125 48.734375 21.84375 45.5625 
Q 25.390625 42.390625 31.78125 42.390625 
Q 38.140625 42.390625 41.71875 45.5625 
Q 45.3125 48.734375 45.3125 54.390625 
Q 45.3125 60.0625 41.71875 63.234375 
Q 38.140625 66.40625 31.78125 66.40625 
Q 25.390625 66.40625 21.84375 63.234375 
Q 18.3125 60.0625 18.3125 54.390625 
z
" id="DejaVuSans-56"/>
       <path d="M 19.1875 8.296875 
L 53.609375 8.296875 
L 53.609375 0 
L 7.328125 0 
L 7.328125 8.296875 
Q 12.9375 14.109375 22.625 23.890625 
Q 32.328125 33.6875 34.8125 36.53125 
Q 39.546875 41.84375 41.421875 45.53125 
Q 43.3125 49.21875 43.3125 52.78125 
Q 43.3125 58.59375 39.234375 62.25 
Q 35.15625 65.921875 28.609375 65.921875 
Q 23.96875 65.921875 18.8125 64.3125 
Q 13.671875 62.703125 7.8125 59.421875 
L 7.8125 69.390625 
Q 13.765625 71.78125 18.9375 73 
Q 24.125 74.21875 28.421875 74.21875 
Q 39.75 74.21875 46.484375 68.546875 
Q 53.21875 62.890625 53.21875 53.421875 
Q 53.21875 48.921875 51.53125 44.890625 
Q 49.859375 40.875 45.40625 35.40625 
Q 44.1875 33.984375 37.640625 27.21875 
Q 31.109375 20.453125 19.1875 8.296875 
z
" id="DejaVuSans-50"/>
       <path d="M 31.78125 66.40625 
Q 24.171875 66.40625 20.328125 58.90625 
Q 16.5 51.421875 16.5 36.375 
Q 16.5 21.390625 20.328125 13.890625 
Q 24.171875 6.390625 31.78125 6.390625 
Q 39.453125 6.390625 43.28125 13.890625 
Q 47.125 21.390625 47.125 36.375 
Q 47.125 51.421875 43.28125 58.90625 
Q 39.453125 66.40625 31.78125 66.40625 
z
M 31.78125 74.21875 
Q 44.046875 74.21875 50.515625 64.515625 
Q 56.984375 54.828125 56.984375 36.375 
Q 56.984375 17.96875 50.515625 8.265625 
Q 44.046875 -1.421875 31.78125 -1.421875 
Q 19.53125 -1.421875 13.0625 8.265625 
Q 6.59375 17.96875 6.59375 36.375 
Q 6.59375 54.828125 13.0625 64.515625 
Q 19.53125 74.21875 31.78125 74.21875 
z
" id="DejaVuSans-48"/>
      </defs>
      <g transform="translate(85.331402 322.182437)scale(0.1 -0.1)">
       <use xlink:href="#DejaVuSans-56"/>
       <use x="63.623047" xlink:href="#DejaVuSans-50"/>
       <use x="127.246094" xlink:href="#DejaVuSans-48"/>
      </g>
     </g>
    </g>
    <g id="xtick_2">
     <g id="line2d_2">
      <g>
       <use style="stroke:#000000;stroke-width:0.8;" x="154.996364" xlink:href="#mf222f312dd" y="307.584"/>
      </g>
     </g>
     <g id="text_2">
      <!-- 840 -->
      <defs>
       <path d="M 37.796875 64.3125 
L 12.890625 25.390625 
L 37.796875 25.390625 
z
M 35.203125 72.90625 
L 47.609375 72.90625 
L 47.609375 25.390625 
L 58.015625 25.390625 
L 58.015625 17.1875 
L 47.609375 17.1875 
L 47.609375 0 
L 37.796875 0 
L 37.796875 17.1875 
L 4.890625 17.1875 
L 4.890625 26.703125 
z
" id="DejaVuSans-52"/>
      </defs>
      <g transform="translate(145.452614 322.182437)scale(0.1 -0.1)">
       <use xlink:href="#DejaVuSans-56"/>
       <use x="63.623047" xlink:href="#DejaVuSans-52"/>
       <use x="127.246094" xlink:href="#DejaVuSans-48"/>
      </g>
     </g>
    </g>
    <g id="xtick_3">
     <g id="line2d_3">
      <g>
       <use style="stroke:#000000;stroke-width:0.8;" x="215.117576" xlink:href="#mf222f312dd" y="307.584"/>
      </g>
     </g>
     <g id="text_3">
      <!-- 860 -->
      <defs>
       <path d="M 33.015625 40.375 
Q 26.375 40.375 22.484375 35.828125 
Q 18.609375 31.296875 18.609375 23.390625 
Q 18.609375 15.53125 22.484375 10.953125 
Q 26.375 6.390625 33.015625 6.390625 
Q 39.65625 6.390625 43.53125 10.953125 
Q 47.40625 15.53125 47.40625 23.390625 
Q 47.40625 31.296875 43.53125 35.828125 
Q 39.65625 40.375 33.015625 40.375 
z
M 52.59375 71.296875 
L 52.59375 62.3125 
Q 48.875 64.0625 45.09375 64.984375 
Q 41.3125 65.921875 37.59375 65.921875 
Q 27.828125 65.921875 22.671875 59.328125 
Q 17.53125 52.734375 16.796875 39.40625 
Q 19.671875 43.65625 24.015625 45.921875 
Q 28.375 48.1875 33.59375 48.1875 
Q 44.578125 48.1875 50.953125 41.515625 
Q 57.328125 34.859375 57.328125 23.390625 
Q 57.328125 12.15625 50.6875 5.359375 
Q 44.046875 -1.421875 33.015625 -1.421875 
Q 20.359375 -1.421875 13.671875 8.265625 
Q 6.984375 17.96875 6.984375 36.375 
Q 6.984375 53.65625 15.1875 63.9375 
Q 23.390625 74.21875 37.203125 74.21875 
Q 40.921875 74.21875 44.703125 73.484375 
Q 48.484375 72.75 52.59375 71.296875 
z
" id="DejaVuSans-54"/>
      </defs>
      <g transform="translate(205.573826 322.182437)scale(0.1 -0.1)">
       <use xlink:href="#DejaVuSans-56"/>
       <use x="63.623047" xlink:href="#DejaVuSans-54"/>
       <use x="127.246094" xlink:href="#DejaVuSans-48"/>
      </g>
     </g>
    </g>
    <g id="xtick_4">
     <g id="line2d_4">
      <g>
       <use style="stroke:#000000;stroke-width:0.8;" x="275.238788" xlink:href="#mf222f312dd" y="307.584"/>
      </g>
     </g>
     <g id="text_4">
      <!-- 880 -->
      <g transform="translate(265.695038 322.182437)scale(0.1 -0.1)">
       <use xlink:href="#DejaVuSans-56"/>
       <use x="63.623047" xlink:href="#DejaVuSans-56"/>
       <use x="127.246094" xlink:href="#DejaVuSans-48"/>
      </g>
     </g>
    </g>
    <g id="xtick_5">
     <g id="line2d_5">
      <g>
       <use style="stroke:#000000;stroke-width:0.8;" x="335.36" xlink:href="#mf222f312dd" y="307.584"/>
      </g>
     </g>
     <g id="text_5">
      <!-- 900 -->
      <defs>
       <path d="M 10.984375 1.515625 
L 10.984375 10.5 
Q 14.703125 8.734375 18.5 7.8125 
Q 22.3125 6.890625 25.984375 6.890625 
Q 35.75 6.890625 40.890625 13.453125 
Q 46.046875 20.015625 46.78125 33.40625 
Q 43.953125 29.203125 39.59375 26.953125 
Q 35.25 24.703125 29.984375 24.703125 
Q 19.046875 24.703125 12.671875 31.3125 
Q 6.296875 37.9375 6.296875 49.421875 
Q 6.296875 60.640625 12.9375 67.421875 
Q 19.578125 74.21875 30.609375 74.21875 
Q 43.265625 74.21875 49.921875 64.515625 
Q 56.59375 54.828125 56.59375 36.375 
Q 56.59375 19.140625 48.40625 8.859375 
Q 40.234375 -1.421875 26.421875 -1.421875 
Q 22.703125 -1.421875 18.890625 -0.6875 
Q 15.09375 0.046875 10.984375 1.515625 
z
M 30.609375 32.421875 
Q 37.25 32.421875 41.125 36.953125 
Q 45.015625 41.5 45.015625 49.421875 
Q 45.015625 57.28125 41.125 61.84375 
Q 37.25 66.40625 30.609375 66.40625 
Q 23.96875 66.40625 20.09375 61.84375 
Q 16.21875 57.28125 16.21875 49.421875 
Q 16.21875 41.5 20.09375 36.953125 
Q 23.96875 32.421875 30.609375 32.421875 
z
" id="DejaVuSans-57"/>
      </defs>
      <g transform="translate(325.81625 322.182437)scale(0.1 -0.1)">
       <use xlink:href="#DejaVuSans-57"/>
       <use x="63.623047" xlink:href="#DejaVuSans-48"/>
       <use x="127.246094" xlink:href="#DejaVuSans-48"/>
      </g>
     </g>
    </g>
    <g id="xtick_6">
     <g id="line2d_6">
      <g>
       <use style="stroke:#000000;stroke-width:0.8;" x="395.481212" xlink:href="#mf222f312dd" y="307.584"/>
      </g>
     </g>
     <g id="text_6">
      <!-- 920 -->
      <g transform="translate(385.937462 322.182437)scale(0.1 -0.1)">
       <use xlink:href="#DejaVuSans-57"/>
       <use x="63.623047" xlink:href="#DejaVuSans-50"/>
       <use x="127.246094" xlink:href="#DejaVuSans-48"/>
      </g>
     </g>
    </g>
    <g id="text_7">
     <!-- Time -->
     <defs>
      <path d="M -0.296875 72.90625 
L 61.375 72.90625 
L 61.375 64.59375 
L 35.5 64.59375 
L 35.5 0 
L 25.59375 0 
L 25.59375 64.59375 
L -0.296875 64.59375 
z
" id="DejaVuSans-84"/>
      <path d="M 9.421875 54.6875 
L 18.40625 54.6875 
L 18.40625 0 
L 9.421875 0 
z
M 9.421875 75.984375 
L 18.40625 75.984375 
L 18.40625 64.59375 
L 9.421875 64.59375 
z
" id="DejaVuSans-105"/>
      <path d="M 52 44.1875 
Q 55.375 50.25 60.0625 53.125 
Q 64.75 56 71.09375 56 
Q 79.640625 56 84.28125 50.015625 
Q 88.921875 44.046875 88.921875 33.015625 
L 88.921875 0 
L 79.890625 0 
L 79.890625 32.71875 
Q 79.890625 40.578125 77.09375 44.375 
Q 74.3125 48.1875 68.609375 48.1875 
Q 61.625 48.1875 57.5625 43.546875 
Q 53.515625 38.921875 53.515625 30.90625 
L 53.515625 0 
L 44.484375 0 
L 44.484375 32.71875 
Q 44.484375 40.625 41.703125 44.40625 
Q 38.921875 48.1875 33.109375 48.1875 
Q 26.21875 48.1875 22.15625 43.53125 
Q 18.109375 38.875 18.109375 30.90625 
L 18.109375 0 
L 9.078125 0 
L 9.078125 54.6875 
L 18.109375 54.6875 
L 18.109375 46.1875 
Q 21.1875 51.21875 25.484375 53.609375 
Q 29.78125 56 35.6875 56 
Q 41.65625 56 45.828125 52.96875 
Q 50 49.953125 52 44.1875 
z
" id="DejaVuSans-109"/>
      <path d="M 56.203125 29.59375 
L 56.203125 25.203125 
L 14.890625 25.203125 
Q 15.484375 15.921875 20.484375 11.0625 
Q 25.484375 6.203125 34.421875 6.203125 
Q 39.59375 6.203125 44.453125 7.46875 
Q 49.3125 8.734375 54.109375 11.28125 
L 54.109375 2.78125 
Q 49.265625 0.734375 44.1875 -0.34375 
Q 39.109375 -1.421875 33.890625 -1.421875 
Q 20.796875 -1.421875 13.15625 6.1875 
Q 5.515625 13.8125 5.515625 26.8125 
Q 5.515625 40.234375 12.765625 48.109375 
Q 20.015625 56 32.328125 56 
Q 43.359375 56 49.78125 48.890625 
Q 56.203125 41.796875 56.203125 29.59375 
z
M 47.21875 32.234375 
Q 47.125 39.59375 43.09375 43.984375 
Q 39.0625 48.390625 32.421875 48.390625 
Q 24.90625 48.390625 20.390625 44.140625 
Q 15.875 39.890625 15.1875 32.171875 
z
" id="DejaVuSans-101"/>
     </defs>
     <g transform="translate(223.7725 335.860562)scale(0.1 -0.1)">
      <use xlink:href="#DejaVuSans-84"/>
      <use x="61.037109" xlink:href="#DejaVuSans-105"/>
      <use x="88.820312" xlink:href="#DejaVuSans-109"/>
      <use x="186.232422" xlink:href="#DejaVuSans-101"/>
     </g>
    </g>
    <g id="text_8">
     <!-- +1.58135e9 -->
     <defs>
      <path d="M 46 62.703125 
L 46 35.5 
L 73.1875 35.5 
L 73.1875 27.203125 
L 46 27.203125 
L 46 0 
L 37.796875 0 
L 37.796875 27.203125 
L 10.59375 27.203125 
L 10.59375 35.5 
L 37.796875 35.5 
L 37.796875 62.703125 
z
" id="DejaVuSans-43"/>
      <path d="M 12.40625 8.296875 
L 28.515625 8.296875 
L 28.515625 63.921875 
L 10.984375 60.40625 
L 10.984375 69.390625 
L 28.421875 72.90625 
L 38.28125 72.90625 
L 38.28125 8.296875 
L 54.390625 8.296875 
L 54.390625 0 
L 12.40625 0 
z
" id="DejaVuSans-49"/>
      <path d="M 10.6875 12.40625 
L 21 12.40625 
L 21 0 
L 10.6875 0 
z
" id="DejaVuSans-46"/>
      <path d="M 10.796875 72.90625 
L 49.515625 72.90625 
L 49.515625 64.59375 
L 19.828125 64.59375 
L 19.828125 46.734375 
Q 21.96875 47.46875 24.109375 47.828125 
Q 26.265625 48.1875 28.421875 48.1875 
Q 40.625 48.1875 47.75 41.5 
Q 54.890625 34.8125 54.890625 23.390625 
Q 54.890625 11.625 47.5625 5.09375 
Q 40.234375 -1.421875 26.90625 -1.421875 
Q 22.3125 -1.421875 17.546875 -0.640625 
Q 12.796875 0.140625 7.71875 1.703125 
L 7.71875 11.625 
Q 12.109375 9.234375 16.796875 8.0625 
Q 21.484375 6.890625 26.703125 6.890625 
Q 35.15625 6.890625 40.078125 11.328125 
Q 45.015625 15.765625 45.015625 23.390625 
Q 45.015625 31 40.078125 35.4375 
Q 35.15625 39.890625 26.703125 39.890625 
Q 22.75 39.890625 18.8125 39.015625 
Q 14.890625 38.140625 10.796875 36.28125 
z
" id="DejaVuSans-53"/>
      <path d="M 40.578125 39.3125 
Q 47.65625 37.796875 51.625 33 
Q 55.609375 28.21875 55.609375 21.1875 
Q 55.609375 10.40625 48.1875 4.484375 
Q 40.765625 -1.421875 27.09375 -1.421875 
Q 22.515625 -1.421875 17.65625 -0.515625 
Q 12.796875 0.390625 7.625 2.203125 
L 7.625 11.71875 
Q 11.71875 9.328125 16.59375 8.109375 
Q 21.484375 6.890625 26.8125 6.890625 
Q 36.078125 6.890625 40.9375 10.546875 
Q 45.796875 14.203125 45.796875 21.1875 
Q 45.796875 27.640625 41.28125 31.265625 
Q 36.765625 34.90625 28.71875 34.90625 
L 20.21875 34.90625 
L 20.21875 43.015625 
L 29.109375 43.015625 
Q 36.375 43.015625 40.234375 45.921875 
Q 44.09375 48.828125 44.09375 54.296875 
Q 44.09375 59.90625 40.109375 62.90625 
Q 36.140625 65.921875 28.71875 65.921875 
Q 24.65625 65.921875 20.015625 65.03125 
Q 15.375 64.15625 9.8125 62.3125 
L 9.8125 71.09375 
Q 15.4375 72.65625 20.34375 73.4375 
Q 25.25 74.21875 29.59375 74.21875 
Q 40.828125 74.21875 47.359375 69.109375 
Q 53.90625 64.015625 53.90625 55.328125 
Q 53.90625 49.265625 50.4375 45.09375 
Q 46.96875 40.921875 40.578125 39.3125 
z
" id="DejaVuSans-51"/>
     </defs>
     <g transform="translate(352.471563 334.860562)scale(0.1 -0.1)">
      <use xlink:href="#DejaVuSans-43"/>
      <use x="83.789062" xlink:href="#DejaVuSans-49"/>
      <use x="147.412109" xlink:href="#DejaVuSans-46"/>
      <use x="179.199219" xlink:href="#DejaVuSans-53"/>
      <use x="242.822266" xlink:href="#DejaVuSans-56"/>
      <use x="306.445312" xlink:href="#DejaVuSans-49"/>
      <use x="370.068359" xlink:href="#DejaVuSans-51"/>
      <use x="433.691406" xlink:href="#DejaVuSans-53"/>
      <use x="497.314453" xlink:href="#DejaVuSans-101"/>
      <use x="558.837891" xlink:href="#DejaVuSans-57"/>
     </g>
    </g>
   </g>
   <g id="matplotlib.axis_2">
    <g id="ytick_1">
     <g id="line2d_7">
      <defs>
       <path d="M 0 0 
L -3.5 0 
" id="madb04d8ceb" style="stroke:#000000;stroke-width:0.8;"/>
      </defs>
      <g>
       <use style="stroke:#000000;stroke-width:0.8;" x="57.6" xlink:href="#madb04d8ceb" y="279.020431"/>
      </g>
     </g>
     <g id="text_9">
      <!-- 0.0 -->
      <g transform="translate(34.696875 282.81965)scale(0.1 -0.1)">
       <use xlink:href="#DejaVuSans-48"/>
       <use x="63.623047" xlink:href="#DejaVuSans-46"/>
       <use x="95.410156" xlink:href="#DejaVuSans-48"/>
      </g>
     </g>
    </g>
    <g id="ytick_2">
     <g id="line2d_8">
      <g>
       <use style="stroke:#000000;stroke-width:0.8;" x="57.6" xlink:href="#madb04d8ceb" y="222.657323"/>
      </g>
     </g>
     <g id="text_10">
      <!-- 0.5 -->
      <g transform="translate(34.696875 226.456542)scale(0.1 -0.1)">
       <use xlink:href="#DejaVuSans-48"/>
       <use x="63.623047" xlink:href="#DejaVuSans-46"/>
       <use x="95.410156" xlink:href="#DejaVuSans-53"/>
      </g>
     </g>
    </g>
    <g id="ytick_3">
     <g id="line2d_9">
      <g>
       <use style="stroke:#000000;stroke-width:0.8;" x="57.6" xlink:href="#madb04d8ceb" y="166.294215"/>
      </g>
     </g>
     <g id="text_11">
      <!-- 1.0 -->
      <g transform="translate(34.696875 170.093434)scale(0.1 -0.1)">
       <use xlink:href="#DejaVuSans-49"/>
       <use x="63.623047" xlink:href="#DejaVuSans-46"/>
       <use x="95.410156" xlink:href="#DejaVuSans-48"/>
      </g>
     </g>
    </g>
    <g id="ytick_4">
     <g id="line2d_10">
      <g>
       <use style="stroke:#000000;stroke-width:0.8;" x="57.6" xlink:href="#madb04d8ceb" y="109.931108"/>
      </g>
     </g>
     <g id="text_12">
      <!-- 1.5 -->
      <g transform="translate(34.696875 113.730326)scale(0.1 -0.1)">
       <use xlink:href="#DejaVuSans-49"/>
       <use x="63.623047" xlink:href="#DejaVuSans-46"/>
       <use x="95.410156" xlink:href="#DejaVuSans-53"/>
      </g>
     </g>
    </g>
    <g id="ytick_5">
     <g id="line2d_11">
      <g>
       <use style="stroke:#000000;stroke-width:0.8;" x="57.6" xlink:href="#madb04d8ceb" y="53.568"/>
      </g>
     </g>
     <g id="text_13">
      <!-- 2.0 -->
      <g transform="translate(34.696875 57.367219)scale(0.1 -0.1)">
       <use xlink:href="#DejaVuSans-50"/>
       <use x="63.623047" xlink:href="#DejaVuSans-46"/>
       <use x="95.410156" xlink:href="#DejaVuSans-48"/>
      </g>
     </g>
    </g>
    <g id="text_14">
     <!-- Position -->
     <defs>
      <path d="M 19.671875 64.796875 
L 19.671875 37.40625 
L 32.078125 37.40625 
Q 38.96875 37.40625 42.71875 40.96875 
Q 46.484375 44.53125 46.484375 51.125 
Q 46.484375 57.671875 42.71875 61.234375 
Q 38.96875 64.796875 32.078125 64.796875 
z
M 9.8125 72.90625 
L 32.078125 72.90625 
Q 44.34375 72.90625 50.609375 67.359375 
Q 56.890625 61.8125 56.890625 51.125 
Q 56.890625 40.328125 50.609375 34.8125 
Q 44.34375 29.296875 32.078125 29.296875 
L 19.671875 29.296875 
L 19.671875 0 
L 9.8125 0 
z
" id="DejaVuSans-80"/>
      <path d="M 30.609375 48.390625 
Q 23.390625 48.390625 19.1875 42.75 
Q 14.984375 37.109375 14.984375 27.296875 
Q 14.984375 17.484375 19.15625 11.84375 
Q 23.34375 6.203125 30.609375 6.203125 
Q 37.796875 6.203125 41.984375 11.859375 
Q 46.1875 17.53125 46.1875 27.296875 
Q 46.1875 37.015625 41.984375 42.703125 
Q 37.796875 48.390625 30.609375 48.390625 
z
M 30.609375 56 
Q 42.328125 56 49.015625 48.375 
Q 55.71875 40.765625 55.71875 27.296875 
Q 55.71875 13.875 49.015625 6.21875 
Q 42.328125 -1.421875 30.609375 -1.421875 
Q 18.84375 -1.421875 12.171875 6.21875 
Q 5.515625 13.875 5.515625 27.296875 
Q 5.515625 40.765625 12.171875 48.375 
Q 18.84375 56 30.609375 56 
z
" id="DejaVuSans-111"/>
      <path d="M 44.28125 53.078125 
L 44.28125 44.578125 
Q 40.484375 46.53125 36.375 47.5 
Q 32.28125 48.484375 27.875 48.484375 
Q 21.1875 48.484375 17.84375 46.4375 
Q 14.5 44.390625 14.5 40.28125 
Q 14.5 37.15625 16.890625 35.375 
Q 19.28125 33.59375 26.515625 31.984375 
L 29.59375 31.296875 
Q 39.15625 29.25 43.1875 25.515625 
Q 47.21875 21.78125 47.21875 15.09375 
Q 47.21875 7.46875 41.1875 3.015625 
Q 35.15625 -1.421875 24.609375 -1.421875 
Q 20.21875 -1.421875 15.453125 -0.5625 
Q 10.6875 0.296875 5.421875 2 
L 5.421875 11.28125 
Q 10.40625 8.6875 15.234375 7.390625 
Q 20.0625 6.109375 24.8125 6.109375 
Q 31.15625 6.109375 34.5625 8.28125 
Q 37.984375 10.453125 37.984375 14.40625 
Q 37.984375 18.0625 35.515625 20.015625 
Q 33.0625 21.96875 24.703125 23.78125 
L 21.578125 24.515625 
Q 13.234375 26.265625 9.515625 29.90625 
Q 5.8125 33.546875 5.8125 39.890625 
Q 5.8125 47.609375 11.28125 51.796875 
Q 16.75 56 26.8125 56 
Q 31.78125 56 36.171875 55.265625 
Q 40.578125 54.546875 44.28125 53.078125 
z
" id="DejaVuSans-115"/>
      <path d="M 18.3125 70.21875 
L 18.3125 54.6875 
L 36.8125 54.6875 
L 36.8125 47.703125 
L 18.3125 47.703125 
L 18.3125 18.015625 
Q 18.3125 11.328125 20.140625 9.421875 
Q 21.96875 7.515625 27.59375 7.515625 
L 36.8125 7.515625 
L 36.8125 0 
L 27.59375 0 
Q 17.1875 0 13.234375 3.875 
Q 9.28125 7.765625 9.28125 18.015625 
L 9.28125 47.703125 
L 2.6875 47.703125 
L 2.6875 54.6875 
L 9.28125 54.6875 
L 9.28125 70.21875 
z
" id="DejaVuSans-116"/>
      <path d="M 54.890625 33.015625 
L 54.890625 0 
L 45.90625 0 
L 45.90625 32.71875 
Q 45.90625 40.484375 42.875 44.328125 
Q 39.84375 48.1875 33.796875 48.1875 
Q 26.515625 48.1875 22.3125 43.546875 
Q 18.109375 38.921875 18.109375 30.90625 
L 18.109375 0 
L 9.078125 0 
L 9.078125 54.6875 
L 18.109375 54.6875 
L 18.109375 46.1875 
Q 21.34375 51.125 25.703125 53.5625 
Q 30.078125 56 35.796875 56 
Q 45.21875 56 50.046875 50.171875 
Q 54.890625 44.34375 54.890625 33.015625 
z
" id="DejaVuSans-110"/>
     </defs>
     <g transform="translate(28.617187 194.170969)rotate(-90)scale(0.1 -0.1)">
      <use xlink:href="#DejaVuSans-80"/>
      <use x="60.255859" xlink:href="#DejaVuSans-111"/>
      <use x="121.4375" xlink:href="#DejaVuSans-115"/>
      <use x="173.537109" xlink:href="#DejaVuSans-105"/>
      <use x="201.320312" xlink:href="#DejaVuSans-116"/>
      <use x="240.529297" xlink:href="#DejaVuSans-105"/>
      <use x="268.3125" xlink:href="#DejaVuSans-111"/>
      <use x="329.494141" xlink:href="#DejaVuSans-110"/>
     </g>
    </g>
   </g>
   <g id="line2d_12">
    <path clip-path="url(#p5b29d0836e)" d="M 73.832727 279.020431 
L 130.947879 279.020431 
L 130.947879 279.020431 
L 130.947879 228.468534 
L 133.953939 228.242856 
L 133.953939 205.900723 
L 136.96 205.675045 
L 136.96 183.332913 
L 139.966061 183.107234 
L 139.966061 160.765102 
L 142.972121 160.539424 
L 142.972121 138.197291 
L 145.978182 137.971613 
L 145.978182 115.62948 
L 148.984242 115.403802 
L 148.984242 93.061669 
L 151.990303 92.835991 
L 151.990303 70.493858 
L 154.996364 70.26818 
L 154.996364 53.568 
L 154.996364 58.984275 
L 158.002424 59.209953 
L 158.002424 81.552085 
L 161.008485 81.777764 
L 161.008485 104.119896 
L 164.014545 104.345574 
L 164.014545 126.687707 
L 167.020606 126.913385 
L 167.020606 149.255518 
L 170.026667 149.481196 
L 170.026667 171.823329 
L 173.032727 172.049007 
L 173.032727 194.39114 
L 176.038788 194.616818 
L 176.038788 216.958951 
L 179.044848 217.184629 
L 179.044848 239.526762 
L 182.050909 239.75244 
L 182.050909 262.094573 
L 185.05697 262.320251 
L 185.05697 279.020431 
L 185.05697 273.604156 
L 188.06303 273.378478 
L 188.06303 251.036345 
L 191.069091 250.810667 
L 191.069091 228.468534 
L 194.075151 228.242856 
L 194.075151 205.900723 
L 197.081212 205.675045 
L 197.081212 183.332913 
L 200.087273 183.107234 
L 200.087273 160.765102 
L 203.093333 160.539424 
L 203.093333 138.197291 
L 206.099394 137.971613 
L 206.099394 115.62948 
L 209.105454 115.403802 
L 209.105454 93.061669 
L 212.111515 92.835991 
L 212.111515 70.493858 
L 215.117576 70.26818 
L 215.117576 53.568 
L 215.117576 58.984275 
L 218.123636 59.209953 
L 218.123636 81.552085 
L 221.129697 81.777764 
L 221.129697 104.119896 
L 224.135757 104.345574 
L 224.135757 126.687707 
L 227.141818 126.913385 
L 227.141818 149.255518 
L 230.147879 149.481196 
L 230.147879 171.823329 
L 233.153939 172.049007 
L 233.153939 194.39114 
L 236.16 194.616818 
L 236.16 216.958951 
L 239.16606 217.184629 
L 239.16606 239.526762 
L 242.172121 239.75244 
L 242.172121 262.094573 
L 245.178182 262.320251 
L 245.178182 279.020431 
L 245.178182 273.604156 
L 248.184242 273.378478 
L 248.184242 251.036345 
L 251.190303 250.810667 
L 251.190303 227.468756 
L 251.190303 239.39958 
L 254.196363 239.668923 
L 254.196363 262.346579 
L 257.202424 262.531554 
L 257.202424 275.881972 
L 260.208485 276.045855 
L 260.208485 279.020396 
L 260.208485 278.679505 
L 263.214545 278.560482 
L 263.214545 270.465064 
L 266.220606 270.329151 
L 266.220606 252.043534 
L 269.226666 251.813117 
L 269.226666 225.219933 
L 272.232727 224.917589 
L 272.232727 192.622547 
L 275.238788 192.2779 
L 275.238788 157.79867 
L 278.244848 157.445403 
L 278.244848 123.462834 
L 281.250909 123.135302 
L 281.250909 93.323794 
L 284.256969 93.054089 
L 284.256969 70.334696 
L 287.26303 70.149245 
L 287.26303 56.748107 
L 290.269091 56.58314 
L 290.269091 53.568035 
L 290.269091 53.895297 
L 293.275151 54.0121 
L 293.275151 62.055796 
L 296.281212 62.191195 
L 296.281212 80.430005 
L 299.287272 80.659999 
L 299.287272 107.217544 
L 302.293333 107.519597 
L 302.293333 139.793657 
L 305.299394 140.138175 
L 305.299394 174.966405 
L 308.305454 175.319628 
L 308.305454 209.289416 
L 311.311515 209.616735 
L 311.311515 239.39958 
L 314.317575 239.668923 
L 314.317575 262.346579 
L 317.323636 262.531554 
L 317.323636 275.881972 
L 320.329697 276.045855 
L 320.329697 279.020396 
L 320.329697 278.679505 
L 323.335757 278.560482 
L 323.335757 270.465064 
L 326.341818 270.329151 
L 326.341818 252.043534 
L 329.347878 251.813117 
L 329.347878 225.219933 
L 332.353939 224.917589 
L 332.353939 192.622547 
L 335.36 192.2779 
L 335.36 157.79867 
L 338.36606 157.445403 
L 338.36606 123.462834 
L 341.372121 123.135302 
L 341.372121 93.323794 
L 344.378181 93.054089 
L 344.378181 70.334696 
L 347.384242 70.149245 
L 347.384242 56.748107 
L 350.390303 56.58314 
L 350.390303 53.568035 
L 350.390303 53.895297 
L 353.396363 54.0121 
L 353.396363 62.055796 
L 356.402424 62.191195 
L 356.402424 80.430005 
L 359.408484 80.659999 
L 359.408484 107.217544 
L 362.414545 107.519597 
L 362.414545 139.793657 
L 365.420606 140.138175 
L 365.420606 174.966405 
L 368.426666 175.319628 
L 368.426666 209.289416 
L 371.432727 209.616735 
L 371.432727 239.39958 
L 374.438787 239.668923 
L 374.438787 262.346579 
L 377.444848 262.531554 
L 377.444848 275.881972 
L 380.450909 276.045855 
L 380.450909 279.020396 
L 380.450909 278.679505 
L 383.456969 278.560482 
L 383.456969 270.465064 
L 386.46303 270.329151 
L 386.46303 252.043534 
L 389.46909 251.813117 
L 389.46909 225.219933 
L 392.475151 224.917589 
L 392.475151 192.622547 
L 395.481212 192.2779 
L 395.481212 157.79867 
L 398.487272 157.445403 
L 398.487272 151.456087 
L 398.487272 151.456087 
" style="fill:none;stroke:#1f77b4;stroke-linecap:square;stroke-width:1.5;"/>
   </g>
   <g id="line2d_13">
    <path clip-path="url(#p5b29d0836e)" d="M 73.832727 280.572426 
L 73.832727 280.565061 
L 73.832727 280.577744 
L 73.832727 280.569598 
L 124.935758 280.543446 
L 124.935758 280.671629 
L 124.935758 280.97193 
L 124.935758 280.742492 
L 127.941818 280.616508 
L 127.941818 257.286181 
L 130.947879 257.149301 
L 130.947879 232.037079 
L 133.953939 231.915692 
L 133.953939 222.299006 
L 136.96 222.153758 
L 136.96 214.789849 
L 136.96 214.799987 
L 139.966061 214.763344 
L 139.966061 214.871641 
L 139.966061 224.198633 
L 142.972121 224.331686 
L 142.972121 237.997714 
L 145.978182 238.138919 
L 145.978182 247.035111 
L 145.978182 242.723678 
L 148.984242 242.51403 
L 148.984242 193.77993 
L 151.990303 193.598763 
L 151.990303 147.629965 
L 154.996364 147.377223 
L 154.996364 108.631696 
L 158.002424 108.494471 
L 158.002424 92.721415 
L 161.008485 92.596869 
L 161.008485 91.247206 
L 161.008485 92.218904 
L 164.014545 92.342848 
L 164.014545 110.218137 
L 167.020606 110.400447 
L 167.020606 135.51614 
L 170.026667 135.670323 
L 170.026667 159.172938 
L 173.032727 159.300257 
L 173.032727 159.787004 
L 173.032727 157.607891 
L 173.032727 158.693007 
L 176.038788 158.837616 
L 176.038788 183.105546 
L 179.044848 183.289184 
L 179.044848 196.057232 
L 182.050909 196.185511 
L 182.050909 218.675243 
L 185.05697 218.830721 
L 185.05697 247.832131 
L 188.06303 248.020262 
L 188.06303 256.634027 
L 188.06303 253.688003 
L 191.069091 253.548561 
L 191.069091 237.170899 
L 194.075151 237.0562 
L 194.075151 221.87109 
L 197.081212 221.768624 
L 197.081212 206.695581 
L 200.087273 206.580055 
L 200.087273 188.802365 
L 203.093333 188.62771 
L 203.093333 170.675593 
L 206.099394 170.545664 
L 206.099394 143.974701 
L 209.105454 143.772627 
L 209.105454 118.062715 
L 212.111515 117.922846 
L 212.111515 101.791778 
L 215.117576 101.64667 
L 215.117576 85.837745 
L 218.123636 85.735469 
L 218.123636 81.176636 
L 218.123636 82.226544 
L 221.129697 82.338631 
L 221.129697 82.334517 
L 221.129697 85.140516 
L 224.135757 85.263089 
L 224.135757 94.342254 
L 227.141818 94.480456 
L 227.141818 104.904918 
L 230.147879 105.050171 
L 230.147879 122.848974 
L 233.153939 123.056726 
L 233.153939 167.365607 
L 236.16 167.517792 
L 236.16 203.839256 
L 239.16606 204.036482 
L 239.16606 223.62957 
L 242.172121 223.763059 
L 242.172121 239.018264 
L 245.178182 239.14419 
L 245.178182 253.311525 
L 248.184242 253.41362 
L 248.184242 254.752621 
L 248.184242 245.636688 
L 251.190303 245.519361 
L 251.190303 234.151892 
L 251.190303 234.152771 
L 254.196363 234.250472 
L 254.196363 242.236382 
L 257.202424 242.364094 
L 257.202424 248.966025 
L 260.208485 249.076942 
L 260.208485 262.107758 
L 263.214545 262.253657 
L 263.214545 269.447668 
L 263.214545 269.440735 
L 266.220606 269.415064 
L 266.220606 269.539857 
L 266.220606 271.471297 
L 266.220606 271.176122 
L 269.226666 271.068013 
L 269.226666 263.674622 
L 272.232727 263.53185 
L 272.232727 235.001461 
L 275.238788 234.877214 
L 275.238788 198.45118 
L 278.244848 198.2847 
L 278.244848 181.148533 
L 281.250909 181.034427 
L 281.250909 156.531111 
L 284.256969 156.324965 
L 284.256969 122.189669 
L 287.26303 121.976586 
L 287.26303 93.954812 
L 290.269091 93.773101 
L 290.269091 69.689649 
L 293.275151 69.557816 
L 293.275151 59.940782 
L 293.275151 59.951432 
L 296.281212 60.063639 
L 296.281212 65.16455 
L 299.287272 65.2929 
L 299.287272 80.22212 
L 302.293333 80.361532 
L 302.293333 92.044011 
L 305.299394 92.15722 
L 305.299394 108.422481 
L 308.305454 108.608922 
L 308.305454 152.634734 
L 311.311515 152.800271 
L 311.311515 202.457946 
L 314.317575 202.598272 
L 314.317575 237.609655 
L 317.323636 237.801499 
L 317.323636 256.331061 
L 320.329697 256.456583 
L 320.329697 266.454905 
L 323.335757 266.595422 
L 323.335757 270.751269 
L 323.335757 268.921249 
L 326.341818 268.797923 
L 326.341818 253.011602 
L 329.347878 252.868143 
L 329.347878 225.405096 
L 332.353939 225.236684 
L 332.353939 206.418626 
L 335.36 206.287502 
L 335.36 189.470699 
L 338.36606 189.394835 
L 338.36606 170.83731 
L 338.36606 170.839682 
L 341.372121 170.713567 
L 341.372121 157.822587 
L 344.378181 157.695043 
L 344.378181 141.302169 
L 347.384242 141.155452 
L 347.384242 129.02243 
L 350.390303 128.897756 
L 350.390303 108.932129 
L 353.396363 108.739891 
L 353.396363 85.290277 
L 356.402424 85.166539 
L 356.402424 83.806767 
L 356.402424 84.590331 
L 359.408484 84.588859 
L 359.408484 84.698217 
L 359.408484 95.385361 
L 362.414545 95.536134 
L 362.414545 125.748744 
L 365.420606 125.965478 
L 365.420606 162.424423 
L 368.426666 162.563837 
L 368.426666 204.448863 
L 371.432727 204.590142 
L 371.432727 247.413149 
L 374.438787 247.576252 
L 374.438787 287.553903 
L 377.444848 287.665945 
L 377.444848 295.488 
L 377.444848 292.842618 
L 380.450909 292.728155 
L 380.450909 286.105015 
L 383.456969 285.982563 
L 383.456969 285.389493 
L 383.456969 285.77293 
L 398.487272 285.763602 
L 398.487272 285.767296 
" style="fill:none;stroke:#ff7f0e;stroke-linecap:square;stroke-width:1.5;"/>
   </g>
   <g id="patch_3">
    <path d="M 57.6 307.584 
L 57.6 41.472 
" style="fill:none;stroke:#000000;stroke-linecap:square;stroke-linejoin:miter;stroke-width:0.8;"/>
   </g>
   <g id="patch_4">
    <path d="M 414.72 307.584 
L 414.72 41.472 
" style="fill:none;stroke:#000000;stroke-linecap:square;stroke-linejoin:miter;stroke-width:0.8;"/>
   </g>
   <g id="patch_5">
    <path d="M 57.6 307.584 
L 414.72 307.584 
" style="fill:none;stroke:#000000;stroke-linecap:square;stroke-linejoin:miter;stroke-width:0.8;"/>
   </g>
   <g id="patch_6">
    <path d="M 57.6 41.472 
L 414.72 41.472 
" style="fill:none;stroke:#000000;stroke-linecap:square;stroke-linejoin:miter;stroke-width:0.8;"/>
   </g>
   <g id="text_15">
    <!-- Position in Y direction v/s Time -->
    <defs>
     <path id="DejaVuSans-32"/>
     <path d="M -0.203125 72.90625 
L 10.40625 72.90625 
L 30.609375 42.921875 
L 50.6875 72.90625 
L 61.28125 72.90625 
L 35.5 34.71875 
L 35.5 0 
L 25.59375 0 
L 25.59375 34.71875 
z
" id="DejaVuSans-89"/>
     <path d="M 45.40625 46.390625 
L 45.40625 75.984375 
L 54.390625 75.984375 
L 54.390625 0 
L 45.40625 0 
L 45.40625 8.203125 
Q 42.578125 3.328125 38.25 0.953125 
Q 33.9375 -1.421875 27.875 -1.421875 
Q 17.96875 -1.421875 11.734375 6.484375 
Q 5.515625 14.40625 5.515625 27.296875 
Q 5.515625 40.1875 11.734375 48.09375 
Q 17.96875 56 27.875 56 
Q 33.9375 56 38.25 53.625 
Q 42.578125 51.265625 45.40625 46.390625 
z
M 14.796875 27.296875 
Q 14.796875 17.390625 18.875 11.75 
Q 22.953125 6.109375 30.078125 6.109375 
Q 37.203125 6.109375 41.296875 11.75 
Q 45.40625 17.390625 45.40625 27.296875 
Q 45.40625 37.203125 41.296875 42.84375 
Q 37.203125 48.484375 30.078125 48.484375 
Q 22.953125 48.484375 18.875 42.84375 
Q 14.796875 37.203125 14.796875 27.296875 
z
" id="DejaVuSans-100"/>
     <path d="M 41.109375 46.296875 
Q 39.59375 47.171875 37.8125 47.578125 
Q 36.03125 48 33.890625 48 
Q 26.265625 48 22.1875 43.046875 
Q 18.109375 38.09375 18.109375 28.8125 
L 18.109375 0 
L 9.078125 0 
L 9.078125 54.6875 
L 18.109375 54.6875 
L 18.109375 46.1875 
Q 20.953125 51.171875 25.484375 53.578125 
Q 30.03125 56 36.53125 56 
Q 37.453125 56 38.578125 55.875 
Q 39.703125 55.765625 41.0625 55.515625 
z
" id="DejaVuSans-114"/>
     <path d="M 48.78125 52.59375 
L 48.78125 44.1875 
Q 44.96875 46.296875 41.140625 47.34375 
Q 37.3125 48.390625 33.40625 48.390625 
Q 24.65625 48.390625 19.8125 42.84375 
Q 14.984375 37.3125 14.984375 27.296875 
Q 14.984375 17.28125 19.8125 11.734375 
Q 24.65625 6.203125 33.40625 6.203125 
Q 37.3125 6.203125 41.140625 7.25 
Q 44.96875 8.296875 48.78125 10.40625 
L 48.78125 2.09375 
Q 45.015625 0.34375 40.984375 -0.53125 
Q 36.96875 -1.421875 32.421875 -1.421875 
Q 20.0625 -1.421875 12.78125 6.34375 
Q 5.515625 14.109375 5.515625 27.296875 
Q 5.515625 40.671875 12.859375 48.328125 
Q 20.21875 56 33.015625 56 
Q 37.15625 56 41.109375 55.140625 
Q 45.0625 54.296875 48.78125 52.59375 
z
" id="DejaVuSans-99"/>
     <path d="M 2.984375 54.6875 
L 12.5 54.6875 
L 29.59375 8.796875 
L 46.6875 54.6875 
L 56.203125 54.6875 
L 35.6875 0 
L 23.484375 0 
z
" id="DejaVuSans-118"/>
     <path d="M 25.390625 72.90625 
L 33.6875 72.90625 
L 8.296875 -9.28125 
L 0 -9.28125 
z
" id="DejaVuSans-47"/>
    </defs>
    <g transform="translate(143.9325 35.472)scale(0.12 -0.12)">
     <use xlink:href="#DejaVuSans-80"/>
     <use x="60.255859" xlink:href="#DejaVuSans-111"/>
     <use x="121.4375" xlink:href="#DejaVuSans-115"/>
     <use x="173.537109" xlink:href="#DejaVuSans-105"/>
     <use x="201.320312" xlink:href="#DejaVuSans-116"/>
     <use x="240.529297" xlink:href="#DejaVuSans-105"/>
     <use x="268.3125" xlink:href="#DejaVuSans-111"/>
     <use x="329.494141" xlink:href="#DejaVuSans-110"/>
     <use x="392.873047" xlink:href="#DejaVuSans-32"/>
     <use x="424.660156" xlink:href="#DejaVuSans-105"/>
     <use x="452.443359" xlink:href="#DejaVuSans-110"/>
     <use x="515.822266" xlink:href="#DejaVuSans-32"/>
     <use x="547.609375" xlink:href="#DejaVuSans-89"/>
     <use x="608.693359" xlink:href="#DejaVuSans-32"/>
     <use x="640.480469" xlink:href="#DejaVuSans-100"/>
     <use x="703.957031" xlink:href="#DejaVuSans-105"/>
     <use x="731.740234" xlink:href="#DejaVuSans-114"/>
     <use x="772.822266" xlink:href="#DejaVuSans-101"/>
     <use x="834.345703" xlink:href="#DejaVuSans-99"/>
     <use x="889.326172" xlink:href="#DejaVuSans-116"/>
     <use x="928.535156" xlink:href="#DejaVuSans-105"/>
     <use x="956.318359" xlink:href="#DejaVuSans-111"/>
     <use x="1017.5" xlink:href="#DejaVuSans-110"/>
     <use x="1080.878906" xlink:href="#DejaVuSans-32"/>
     <use x="1112.666016" xlink:href="#DejaVuSans-118"/>
     <use x="1171.845703" xlink:href="#DejaVuSans-47"/>
     <use x="1205.537109" xlink:href="#DejaVuSans-115"/>
     <use x="1257.636719" xlink:href="#DejaVuSans-32"/>
     <use x="1289.423828" xlink:href="#DejaVuSans-84"/>
     <use x="1350.460938" xlink:href="#DejaVuSans-105"/>
     <use x="1378.244141" xlink:href="#DejaVuSans-109"/>
     <use x="1475.65625" xlink:href="#DejaVuSans-101"/>
    </g>
   </g>
   <g id="legend_1">
    <g id="patch_7">
     <path d="M 64.6 78.82825 
L 186.610938 78.82825 
Q 188.610938 78.82825 188.610938 76.82825 
L 188.610938 48.472 
Q 188.610938 46.472 186.610938 46.472 
L 64.6 46.472 
Q 62.6 46.472 62.6 48.472 
L 62.6 76.82825 
Q 62.6 78.82825 64.6 78.82825 
z
" style="fill:#ffffff;opacity:0.8;stroke:#cccccc;stroke-linejoin:miter;"/>
    </g>
    <g id="line2d_14">
     <path d="M 66.6 54.570437 
L 86.6 54.570437 
" style="fill:none;stroke:#1f77b4;stroke-linecap:square;stroke-width:1.5;"/>
    </g>
    <g id="line2d_15"/>
    <g id="text_16">
     <!-- Desired Position y -->
     <defs>
      <path d="M 19.671875 64.796875 
L 19.671875 8.109375 
L 31.59375 8.109375 
Q 46.6875 8.109375 53.6875 14.9375 
Q 60.6875 21.78125 60.6875 36.53125 
Q 60.6875 51.171875 53.6875 57.984375 
Q 46.6875 64.796875 31.59375 64.796875 
z
M 9.8125 72.90625 
L 30.078125 72.90625 
Q 51.265625 72.90625 61.171875 64.09375 
Q 71.09375 55.28125 71.09375 36.53125 
Q 71.09375 17.671875 61.125 8.828125 
Q 51.171875 0 30.078125 0 
L 9.8125 0 
z
" id="DejaVuSans-68"/>
      <path d="M 32.171875 -5.078125 
Q 28.375 -14.84375 24.75 -17.8125 
Q 21.140625 -20.796875 15.09375 -20.796875 
L 7.90625 -20.796875 
L 7.90625 -13.28125 
L 13.1875 -13.28125 
Q 16.890625 -13.28125 18.9375 -11.515625 
Q 21 -9.765625 23.484375 -3.21875 
L 25.09375 0.875 
L 2.984375 54.6875 
L 12.5 54.6875 
L 29.59375 11.921875 
L 46.6875 54.6875 
L 56.203125 54.6875 
z
" id="DejaVuSans-121"/>
     </defs>
     <g transform="translate(94.6 58.070437)scale(0.1 -0.1)">
      <use xlink:href="#DejaVuSans-68"/>
      <use x="77.001953" xlink:href="#DejaVuSans-101"/>
      <use x="138.525391" xlink:href="#DejaVuSans-115"/>
      <use x="190.625" xlink:href="#DejaVuSans-105"/>
      <use x="218.408203" xlink:href="#DejaVuSans-114"/>
      <use x="259.490234" xlink:href="#DejaVuSans-101"/>
      <use x="321.013672" xlink:href="#DejaVuSans-100"/>
      <use x="384.490234" xlink:href="#DejaVuSans-32"/>
      <use x="416.277344" xlink:href="#DejaVuSans-80"/>
      <use x="476.533203" xlink:href="#DejaVuSans-111"/>
      <use x="537.714844" xlink:href="#DejaVuSans-115"/>
      <use x="589.814453" xlink:href="#DejaVuSans-105"/>
      <use x="617.597656" xlink:href="#DejaVuSans-116"/>
      <use x="656.806641" xlink:href="#DejaVuSans-105"/>
      <use x="684.589844" xlink:href="#DejaVuSans-111"/>
      <use x="745.771484" xlink:href="#DejaVuSans-110"/>
      <use x="809.150391" xlink:href="#DejaVuSans-32"/>
      <use x="840.9375" xlink:href="#DejaVuSans-121"/>
     </g>
    </g>
    <g id="line2d_16">
     <path d="M 66.6 69.248562 
L 86.6 69.248562 
" style="fill:none;stroke:#ff7f0e;stroke-linecap:square;stroke-width:1.5;"/>
    </g>
    <g id="line2d_17"/>
    <g id="text_17">
     <!-- Actual Position y -->
     <defs>
      <path d="M 34.1875 63.1875 
L 20.796875 26.90625 
L 47.609375 26.90625 
z
M 28.609375 72.90625 
L 39.796875 72.90625 
L 67.578125 0 
L 57.328125 0 
L 50.6875 18.703125 
L 17.828125 18.703125 
L 11.1875 0 
L 0.78125 0 
z
" id="DejaVuSans-65"/>
      <path d="M 8.5 21.578125 
L 8.5 54.6875 
L 17.484375 54.6875 
L 17.484375 21.921875 
Q 17.484375 14.15625 20.5 10.265625 
Q 23.53125 6.390625 29.59375 6.390625 
Q 36.859375 6.390625 41.078125 11.03125 
Q 45.3125 15.671875 45.3125 23.6875 
L 45.3125 54.6875 
L 54.296875 54.6875 
L 54.296875 0 
L 45.3125 0 
L 45.3125 8.40625 
Q 42.046875 3.421875 37.71875 1 
Q 33.40625 -1.421875 27.6875 -1.421875 
Q 18.265625 -1.421875 13.375 4.4375 
Q 8.5 10.296875 8.5 21.578125 
z
M 31.109375 56 
z
" id="DejaVuSans-117"/>
      <path d="M 34.28125 27.484375 
Q 23.390625 27.484375 19.1875 25 
Q 14.984375 22.515625 14.984375 16.5 
Q 14.984375 11.71875 18.140625 8.90625 
Q 21.296875 6.109375 26.703125 6.109375 
Q 34.1875 6.109375 38.703125 11.40625 
Q 43.21875 16.703125 43.21875 25.484375 
L 43.21875 27.484375 
z
M 52.203125 31.203125 
L 52.203125 0 
L 43.21875 0 
L 43.21875 8.296875 
Q 40.140625 3.328125 35.546875 0.953125 
Q 30.953125 -1.421875 24.3125 -1.421875 
Q 15.921875 -1.421875 10.953125 3.296875 
Q 6 8.015625 6 15.921875 
Q 6 25.140625 12.171875 29.828125 
Q 18.359375 34.515625 30.609375 34.515625 
L 43.21875 34.515625 
L 43.21875 35.40625 
Q 43.21875 41.609375 39.140625 45 
Q 35.0625 48.390625 27.6875 48.390625 
Q 23 48.390625 18.546875 47.265625 
Q 14.109375 46.140625 10.015625 43.890625 
L 10.015625 52.203125 
Q 14.9375 54.109375 19.578125 55.046875 
Q 24.21875 56 28.609375 56 
Q 40.484375 56 46.34375 49.84375 
Q 52.203125 43.703125 52.203125 31.203125 
z
" id="DejaVuSans-97"/>
      <path d="M 9.421875 75.984375 
L 18.40625 75.984375 
L 18.40625 0 
L 9.421875 0 
z
" id="DejaVuSans-108"/>
     </defs>
     <g transform="translate(94.6 72.748562)scale(0.1 -0.1)">
      <use xlink:href="#DejaVuSans-65"/>
      <use x="68.392578" xlink:href="#DejaVuSans-99"/>
      <use x="123.373047" xlink:href="#DejaVuSans-116"/>
      <use x="162.582031" xlink:href="#DejaVuSans-117"/>
      <use x="225.960938" xlink:href="#DejaVuSans-97"/>
      <use x="287.240234" xlink:href="#DejaVuSans-108"/>
      <use x="315.023438" xlink:href="#DejaVuSans-32"/>
      <use x="346.810547" xlink:href="#DejaVuSans-80"/>
      <use x="407.066406" xlink:href="#DejaVuSans-111"/>
      <use x="468.248047" xlink:href="#DejaVuSans-115"/>
      <use x="520.347656" xlink:href="#DejaVuSans-105"/>
      <use x="548.130859" xlink:href="#DejaVuSans-116"/>
      <use x="587.339844" xlink:href="#DejaVuSans-105"/>
      <use x="615.123047" xlink:href="#DejaVuSans-111"/>
      <use x="676.304688" xlink:href="#DejaVuSans-110"/>
      <use x="739.683594" xlink:href="#DejaVuSans-32"/>
      <use x="771.470703" xlink:href="#DejaVuSans-121"/>
     </g>
    </g>
   </g>
  </g>
 </g>
 <defs>
  <clipPath id="p5b29d0836e">
   <rect height="266.112" width="357.12" x="57.6" y="41.472"/>
  </clipPath>
 </defs>
</svg>
