<?xml version="1.0" encoding="utf-8" standalone="no"?>
<!DOCTYPE svg PUBLIC "-//W3C//DTD SVG 1.1//EN"
  "http://www.w3.org/Graphics/SVG/1.1/DTD/svg11.dtd">
<!-- Created with matplotlib (https://matplotlib.org/) -->
<svg height="345.6pt" version="1.1" viewBox="0 0 460.8 345.6" width="460.8pt" xmlns="http://www.w3.org/2000/svg" xmlns:xlink="http://www.w3.org/1999/xlink">
 <defs>
  <style type="text/css">
*{stroke-linecap:butt;stroke-linejoin:round;}
  </style>
 </defs>
 <g id="figure_1">
  <g id="patch_1">
   <path d="M 0 345.6 
L 460.8 345.6 
L 460.8 0 
L 0 0 
z
" style="fill:#ffffff;"/>
  </g>
  <g id="axes_1">
   <g id="patch_2">
    <path d="M 57.6 307.584 
L 414.72 307.584 
L 414.72 41.472 
L 57.6 41.472 
z
" style="fill:#ffffff;"/>
   </g>
   <g id="matplotlib.axis_1">
    <g id="xtick_1">
     <g id="line2d_1">
      <defs>
       <path d="M 0 0 
L 0 3.5 
" id="m3ccc857156" style="stroke:#000000;stroke-width:0.8;"/>
      </defs>
      <g>
       <use style="stroke:#000000;stroke-width:0.8;" x="94.875152" xlink:href="#m3ccc857156" y="307.584"/>
      </g>
     </g>
     <g id="text_1">
      <!-- 820 -->
      <defs>
       <path d="M 31.78125 34.625 
Q 24.75 34.625 20.71875 30.859375 
Q 16.703125 27.09375 16.703125 20.515625 
Q 16.703125 13.921875 20.71875 10.15625 
Q 24.75 6.390625 31.78125 6.390625 
Q 38.8125 6.390625 42.859375 10.171875 
Q 46.921875 13.96875 46.921875 20.515625 
Q 46.921875 27.09375 42.890625 30.859375 
Q 38.875 34.625 31.78125 34.625 
z
M 21.921875 38.8125 
Q 15.578125 40.375 12.03125 44.71875 
Q 8.5 49.078125 8.5 55.328125 
Q 8.5 64.0625 14.71875 69.140625 
Q 20.953125 74.21875 31.78125 74.21875 
Q 42.671875 74.21875 48.875 69.140625 
Q 55.078125 64.0625 55.078125 55.328125 
Q 55.078125 49.078125 51.53125 44.71875 
Q 48 40.375 41.703125 38.8125 
Q 48.828125 37.15625 52.796875 32.3125 
Q 56.78125 27.484375 56.78125 20.515625 
Q 56.78125 9.90625 50.3125 4.234375 
Q 43.84375 -1.421875 31.78125 -1.421875 
Q 19.734375 -1.421875 13.25 4.234375 
Q 6.78125 9.90625 6.78125 20.515625 
Q 6.78125 27.484375 10.78125 32.3125 
Q 14.796875 37.15625 21.921875 38.8125 
z
M 18.3125 54.390625 
Q 18.3125 48.734375 21.84375 45.5625 
Q 25.390625 42.390625 31.78125 42.390625 
Q 38.140625 42.390625 41.71875 45.5625 
Q 45.3125 48.734375 45.3125 54.390625 
Q 45.3125 60.0625 41.71875 63.234375 
Q 38.140625 66.40625 31.78125 66.40625 
Q 25.390625 66.40625 21.84375 63.234375 
Q 18.3125 60.0625 18.3125 54.390625 
z
" id="DejaVuSans-56"/>
       <path d="M 19.1875 8.296875 
L 53.609375 8.296875 
L 53.609375 0 
L 7.328125 0 
L 7.328125 8.296875 
Q 12.9375 14.109375 22.625 23.890625 
Q 32.328125 33.6875 34.8125 36.53125 
Q 39.546875 41.84375 41.421875 45.53125 
Q 43.3125 49.21875 43.3125 52.78125 
Q 43.3125 58.59375 39.234375 62.25 
Q 35.15625 65.921875 28.609375 65.921875 
Q 23.96875 65.921875 18.8125 64.3125 
Q 13.671875 62.703125 7.8125 59.421875 
L 7.8125 69.390625 
Q 13.765625 71.78125 18.9375 73 
Q 24.125 74.21875 28.421875 74.21875 
Q 39.75 74.21875 46.484375 68.546875 
Q 53.21875 62.890625 53.21875 53.421875 
Q 53.21875 48.921875 51.53125 44.890625 
Q 49.859375 40.875 45.40625 35.40625 
Q 44.1875 33.984375 37.640625 27.21875 
Q 31.109375 20.453125 19.1875 8.296875 
z
" id="DejaVuSans-50"/>
       <path d="M 31.78125 66.40625 
Q 24.171875 66.40625 20.328125 58.90625 
Q 16.5 51.421875 16.5 36.375 
Q 16.5 21.390625 20.328125 13.890625 
Q 24.171875 6.390625 31.78125 6.390625 
Q 39.453125 6.390625 43.28125 13.890625 
Q 47.125 21.390625 47.125 36.375 
Q 47.125 51.421875 43.28125 58.90625 
Q 39.453125 66.40625 31.78125 66.40625 
z
M 31.78125 74.21875 
Q 44.046875 74.21875 50.515625 64.515625 
Q 56.984375 54.828125 56.984375 36.375 
Q 56.984375 17.96875 50.515625 8.265625 
Q 44.046875 -1.421875 31.78125 -1.421875 
Q 19.53125 -1.421875 13.0625 8.265625 
Q 6.59375 17.96875 6.59375 36.375 
Q 6.59375 54.828125 13.0625 64.515625 
Q 19.53125 74.21875 31.78125 74.21875 
z
" id="DejaVuSans-48"/>
      </defs>
      <g transform="translate(85.331402 322.182437)scale(0.1 -0.1)">
       <use xlink:href="#DejaVuSans-56"/>
       <use x="63.623047" xlink:href="#DejaVuSans-50"/>
       <use x="127.246094" xlink:href="#DejaVuSans-48"/>
      </g>
     </g>
    </g>
    <g id="xtick_2">
     <g id="line2d_2">
      <g>
       <use style="stroke:#000000;stroke-width:0.8;" x="154.996364" xlink:href="#m3ccc857156" y="307.584"/>
      </g>
     </g>
     <g id="text_2">
      <!-- 840 -->
      <defs>
       <path d="M 37.796875 64.3125 
L 12.890625 25.390625 
L 37.796875 25.390625 
z
M 35.203125 72.90625 
L 47.609375 72.90625 
L 47.609375 25.390625 
L 58.015625 25.390625 
L 58.015625 17.1875 
L 47.609375 17.1875 
L 47.609375 0 
L 37.796875 0 
L 37.796875 17.1875 
L 4.890625 17.1875 
L 4.890625 26.703125 
z
" id="DejaVuSans-52"/>
      </defs>
      <g transform="translate(145.452614 322.182437)scale(0.1 -0.1)">
       <use xlink:href="#DejaVuSans-56"/>
       <use x="63.623047" xlink:href="#DejaVuSans-52"/>
       <use x="127.246094" xlink:href="#DejaVuSans-48"/>
      </g>
     </g>
    </g>
    <g id="xtick_3">
     <g id="line2d_3">
      <g>
       <use style="stroke:#000000;stroke-width:0.8;" x="215.117576" xlink:href="#m3ccc857156" y="307.584"/>
      </g>
     </g>
     <g id="text_3">
      <!-- 860 -->
      <defs>
       <path d="M 33.015625 40.375 
Q 26.375 40.375 22.484375 35.828125 
Q 18.609375 31.296875 18.609375 23.390625 
Q 18.609375 15.53125 22.484375 10.953125 
Q 26.375 6.390625 33.015625 6.390625 
Q 39.65625 6.390625 43.53125 10.953125 
Q 47.40625 15.53125 47.40625 23.390625 
Q 47.40625 31.296875 43.53125 35.828125 
Q 39.65625 40.375 33.015625 40.375 
z
M 52.59375 71.296875 
L 52.59375 62.3125 
Q 48.875 64.0625 45.09375 64.984375 
Q 41.3125 65.921875 37.59375 65.921875 
Q 27.828125 65.921875 22.671875 59.328125 
Q 17.53125 52.734375 16.796875 39.40625 
Q 19.671875 43.65625 24.015625 45.921875 
Q 28.375 48.1875 33.59375 48.1875 
Q 44.578125 48.1875 50.953125 41.515625 
Q 57.328125 34.859375 57.328125 23.390625 
Q 57.328125 12.15625 50.6875 5.359375 
Q 44.046875 -1.421875 33.015625 -1.421875 
Q 20.359375 -1.421875 13.671875 8.265625 
Q 6.984375 17.96875 6.984375 36.375 
Q 6.984375 53.65625 15.1875 63.9375 
Q 23.390625 74.21875 37.203125 74.21875 
Q 40.921875 74.21875 44.703125 73.484375 
Q 48.484375 72.75 52.59375 71.296875 
z
" id="DejaVuSans-54"/>
      </defs>
      <g transform="translate(205.573826 322.182437)scale(0.1 -0.1)">
       <use xlink:href="#DejaVuSans-56"/>
       <use x="63.623047" xlink:href="#DejaVuSans-54"/>
       <use x="127.246094" xlink:href="#DejaVuSans-48"/>
      </g>
     </g>
    </g>
    <g id="xtick_4">
     <g id="line2d_4">
      <g>
       <use style="stroke:#000000;stroke-width:0.8;" x="275.238788" xlink:href="#m3ccc857156" y="307.584"/>
      </g>
     </g>
     <g id="text_4">
      <!-- 880 -->
      <g transform="translate(265.695038 322.182437)scale(0.1 -0.1)">
       <use xlink:href="#DejaVuSans-56"/>
       <use x="63.623047" xlink:href="#DejaVuSans-56"/>
       <use x="127.246094" xlink:href="#DejaVuSans-48"/>
      </g>
     </g>
    </g>
    <g id="xtick_5">
     <g id="line2d_5">
      <g>
       <use style="stroke:#000000;stroke-width:0.8;" x="335.36" xlink:href="#m3ccc857156" y="307.584"/>
      </g>
     </g>
     <g id="text_5">
      <!-- 900 -->
      <defs>
       <path d="M 10.984375 1.515625 
L 10.984375 10.5 
Q 14.703125 8.734375 18.5 7.8125 
Q 22.3125 6.890625 25.984375 6.890625 
Q 35.75 6.890625 40.890625 13.453125 
Q 46.046875 20.015625 46.78125 33.40625 
Q 43.953125 29.203125 39.59375 26.953125 
Q 35.25 24.703125 29.984375 24.703125 
Q 19.046875 24.703125 12.671875 31.3125 
Q 6.296875 37.9375 6.296875 49.421875 
Q 6.296875 60.640625 12.9375 67.421875 
Q 19.578125 74.21875 30.609375 74.21875 
Q 43.265625 74.21875 49.921875 64.515625 
Q 56.59375 54.828125 56.59375 36.375 
Q 56.59375 19.140625 48.40625 8.859375 
Q 40.234375 -1.421875 26.421875 -1.421875 
Q 22.703125 -1.421875 18.890625 -0.6875 
Q 15.09375 0.046875 10.984375 1.515625 
z
M 30.609375 32.421875 
Q 37.25 32.421875 41.125 36.953125 
Q 45.015625 41.5 45.015625 49.421875 
Q 45.015625 57.28125 41.125 61.84375 
Q 37.25 66.40625 30.609375 66.40625 
Q 23.96875 66.40625 20.09375 61.84375 
Q 16.21875 57.28125 16.21875 49.421875 
Q 16.21875 41.5 20.09375 36.953125 
Q 23.96875 32.421875 30.609375 32.421875 
z
" id="DejaVuSans-57"/>
      </defs>
      <g transform="translate(325.81625 322.182437)scale(0.1 -0.1)">
       <use xlink:href="#DejaVuSans-57"/>
       <use x="63.623047" xlink:href="#DejaVuSans-48"/>
       <use x="127.246094" xlink:href="#DejaVuSans-48"/>
      </g>
     </g>
    </g>
    <g id="xtick_6">
     <g id="line2d_6">
      <g>
       <use style="stroke:#000000;stroke-width:0.8;" x="395.481212" xlink:href="#m3ccc857156" y="307.584"/>
      </g>
     </g>
     <g id="text_6">
      <!-- 920 -->
      <g transform="translate(385.937462 322.182437)scale(0.1 -0.1)">
       <use xlink:href="#DejaVuSans-57"/>
       <use x="63.623047" xlink:href="#DejaVuSans-50"/>
       <use x="127.246094" xlink:href="#DejaVuSans-48"/>
      </g>
     </g>
    </g>
    <g id="text_7">
     <!-- Time -->
     <defs>
      <path d="M -0.296875 72.90625 
L 61.375 72.90625 
L 61.375 64.59375 
L 35.5 64.59375 
L 35.5 0 
L 25.59375 0 
L 25.59375 64.59375 
L -0.296875 64.59375 
z
" id="DejaVuSans-84"/>
      <path d="M 9.421875 54.6875 
L 18.40625 54.6875 
L 18.40625 0 
L 9.421875 0 
z
M 9.421875 75.984375 
L 18.40625 75.984375 
L 18.40625 64.59375 
L 9.421875 64.59375 
z
" id="DejaVuSans-105"/>
      <path d="M 52 44.1875 
Q 55.375 50.25 60.0625 53.125 
Q 64.75 56 71.09375 56 
Q 79.640625 56 84.28125 50.015625 
Q 88.921875 44.046875 88.921875 33.015625 
L 88.921875 0 
L 79.890625 0 
L 79.890625 32.71875 
Q 79.890625 40.578125 77.09375 44.375 
Q 74.3125 48.1875 68.609375 48.1875 
Q 61.625 48.1875 57.5625 43.546875 
Q 53.515625 38.921875 53.515625 30.90625 
L 53.515625 0 
L 44.484375 0 
L 44.484375 32.71875 
Q 44.484375 40.625 41.703125 44.40625 
Q 38.921875 48.1875 33.109375 48.1875 
Q 26.21875 48.1875 22.15625 43.53125 
Q 18.109375 38.875 18.109375 30.90625 
L 18.109375 0 
L 9.078125 0 
L 9.078125 54.6875 
L 18.109375 54.6875 
L 18.109375 46.1875 
Q 21.1875 51.21875 25.484375 53.609375 
Q 29.78125 56 35.6875 56 
Q 41.65625 56 45.828125 52.96875 
Q 50 49.953125 52 44.1875 
z
" id="DejaVuSans-109"/>
      <path d="M 56.203125 29.59375 
L 56.203125 25.203125 
L 14.890625 25.203125 
Q 15.484375 15.921875 20.484375 11.0625 
Q 25.484375 6.203125 34.421875 6.203125 
Q 39.59375 6.203125 44.453125 7.46875 
Q 49.3125 8.734375 54.109375 11.28125 
L 54.109375 2.78125 
Q 49.265625 0.734375 44.1875 -0.34375 
Q 39.109375 -1.421875 33.890625 -1.421875 
Q 20.796875 -1.421875 13.15625 6.1875 
Q 5.515625 13.8125 5.515625 26.8125 
Q 5.515625 40.234375 12.765625 48.109375 
Q 20.015625 56 32.328125 56 
Q 43.359375 56 49.78125 48.890625 
Q 56.203125 41.796875 56.203125 29.59375 
z
M 47.21875 32.234375 
Q 47.125 39.59375 43.09375 43.984375 
Q 39.0625 48.390625 32.421875 48.390625 
Q 24.90625 48.390625 20.390625 44.140625 
Q 15.875 39.890625 15.1875 32.171875 
z
" id="DejaVuSans-101"/>
     </defs>
     <g transform="translate(223.7725 335.860562)scale(0.1 -0.1)">
      <use xlink:href="#DejaVuSans-84"/>
      <use x="61.037109" xlink:href="#DejaVuSans-105"/>
      <use x="88.820312" xlink:href="#DejaVuSans-109"/>
      <use x="186.232422" xlink:href="#DejaVuSans-101"/>
     </g>
    </g>
    <g id="text_8">
     <!-- +1.58135e9 -->
     <defs>
      <path d="M 46 62.703125 
L 46 35.5 
L 73.1875 35.5 
L 73.1875 27.203125 
L 46 27.203125 
L 46 0 
L 37.796875 0 
L 37.796875 27.203125 
L 10.59375 27.203125 
L 10.59375 35.5 
L 37.796875 35.5 
L 37.796875 62.703125 
z
" id="DejaVuSans-43"/>
      <path d="M 12.40625 8.296875 
L 28.515625 8.296875 
L 28.515625 63.921875 
L 10.984375 60.40625 
L 10.984375 69.390625 
L 28.421875 72.90625 
L 38.28125 72.90625 
L 38.28125 8.296875 
L 54.390625 8.296875 
L 54.390625 0 
L 12.40625 0 
z
" id="DejaVuSans-49"/>
      <path d="M 10.6875 12.40625 
L 21 12.40625 
L 21 0 
L 10.6875 0 
z
" id="DejaVuSans-46"/>
      <path d="M 10.796875 72.90625 
L 49.515625 72.90625 
L 49.515625 64.59375 
L 19.828125 64.59375 
L 19.828125 46.734375 
Q 21.96875 47.46875 24.109375 47.828125 
Q 26.265625 48.1875 28.421875 48.1875 
Q 40.625 48.1875 47.75 41.5 
Q 54.890625 34.8125 54.890625 23.390625 
Q 54.890625 11.625 47.5625 5.09375 
Q 40.234375 -1.421875 26.90625 -1.421875 
Q 22.3125 -1.421875 17.546875 -0.640625 
Q 12.796875 0.140625 7.71875 1.703125 
L 7.71875 11.625 
Q 12.109375 9.234375 16.796875 8.0625 
Q 21.484375 6.890625 26.703125 6.890625 
Q 35.15625 6.890625 40.078125 11.328125 
Q 45.015625 15.765625 45.015625 23.390625 
Q 45.015625 31 40.078125 35.4375 
Q 35.15625 39.890625 26.703125 39.890625 
Q 22.75 39.890625 18.8125 39.015625 
Q 14.890625 38.140625 10.796875 36.28125 
z
" id="DejaVuSans-53"/>
      <path d="M 40.578125 39.3125 
Q 47.65625 37.796875 51.625 33 
Q 55.609375 28.21875 55.609375 21.1875 
Q 55.609375 10.40625 48.1875 4.484375 
Q 40.765625 -1.421875 27.09375 -1.421875 
Q 22.515625 -1.421875 17.65625 -0.515625 
Q 12.796875 0.390625 7.625 2.203125 
L 7.625 11.71875 
Q 11.71875 9.328125 16.59375 8.109375 
Q 21.484375 6.890625 26.8125 6.890625 
Q 36.078125 6.890625 40.9375 10.546875 
Q 45.796875 14.203125 45.796875 21.1875 
Q 45.796875 27.640625 41.28125 31.265625 
Q 36.765625 34.90625 28.71875 34.90625 
L 20.21875 34.90625 
L 20.21875 43.015625 
L 29.109375 43.015625 
Q 36.375 43.015625 40.234375 45.921875 
Q 44.09375 48.828125 44.09375 54.296875 
Q 44.09375 59.90625 40.109375 62.90625 
Q 36.140625 65.921875 28.71875 65.921875 
Q 24.65625 65.921875 20.015625 65.03125 
Q 15.375 64.15625 9.8125 62.3125 
L 9.8125 71.09375 
Q 15.4375 72.65625 20.34375 73.4375 
Q 25.25 74.21875 29.59375 74.21875 
Q 40.828125 74.21875 47.359375 69.109375 
Q 53.90625 64.015625 53.90625 55.328125 
Q 53.90625 49.265625 50.4375 45.09375 
Q 46.96875 40.921875 40.578125 39.3125 
z
" id="DejaVuSans-51"/>
     </defs>
     <g transform="translate(352.471563 334.860562)scale(0.1 -0.1)">
      <use xlink:href="#DejaVuSans-43"/>
      <use x="83.789062" xlink:href="#DejaVuSans-49"/>
      <use x="147.412109" xlink:href="#DejaVuSans-46"/>
      <use x="179.199219" xlink:href="#DejaVuSans-53"/>
      <use x="242.822266" xlink:href="#DejaVuSans-56"/>
      <use x="306.445312" xlink:href="#DejaVuSans-49"/>
      <use x="370.068359" xlink:href="#DejaVuSans-51"/>
      <use x="433.691406" xlink:href="#DejaVuSans-53"/>
      <use x="497.314453" xlink:href="#DejaVuSans-101"/>
      <use x="558.837891" xlink:href="#DejaVuSans-57"/>
     </g>
    </g>
   </g>
   <g id="matplotlib.axis_2">
    <g id="ytick_1">
     <g id="line2d_7">
      <defs>
       <path d="M 0 0 
L -3.5 0 
" id="mb7c09d7483" style="stroke:#000000;stroke-width:0.8;"/>
      </defs>
      <g>
       <use style="stroke:#000000;stroke-width:0.8;" x="57.6" xlink:href="#mb7c09d7483" y="284.025704"/>
      </g>
     </g>
     <g id="text_9">
      <!-- −1.0 -->
      <defs>
       <path d="M 10.59375 35.5 
L 73.1875 35.5 
L 73.1875 27.203125 
L 10.59375 27.203125 
z
" id="DejaVuSans-8722"/>
      </defs>
      <g transform="translate(26.317187 287.824923)scale(0.1 -0.1)">
       <use xlink:href="#DejaVuSans-8722"/>
       <use x="83.789062" xlink:href="#DejaVuSans-49"/>
       <use x="147.412109" xlink:href="#DejaVuSans-46"/>
       <use x="179.199219" xlink:href="#DejaVuSans-48"/>
      </g>
     </g>
    </g>
    <g id="ytick_2">
     <g id="line2d_8">
      <g>
       <use style="stroke:#000000;stroke-width:0.8;" x="57.6" xlink:href="#mb7c09d7483" y="229.410768"/>
      </g>
     </g>
     <g id="text_10">
      <!-- −0.5 -->
      <g transform="translate(26.317187 233.209987)scale(0.1 -0.1)">
       <use xlink:href="#DejaVuSans-8722"/>
       <use x="83.789062" xlink:href="#DejaVuSans-48"/>
       <use x="147.412109" xlink:href="#DejaVuSans-46"/>
       <use x="179.199219" xlink:href="#DejaVuSans-53"/>
      </g>
     </g>
    </g>
    <g id="ytick_3">
     <g id="line2d_9">
      <g>
       <use style="stroke:#000000;stroke-width:0.8;" x="57.6" xlink:href="#mb7c09d7483" y="174.795833"/>
      </g>
     </g>
     <g id="text_11">
      <!-- 0.0 -->
      <g transform="translate(34.696875 178.595052)scale(0.1 -0.1)">
       <use xlink:href="#DejaVuSans-48"/>
       <use x="63.623047" xlink:href="#DejaVuSans-46"/>
       <use x="95.410156" xlink:href="#DejaVuSans-48"/>
      </g>
     </g>
    </g>
    <g id="ytick_4">
     <g id="line2d_10">
      <g>
       <use style="stroke:#000000;stroke-width:0.8;" x="57.6" xlink:href="#mb7c09d7483" y="120.180897"/>
      </g>
     </g>
     <g id="text_12">
      <!-- 0.5 -->
      <g transform="translate(34.696875 123.980116)scale(0.1 -0.1)">
       <use xlink:href="#DejaVuSans-48"/>
       <use x="63.623047" xlink:href="#DejaVuSans-46"/>
       <use x="95.410156" xlink:href="#DejaVuSans-53"/>
      </g>
     </g>
    </g>
    <g id="ytick_5">
     <g id="line2d_11">
      <g>
       <use style="stroke:#000000;stroke-width:0.8;" x="57.6" xlink:href="#mb7c09d7483" y="65.565962"/>
      </g>
     </g>
     <g id="text_13">
      <!-- 1.0 -->
      <g transform="translate(34.696875 69.365181)scale(0.1 -0.1)">
       <use xlink:href="#DejaVuSans-49"/>
       <use x="63.623047" xlink:href="#DejaVuSans-46"/>
       <use x="95.410156" xlink:href="#DejaVuSans-48"/>
      </g>
     </g>
    </g>
    <g id="text_14">
     <!-- Position -->
     <defs>
      <path d="M 19.671875 64.796875 
L 19.671875 37.40625 
L 32.078125 37.40625 
Q 38.96875 37.40625 42.71875 40.96875 
Q 46.484375 44.53125 46.484375 51.125 
Q 46.484375 57.671875 42.71875 61.234375 
Q 38.96875 64.796875 32.078125 64.796875 
z
M 9.8125 72.90625 
L 32.078125 72.90625 
Q 44.34375 72.90625 50.609375 67.359375 
Q 56.890625 61.8125 56.890625 51.125 
Q 56.890625 40.328125 50.609375 34.8125 
Q 44.34375 29.296875 32.078125 29.296875 
L 19.671875 29.296875 
L 19.671875 0 
L 9.8125 0 
z
" id="DejaVuSans-80"/>
      <path d="M 30.609375 48.390625 
Q 23.390625 48.390625 19.1875 42.75 
Q 14.984375 37.109375 14.984375 27.296875 
Q 14.984375 17.484375 19.15625 11.84375 
Q 23.34375 6.203125 30.609375 6.203125 
Q 37.796875 6.203125 41.984375 11.859375 
Q 46.1875 17.53125 46.1875 27.296875 
Q 46.1875 37.015625 41.984375 42.703125 
Q 37.796875 48.390625 30.609375 48.390625 
z
M 30.609375 56 
Q 42.328125 56 49.015625 48.375 
Q 55.71875 40.765625 55.71875 27.296875 
Q 55.71875 13.875 49.015625 6.21875 
Q 42.328125 -1.421875 30.609375 -1.421875 
Q 18.84375 -1.421875 12.171875 6.21875 
Q 5.515625 13.875 5.515625 27.296875 
Q 5.515625 40.765625 12.171875 48.375 
Q 18.84375 56 30.609375 56 
z
" id="DejaVuSans-111"/>
      <path d="M 44.28125 53.078125 
L 44.28125 44.578125 
Q 40.484375 46.53125 36.375 47.5 
Q 32.28125 48.484375 27.875 48.484375 
Q 21.1875 48.484375 17.84375 46.4375 
Q 14.5 44.390625 14.5 40.28125 
Q 14.5 37.15625 16.890625 35.375 
Q 19.28125 33.59375 26.515625 31.984375 
L 29.59375 31.296875 
Q 39.15625 29.25 43.1875 25.515625 
Q 47.21875 21.78125 47.21875 15.09375 
Q 47.21875 7.46875 41.1875 3.015625 
Q 35.15625 -1.421875 24.609375 -1.421875 
Q 20.21875 -1.421875 15.453125 -0.5625 
Q 10.6875 0.296875 5.421875 2 
L 5.421875 11.28125 
Q 10.40625 8.6875 15.234375 7.390625 
Q 20.0625 6.109375 24.8125 6.109375 
Q 31.15625 6.109375 34.5625 8.28125 
Q 37.984375 10.453125 37.984375 14.40625 
Q 37.984375 18.0625 35.515625 20.015625 
Q 33.0625 21.96875 24.703125 23.78125 
L 21.578125 24.515625 
Q 13.234375 26.265625 9.515625 29.90625 
Q 5.8125 33.546875 5.8125 39.890625 
Q 5.8125 47.609375 11.28125 51.796875 
Q 16.75 56 26.8125 56 
Q 31.78125 56 36.171875 55.265625 
Q 40.578125 54.546875 44.28125 53.078125 
z
" id="DejaVuSans-115"/>
      <path d="M 18.3125 70.21875 
L 18.3125 54.6875 
L 36.8125 54.6875 
L 36.8125 47.703125 
L 18.3125 47.703125 
L 18.3125 18.015625 
Q 18.3125 11.328125 20.140625 9.421875 
Q 21.96875 7.515625 27.59375 7.515625 
L 36.8125 7.515625 
L 36.8125 0 
L 27.59375 0 
Q 17.1875 0 13.234375 3.875 
Q 9.28125 7.765625 9.28125 18.015625 
L 9.28125 47.703125 
L 2.6875 47.703125 
L 2.6875 54.6875 
L 9.28125 54.6875 
L 9.28125 70.21875 
z
" id="DejaVuSans-116"/>
      <path d="M 54.890625 33.015625 
L 54.890625 0 
L 45.90625 0 
L 45.90625 32.71875 
Q 45.90625 40.484375 42.875 44.328125 
Q 39.84375 48.1875 33.796875 48.1875 
Q 26.515625 48.1875 22.3125 43.546875 
Q 18.109375 38.921875 18.109375 30.90625 
L 18.109375 0 
L 9.078125 0 
L 9.078125 54.6875 
L 18.109375 54.6875 
L 18.109375 46.1875 
Q 21.34375 51.125 25.703125 53.5625 
Q 30.078125 56 35.796875 56 
Q 45.21875 56 50.046875 50.171875 
Q 54.890625 44.34375 54.890625 33.015625 
z
" id="DejaVuSans-110"/>
     </defs>
     <g transform="translate(20.2375 194.170969)rotate(-90)scale(0.1 -0.1)">
      <use xlink:href="#DejaVuSans-80"/>
      <use x="60.255859" xlink:href="#DejaVuSans-111"/>
      <use x="121.4375" xlink:href="#DejaVuSans-115"/>
      <use x="173.537109" xlink:href="#DejaVuSans-105"/>
      <use x="201.320312" xlink:href="#DejaVuSans-116"/>
      <use x="240.529297" xlink:href="#DejaVuSans-105"/>
      <use x="268.3125" xlink:href="#DejaVuSans-111"/>
      <use x="329.494141" xlink:href="#DejaVuSans-110"/>
     </g>
    </g>
   </g>
   <g id="line2d_12">
    <path clip-path="url(#p887549cc4b)" d="M 73.832727 174.795833 
L 130.947879 174.795833 
L 130.947879 174.795833 
L 130.947879 94.212835 
L 130.947879 114.549928 
L 133.953939 114.768607 
L 133.953939 136.41777 
L 136.96 136.636449 
L 136.96 158.285612 
L 139.966061 158.504291 
L 139.966061 180.153454 
L 142.972121 180.372133 
L 142.972121 202.021296 
L 145.978182 202.239975 
L 145.978182 223.889138 
L 148.984242 224.107817 
L 148.984242 245.75698 
L 151.990303 245.975659 
L 151.990303 267.624822 
L 154.996364 267.843501 
L 154.996364 284.025704 
L 154.996364 278.777422 
L 158.002424 278.558743 
L 158.002424 256.90958 
L 161.008485 256.690901 
L 161.008485 235.041738 
L 164.014545 234.823059 
L 164.014545 213.173896 
L 167.020606 212.955217 
L 167.020606 191.306054 
L 170.026667 191.087375 
L 170.026667 169.438212 
L 173.032727 169.219533 
L 173.032727 147.57037 
L 176.038788 147.351691 
L 176.038788 125.702528 
L 179.044848 125.483849 
L 179.044848 103.834686 
L 182.050909 103.616007 
L 182.050909 81.966844 
L 185.05697 81.748165 
L 185.05697 65.565962 
L 185.05697 70.814244 
L 188.06303 71.032923 
L 188.06303 92.682086 
L 191.069091 92.900765 
L 191.069091 114.549928 
L 194.075151 114.768607 
L 194.075151 136.41777 
L 197.081212 136.636449 
L 197.081212 158.285612 
L 200.087273 158.504291 
L 200.087273 180.153454 
L 203.093333 180.372133 
L 203.093333 202.021296 
L 206.099394 202.239975 
L 206.099394 223.889138 
L 209.105454 224.107817 
L 209.105454 245.75698 
L 212.111515 245.975659 
L 212.111515 267.624822 
L 215.117576 267.843501 
L 215.117576 284.025704 
L 215.117576 278.777422 
L 218.123636 278.558743 
L 218.123636 256.90958 
L 221.129697 256.690901 
L 221.129697 235.041738 
L 224.135757 234.823059 
L 224.135757 213.173896 
L 227.141818 212.955217 
L 227.141818 191.306054 
L 230.147879 191.087375 
L 230.147879 169.438212 
L 233.153939 169.219533 
L 233.153939 147.57037 
L 236.16 147.351691 
L 236.16 125.702528 
L 239.16606 125.483849 
L 239.16606 103.834686 
L 242.172121 103.616007 
L 242.172121 81.966844 
L 245.178182 81.748165 
L 245.178182 65.565962 
L 245.178182 70.814244 
L 248.184242 71.032923 
L 248.184242 92.682086 
L 251.190303 92.900765 
L 251.190303 266.542146 
L 251.190303 257.941219 
L 254.196363 257.718154 
L 254.196363 231.96705 
L 257.202424 231.674223 
L 257.202424 200.391009 
L 260.208485 200.057114 
L 260.208485 166.307047 
L 263.214545 165.964801 
L 263.214545 133.054852 
L 266.220606 132.737788 
L 266.220606 103.89261 
L 269.226666 103.631796 
L 269.226666 81.677758 
L 272.232727 81.498749 
L 272.232727 68.586998 
L 275.238788 68.428723 
L 275.238788 65.565962 
L 275.238788 65.876605 
L 278.244848 65.98871 
L 278.244848 73.757855 
L 281.250909 73.888804 
L 281.250909 91.539222 
L 284.256969 91.761877 
L 284.256969 117.478415 
L 287.26303 117.770959 
L 287.26303 149.033804 
L 290.269091 149.367573 
L 290.269091 183.113464 
L 293.275151 183.455753 
L 293.275151 216.378127 
L 296.281212 216.695398 
L 296.281212 245.568386 
L 299.287272 245.829551 
L 299.287272 267.824059 
L 302.293333 268.003527 
L 302.293333 280.964443 
L 305.299394 281.123768 
L 305.299394 284.025569 
L 305.299394 283.701989 
L 308.305454 283.587733 
L 308.305454 275.768461 
L 311.311515 275.637013 
L 311.311515 257.941219 
L 314.317575 257.718154 
L 314.317575 231.96705 
L 317.323636 231.674223 
L 317.323636 200.391009 
L 320.329697 200.057114 
L 320.329697 166.307047 
L 323.335757 165.964801 
L 323.335757 133.054852 
L 326.341818 132.737788 
L 326.341818 103.89261 
L 329.347878 103.631796 
L 329.347878 81.677758 
L 332.353939 81.498749 
L 332.353939 68.586998 
L 335.36 68.428723 
L 335.36 65.565962 
L 335.36 65.876605 
L 338.36606 65.98871 
L 338.36606 73.757855 
L 341.372121 73.888804 
L 341.372121 91.539222 
L 344.378181 91.761877 
L 344.378181 117.478415 
L 347.384242 117.770959 
L 347.384242 149.033804 
L 350.390303 149.367573 
L 350.390303 183.113464 
L 353.396363 183.455753 
L 353.396363 216.378127 
L 356.402424 216.695398 
L 356.402424 245.568386 
L 359.408484 245.829551 
L 359.408484 267.824059 
L 362.414545 268.003527 
L 362.414545 280.964443 
L 365.420606 281.123768 
L 365.420606 284.025569 
L 365.420606 283.701989 
L 368.426666 283.587733 
L 368.426666 275.768461 
L 371.432727 275.637013 
L 371.432727 257.941219 
L 374.438787 257.718154 
L 374.438787 231.96705 
L 377.444848 231.674223 
L 377.444848 200.391009 
L 380.450909 200.057114 
L 380.450909 166.307047 
L 383.456969 165.964801 
L 383.456969 133.054852 
L 386.46303 132.737788 
L 386.46303 103.89261 
L 389.46909 103.631796 
L 389.46909 81.677758 
L 392.475151 81.498749 
L 392.475151 68.586998 
L 395.481212 68.428723 
L 395.481212 65.565962 
L 395.481212 65.876605 
L 398.487272 65.98871 
L 398.487272 66.516377 
L 398.487272 66.516377 
" style="fill:none;stroke:#1f77b4;stroke-linecap:square;stroke-width:1.5;"/>
   </g>
   <g id="line2d_13">
    <path clip-path="url(#p887549cc4b)" d="M 73.832727 174.185121 
L 73.832727 174.180639 
L 73.832727 174.185963 
L 73.832727 174.182052 
L 124.935758 174.302627 
L 124.935758 174.820647 
L 127.941818 174.934329 
L 127.941818 185.919406 
L 130.947879 186.027578 
L 130.947879 209.129406 
L 133.953939 209.242921 
L 133.953939 212.470066 
L 136.96 212.594209 
L 136.96 214.019139 
L 136.96 213.770879 
L 139.966061 213.656682 
L 139.966061 206.190938 
L 142.972121 206.041905 
L 142.972121 190.141569 
L 145.978182 189.99193 
L 145.978182 180.028741 
L 145.978182 180.093278 
L 148.984242 180.203056 
L 148.984242 202.023701 
L 151.990303 202.154785 
L 151.990303 244.182056 
L 154.996364 244.314617 
L 154.996364 282.720665 
L 158.002424 282.824349 
L 158.002424 291.097088 
L 158.002424 288.517912 
L 161.008485 288.415804 
L 161.008485 272.14969 
L 164.014545 271.962267 
L 164.014545 246.395088 
L 167.020606 246.270647 
L 167.020606 220.258694 
L 170.026667 220.118649 
L 170.026667 178.478723 
L 173.032727 178.332591 
L 173.032727 143.535092 
L 176.038788 143.358194 
L 176.038788 116.032126 
L 179.044848 115.845786 
L 179.044848 99.459317 
L 182.050909 99.336107 
L 182.050909 85.52283 
L 185.05697 85.407943 
L 185.05697 75.990994 
L 188.06303 75.859074 
L 188.06303 74.26262 
L 188.06303 83.31483 
L 191.069091 83.44373 
L 191.069091 99.779042 
L 194.075151 99.94302 
L 194.075151 116.855497 
L 197.081212 116.974579 
L 197.081212 137.642158 
L 200.087273 137.808984 
L 200.087273 161.371312 
L 203.093333 161.52004 
L 203.093333 185.586851 
L 206.099394 185.779939 
L 206.099394 211.975381 
L 209.105454 212.150503 
L 209.105454 240.974191 
L 212.111515 241.181638 
L 212.111515 270.578113 
L 215.117576 270.737225 
L 215.117576 291.077509 
L 218.123636 291.198699 
L 218.123636 295.488 
L 218.123636 291.380271 
L 221.129697 291.230971 
L 221.129697 269.070927 
L 224.135757 268.903404 
L 224.135757 244.026976 
L 227.141818 243.843795 
L 227.141818 209.506246 
L 230.147879 209.362715 
L 230.147879 170.966439 
L 233.153939 170.745453 
L 233.153939 150.396858 
L 236.16 150.263052 
L 236.16 133.233545 
L 239.16606 133.064343 
L 239.16606 119.219542 
L 242.172121 119.069614 
L 242.172121 102.768481 
L 245.178182 102.629156 
L 245.178182 81.402749 
L 248.184242 81.289489 
L 248.184242 76.342741 
L 248.184242 76.836417 
L 251.190303 76.960103 
L 251.190303 83.943562 
L 254.196363 84.058084 
L 254.196363 118.060542 
L 257.202424 118.188158 
L 257.202424 143.680392 
L 260.208485 143.834586 
L 260.208485 153.245956 
L 260.208485 153.242887 
L 263.214545 153.287565 
L 263.214545 153.145194 
L 263.214545 149.355323 
L 266.220606 149.225277 
L 266.220606 142.693493 
L 269.226666 142.560549 
L 269.226666 122.916833 
L 272.232727 122.776082 
L 272.232727 101.753363 
L 275.238788 101.639927 
L 275.238788 83.851038 
L 278.244848 83.738544 
L 278.244848 74.936713 
L 278.244848 75.142034 
L 281.250909 75.249419 
L 281.250909 84.845746 
L 284.256969 84.957282 
L 284.256969 96.229502 
L 287.26303 96.342315 
L 287.26303 113.716081 
L 290.269091 113.891894 
L 290.269091 153.57861 
L 293.275151 153.748339 
L 293.275151 194.373278 
L 296.281212 194.567227 
L 296.281212 215.152586 
L 299.287272 215.300881 
L 299.287272 220.571626 
L 299.287272 219.178345 
L 302.293333 219.05595 
L 302.293333 209.384252 
L 305.299394 209.238844 
L 305.299394 203.075075 
L 308.305454 202.966077 
L 308.305454 201.045764 
L 308.305454 201.150526 
L 311.311515 201.261056 
L 311.311515 211.602553 
L 314.317575 211.723851 
L 314.317575 212.855228 
L 314.317575 209.938252 
L 317.323636 209.824977 
L 317.323636 190.698617 
L 320.329697 190.555795 
L 320.329697 168.780386 
L 323.335757 168.626567 
L 323.335757 140.279926 
L 326.341818 140.057121 
L 326.341818 101.29829 
L 329.347878 101.073677 
L 329.347878 69.512661 
L 332.353939 69.359747 
L 332.353939 54.647975 
L 335.36 54.517952 
L 335.36 53.568 
L 335.36 60.379946 
L 338.36606 60.496427 
L 338.36606 72.573845 
L 341.372121 72.693337 
L 341.372121 83.74273 
L 344.378181 83.874292 
L 344.378181 86.92018 
L 344.378181 86.771062 
L 347.384242 86.874096 
L 347.384242 107.11941 
L 350.390303 107.292869 
L 350.390303 134.742278 
L 353.396363 134.859096 
L 353.396363 166.979718 
L 356.402424 167.091155 
L 356.402424 197.878387 
L 359.408484 198.078208 
L 359.408484 226.339014 
L 362.414545 226.51958 
L 362.414545 253.648467 
L 365.420606 253.804407 
L 365.420606 267.595778 
L 365.420606 267.589119 
L 368.426666 267.703017 
L 368.426666 268.286643 
L 368.426666 266.40684 
L 371.432727 266.269687 
L 371.432727 260.809693 
L 374.438787 260.706121 
L 374.438787 231.132598 
L 377.444848 230.949212 
L 377.444848 203.034786 
L 380.450909 202.864899 
L 380.450909 179.06738 
L 383.456969 178.952293 
L 383.456969 176.880959 
L 383.456969 176.934507 
L 398.487272 176.938896 
L 398.487272 176.936787 
" style="fill:none;stroke:#ff7f0e;stroke-linecap:square;stroke-width:1.5;"/>
   </g>
   <g id="patch_3">
    <path d="M 57.6 307.584 
L 57.6 41.472 
" style="fill:none;stroke:#000000;stroke-linecap:square;stroke-linejoin:miter;stroke-width:0.8;"/>
   </g>
   <g id="patch_4">
    <path d="M 414.72 307.584 
L 414.72 41.472 
" style="fill:none;stroke:#000000;stroke-linecap:square;stroke-linejoin:miter;stroke-width:0.8;"/>
   </g>
   <g id="patch_5">
    <path d="M 57.6 307.584 
L 414.72 307.584 
" style="fill:none;stroke:#000000;stroke-linecap:square;stroke-linejoin:miter;stroke-width:0.8;"/>
   </g>
   <g id="patch_6">
    <path d="M 57.6 41.472 
L 414.72 41.472 
" style="fill:none;stroke:#000000;stroke-linecap:square;stroke-linejoin:miter;stroke-width:0.8;"/>
   </g>
   <g id="text_15">
    <!-- Position in X direction v/s Time -->
    <defs>
     <path id="DejaVuSans-32"/>
     <path d="M 6.296875 72.90625 
L 16.890625 72.90625 
L 35.015625 45.796875 
L 53.21875 72.90625 
L 63.8125 72.90625 
L 40.375 37.890625 
L 65.375 0 
L 54.78125 0 
L 34.28125 31 
L 13.625 0 
L 2.984375 0 
L 29 38.921875 
z
" id="DejaVuSans-88"/>
     <path d="M 45.40625 46.390625 
L 45.40625 75.984375 
L 54.390625 75.984375 
L 54.390625 0 
L 45.40625 0 
L 45.40625 8.203125 
Q 42.578125 3.328125 38.25 0.953125 
Q 33.9375 -1.421875 27.875 -1.421875 
Q 17.96875 -1.421875 11.734375 6.484375 
Q 5.515625 14.40625 5.515625 27.296875 
Q 5.515625 40.1875 11.734375 48.09375 
Q 17.96875 56 27.875 56 
Q 33.9375 56 38.25 53.625 
Q 42.578125 51.265625 45.40625 46.390625 
z
M 14.796875 27.296875 
Q 14.796875 17.390625 18.875 11.75 
Q 22.953125 6.109375 30.078125 6.109375 
Q 37.203125 6.109375 41.296875 11.75 
Q 45.40625 17.390625 45.40625 27.296875 
Q 45.40625 37.203125 41.296875 42.84375 
Q 37.203125 48.484375 30.078125 48.484375 
Q 22.953125 48.484375 18.875 42.84375 
Q 14.796875 37.203125 14.796875 27.296875 
z
" id="DejaVuSans-100"/>
     <path d="M 41.109375 46.296875 
Q 39.59375 47.171875 37.8125 47.578125 
Q 36.03125 48 33.890625 48 
Q 26.265625 48 22.1875 43.046875 
Q 18.109375 38.09375 18.109375 28.8125 
L 18.109375 0 
L 9.078125 0 
L 9.078125 54.6875 
L 18.109375 54.6875 
L 18.109375 46.1875 
Q 20.953125 51.171875 25.484375 53.578125 
Q 30.03125 56 36.53125 56 
Q 37.453125 56 38.578125 55.875 
Q 39.703125 55.765625 41.0625 55.515625 
z
" id="DejaVuSans-114"/>
     <path d="M 48.78125 52.59375 
L 48.78125 44.1875 
Q 44.96875 46.296875 41.140625 47.34375 
Q 37.3125 48.390625 33.40625 48.390625 
Q 24.65625 48.390625 19.8125 42.84375 
Q 14.984375 37.3125 14.984375 27.296875 
Q 14.984375 17.28125 19.8125 11.734375 
Q 24.65625 6.203125 33.40625 6.203125 
Q 37.3125 6.203125 41.140625 7.25 
Q 44.96875 8.296875 48.78125 10.40625 
L 48.78125 2.09375 
Q 45.015625 0.34375 40.984375 -0.53125 
Q 36.96875 -1.421875 32.421875 -1.421875 
Q 20.0625 -1.421875 12.78125 6.34375 
Q 5.515625 14.109375 5.515625 27.296875 
Q 5.515625 40.671875 12.859375 48.328125 
Q 20.21875 56 33.015625 56 
Q 37.15625 56 41.109375 55.140625 
Q 45.0625 54.296875 48.78125 52.59375 
z
" id="DejaVuSans-99"/>
     <path d="M 2.984375 54.6875 
L 12.5 54.6875 
L 29.59375 8.796875 
L 46.6875 54.6875 
L 56.203125 54.6875 
L 35.6875 0 
L 23.484375 0 
z
" id="DejaVuSans-118"/>
     <path d="M 25.390625 72.90625 
L 33.6875 72.90625 
L 8.296875 -9.28125 
L 0 -9.28125 
z
" id="DejaVuSans-47"/>
    </defs>
    <g transform="translate(143.487188 35.472)scale(0.12 -0.12)">
     <use xlink:href="#DejaVuSans-80"/>
     <use x="60.255859" xlink:href="#DejaVuSans-111"/>
     <use x="121.4375" xlink:href="#DejaVuSans-115"/>
     <use x="173.537109" xlink:href="#DejaVuSans-105"/>
     <use x="201.320312" xlink:href="#DejaVuSans-116"/>
     <use x="240.529297" xlink:href="#DejaVuSans-105"/>
     <use x="268.3125" xlink:href="#DejaVuSans-111"/>
     <use x="329.494141" xlink:href="#DejaVuSans-110"/>
     <use x="392.873047" xlink:href="#DejaVuSans-32"/>
     <use x="424.660156" xlink:href="#DejaVuSans-105"/>
     <use x="452.443359" xlink:href="#DejaVuSans-110"/>
     <use x="515.822266" xlink:href="#DejaVuSans-32"/>
     <use x="547.609375" xlink:href="#DejaVuSans-88"/>
     <use x="616.115234" xlink:href="#DejaVuSans-32"/>
     <use x="647.902344" xlink:href="#DejaVuSans-100"/>
     <use x="711.378906" xlink:href="#DejaVuSans-105"/>
     <use x="739.162109" xlink:href="#DejaVuSans-114"/>
     <use x="780.244141" xlink:href="#DejaVuSans-101"/>
     <use x="841.767578" xlink:href="#DejaVuSans-99"/>
     <use x="896.748047" xlink:href="#DejaVuSans-116"/>
     <use x="935.957031" xlink:href="#DejaVuSans-105"/>
     <use x="963.740234" xlink:href="#DejaVuSans-111"/>
     <use x="1024.921875" xlink:href="#DejaVuSans-110"/>
     <use x="1088.300781" xlink:href="#DejaVuSans-32"/>
     <use x="1120.087891" xlink:href="#DejaVuSans-118"/>
     <use x="1179.267578" xlink:href="#DejaVuSans-47"/>
     <use x="1212.958984" xlink:href="#DejaVuSans-115"/>
     <use x="1265.058594" xlink:href="#DejaVuSans-32"/>
     <use x="1296.845703" xlink:href="#DejaVuSans-84"/>
     <use x="1357.882812" xlink:href="#DejaVuSans-105"/>
     <use x="1385.666016" xlink:href="#DejaVuSans-109"/>
     <use x="1483.078125" xlink:href="#DejaVuSans-101"/>
    </g>
   </g>
   <g id="legend_1">
    <g id="patch_7">
     <path d="M 64.6 78.82825 
L 186.610938 78.82825 
Q 188.610938 78.82825 188.610938 76.82825 
L 188.610938 48.472 
Q 188.610938 46.472 186.610938 46.472 
L 64.6 46.472 
Q 62.6 46.472 62.6 48.472 
L 62.6 76.82825 
Q 62.6 78.82825 64.6 78.82825 
z
" style="fill:#ffffff;opacity:0.8;stroke:#cccccc;stroke-linejoin:miter;"/>
    </g>
    <g id="line2d_14">
     <path d="M 66.6 54.570437 
L 86.6 54.570437 
" style="fill:none;stroke:#1f77b4;stroke-linecap:square;stroke-width:1.5;"/>
    </g>
    <g id="line2d_15"/>
    <g id="text_16">
     <!-- Desired Position x -->
     <defs>
      <path d="M 19.671875 64.796875 
L 19.671875 8.109375 
L 31.59375 8.109375 
Q 46.6875 8.109375 53.6875 14.9375 
Q 60.6875 21.78125 60.6875 36.53125 
Q 60.6875 51.171875 53.6875 57.984375 
Q 46.6875 64.796875 31.59375 64.796875 
z
M 9.8125 72.90625 
L 30.078125 72.90625 
Q 51.265625 72.90625 61.171875 64.09375 
Q 71.09375 55.28125 71.09375 36.53125 
Q 71.09375 17.671875 61.125 8.828125 
Q 51.171875 0 30.078125 0 
L 9.8125 0 
z
" id="DejaVuSans-68"/>
      <path d="M 54.890625 54.6875 
L 35.109375 28.078125 
L 55.90625 0 
L 45.3125 0 
L 29.390625 21.484375 
L 13.484375 0 
L 2.875 0 
L 24.125 28.609375 
L 4.6875 54.6875 
L 15.28125 54.6875 
L 29.78125 35.203125 
L 44.28125 54.6875 
z
" id="DejaVuSans-120"/>
     </defs>
     <g transform="translate(94.6 58.070437)scale(0.1 -0.1)">
      <use xlink:href="#DejaVuSans-68"/>
      <use x="77.001953" xlink:href="#DejaVuSans-101"/>
      <use x="138.525391" xlink:href="#DejaVuSans-115"/>
      <use x="190.625" xlink:href="#DejaVuSans-105"/>
      <use x="218.408203" xlink:href="#DejaVuSans-114"/>
      <use x="259.490234" xlink:href="#DejaVuSans-101"/>
      <use x="321.013672" xlink:href="#DejaVuSans-100"/>
      <use x="384.490234" xlink:href="#DejaVuSans-32"/>
      <use x="416.277344" xlink:href="#DejaVuSans-80"/>
      <use x="476.533203" xlink:href="#DejaVuSans-111"/>
      <use x="537.714844" xlink:href="#DejaVuSans-115"/>
      <use x="589.814453" xlink:href="#DejaVuSans-105"/>
      <use x="617.597656" xlink:href="#DejaVuSans-116"/>
      <use x="656.806641" xlink:href="#DejaVuSans-105"/>
      <use x="684.589844" xlink:href="#DejaVuSans-111"/>
      <use x="745.771484" xlink:href="#DejaVuSans-110"/>
      <use x="809.150391" xlink:href="#DejaVuSans-32"/>
      <use x="840.9375" xlink:href="#DejaVuSans-120"/>
     </g>
    </g>
    <g id="line2d_16">
     <path d="M 66.6 69.248562 
L 86.6 69.248562 
" style="fill:none;stroke:#ff7f0e;stroke-linecap:square;stroke-width:1.5;"/>
    </g>
    <g id="line2d_17"/>
    <g id="text_17">
     <!-- Actual Position x -->
     <defs>
      <path d="M 34.1875 63.1875 
L 20.796875 26.90625 
L 47.609375 26.90625 
z
M 28.609375 72.90625 
L 39.796875 72.90625 
L 67.578125 0 
L 57.328125 0 
L 50.6875 18.703125 
L 17.828125 18.703125 
L 11.1875 0 
L 0.78125 0 
z
" id="DejaVuSans-65"/>
      <path d="M 8.5 21.578125 
L 8.5 54.6875 
L 17.484375 54.6875 
L 17.484375 21.921875 
Q 17.484375 14.15625 20.5 10.265625 
Q 23.53125 6.390625 29.59375 6.390625 
Q 36.859375 6.390625 41.078125 11.03125 
Q 45.3125 15.671875 45.3125 23.6875 
L 45.3125 54.6875 
L 54.296875 54.6875 
L 54.296875 0 
L 45.3125 0 
L 45.3125 8.40625 
Q 42.046875 3.421875 37.71875 1 
Q 33.40625 -1.421875 27.6875 -1.421875 
Q 18.265625 -1.421875 13.375 4.4375 
Q 8.5 10.296875 8.5 21.578125 
z
M 31.109375 56 
z
" id="DejaVuSans-117"/>
      <path d="M 34.28125 27.484375 
Q 23.390625 27.484375 19.1875 25 
Q 14.984375 22.515625 14.984375 16.5 
Q 14.984375 11.71875 18.140625 8.90625 
Q 21.296875 6.109375 26.703125 6.109375 
Q 34.1875 6.109375 38.703125 11.40625 
Q 43.21875 16.703125 43.21875 25.484375 
L 43.21875 27.484375 
z
M 52.203125 31.203125 
L 52.203125 0 
L 43.21875 0 
L 43.21875 8.296875 
Q 40.140625 3.328125 35.546875 0.953125 
Q 30.953125 -1.421875 24.3125 -1.421875 
Q 15.921875 -1.421875 10.953125 3.296875 
Q 6 8.015625 6 15.921875 
Q 6 25.140625 12.171875 29.828125 
Q 18.359375 34.515625 30.609375 34.515625 
L 43.21875 34.515625 
L 43.21875 35.40625 
Q 43.21875 41.609375 39.140625 45 
Q 35.0625 48.390625 27.6875 48.390625 
Q 23 48.390625 18.546875 47.265625 
Q 14.109375 46.140625 10.015625 43.890625 
L 10.015625 52.203125 
Q 14.9375 54.109375 19.578125 55.046875 
Q 24.21875 56 28.609375 56 
Q 40.484375 56 46.34375 49.84375 
Q 52.203125 43.703125 52.203125 31.203125 
z
" id="DejaVuSans-97"/>
      <path d="M 9.421875 75.984375 
L 18.40625 75.984375 
L 18.40625 0 
L 9.421875 0 
z
" id="DejaVuSans-108"/>
     </defs>
     <g transform="translate(94.6 72.748562)scale(0.1 -0.1)">
      <use xlink:href="#DejaVuSans-65"/>
      <use x="68.392578" xlink:href="#DejaVuSans-99"/>
      <use x="123.373047" xlink:href="#DejaVuSans-116"/>
      <use x="162.582031" xlink:href="#DejaVuSans-117"/>
      <use x="225.960938" xlink:href="#DejaVuSans-97"/>
      <use x="287.240234" xlink:href="#DejaVuSans-108"/>
      <use x="315.023438" xlink:href="#DejaVuSans-32"/>
      <use x="346.810547" xlink:href="#DejaVuSans-80"/>
      <use x="407.066406" xlink:href="#DejaVuSans-111"/>
      <use x="468.248047" xlink:href="#DejaVuSans-115"/>
      <use x="520.347656" xlink:href="#DejaVuSans-105"/>
      <use x="548.130859" xlink:href="#DejaVuSans-116"/>
      <use x="587.339844" xlink:href="#DejaVuSans-105"/>
      <use x="615.123047" xlink:href="#DejaVuSans-111"/>
      <use x="676.304688" xlink:href="#DejaVuSans-110"/>
      <use x="739.683594" xlink:href="#DejaVuSans-32"/>
      <use x="771.470703" xlink:href="#DejaVuSans-120"/>
     </g>
    </g>
   </g>
  </g>
 </g>
 <defs>
  <clipPath id="p887549cc4b">
   <rect height="266.112" width="357.12" x="57.6" y="41.472"/>
  </clipPath>
 </defs>
</svg>
