<?xml version="1.0" encoding="utf-8" standalone="no"?>
<!DOCTYPE svg PUBLIC "-//W3C//DTD SVG 1.1//EN"
  "http://www.w3.org/Graphics/SVG/1.1/DTD/svg11.dtd">
<!-- Created with matplotlib (http://matplotlib.org/) -->
<svg height="345.6pt" version="1.1" viewBox="0 0 460.8 345.6" width="460.8pt" xmlns="http://www.w3.org/2000/svg" xmlns:xlink="http://www.w3.org/1999/xlink">
 <defs>
  <style type="text/css">
*{stroke-linecap:butt;stroke-linejoin:round;}
  </style>
 </defs>
 <g id="figure_1">
  <g id="patch_1">
   <path d="M 0 345.6 
L 460.8 345.6 
L 460.8 0 
L 0 0 
z
" style="fill:#ffffff;"/>
  </g>
  <g id="axes_1">
   <g id="patch_2">
    <path d="M 57.6 307.584 
L 414.72 307.584 
L 414.72 41.472 
L 57.6 41.472 
z
" style="fill:#ffffff;"/>
   </g>
   <g id="PathCollection_1">
    <defs>
     <path d="M 0 3 
C 0.795609 3 1.55874 2.683901 2.12132 2.12132 
C 2.683901 1.55874 3 0.795609 3 0 
C 3 -0.795609 2.683901 -1.55874 2.12132 -2.12132 
C 1.55874 -2.683901 0.795609 -3 0 -3 
C -0.795609 -3 -1.55874 -2.683901 -2.12132 -2.12132 
C -2.683901 -1.55874 -3 -0.795609 -3 0 
C -3 0.795609 -2.683901 1.55874 -2.12132 2.12132 
C -1.55874 2.683901 -0.795609 3 0 3 
z
" id="mb377eddc3c" style="stroke:#1f77b4;"/>
    </defs>
    <g clip-path="url(#pe150b8db30)">
     <use style="fill:#1f77b4;stroke:#1f77b4;" x="78.236793" xlink:href="#mb377eddc3c" y="58.827986"/>
     <use style="fill:#1f77b4;stroke:#1f77b4;" x="79.264574" xlink:href="#mb377eddc3c" y="58.651917"/>
     <use style="fill:#1f77b4;stroke:#1f77b4;" x="78.001631" xlink:href="#mb377eddc3c" y="58.875691"/>
     <use style="fill:#1f77b4;stroke:#1f77b4;" x="78.529881" xlink:href="#mb377eddc3c" y="58.918231"/>
     <use style="fill:#1f77b4;stroke:#1f77b4;" x="88.586692" xlink:href="#mb377eddc3c" y="195.473204"/>
     <use style="fill:#1f77b4;stroke:#1f77b4;" x="88.694198" xlink:href="#mb377eddc3c" y="195.504526"/>
     <use style="fill:#1f77b4;stroke:#1f77b4;" x="88.38661" xlink:href="#mb377eddc3c" y="195.07795"/>
     <use style="fill:#1f77b4;stroke:#1f77b4;" x="88.874308" xlink:href="#mb377eddc3c" y="195.073212"/>
     <use style="fill:#1f77b4;stroke:#1f77b4;" x="215.149753" xlink:href="#mb377eddc3c" y="296.08755"/>
     <use style="fill:#1f77b4;stroke:#1f77b4;" x="216.023331" xlink:href="#mb377eddc3c" y="296.335829"/>
     <use style="fill:#1f77b4;stroke:#1f77b4;" x="216.413896" xlink:href="#mb377eddc3c" y="295.962971"/>
     <use style="fill:#1f77b4;stroke:#1f77b4;" x="217.326674" xlink:href="#mb377eddc3c" y="294.687455"/>
     <use style="fill:#1f77b4;stroke:#1f77b4;" x="90.133986" xlink:href="#mb377eddc3c" y="196.849137"/>
     <use style="fill:#1f77b4;stroke:#1f77b4;" x="90.479425" xlink:href="#mb377eddc3c" y="196.644907"/>
     <use style="fill:#1f77b4;stroke:#1f77b4;" x="90.493568" xlink:href="#mb377eddc3c" y="196.638697"/>
     <use style="fill:#1f77b4;stroke:#1f77b4;" x="90.209714" xlink:href="#mb377eddc3c" y="196.430536"/>
     <use style="fill:#1f77b4;stroke:#1f77b4;" x="252.706718" xlink:href="#mb377eddc3c" y="163.044147"/>
     <use style="fill:#1f77b4;stroke:#1f77b4;" x="251.962507" xlink:href="#mb377eddc3c" y="162.529372"/>
     <use style="fill:#1f77b4;stroke:#1f77b4;" x="252.06294" xlink:href="#mb377eddc3c" y="162.440714"/>
     <use style="fill:#1f77b4;stroke:#1f77b4;" x="251.720813" xlink:href="#mb377eddc3c" y="162.268321"/>
     <use style="fill:#1f77b4;stroke:#1f77b4;" x="290.377215" xlink:href="#mb377eddc3c" y="64.314882"/>
     <use style="fill:#1f77b4;stroke:#1f77b4;" x="280.841822" xlink:href="#mb377eddc3c" y="64.822785"/>
     <use style="fill:#1f77b4;stroke:#1f77b4;" x="281.013945" xlink:href="#mb377eddc3c" y="64.200287"/>
     <use style="fill:#1f77b4;stroke:#1f77b4;" x="245.081711" xlink:href="#mb377eddc3c" y="159.013216"/>
     <use style="fill:#1f77b4;stroke:#1f77b4;" x="245.100714" xlink:href="#mb377eddc3c" y="159.098264"/>
     <use style="fill:#1f77b4;stroke:#1f77b4;" x="245.216257" xlink:href="#mb377eddc3c" y="158.362668"/>
     <use style="fill:#1f77b4;stroke:#1f77b4;" x="244.958102" xlink:href="#mb377eddc3c" y="158.108539"/>
     <use style="fill:#1f77b4;stroke:#1f77b4;" x="470.28277" xlink:href="#mb377eddc3c" y="276.141494"/>
     <use style="fill:#1f77b4;stroke:#1f77b4;" x="470.28277" xlink:href="#mb377eddc3c" y="276.141494"/>
     <use style="fill:#1f77b4;stroke:#1f77b4;" x="375.806601" xlink:href="#mb377eddc3c" y="255.218776"/>
     <use style="fill:#1f77b4;stroke:#1f77b4;" x="376.684934" xlink:href="#mb377eddc3c" y="256.271013"/>
     <use style="fill:#1f77b4;stroke:#1f77b4;" x="377.212557" xlink:href="#mb377eddc3c" y="257.769078"/>
     <use style="fill:#1f77b4;stroke:#1f77b4;" x="251.45894" xlink:href="#mb377eddc3c" y="158.717573"/>
     <use style="fill:#1f77b4;stroke:#1f77b4;" x="251.44255" xlink:href="#mb377eddc3c" y="159.088055"/>
     <use style="fill:#1f77b4;stroke:#1f77b4;" x="252.388345" xlink:href="#mb377eddc3c" y="158.332881"/>
     <use style="fill:#1f77b4;stroke:#1f77b4;" x="252.084984" xlink:href="#mb377eddc3c" y="158.352845"/>
     <use style="fill:#1f77b4;stroke:#1f77b4;" x="252.289883" xlink:href="#mb377eddc3c" y="158.154864"/>
     <use style="fill:#1f77b4;stroke:#1f77b4;" x="252.22184" xlink:href="#mb377eddc3c" y="158.837119"/>
     <use style="fill:#1f77b4;stroke:#1f77b4;" x="251.6634" xlink:href="#mb377eddc3c" y="159.096382"/>
     <use style="fill:#1f77b4;stroke:#1f77b4;" x="250.04763" xlink:href="#mb377eddc3c" y="159.040182"/>
     <use style="fill:#1f77b4;stroke:#1f77b4;" x="87.436233" xlink:href="#mb377eddc3c" y="54.313656"/>
     <use style="fill:#1f77b4;stroke:#1f77b4;" x="87.648273" xlink:href="#mb377eddc3c" y="54.657157"/>
     <use style="fill:#1f77b4;stroke:#1f77b4;" x="87.96595" xlink:href="#mb377eddc3c" y="55.113663"/>
     <use style="fill:#1f77b4;stroke:#1f77b4;" x="87.980362" xlink:href="#mb377eddc3c" y="55.23717"/>
    </g>
   </g>
   <g id="matplotlib.axis_1">
    <g id="xtick_1">
     <g id="line2d_1">
      <defs>
       <path d="M 0 0 
L 0 3.5 
" id="m3b0e35e559" style="stroke:#000000;stroke-width:0.8;"/>
      </defs>
      <g>
       <use style="stroke:#000000;stroke-width:0.8;" x="92.233879" xlink:href="#m3b0e35e559" y="307.584"/>
      </g>
     </g>
     <g id="text_1">
      <!-- −1.0 -->
      <defs>
       <path d="M 10.59375 35.5 
L 73.1875 35.5 
L 73.1875 27.203125 
L 10.59375 27.203125 
z
" id="DejaVuSans-2212"/>
       <path d="M 12.40625 8.296875 
L 28.515625 8.296875 
L 28.515625 63.921875 
L 10.984375 60.40625 
L 10.984375 69.390625 
L 28.421875 72.90625 
L 38.28125 72.90625 
L 38.28125 8.296875 
L 54.390625 8.296875 
L 54.390625 0 
L 12.40625 0 
z
" id="DejaVuSans-31"/>
       <path d="M 10.6875 12.40625 
L 21 12.40625 
L 21 0 
L 10.6875 0 
z
" id="DejaVuSans-2e"/>
       <path d="M 31.78125 66.40625 
Q 24.171875 66.40625 20.328125 58.90625 
Q 16.5 51.421875 16.5 36.375 
Q 16.5 21.390625 20.328125 13.890625 
Q 24.171875 6.390625 31.78125 6.390625 
Q 39.453125 6.390625 43.28125 13.890625 
Q 47.125 21.390625 47.125 36.375 
Q 47.125 51.421875 43.28125 58.90625 
Q 39.453125 66.40625 31.78125 66.40625 
z
M 31.78125 74.21875 
Q 44.046875 74.21875 50.515625 64.515625 
Q 56.984375 54.828125 56.984375 36.375 
Q 56.984375 17.96875 50.515625 8.265625 
Q 44.046875 -1.421875 31.78125 -1.421875 
Q 19.53125 -1.421875 13.0625 8.265625 
Q 6.59375 17.96875 6.59375 36.375 
Q 6.59375 54.828125 13.0625 64.515625 
Q 19.53125 74.21875 31.78125 74.21875 
z
" id="DejaVuSans-30"/>
      </defs>
      <g transform="translate(80.092472 322.182437)scale(0.1 -0.1)">
       <use xlink:href="#DejaVuSans-2212"/>
       <use x="83.789062" xlink:href="#DejaVuSans-31"/>
       <use x="147.412109" xlink:href="#DejaVuSans-2e"/>
       <use x="179.199219" xlink:href="#DejaVuSans-30"/>
      </g>
     </g>
    </g>
    <g id="xtick_2">
     <g id="line2d_2">
      <g>
       <use style="stroke:#000000;stroke-width:0.8;" x="151.42126" xlink:href="#m3b0e35e559" y="307.584"/>
      </g>
     </g>
     <g id="text_2">
      <!-- −0.5 -->
      <defs>
       <path d="M 10.796875 72.90625 
L 49.515625 72.90625 
L 49.515625 64.59375 
L 19.828125 64.59375 
L 19.828125 46.734375 
Q 21.96875 47.46875 24.109375 47.828125 
Q 26.265625 48.1875 28.421875 48.1875 
Q 40.625 48.1875 47.75 41.5 
Q 54.890625 34.8125 54.890625 23.390625 
Q 54.890625 11.625 47.5625 5.09375 
Q 40.234375 -1.421875 26.90625 -1.421875 
Q 22.3125 -1.421875 17.546875 -0.640625 
Q 12.796875 0.140625 7.71875 1.703125 
L 7.71875 11.625 
Q 12.109375 9.234375 16.796875 8.0625 
Q 21.484375 6.890625 26.703125 6.890625 
Q 35.15625 6.890625 40.078125 11.328125 
Q 45.015625 15.765625 45.015625 23.390625 
Q 45.015625 31 40.078125 35.4375 
Q 35.15625 39.890625 26.703125 39.890625 
Q 22.75 39.890625 18.8125 39.015625 
Q 14.890625 38.140625 10.796875 36.28125 
z
" id="DejaVuSans-35"/>
      </defs>
      <g transform="translate(139.279854 322.182437)scale(0.1 -0.1)">
       <use xlink:href="#DejaVuSans-2212"/>
       <use x="83.789062" xlink:href="#DejaVuSans-30"/>
       <use x="147.412109" xlink:href="#DejaVuSans-2e"/>
       <use x="179.199219" xlink:href="#DejaVuSans-35"/>
      </g>
     </g>
    </g>
    <g id="xtick_3">
     <g id="line2d_3">
      <g>
       <use style="stroke:#000000;stroke-width:0.8;" x="210.608642" xlink:href="#m3b0e35e559" y="307.584"/>
      </g>
     </g>
     <g id="text_3">
      <!-- 0.0 -->
      <g transform="translate(202.65708 322.182437)scale(0.1 -0.1)">
       <use xlink:href="#DejaVuSans-30"/>
       <use x="63.623047" xlink:href="#DejaVuSans-2e"/>
       <use x="95.410156" xlink:href="#DejaVuSans-30"/>
      </g>
     </g>
    </g>
    <g id="xtick_4">
     <g id="line2d_4">
      <g>
       <use style="stroke:#000000;stroke-width:0.8;" x="269.796024" xlink:href="#m3b0e35e559" y="307.584"/>
      </g>
     </g>
     <g id="text_4">
      <!-- 0.5 -->
      <g transform="translate(261.844462 322.182437)scale(0.1 -0.1)">
       <use xlink:href="#DejaVuSans-30"/>
       <use x="63.623047" xlink:href="#DejaVuSans-2e"/>
       <use x="95.410156" xlink:href="#DejaVuSans-35"/>
      </g>
     </g>
    </g>
    <g id="xtick_5">
     <g id="line2d_5">
      <g>
       <use style="stroke:#000000;stroke-width:0.8;" x="328.983406" xlink:href="#m3b0e35e559" y="307.584"/>
      </g>
     </g>
     <g id="text_5">
      <!-- 1.0 -->
      <g transform="translate(321.031844 322.182437)scale(0.1 -0.1)">
       <use xlink:href="#DejaVuSans-31"/>
       <use x="63.623047" xlink:href="#DejaVuSans-2e"/>
       <use x="95.410156" xlink:href="#DejaVuSans-30"/>
      </g>
     </g>
    </g>
    <g id="xtick_6">
     <g id="line2d_6">
      <g>
       <use style="stroke:#000000;stroke-width:0.8;" x="388.170788" xlink:href="#m3b0e35e559" y="307.584"/>
      </g>
     </g>
     <g id="text_6">
      <!-- 1.5 -->
      <g transform="translate(380.219226 322.182437)scale(0.1 -0.1)">
       <use xlink:href="#DejaVuSans-31"/>
       <use x="63.623047" xlink:href="#DejaVuSans-2e"/>
       <use x="95.410156" xlink:href="#DejaVuSans-35"/>
      </g>
     </g>
    </g>
   </g>
   <g id="matplotlib.axis_2">
    <g id="ytick_1">
     <g id="line2d_7">
      <defs>
       <path d="M 0 0 
L -3.5 0 
" id="m6bcccd82c2" style="stroke:#000000;stroke-width:0.8;"/>
      </defs>
      <g>
       <use style="stroke:#000000;stroke-width:0.8;" x="57.6" xlink:href="#m6bcccd82c2" y="302.687908"/>
      </g>
     </g>
     <g id="text_7">
      <!-- −2.0 -->
      <defs>
       <path d="M 19.1875 8.296875 
L 53.609375 8.296875 
L 53.609375 0 
L 7.328125 0 
L 7.328125 8.296875 
Q 12.9375 14.109375 22.625 23.890625 
Q 32.328125 33.6875 34.8125 36.53125 
Q 39.546875 41.84375 41.421875 45.53125 
Q 43.3125 49.21875 43.3125 52.78125 
Q 43.3125 58.59375 39.234375 62.25 
Q 35.15625 65.921875 28.609375 65.921875 
Q 23.96875 65.921875 18.8125 64.3125 
Q 13.671875 62.703125 7.8125 59.421875 
L 7.8125 69.390625 
Q 13.765625 71.78125 18.9375 73 
Q 24.125 74.21875 28.421875 74.21875 
Q 39.75 74.21875 46.484375 68.546875 
Q 53.21875 62.890625 53.21875 53.421875 
Q 53.21875 48.921875 51.53125 44.890625 
Q 49.859375 40.875 45.40625 35.40625 
Q 44.1875 33.984375 37.640625 27.21875 
Q 31.109375 20.453125 19.1875 8.296875 
z
" id="DejaVuSans-32"/>
      </defs>
      <g transform="translate(26.317187 306.487127)scale(0.1 -0.1)">
       <use xlink:href="#DejaVuSans-2212"/>
       <use x="83.789062" xlink:href="#DejaVuSans-32"/>
       <use x="147.412109" xlink:href="#DejaVuSans-2e"/>
       <use x="179.199219" xlink:href="#DejaVuSans-30"/>
      </g>
     </g>
    </g>
    <g id="ytick_2">
     <g id="line2d_8">
      <g>
       <use style="stroke:#000000;stroke-width:0.8;" x="57.6" xlink:href="#m6bcccd82c2" y="261.217271"/>
      </g>
     </g>
     <g id="text_8">
      <!-- −1.5 -->
      <g transform="translate(26.317187 265.016489)scale(0.1 -0.1)">
       <use xlink:href="#DejaVuSans-2212"/>
       <use x="83.789062" xlink:href="#DejaVuSans-31"/>
       <use x="147.412109" xlink:href="#DejaVuSans-2e"/>
       <use x="179.199219" xlink:href="#DejaVuSans-35"/>
      </g>
     </g>
    </g>
    <g id="ytick_3">
     <g id="line2d_9">
      <g>
       <use style="stroke:#000000;stroke-width:0.8;" x="57.6" xlink:href="#m6bcccd82c2" y="219.746633"/>
      </g>
     </g>
     <g id="text_9">
      <!-- −1.0 -->
      <g transform="translate(26.317187 223.545852)scale(0.1 -0.1)">
       <use xlink:href="#DejaVuSans-2212"/>
       <use x="83.789062" xlink:href="#DejaVuSans-31"/>
       <use x="147.412109" xlink:href="#DejaVuSans-2e"/>
       <use x="179.199219" xlink:href="#DejaVuSans-30"/>
      </g>
     </g>
    </g>
    <g id="ytick_4">
     <g id="line2d_10">
      <g>
       <use style="stroke:#000000;stroke-width:0.8;" x="57.6" xlink:href="#m6bcccd82c2" y="178.275995"/>
      </g>
     </g>
     <g id="text_10">
      <!-- −0.5 -->
      <g transform="translate(26.317187 182.075214)scale(0.1 -0.1)">
       <use xlink:href="#DejaVuSans-2212"/>
       <use x="83.789062" xlink:href="#DejaVuSans-30"/>
       <use x="147.412109" xlink:href="#DejaVuSans-2e"/>
       <use x="179.199219" xlink:href="#DejaVuSans-35"/>
      </g>
     </g>
    </g>
    <g id="ytick_5">
     <g id="line2d_11">
      <g>
       <use style="stroke:#000000;stroke-width:0.8;" x="57.6" xlink:href="#m6bcccd82c2" y="136.805357"/>
      </g>
     </g>
     <g id="text_11">
      <!-- 0.0 -->
      <g transform="translate(34.696875 140.604576)scale(0.1 -0.1)">
       <use xlink:href="#DejaVuSans-30"/>
       <use x="63.623047" xlink:href="#DejaVuSans-2e"/>
       <use x="95.410156" xlink:href="#DejaVuSans-30"/>
      </g>
     </g>
    </g>
    <g id="ytick_6">
     <g id="line2d_12">
      <g>
       <use style="stroke:#000000;stroke-width:0.8;" x="57.6" xlink:href="#m6bcccd82c2" y="95.334719"/>
      </g>
     </g>
     <g id="text_12">
      <!-- 0.5 -->
      <g transform="translate(34.696875 99.133938)scale(0.1 -0.1)">
       <use xlink:href="#DejaVuSans-30"/>
       <use x="63.623047" xlink:href="#DejaVuSans-2e"/>
       <use x="95.410156" xlink:href="#DejaVuSans-35"/>
      </g>
     </g>
    </g>
    <g id="ytick_7">
     <g id="line2d_13">
      <g>
       <use style="stroke:#000000;stroke-width:0.8;" x="57.6" xlink:href="#m6bcccd82c2" y="53.864082"/>
      </g>
     </g>
     <g id="text_13">
      <!-- 1.0 -->
      <g transform="translate(34.696875 57.6633)scale(0.1 -0.1)">
       <use xlink:href="#DejaVuSans-31"/>
       <use x="63.623047" xlink:href="#DejaVuSans-2e"/>
       <use x="95.410156" xlink:href="#DejaVuSans-30"/>
      </g>
     </g>
    </g>
   </g>
   <g id="patch_3">
    <path d="M 57.6 307.584 
L 57.6 41.472 
" style="fill:none;stroke:#000000;stroke-linecap:square;stroke-linejoin:miter;stroke-width:0.8;"/>
   </g>
   <g id="patch_4">
    <path d="M 414.72 307.584 
L 414.72 41.472 
" style="fill:none;stroke:#000000;stroke-linecap:square;stroke-linejoin:miter;stroke-width:0.8;"/>
   </g>
   <g id="patch_5">
    <path d="M 57.6 307.584 
L 414.72 307.584 
" style="fill:none;stroke:#000000;stroke-linecap:square;stroke-linejoin:miter;stroke-width:0.8;"/>
   </g>
   <g id="patch_6">
    <path d="M 57.6 41.472 
L 414.72 41.472 
" style="fill:none;stroke:#000000;stroke-linecap:square;stroke-linejoin:miter;stroke-width:0.8;"/>
   </g>
  </g>
 </g>
 <defs>
  <clipPath id="pe150b8db30">
   <rect height="266.112" width="357.12" x="57.6" y="41.472"/>
  </clipPath>
 </defs>
</svg>
